<svg width="24" height="24" viewBox="0 0 24 24" fill="none" xmlns="http://www.w3.org/2000/svg">
<path d="M4.87501 10.8765V17.6256C4.87452 17.7134 4.90489 17.7986 4.96082 17.8664C5.98755 19.0985 7.72922 19.8488 9.21287 20.3274C10.6965 20.806 11.9424 20.9973 11.9424 20.9973C11.9809 21.0033 12.0201 21.0033 12.0586 20.9973C12.0586 20.9973 13.3045 20.806 14.7882 20.3274C16.2718 19.8488 18.0107 19.0985 19.0374 17.8664C19.0944 17.799 19.1257 17.7137 19.126 17.6256V10.8765H18.3758V17.4345C17.5128 18.4185 15.9496 19.1644 14.5584 19.6132C13.1673 20.0619 12.0517 20.2336 12.0005 20.2416C11.9493 20.2336 10.8337 20.0619 9.44264 19.6132C8.05139 19.1644 6.48825 18.4185 5.62521 17.4345V10.8765H4.87501Z" fill="url(#paint0_linear_334_2964)"/>
<path d="M11.9479 3.00356C6.52459 3.77833 1.2569 8.34077 1.2569 8.34077C1.07792 8.49424 1.08325 8.77284 1.26798 8.91934C1.26798 8.91934 6.54191 13.0995 11.9479 13.8718C11.9828 13.8767 12.0182 13.8767 12.0531 13.8718C17.4591 13.0995 22.7331 8.91934 22.7331 8.91934C22.9178 8.77283 22.9231 8.49423 22.7441 8.34077C22.7441 8.34077 17.4765 3.77833 12.0531 3.00356L12.0003 3.00006L11.9479 3.00356ZM12.0005 3.76207C16.7319 4.46213 21.2262 8.10863 21.8362 8.61206C21.2122 9.08469 16.7394 12.4176 12.0005 13.116C7.26167 12.4176 2.78884 9.08469 2.16489 8.61206C2.77487 8.10863 7.26915 4.46213 12.0005 3.76207Z" fill="url(#paint1_linear_334_2964)"/>
<path d="M11.984 7.49922C11.5146 7.50292 11.4764 8.19099 11.9424 8.24665L21.0002 9.69445V17.249H21.7504V9.05498L12.0587 7.50475C12.034 7.50042 12.009 7.49857 11.984 7.49922Z" fill="url(#paint2_linear_334_2964)"/>
<path d="M20.6264 16.8753C20.5396 16.8752 20.4555 16.9053 20.3883 16.9603C20.3212 17.0153 20.2752 17.0919 20.2583 17.177L19.8818 19.0512C19.8709 19.1056 19.8723 19.1618 19.8857 19.2156C19.8992 19.2695 19.9245 19.3197 19.9597 19.3626C19.9949 19.4055 20.0392 19.44 20.0894 19.4637C20.1396 19.4874 20.1944 19.4997 20.2499 19.4996H22.5005C22.5561 19.4997 22.6109 19.4874 22.6611 19.4637C22.7113 19.44 22.7556 19.4055 22.7908 19.3626C22.826 19.3197 22.8513 19.2695 22.8648 19.2156C22.8782 19.1618 22.8796 19.1056 22.8687 19.0512L22.4922 17.177C22.4754 17.0924 22.4298 17.0161 22.3632 16.9611C22.2967 16.9062 22.2132 16.8759 22.1268 16.8753H20.6264ZM20.9337 17.6255H21.8196L22.0438 18.7494H20.7095L20.9337 17.6255Z" fill="url(#paint3_linear_334_2964)"/>
<defs>
<linearGradient id="paint0_linear_334_2964" x1="12.0005" y1="10.8765" x2="12.0005" y2="21.0018" gradientUnits="userSpaceOnUse">
<stop stop-color="#F08E6E"/>
<stop offset="1" stop-color="#8940C2"/>
</linearGradient>
<linearGradient id="paint1_linear_334_2964" x1="12.0005" y1="3.00006" x2="12.0005" y2="13.8755" gradientUnits="userSpaceOnUse">
<stop stop-color="#F08E6E"/>
<stop offset="1" stop-color="#8940C2"/>
</linearGradient>
<linearGradient id="paint2_linear_334_2964" x1="16.6811" y1="7.49908" x2="16.6811" y2="17.249" gradientUnits="userSpaceOnUse">
<stop stop-color="#F08E6E"/>
<stop offset="1" stop-color="#8940C2"/>
</linearGradient>
<linearGradient id="paint3_linear_334_2964" x1="21.3752" y1="16.8753" x2="21.3752" y2="19.4996" gradientUnits="userSpaceOnUse">
<stop stop-color="#F08E6E"/>
<stop offset="1" stop-color="#8940C2"/>
</linearGradient>
</defs>
</svg>
