<svg width="28" height="12" viewBox="0 0 28 12" fill="none" xmlns="http://www.w3.org/2000/svg">
<path d="M27.5303 6.53033C27.8232 6.23744 27.8232 5.76256 27.5303 5.46967L22.7574 0.696699C22.4645 0.403806 21.9896 0.403806 21.6967 0.696699C21.4038 0.989593 21.4038 1.46447 21.6967 1.75736L25.9393 6L21.6967 10.2426C21.4038 10.5355 21.4038 11.0104 21.6967 11.3033C21.9896 11.5962 22.4645 11.5962 22.7574 11.3033L27.5303 6.53033ZM0.469669 5.46967C0.176775 5.76256 0.176775 6.23744 0.469669 6.53033L5.24264 11.3033C5.53553 11.5962 6.01041 11.5962 6.3033 11.3033C6.59619 11.0104 6.59619 10.5355 6.3033 10.2426L2.06066 6L6.3033 1.75736C6.59619 1.46447 6.59619 0.989593 6.3033 0.696699C6.01041 0.403806 5.53553 0.403806 5.24264 0.696699L0.469669 5.46967ZM27 5.25L0.999998 5.25V6.75L27 6.75V5.25Z" fill="url(#paint0_linear_334_3039)"/>
<defs>
<linearGradient id="paint0_linear_334_3039" x1="14" y1="6" x2="14" y2="5" gradientUnits="userSpaceOnUse">
<stop stop-color="#DD8663"/>
<stop offset="1" stop-color="#9247BC"/>
</linearGradient>
</defs>
</svg>
