<svg width="18" height="27" viewBox="0 0 18 27" fill="none" xmlns="http://www.w3.org/2000/svg">
<path d="M0.47617 3.66344e-06C0.111255 -0.00139876 -0.118094 0.400129 0.0635996 0.722301L5.20963 9.77315V13.0155C5.20976 13.0281 5.21038 13.0406 5.21147 13.0532C3.04566 14.3665 1.58807 16.7551 1.58807 19.4898C1.58807 23.6336 4.92361 27 9.02081 27C13.118 27 16.4535 23.6336 16.4535 19.4898C16.4536 16.7378 14.978 14.3355 12.7894 13.0277C12.7895 13.0236 12.7895 13.0196 12.7894 13.0155V9.79105L17.9364 0.722301C18.1181 0.400129 17.8887 -0.00139876 17.5238 3.66344e-06H11.8422C11.6761 0.000439369 11.5224 0.0894149 11.437 0.234491L9.00046 4.36675L6.56297 0.234491C6.47747 0.0891276 6.3233 0.000108991 6.15687 3.66344e-06H0.47617ZM1.29761 0.964323H5.88769L8.44821 5.30376L6.06437 9.34656L1.29761 0.964323ZM12.1077 0.964323H16.7052L11.7645 9.67521L6.98941 9.6479C8.69785 6.75088 10.4004 3.86116 12.1077 0.964323ZM6.15687 10.6094L11.8422 10.6386V12.5456C10.9713 12.1831 10.0194 11.9796 9.02081 11.9796C8.00621 11.9796 7.039 12.188 6.15687 12.5616V10.6094ZM9.02081 12.9449C12.6102 12.9449 15.5063 15.8714 15.5063 19.4898C15.5063 23.1082 12.6102 26.0357 9.02081 26.0357C5.43142 26.0357 2.53532 23.1082 2.53532 19.4898C2.53532 15.8714 5.43142 12.9449 9.02081 12.9449ZM8.99769 14.4742C8.81055 14.4794 8.64389 14.5956 8.57217 14.7709L7.43251 17.5442L4.47514 17.7919C4.05732 17.8285 3.88823 18.3562 4.20503 18.6347L6.45659 20.5944L5.7739 23.5185C5.67486 23.9349 6.12166 24.265 6.48249 24.0421L9.01341 22.475L11.5499 24.0392C11.9107 24.2622 12.3575 23.9321 12.2585 23.5156L11.5702 20.5916L13.8218 18.6319C14.144 18.3529 13.9715 17.8183 13.5489 17.7862L10.5925 17.5442L9.45003 14.7709C9.37458 14.5864 9.19459 14.4684 8.99769 14.4742ZM9.01063 16.207L9.82745 18.1846C9.89613 18.3508 10.0507 18.4642 10.228 18.4784L12.338 18.6526L10.7331 20.053C10.5978 20.1701 10.5386 20.354 10.5795 20.5295L11.0698 22.6182L9.25947 21.5023C9.10823 21.4093 8.91858 21.4093 8.76735 21.5023L6.95981 22.6182L7.44731 20.5295C7.48824 20.354 7.42897 20.1701 7.29375 20.053L5.68695 18.6554L7.79698 18.4812C7.97425 18.467 8.12884 18.3537 8.19752 18.1874L9.01063 16.207Z" fill="url(#paint0_linear_334_3021)"/>
<defs>
<linearGradient id="paint0_linear_334_3021" x1="9" y1="0" x2="9" y2="27" gradientUnits="userSpaceOnUse">
<stop stop-color="#F99566"/>
<stop offset="1" stop-color="#853CC5"/>
</linearGradient>
</defs>
</svg>
