<svg width="38" height="38" viewBox="0 0 38 38" fill="none" xmlns="http://www.w3.org/2000/svg">
<path d="M0 26.7868C2.19873 25.9394 4.05111 26.493 6.62402 27.2661C7.29508 27.4671 8.0249 27.6867 8.68359 27.8599C9.27116 28.0145 10.1742 27.6805 11.1204 27.331C12.3018 26.895 13.5326 26.4435 15.0076 26.4806C16.1209 26.5085 17.0579 27.0187 18.0042 27.5352C18.598 27.8599 19.201 28.1877 19.535 28.2C19.9185 28.2124 20.4875 27.8784 21.0565 27.5444C21.9842 26.9971 22.9119 26.4497 24.2015 26.4064C25.5869 26.36 26.66 26.8363 27.7238 27.3094C28.3299 27.5784 28.9329 27.8475 29.437 27.8846C29.9132 27.9217 30.5503 27.5135 31.1688 27.1208C32.0285 26.5703 32.8727 26.0322 33.9829 25.9085C35.3034 25.7632 36.7445 26.3848 37.9691 26.9105L38 26.9259C38 28.1784 38 29.4339 38 30.6864C37.7371 30.609 37.465 30.5039 37.1836 30.3895C36.9888 30.3091 36.7878 30.2225 36.5837 30.1359C35.7456 29.7772 34.7591 29.3504 34.3664 29.3937C34.0509 29.4277 33.5531 29.7463 33.0459 30.071C32.8604 30.1885 32.6717 30.3091 32.4831 30.4266C31.543 30.9987 30.5225 31.4873 29.1772 31.3852C28.0825 31.3018 27.1919 30.9059 26.2982 30.507L26.2209 30.473C25.5529 30.1761 24.8818 29.8885 24.3128 29.9071C23.9634 29.9194 23.4624 30.2008 22.9552 30.4977L22.8377 30.5658C21.8327 31.1595 20.8245 31.7532 19.4113 31.7007C18.2578 31.6574 17.2868 31.1317 16.3312 30.609L16.2106 30.5441C15.6787 30.2534 15.1685 29.9875 14.9242 29.9813C14.1758 29.9627 13.313 30.2627 12.4749 30.5719L12.3296 30.6245C10.8638 31.1657 9.46598 31.679 7.80843 31.2461C6.91781 31.0142 6.24365 30.8101 5.62516 30.6245L5.60661 30.6183C3.36458 29.9442 1.90186 29.5112 0.148437 30.6585C0.102051 30.6894 0.0525716 30.7204 0.00309245 30.7544V30.6585V26.7868H0ZM27.1857 11.5781L31.5646 10.9132C34.2891 10.505 33.4696 5.60042 29.9782 6.3859L20.0483 8.0249C18.9722 8.20117 17.126 8.33724 16.3219 9.05468C15.8612 9.46598 15.6694 10.0381 15.7746 10.7524C15.923 11.7637 16.7673 13.0316 17.2744 13.95L18.5021 16.158C19.3958 17.763 19.8752 17.9176 18.2207 18.8052L6.94255 24.854L7.76823 25.0983L10.2453 25.1354C10.5267 25.0426 10.8205 24.9344 11.1204 24.8231C12.3018 24.387 13.5326 23.9355 15.0076 23.9727C16.1209 24.0005 17.0579 24.5107 18.0042 25.0272L18.431 25.256L20.6143 25.29C20.7596 25.2096 20.908 25.123 21.0534 25.0365C21.9811 24.4891 22.9089 23.9417 24.1984 23.8984C25.5838 23.852 26.6569 24.3283 27.7207 24.8014C28.3268 25.0705 28.9298 25.3395 29.4339 25.3766C29.5483 25.3859 29.672 25.3673 29.8019 25.3333L24.0562 15.1159C23.5675 14.2469 22.6893 13.1491 22.8161 12.4873C22.8594 12.2646 23.1562 12.175 23.5181 12.1193C24.7427 11.943 25.9611 11.7637 27.1857 11.5781ZM31.9172 13.8542C34.32 13.8542 36.2682 15.8024 36.2682 18.2052C36.2682 20.6081 34.32 22.5563 31.9172 22.5563C29.5143 22.5563 27.5661 20.6081 27.5661 18.2052C27.5692 15.7993 29.5143 13.8542 31.9172 13.8542Z" fill="white"/>
</svg>
