<svg width="23" height="23" viewBox="0 0 23 23" fill="none" xmlns="http://www.w3.org/2000/svg">
<g clip-path="url(#clip0_335_247)">
<path d="M0.479111 23.0019C0.401178 23.0023 0.324337 22.9836 0.255302 22.9474C0.186267 22.9112 0.127138 22.8587 0.0830829 22.7944C0.0390275 22.7301 0.0113858 22.656 0.002573 22.5786C-0.00623979 22.5012 0.00404449 22.4228 0.0325272 22.3502L1.8179 17.7071C0.626949 15.8569 -0.00433004 13.7022 -5.60925e-05 11.5019C-5.60925e-05 5.1606 5.15865 0.00189209 11.4999 0.00189209C17.8412 0.00189209 22.9999 5.1606 22.9999 11.5019C22.9999 17.8432 17.8412 23.0019 11.4999 23.0019C9.34944 23.0019 7.25549 22.402 5.43082 21.2635L0.640111 22.9741C0.588495 22.9928 0.533994 23.0022 0.479111 23.0019ZM5.49119 20.2543C5.58319 20.2543 5.67424 20.2802 5.75282 20.332C7.46097 21.4501 9.45837 22.0453 11.4999 22.0445C17.3122 22.0445 22.0416 17.3151 22.0416 11.5028C22.0416 5.69056 17.3122 0.961184 11.4999 0.961184C5.68765 0.961184 0.958277 5.69056 0.958277 11.5028C0.958277 13.6093 1.57736 15.6428 2.75036 17.3832C2.83757 17.5126 2.85578 17.6774 2.80019 17.8231L1.30136 21.7206L5.33019 20.2821C5.38191 20.2639 5.43634 20.2545 5.49119 20.2543Z" fill="url(#paint0_linear_335_247)"/>
<path d="M14.375 17.2519C12.8695 17.2519 9.97913 15.4512 8.76492 14.237C7.55071 13.0218 5.75 10.1315 5.75 8.62689C5.75 7.07823 7.06771 5.75189 8.14583 5.75189H9.10417C9.19354 5.75198 9.28112 5.77707 9.35698 5.82432C9.43285 5.87157 9.49399 5.93909 9.5335 6.01927C9.53446 6.02023 10.1114 7.19323 10.489 7.92923C10.9145 8.7601 10.1143 9.7376 9.65904 10.1986C9.82196 10.6164 10.2024 11.4444 10.88 12.1219C11.5575 12.7995 12.3855 13.1809 12.8033 13.3429C13.2633 12.8867 14.2408 12.0855 15.0727 12.5129C15.8087 12.8915 16.9807 13.4674 16.9817 13.4674C17.1465 13.5489 17.25 13.7156 17.25 13.8977V14.8561C17.25 15.9351 15.9227 17.2519 14.375 17.2519ZM8.14583 6.71023C7.60438 6.71023 6.70833 7.60627 6.70833 8.62689C6.70833 9.7376 8.27425 12.3893 9.44342 13.5585C10.7209 14.8359 13.3477 16.2936 14.375 16.2936C15.3956 16.2936 16.2917 15.3975 16.2917 14.8561V14.1958C15.7374 13.9231 15.185 13.6465 14.6347 13.3658C14.4105 13.2451 13.7291 13.7252 13.2969 14.2149C13.2367 14.2829 13.1584 14.3323 13.0712 14.3576C12.9841 14.3829 12.8915 14.3829 12.8043 14.3577C12.7439 14.3405 11.3246 13.9207 10.2024 12.7985C9.08021 11.6763 8.66142 10.257 8.64321 10.1966C8.61801 10.1094 8.61805 10.0169 8.64332 9.92969C8.6686 9.8425 8.71807 9.76427 8.786 9.70406C9.27475 9.27185 9.752 8.59335 9.63508 8.36527C9.36771 7.84489 9.00067 7.10314 8.80708 6.71023H8.14583Z" fill="url(#paint1_linear_335_247)"/>
</g>
<defs>
<linearGradient id="paint0_linear_335_247" x1="11.4997" y1="0.00189209" x2="11.4997" y2="23.0019" gradientUnits="userSpaceOnUse">
<stop stop-color="#F89466"/>
<stop offset="1" stop-color="#873EC3"/>
</linearGradient>
<linearGradient id="paint1_linear_335_247" x1="11.5" y1="5.75189" x2="11.5" y2="17.2519" gradientUnits="userSpaceOnUse">
<stop stop-color="#F89466"/>
<stop offset="1" stop-color="#873EC3"/>
</linearGradient>
<clipPath id="clip0_335_247">
<rect width="23" height="23" fill="white"/>
</clipPath>
</defs>
</svg>
