<svg width="32" height="27" viewBox="0 0 32 27" fill="none" xmlns="http://www.w3.org/2000/svg">
<path d="M0.052872 26.7281C0.0917033 26.8016 0.149853 26.8631 0.221062 26.9061C0.29227 26.949 0.37384 26.9717 0.456991 26.9717H6.31489C6.43613 26.9717 6.55241 26.9236 6.63814 26.8378C6.72387 26.7521 6.77203 26.6358 6.77203 26.5146V24.387H25.228V26.5146C25.228 26.6358 25.2762 26.7521 25.3619 26.8378C25.4476 26.9236 25.5639 26.9717 25.6852 26.9717H31.5431C31.6262 26.9717 31.7077 26.949 31.7789 26.9061C31.8501 26.8632 31.9082 26.8017 31.947 26.7282C31.9859 26.6547 32.0039 26.572 31.9993 26.489C31.9946 26.4061 31.9675 26.3259 31.9207 26.2572L29.8836 23.2679L31.9207 20.2791C31.9675 20.2104 31.9946 20.1303 31.9993 20.0473C32.0039 19.9643 31.9859 19.8816 31.947 19.8081C31.9082 19.7346 31.8501 19.6731 31.7789 19.6302C31.7077 19.5873 31.6262 19.5646 31.5431 19.5646H27.346V17.2331C27.346 17.1119 27.2978 16.9956 27.2121 16.9099C27.1264 16.8241 27.0101 16.776 26.8888 16.776H26.6795C27.4076 15.2135 27.7856 13.5109 27.7871 11.7871C27.7871 5.28737 22.4993 0 16 0C9.50075 0 4.21292 5.28737 4.21292 11.7871C4.21325 13.5111 4.59151 15.214 5.32105 16.776H5.16242C5.04117 16.776 4.9249 16.8241 4.83916 16.9099C4.75343 16.9956 4.70527 17.1119 4.70527 17.2331V19.5746C4.6879 19.5728 4.67235 19.5646 4.65407 19.5646H0.456991C0.373877 19.5646 0.292345 19.5873 0.221166 19.6302C0.149988 19.6731 0.0918548 19.7346 0.0530207 19.8081C0.0141865 19.8816 -0.00387929 19.9643 0.000766343 20.0473C0.00541198 20.1303 0.0325931 20.2104 0.0793864 20.2791L2.11644 23.2679L0.0793864 26.2572C0.0325906 26.3259 0.00539488 26.406 0.000723182 26.489C-0.00394852 26.5719 0.0140806 26.6546 0.052872 26.7281ZM5.95008 17.6903C5.99079 17.7021 6.03294 17.7083 6.07534 17.7085C6.11648 17.7085 6.15763 17.7017 6.19831 17.6903H26.4317V23.4732H25.6861L25.6852 23.4727H5.61956V17.6903H5.95008ZM9.66898 16.776C8.54048 15.3587 7.92928 13.5988 7.93639 11.7871C7.93639 7.34088 11.5538 3.72301 16 3.72301C20.4462 3.72301 24.0641 7.34088 24.0641 11.7871C24.0711 13.5988 23.4597 15.3587 22.3311 16.776H9.66898ZM30.6781 20.4789L28.9524 23.0105C28.9006 23.0865 28.8729 23.1762 28.8729 23.2682C28.8729 23.3601 28.9006 23.4498 28.9524 23.5258L30.6781 26.0574H26.1423V24.387H26.8888C26.9489 24.387 27.0083 24.3752 27.0638 24.3522C27.1192 24.3292 27.1696 24.2956 27.2121 24.2531C27.2545 24.2107 27.2882 24.1603 27.3112 24.1048C27.3342 24.0494 27.346 23.9899 27.346 23.9299V20.4784L30.6781 20.4789ZM5.12722 11.7871C5.12722 5.79161 10.005 0.914296 16 0.914296C21.9951 0.914296 26.8728 5.79207 26.8728 11.7871C26.8728 13.5229 26.4532 15.2445 25.6614 16.776H23.4634C24.4495 15.2989 24.9764 13.5631 24.978 11.7871C24.978 6.83619 20.9505 2.80872 16 2.80872C11.0496 2.80872 7.02164 6.83619 7.02164 11.7871C7.02164 13.565 7.55559 15.3094 8.53663 16.776H6.34506C5.54627 15.2342 5.12835 13.5235 5.12722 11.7871ZM3.04765 23.5258C3.09944 23.4498 3.12714 23.3601 3.12714 23.2682C3.12714 23.1762 3.09944 23.0865 3.04765 23.0105L1.32192 20.4789H4.65452C4.67235 20.4789 4.6879 20.4706 4.70527 20.4683V23.9299C4.70527 24.0511 4.75343 24.1674 4.83916 24.2531C4.9249 24.3389 5.04117 24.387 5.16242 24.387H5.85774V26.0574H1.32192L3.04765 23.5258Z" fill="url(#paint0_linear_334_3025)"/>
<path d="M17.7287 6.086H15.027L14.8898 6.26063C14.3668 6.92532 13.2916 7.19001 13.2665 7.19595L12.9136 7.27824V9.19643H14.4766V12.0271L13.1444 12.7782V14.5716H19.0874V12.7128L17.7287 11.9905V6.086ZM18.1726 13.2619V13.6573H14.0583V13.3121L15.3909 12.561V8.28214H13.8274V7.98133C14.2475 7.83779 14.952 7.53516 15.4576 7.00029H16.8144V12.5396L18.1726 13.2619Z" fill="url(#paint1_linear_334_3025)"/>
<defs>
<linearGradient id="paint0_linear_334_3025" x1="16" y1="0" x2="16" y2="26.9717" gradientUnits="userSpaceOnUse">
<stop stop-color="#F89468"/>
<stop offset="1" stop-color="#883FC3"/>
</linearGradient>
<linearGradient id="paint1_linear_334_3025" x1="16.0005" y1="6.086" x2="16.0005" y2="14.5716" gradientUnits="userSpaceOnUse">
<stop stop-color="#F89468"/>
<stop offset="1" stop-color="#883FC3"/>
</linearGradient>
</defs>
</svg>
