<svg width="18" height="17" viewBox="0 0 18 17" fill="none" xmlns="http://www.w3.org/2000/svg">
<path d="M15.2715 11.6092C15.6454 11.6967 16.0351 11.6184 16.3585 11.3908C16.682 11.1632 16.914 10.804 17.0058 10.3889V10.3878C17.0524 10.1772 17.0614 9.95828 17.0324 9.74369C17.0034 9.5291 16.9369 9.32303 16.8367 9.13724C16.7365 8.95146 16.6046 8.78961 16.4485 8.66096C16.2923 8.5323 16.1151 8.43936 15.9269 8.38745L11.7322 7.22458L7.00591 0.230932L4.96724 0L7.65399 6.76272L3.57574 6.30188L1.45641 2.37193L0.191406 2.6901L1.32807 8.35564L15.2715 11.6092ZM0.749656 14.3845H17.2497V16.4372H0.749656V14.3845Z" fill="#111111"/>
</svg>
