<svg width="20" height="20" viewBox="0 0 20 20" fill="none" xmlns="http://www.w3.org/2000/svg">
<path d="M2.25781 14.5889C1.13998 12.703 0.748976 10.4738 1.15821 8.32003C1.56743 6.16622 2.74875 4.23585 4.48039 2.8913C6.21202 1.54676 8.37488 0.880508 10.5629 1.01763C12.751 1.15476 14.8137 2.08583 16.364 3.63605C17.9142 5.18626 18.8452 7.24902 18.9824 9.43707C19.1195 11.6251 18.4532 13.788 17.1087 15.5196C15.7642 17.2513 13.8338 18.4326 11.68 18.8418C9.52616 19.251 7.29704 18.86 5.41109 17.7422L2.29535 18.6244C2.1677 18.6617 2.03235 18.664 1.9035 18.631C1.77464 18.5981 1.65703 18.5311 1.56298 18.437C1.46894 18.343 1.40192 18.2254 1.36896 18.0965C1.336 17.9677 1.33831 17.8323 1.37564 17.7047L2.25781 14.5889Z" stroke="#787878" stroke-width="1.66727" stroke-linecap="round" stroke-linejoin="round"/>
</svg>
