<svg width="13" height="10" viewBox="0 0 13 10" fill="none" xmlns="http://www.w3.org/2000/svg">
<path d="M4.75001 9.76076C4.63889 9.7604 4.52902 9.7372 4.42725 9.69258C4.32547 9.64797 4.23396 9.5829 4.15839 9.50142L0.219678 5.31147C0.072444 5.15457 -0.00642895 4.9456 0.000410417 4.73054C0.00724979 4.51548 0.0992413 4.31194 0.256148 4.16471C0.413055 4.01747 0.622024 3.9386 0.837084 3.94544C1.05214 3.95228 1.25568 4.04427 1.40291 4.20118L4.74191 7.75899L11.5577 0.302986C11.6268 0.216855 11.7129 0.145773 11.8105 0.094107C11.9082 0.0424408 12.0153 0.0112807 12.1254 0.00254066C12.2356 -0.00619936 12.3463 0.00766529 12.4509 0.0432828C12.5554 0.0789004 12.6516 0.135519 12.7335 0.209661C12.8154 0.283803 12.8813 0.373903 12.9271 0.474427C12.9729 0.574952 12.9976 0.683778 12.9998 0.794222C13.002 0.904666 12.9817 1.0144 12.9399 1.11667C12.8982 1.21895 12.836 1.31161 12.7571 1.38897L5.34973 9.49332C5.27488 9.57627 5.18369 9.64285 5.08187 9.68887C4.98006 9.7349 4.86984 9.75937 4.75811 9.76076H4.75001Z" fill="white"/>
</svg>
