<svg width="10" height="10" viewBox="0 0 10 10" fill="none" xmlns="http://www.w3.org/2000/svg">
<path fill-rule="evenodd" clip-rule="evenodd" d="M1.05725 9.81878L9.81879 1.05725C10.0604 0.815625 10.0604 0.422836 9.81879 0.181216C9.57716 -0.0604052 9.18438 -0.0604052 8.94276 0.181216L0.181216 8.94275C-0.0604052 9.18438 -0.0604052 9.57716 0.181216 9.81878C0.422836 10.0604 0.815625 10.0604 1.05725 9.81878Z" fill="white"/>
<path fill-rule="evenodd" clip-rule="evenodd" d="M9.81879 8.94275L1.05725 0.181216C0.815625 -0.0604052 0.422836 -0.0604052 0.181216 0.181216C-0.0604052 0.422836 -0.0604052 0.815625 0.181216 1.05725L8.94276 9.81878C9.18438 10.0604 9.57716 10.0604 9.81879 9.81878C10.0604 9.57716 10.0604 9.18438 9.81879 8.94275Z" fill="white"/>
</svg>
