<svg width="15" height="17" viewBox="0 0 15 17" fill="none" xmlns="http://www.w3.org/2000/svg">
<path d="M5.9269 7.11848C5.22281 7.11916 4.53433 6.91099 3.94856 6.52031C3.3628 6.12963 2.90606 5.57399 2.63615 4.92368C2.36623 4.27338 2.29525 3.55763 2.4322 2.86698C2.56914 2.17632 2.90786 1.54181 3.40549 1.0437C3.90312 0.545583 4.53731 0.206256 5.22783 0.0686434C5.91835 -0.0689695 6.63417 0.00131406 7.28473 0.270603C7.9353 0.539892 8.49138 0.996086 8.88262 1.58147C9.27387 2.16686 9.4827 2.85514 9.4827 3.55924C9.48179 4.50233 9.10699 5.40659 8.44044 6.07378C7.77389 6.74097 6.87 7.11666 5.9269 7.11848ZM5.9269 1.37899C5.49472 1.37831 5.07205 1.50589 4.71242 1.74557C4.35279 1.98526 4.07237 2.32627 3.90666 2.72543C3.74096 3.12458 3.69742 3.56393 3.78157 3.98785C3.86572 4.41176 4.07377 4.80117 4.37937 5.10677C4.68497 5.41237 5.07438 5.62042 5.49829 5.70457C5.92221 5.78872 6.36156 5.74518 6.76072 5.57948C7.15987 5.41378 7.50088 5.13335 7.74057 4.77372C7.98025 4.41409 8.10783 3.99142 8.10715 3.55924C8.10624 2.98128 7.87625 2.42725 7.46757 2.01857C7.05889 1.6099 6.50486 1.3799 5.9269 1.37899ZM5.9269 16.9158C3.90554 16.9218 1.93314 16.294 0.287146 15.1207C0.207262 15.0639 0.140465 14.9906 0.0912364 14.9057C0.042008 14.8209 0.0114866 14.7266 0.00171956 14.629V14.347C-0.0173302 13.5557 0.122065 12.7687 0.411703 12.0321C0.701341 11.2955 1.13537 10.6243 1.68826 10.0579C2.24115 9.49156 2.90173 9.0415 3.63113 8.73422C4.36053 8.42693 5.14402 8.26863 5.9355 8.26863C6.72699 8.26863 7.51048 8.42693 8.23988 8.73422C8.96928 9.0415 9.62985 9.49156 10.1827 10.0579C10.7356 10.6243 11.1697 11.2955 11.4593 12.0321C11.7489 12.7687 11.8883 13.5557 11.8693 14.347C11.8744 14.4398 11.8744 14.5328 11.8693 14.6255C11.86 14.7237 11.8297 14.8188 11.7804 14.9042C11.7312 14.9896 11.6642 15.0635 11.5839 15.1207C11.35 15.2858 11.1059 15.444 10.8617 15.5884C10.7836 15.6423 10.6952 15.6793 10.6021 15.6974C10.509 15.7154 10.4132 15.714 10.3206 15.6932C10.2281 15.6724 10.1408 15.6327 10.0644 15.5766C9.98793 15.5205 9.9239 15.4491 9.87634 15.3671C9.82877 15.285 9.79869 15.194 9.78798 15.0998C9.77727 15.0056 9.78617 14.9101 9.81412 14.8195C9.84206 14.7289 9.88845 14.645 9.95037 14.5731C10.0123 14.5013 10.0884 14.443 10.1739 14.402C10.2874 14.3332 10.4009 14.2645 10.5178 14.1922C10.4852 13.0059 9.99102 11.8791 9.14039 11.0515C8.28976 10.2239 7.1498 9.7609 5.96301 9.7609C4.77622 9.7609 3.63627 10.2239 2.78563 11.0515C1.935 11.8791 1.44082 13.0059 1.40822 14.1922C2.76318 15.0762 4.34696 15.5447 5.96473 15.5403C6.38714 15.5405 6.80898 15.5095 7.2268 15.4474C7.40921 15.4196 7.5952 15.4654 7.74385 15.5747C7.8925 15.684 7.99164 15.8479 8.01946 16.0303C8.04728 16.2127 8.00149 16.3987 7.89218 16.5474C7.78287 16.696 7.61898 16.7952 7.43657 16.823C6.93658 16.8937 6.43179 16.9247 5.9269 16.9158ZM13.8673 7.95756C13.6849 7.95756 13.5099 7.8851 13.3809 7.75612C13.252 7.62713 13.1795 7.4522 13.1795 7.26979V2.69608C13.1795 2.51367 13.252 2.33873 13.3809 2.20975C13.5099 2.08077 13.6849 2.0083 13.8673 2.0083C14.0497 2.0083 14.2246 2.08077 14.3536 2.20975C14.4826 2.33873 14.555 2.51367 14.555 2.69608V7.26979C14.555 7.4522 14.4826 7.62713 14.3536 7.75612C14.2246 7.8851 14.0497 7.95756 13.8673 7.95756Z" fill="white"/>
</svg>
