<svg width="22" height="26" viewBox="0 0 22 26" fill="none" xmlns="http://www.w3.org/2000/svg">
<path d="M8.04164 17.6148C10.0212 17.4639 12.0098 17.4639 13.9894 17.6148C15.0673 17.6742 16.1402 17.8017 17.2012 17.9964C19.497 18.4359 20.9958 19.153 21.6382 20.3096C22.1206 21.2123 22.1206 22.2868 21.6382 23.1895C20.9958 24.3461 19.5565 25.1094 17.1774 25.5027C16.1172 25.7048 15.0441 25.8362 13.9656 25.8959C12.9664 26 11.9671 26 10.956 26H9.13602C8.75537 25.9537 8.38661 25.9306 8.02974 25.9306C6.95115 25.8781 5.8778 25.7506 4.81796 25.5489C2.52214 25.1326 1.02331 24.3923 0.380951 23.2358C0.132978 22.7877 0.00224686 22.2872 0.0001433 21.7785C-0.00487343 21.2666 0.121904 20.7616 0.369055 20.3096C0.999515 19.153 2.49835 18.4012 4.81796 17.9964C5.88247 17.7989 6.95948 17.6714 8.04164 17.6148ZM11.0036 0C14.9914 0 18.2242 3.14317 18.2242 7.02046C18.2242 10.8978 14.9914 14.0409 11.0036 14.0409C7.01581 14.0409 3.78306 10.8978 3.78306 7.02046C3.78306 3.14317 7.01581 0 11.0036 0Z" fill="white"/>
</svg>
