<svg width="28" height="28" viewBox="0 0 28 28" fill="none" xmlns="http://www.w3.org/2000/svg">
<path d="M18.0249 12.992C18.0807 12.8595 18.1744 12.7465 18.2942 12.667C18.4139 12.5875 18.5545 12.5451 18.6983 12.5451C18.842 12.5451 18.9826 12.5875 19.1024 12.667C19.2221 12.7465 19.3158 12.8595 19.3717 12.992L23.3477 22.3888C23.4231 22.5676 23.4245 22.769 23.3515 22.9488C23.2786 23.1287 23.1372 23.2721 22.9585 23.3478C22.8701 23.3862 22.7748 23.4062 22.6785 23.4066H14.7265C14.6058 23.4064 14.4871 23.3763 14.3808 23.3191C14.2746 23.2619 14.1841 23.1794 14.1175 23.0788C14.0508 22.9782 14.0101 22.8627 13.9988 22.7426C13.9876 22.6224 14.0062 22.5014 14.0531 22.3902L18.0249 12.992ZM13.2775 12.5454C13.3981 12.5456 13.5168 12.5757 13.6231 12.6328C13.7293 12.69 13.8198 12.7726 13.8864 12.8732C13.9531 12.9738 13.9938 13.0893 14.0051 13.2094C14.0163 13.3295 13.9977 13.4506 13.9509 13.5618L9.97485 22.96C9.91901 23.0924 9.82533 23.2055 9.70555 23.285C9.58577 23.3645 9.44521 23.4069 9.30145 23.4069C9.1577 23.4069 9.01713 23.3645 8.89735 23.285C8.77757 23.2055 8.6839 23.0924 8.62805 22.96L4.65205 13.5618C4.61402 13.4732 4.59389 13.378 4.59282 13.2816C4.59174 13.1852 4.60975 13.0896 4.64579 13.0002C4.68184 12.9108 4.73521 12.8294 4.80284 12.7607C4.87047 12.692 4.95102 12.6374 5.03985 12.6C5.12822 12.5615 5.22349 12.5415 5.31985 12.5412L13.2775 12.5454ZM18.6983 15.1536L15.8269 21.9436H21.5669L18.6955 15.1536H18.6983ZM12.1799 14.0084H6.43985L9.31265 20.7984L12.1799 14.0084ZM9.30145 4.59338C9.94662 4.59338 10.5773 4.7847 11.1137 5.14313C11.6502 5.50156 12.0683 6.01102 12.3151 6.60707C12.562 7.20312 12.6266 7.859 12.5008 8.49177C12.3749 9.12453 12.0642 9.70577 11.608 10.162C11.1518 10.6182 10.5706 10.9288 9.93784 11.0547C9.30507 11.1806 8.64919 11.116 8.05314 10.8691C7.45709 10.6222 6.94763 10.2041 6.5892 9.66765C6.23077 9.13122 6.03945 8.50055 6.03945 7.85538C6.03927 7.42696 6.12352 7.0027 6.28738 6.60685C6.45125 6.21101 6.69152 5.85133 6.99446 5.54839C7.2974 5.24545 7.65708 5.00518 8.05292 4.84131C8.44877 4.67745 8.87303 4.5932 9.30145 4.59338ZM18.6983 4.59338C19.5634 4.59338 20.3931 4.93706 21.0048 5.5488C21.6166 6.16055 21.9603 6.99025 21.9603 7.85538C21.9603 8.50055 21.7689 9.13122 21.4105 9.66765C21.0521 10.2041 20.5426 10.6222 19.9466 10.8691C19.3505 11.116 18.6946 11.1806 18.0619 11.0547C17.4291 10.9288 16.8479 10.6182 16.3917 10.162C15.9355 9.70577 15.6248 9.12453 15.4989 8.49177C15.3731 7.859 15.4377 7.20312 15.6846 6.60707C15.9315 6.01102 16.3496 5.50156 16.886 5.14313C17.4224 4.7847 18.0531 4.59338 18.6983 4.59338ZM9.30145 6.05638C9.06521 6.05638 8.83127 6.10292 8.61301 6.19332C8.39474 6.28373 8.19642 6.41625 8.02937 6.5833C7.86232 6.75035 7.7298 6.94867 7.63939 7.16694C7.54899 7.3852 7.50245 7.61914 7.50245 7.85538C7.50245 8.09163 7.54899 8.32557 7.63939 8.54383C7.7298 8.7621 7.86232 8.96042 8.02937 9.12747C8.19642 9.29452 8.39474 9.42704 8.61301 9.51744C8.83127 9.60785 9.06521 9.65438 9.30145 9.65438C9.77858 9.65438 10.2362 9.46485 10.5735 9.12747C10.9109 8.79009 11.1005 8.33251 11.1005 7.85538C11.1005 7.37826 10.9109 6.92068 10.5735 6.5833C10.2362 6.24592 9.77858 6.05638 9.30145 6.05638ZM18.6983 6.05638C18.2211 6.05638 17.7635 6.24592 17.4262 6.5833C17.0888 6.92068 16.8993 7.37826 16.8993 7.85538C16.8993 8.33251 17.0888 8.79009 17.4262 9.12747C17.7635 9.46485 18.2211 9.65438 18.6983 9.65438C19.1754 9.65438 19.633 9.46485 19.9703 9.12747C20.3077 8.79009 20.4973 8.33251 20.4973 7.85538C20.4973 7.37826 20.3077 6.92068 19.9703 6.5833C19.633 6.24592 19.1754 6.05638 18.6983 6.05638Z" fill="#93F8FF"/>
</svg>
