<svg width="25" height="25" viewBox="0 0 25 25" fill="none" xmlns="http://www.w3.org/2000/svg">
<path fill-rule="evenodd" clip-rule="evenodd" d="M4.09512 3.80122C4.96951 3.68293 6.04024 3.6622 7.32805 3.65976C7.40457 2.66398 7.85419 1.73379 8.587 1.05525C9.31981 0.376707 10.2818 -0.00016977 11.2805 5.73707e-08H13.7195C14.7178 0.000113819 15.6793 0.376958 16.4118 1.05522C17.1444 1.73348 17.5939 2.66319 17.6707 3.65854C18.9598 3.6622 20.0305 3.68293 20.9049 3.80122C22.0024 3.94756 22.9268 4.26463 23.661 4.99756C24.3951 5.73171 24.7098 6.6561 24.8585 7.75366C25 8.81098 25 10.1561 25 11.8232V16.8354C25 18.5024 25 19.8476 24.8585 20.9049C24.7098 22.0024 24.3951 22.9268 23.661 23.661C22.9268 24.3951 22.0024 24.7098 20.9049 24.8585C19.8476 25 18.5024 25 16.8354 25H8.16463C6.49756 25 5.15244 25 4.09512 24.8585C2.99756 24.7098 2.07317 24.3951 1.33902 23.661C0.604878 22.9268 0.290244 22.0024 0.142683 20.9049C-1.81721e-08 19.8476 0 18.5024 0 16.8354V11.8232C0 10.1561 -1.81721e-08 8.81098 0.142683 7.75366C0.289024 6.6561 0.606098 5.73171 1.33902 4.99756C2.07317 4.26341 2.99756 3.94878 4.09512 3.80122ZM15.8317 3.65854H9.16829C9.2416 3.15062 9.49548 2.68613 9.8834 2.35017C10.2713 2.01421 10.7673 1.82928 11.2805 1.82927H13.7195C14.2327 1.82928 14.7287 2.01421 15.1166 2.35017C15.5045 2.68613 15.7584 3.15062 15.8317 3.65854ZM4.33902 23.0451C3.4439 22.9244 2.97073 22.7037 2.63293 22.3671C2.29512 22.0293 2.07561 21.5561 1.95488 20.6598C1.83171 19.739 1.82927 18.5183 1.82927 16.7683V12.6585C6.32683 14.5463 8.95366 15.578 11.7195 15.7073C12.239 15.7317 12.761 15.7317 13.2805 15.7073C16.0463 15.578 18.6732 14.5463 23.1707 12.6585V16.7683C23.1707 18.5183 23.1683 19.739 23.0451 20.661C22.9244 21.5561 22.7037 22.0293 22.3671 22.3671C22.0293 22.7049 21.5561 22.9244 20.6598 23.0451C19.739 23.1683 18.5183 23.1707 16.7683 23.1707H8.23171C6.48171 23.1707 5.25976 23.1683 4.33902 23.0451ZM23.1683 10.6744C18.1378 12.7902 15.7183 13.7622 13.1951 13.8793C12.7317 13.9012 12.2683 13.9012 11.8049 13.8793C9.28049 13.7622 6.8622 12.7902 1.83171 10.6744C1.83781 9.54878 1.8622 8.68902 1.95488 7.99756C2.07561 7.10244 2.29634 6.62927 2.63293 6.29146C2.97073 5.95366 3.4439 5.73415 4.34024 5.61341C5.25976 5.49024 6.48171 5.48781 8.23171 5.48781H16.7683C18.5183 5.48781 19.739 5.49024 20.661 5.61341C21.5561 5.73415 22.0293 5.95488 22.3671 6.29146C22.7049 6.62927 22.9244 7.10244 23.0451 7.99878C23.1378 8.68902 23.1622 9.54756 23.1683 10.6744Z" fill="white"/>
</svg>
