<svg width="23" height="22" viewBox="0 0 23 22" fill="none" xmlns="http://www.w3.org/2000/svg">
<path d="M6.3141 10L10.5654 1C11.411 1 12.222 1.31607 12.82 1.87868C13.4179 2.44129 13.7538 3.20435 13.7538 4V8H19.7694C20.0775 7.99672 20.3827 8.0565 20.6638 8.17522C20.945 8.29393 21.1953 8.46873 21.3975 8.68751C21.5997 8.90629 21.7489 9.16382 21.8348 9.44225C21.9207 9.72068 21.9413 10.0134 21.895 10.3L20.4284 19.3C20.3515 19.7769 20.094 20.2116 19.7034 20.524C19.3128 20.8364 18.8153 21.0055 18.3027 21H6.3141M6.3141 10V21M6.3141 10H3.12564C2.56189 10 2.02122 10.2107 1.62259 10.5858C1.22395 10.9609 1 11.4696 1 12V19C1 19.5304 1.22395 20.0391 1.62259 20.4142C2.02122 20.7893 2.56189 21 3.12564 21H6.3141" stroke="#787878" stroke-width="1.67" stroke-linecap="round" stroke-linejoin="round"/>
</svg>
