<svg width="22" height="22" viewBox="0 0 22 22" fill="none" xmlns="http://www.w3.org/2000/svg">
<path d="M13.329 8V4C13.329 3.20435 12.9931 2.44129 12.3952 1.87868C11.7972 1.31607 10.9862 1 10.1406 1L5.8893 10V21H17.8779C18.3905 21.0055 18.888 20.8364 19.2786 20.524C19.6692 20.2116 19.9267 19.7769 20.0036 19.3L21.4702 10.3C21.5165 10.0134 21.4959 9.72068 21.41 9.44225C21.3241 9.16382 21.1749 8.90629 20.9727 8.68751C20.7705 8.46873 20.5202 8.29393 20.239 8.17522C19.9579 8.0565 19.6527 7.99672 19.3446 8H13.329ZM5.8893 21H2.70084C2.13708 21 1.59642 20.7893 1.19778 20.4142C0.799146 20.0391 0.575195 19.5304 0.575195 19V12C0.575195 11.4696 0.799146 10.9609 1.19778 10.5858C1.59642 10.2107 2.13708 10 2.70084 10H5.8893" fill="#1FC9FF"/>
<path d="M5.8893 10L10.1406 1C10.9862 1 11.7972 1.31607 12.3952 1.87868C12.9931 2.44129 13.329 3.20435 13.329 4V8H19.3446C19.6527 7.99672 19.9579 8.0565 20.239 8.17522C20.5202 8.29393 20.7705 8.46873 20.9727 8.68751C21.1749 8.90629 21.3241 9.16382 21.41 9.44225C21.4959 9.72068 21.5165 10.0134 21.4702 10.3L20.0036 19.3C19.9267 19.7769 19.6692 20.2116 19.2786 20.524C18.888 20.8364 18.3905 21.0055 17.8779 21H5.8893M5.8893 10V21M5.8893 10H2.70084C2.13708 10 1.59642 10.2107 1.19778 10.5858C0.799146 10.9609 0.575195 11.4696 0.575195 12V19C0.575195 19.5304 0.799146 20.0391 1.19778 20.4142C1.59642 20.7893 2.13708 21 2.70084 21H5.8893" stroke="#0057FF" stroke-linecap="round" stroke-linejoin="round"/>
</svg>
