<svg width="183" height="85" viewBox="0 0 183 85" fill="none" xmlns="http://www.w3.org/2000/svg">
<g clip-path="url(#clip0_157_111)">
<path d="M44.7399 68.6736C45.6689 69.6679 46.9824 70.1651 48.6802 70.1651C50.5703 70.1651 52.5885 69.6679 54.7348 68.6736C56.9132 67.7113 59.1236 66.3962 61.3661 64.7283C63.6406 63.0604 65.867 61.2 68.0454 59.1472C70.2238 57.0943 72.258 54.9934 74.1481 52.8443C74.5004 52.7802 74.9329 52.716 75.4455 52.6519C75.9901 52.5557 76.5987 52.4434 77.2715 52.3151C79.1615 51.9302 80.6512 51.6896 81.7404 51.5934L80.9715 53.3255C80.0745 55.3783 79.3217 57.1745 78.713 58.7141C78.1364 60.2538 77.8481 61.617 77.8481 62.8038C77.8481 64.7924 78.8732 65.7226 80.9235 65.5943C81.2758 65.5623 81.7083 65.3858 82.2209 65.0651C82.7334 64.7443 83.246 64.3594 83.7586 63.9104C84.2711 63.4613 84.6876 63.0604 85.0079 62.7075C85.2642 62.4509 85.3923 62.2424 85.3923 62.0821C85.3923 61.9538 85.3283 61.8896 85.2001 61.8896C84.9759 61.8896 84.7516 62.05 84.5274 62.3708C84.3352 62.6274 84.0309 62.916 83.6144 63.2368C83.23 63.5575 82.8135 63.8302 82.365 64.0547C81.9486 64.3113 81.6122 64.4396 81.3559 64.4396C80.3949 64.4396 79.9144 63.7981 79.9144 62.5151C79.9144 60.6226 80.523 58.3292 81.7404 55.6349C82.349 54.3198 82.8135 53.3094 83.1339 52.6038C83.4542 51.8981 83.6304 51.5132 83.6625 51.4491L87.5547 51.1604C87.811 51.1283 88.0192 51.0481 88.1794 50.9198C88.3396 50.7915 88.4197 50.6632 88.4197 50.5349C88.4197 50.3425 88.2755 50.2462 87.9872 50.2462H87.843L84.143 50.4387C84.5915 49.4443 85.1841 48.2255 85.9209 46.7821C86.6898 45.3387 87.6028 43.6707 88.6599 41.7783C89.4288 40.3991 90.1175 39.1481 90.7262 38.0255C91.3348 36.9028 91.8474 35.9085 92.2639 35.0424C92.9046 33.7915 93.1448 33.0217 92.9846 32.733C92.9206 32.5726 92.7284 32.4443 92.408 32.3481C92.1197 32.2198 91.7993 32.1557 91.447 32.1557C90.9664 32.1557 90.534 32.2679 90.1495 32.4924C89.7651 32.717 89.5569 33.0377 89.5249 33.4547C89.4928 34.2566 89.0123 35.7 88.0833 37.7849C87.6348 38.8434 87.0582 40.1104 86.3534 41.5858C85.6807 43.0292 84.8958 44.6811 83.9988 46.5415C83.3581 47.9208 82.8776 48.9472 82.5572 49.6208L82.1248 50.4868L77.8962 50.6311L75.6857 50.7274L76.3104 50.0057C78.1044 47.9208 79.7061 46.0604 81.1157 44.4245C82.5572 42.7566 83.8707 41.1849 85.056 39.7094C86.2413 38.234 87.3785 36.7264 88.4677 35.1868C88.5958 35.0585 88.6599 34.8981 88.6599 34.7057C88.6599 34.5132 88.5638 34.417 88.3716 34.417C88.1153 34.417 87.859 34.5934 87.6028 34.9462C86.8019 36.0689 85.969 37.1594 85.104 38.2179C84.2711 39.2443 83.3101 40.367 82.2209 41.5858C81.1317 42.8047 79.7862 44.2802 78.1845 46.0123C76.6788 47.616 75.2212 49.2198 73.8117 50.8236C70.5441 51.0481 68.4779 51.3849 67.6129 51.834C67.3566 51.9623 67.1164 52.2189 66.8921 52.6038C66.6999 52.9887 66.6038 53.3255 66.6038 53.6141C66.6038 53.9028 66.6999 54.0472 66.8921 54.0472C66.9882 54.0472 67.0683 54.0311 67.1324 53.9991C67.2926 53.9349 67.5969 53.8547 68.0454 53.7585C68.5259 53.6302 69.1186 53.5179 69.8233 53.4217L72.1299 53.0849C70.9766 54.5604 69.6151 56.1 68.0454 57.7038C66.4757 59.2755 64.7778 60.783 62.9518 62.2264C61.1258 63.6698 59.2358 64.9689 57.2816 66.1236C54.3024 67.8557 51.5794 68.834 49.1127 69.0585C47.7672 69.1868 46.7101 68.85 45.9412 68.0481C45.1404 67.2462 44.7399 66.1557 44.7399 64.7764C44.7399 64.0708 44.836 63.3651 45.0282 62.6594C45.5088 60.8311 46.2616 58.8906 47.2867 56.8377C48.3439 54.7849 49.6092 52.7802 51.0828 50.8236C52.5885 48.8349 54.2543 47.1028 56.0803 45.6274C58.8033 43.3821 61.6224 42.2594 64.5376 42.2594C66.0752 42.2594 66.8441 43.0292 66.8441 44.5689C66.8441 45.2104 66.6839 45.9802 66.3635 46.8783C66.0752 47.7764 65.6908 48.6745 65.2103 49.5726C64.7618 50.4708 64.2813 51.2887 63.7687 52.0264C63.2882 52.7321 62.8397 53.2292 62.4232 53.5179C61.9748 53.8708 61.7505 54.2236 61.7505 54.5764C61.7505 54.7368 61.8146 54.817 61.9427 54.817C62.1029 54.817 62.2471 54.7528 62.3752 54.6245C63.2081 54.0151 64.057 53.0528 64.922 51.7377C65.819 50.3906 66.5718 48.9632 67.1804 47.4557C67.7571 45.9481 68.0454 44.617 68.0454 43.4623C68.0454 42.4679 67.7891 41.6821 67.2765 41.1047C66.764 40.4953 65.9631 40.1906 64.8739 40.1906C62.9839 40.1906 61.0137 40.7679 58.9635 41.9226C56.9453 43.0774 54.9751 44.617 53.053 46.5415C51.1629 48.466 49.4491 50.6151 47.9114 52.9887C45.5728 56.517 44.1152 59.6443 43.5386 62.3708C43.4745 62.6915 43.4265 63.0443 43.3944 63.4292C43.3304 63.8141 43.2983 64.2151 43.2983 64.6321C43.2983 66.3321 43.7789 67.6792 44.7399 68.6736Z" fill="white"/>
<path d="M85.867 66.9896C85.867 67.2783 85.9471 67.4226 86.1073 67.4226C86.3315 67.4226 86.5878 67.2302 86.8761 66.8453C86.9402 66.717 87.1324 66.316 87.4527 65.6425C87.7731 64.9689 88.2376 64.0226 88.8463 62.8038C90.5121 59.1472 91.8255 56.533 92.7866 54.9613C93.0429 54.9292 93.2831 54.9132 93.5074 54.9132C93.7316 54.8811 93.9398 54.8651 94.132 54.8651C94.8689 54.8009 95.4615 54.7368 95.91 54.6726C96.3585 54.6085 96.6628 54.5443 96.823 54.4802C97.1113 54.3198 97.2555 54.2075 97.2555 54.1434C97.2555 53.983 97.0312 53.8547 96.5827 53.7585C96.3585 53.7264 96.0862 53.7104 95.7658 53.7104C95.4775 53.6783 95.1572 53.6623 94.8048 53.6623H93.9879C93.7957 53.6623 93.6195 53.6783 93.4593 53.7104C93.6195 53.2934 93.9078 52.6358 94.3243 51.7377C94.7407 50.8396 95.2052 49.8774 95.7178 48.8509C96.2303 47.8245 96.7109 46.8783 97.1594 46.0123C97.6078 45.1462 97.9282 44.5528 98.1204 44.2321C98.2806 43.8472 98.3607 43.6387 98.3607 43.6066C98.3607 43.4462 98.2646 43.366 98.0724 43.366C97.6879 43.366 97.3516 43.5585 97.0633 43.9434C96.9031 44.1679 96.6148 44.633 96.1983 45.3387C95.8139 46.0123 95.3013 46.9425 94.6606 48.1292C93.8598 49.6047 93.203 50.7915 92.6905 51.6896C92.1779 52.5877 91.7935 53.2132 91.5372 53.566C91.2809 53.6302 91.0407 53.6783 90.8164 53.7104C90.5922 53.7425 90.384 53.7745 90.1917 53.8066C89.9675 53.8387 89.7753 53.8708 89.6151 53.9028L89.1346 53.9991C89.0064 54.0311 88.7982 54.0632 88.5099 54.0953C88.2536 54.1274 87.9493 54.1755 87.5969 54.2396C87.2766 54.3038 87.0043 54.3679 86.78 54.4321C86.5558 54.4642 86.3636 54.5123 86.2034 54.5764C85.883 54.7368 85.7068 54.9132 85.6748 55.1057C85.7709 55.3302 85.9471 55.4425 86.2034 55.4425H86.4436C86.5718 55.4104 86.732 55.3783 86.9242 55.3462C87.4367 55.25 88.0614 55.1859 88.7982 55.1538C89.535 55.0896 90.0956 55.0736 90.4801 55.1057L88.0294 61.1679L85.9631 66.3642C85.9311 66.4925 85.899 66.6047 85.867 66.7009V66.9896Z" fill="white"/>
<path fill-rule="evenodd" clip-rule="evenodd" d="M93.6582 64.7764C93.5621 65.45 93.8504 65.7868 94.5231 65.7868H94.6673C94.9876 65.7868 95.308 65.7066 95.6283 65.5462C95.9807 65.3858 96.237 65.2094 96.3971 65.017C96.8456 64.3755 97.2301 63.8302 97.5504 63.3811C97.9028 62.9641 98.1591 62.6434 98.3193 62.4189C98.3833 62.3547 98.4634 62.2424 98.5595 62.0821C98.6877 61.8896 98.8638 61.633 99.0881 61.3123C99.4405 60.7028 99.8089 60.1896 100.193 59.7726C100.578 59.3236 100.962 58.9387 101.347 58.6179C101.731 58.3292 102.067 58.1849 102.356 58.1849C102.74 58.1849 103.044 58.3453 103.269 58.666C103.397 58.8264 103.525 59.0509 103.653 59.3396C103.781 59.5962 103.925 59.9009 104.086 60.2538C104.566 61.3123 105.047 62.1783 105.527 62.8519C106.04 63.4934 106.744 63.9424 107.641 64.199C107.866 64.2632 108.186 64.1991 108.602 64.0066C109.019 63.8141 109.435 63.5575 109.852 63.2368C110.232 62.9922 110.532 62.736 110.751 62.4682C110.561 63.2817 110.445 64.1149 110.403 64.9689C110.371 65.2896 110.467 65.5623 110.692 65.7868C110.948 66.0113 111.252 66.1236 111.605 66.1236C112.149 66.1236 112.678 65.9151 113.19 65.4981L113.959 64.9207C114.536 64.4717 115.032 64.0707 115.449 63.7179C115.897 63.3972 116.266 63.0924 116.554 62.8038C116.874 62.483 117.035 62.2585 117.035 62.1302C117.035 61.9698 116.938 61.8736 116.746 61.8415C115.048 63.1566 113.815 63.8141 113.046 63.8141C112.566 63.8141 112.325 63.5094 112.325 62.9C112.325 62.2264 112.582 61.2962 113.094 60.1094C113.607 58.8906 114.151 57.7519 114.728 56.6934C115.016 56.1481 115.385 55.5226 115.833 54.817C116.282 54.0792 116.81 53.2613 117.419 52.3632C118.028 51.4651 118.508 50.7434 118.86 50.1981C119.245 49.6207 119.517 49.2198 119.677 48.9953C120.542 47.7764 121.279 46.6858 121.888 45.7236C122.529 44.7613 123.057 43.9594 123.474 43.3179C124.274 42.067 124.595 41.2811 124.435 40.9604C124.178 40.5113 123.922 40.2868 123.666 40.2868C123.506 40.2868 123.057 40.5113 122.32 40.9604C121.744 41.3453 121.167 41.9707 120.59 42.8368C120.014 43.6707 119.341 44.7774 118.572 46.1566L117.899 47.3594C117.163 48.6745 116.426 50.0217 115.689 51.4009C114.952 52.7802 114.231 54.2236 113.527 55.7311L113.286 56.2123C113.222 56.3726 113.142 56.5651 113.046 56.7896C112.213 58.4896 111.573 59.9491 111.124 61.1679C111.077 61.3046 111.033 61.4418 110.991 61.5797C110.97 61.5368 110.943 61.4955 110.909 61.4566C110.621 61.4887 110.284 61.6811 109.9 62.034C109.483 62.4189 109.115 62.6113 108.795 62.6113C108.474 62.6113 108.138 62.3708 107.786 61.8896C107.433 61.3764 107.049 60.6387 106.632 59.6764C106.056 58.3934 105.511 57.4151 104.999 56.7415C104.518 56.0358 103.957 55.683 103.317 55.683C102.772 55.683 102.147 56.0358 101.443 56.7415C101.026 57.1585 100.514 57.8802 99.905 58.9066C99.7128 59.1311 99.5206 59.4198 99.3284 59.7726C99.2002 59.933 99.0721 60.1094 98.9439 60.3019C98.8478 60.4943 98.7197 60.6707 98.5595 60.8311C98.3353 61.1519 98.095 61.4245 97.8387 61.649C97.6145 61.8736 97.3902 62.066 97.166 62.2264C96.9417 62.3868 96.7816 62.467 96.6855 62.467C96.5894 62.467 96.5093 62.3708 96.4452 62.1783C96.3171 61.3443 96.5093 60.3821 97.0218 59.2915C97.5664 58.2009 98.3192 56.8858 99.2803 55.3462L100.145 53.9509C101.459 52.6358 102.596 51.417 103.557 50.2943C104.55 49.1396 105.367 48.0811 106.008 47.1189C107.193 45.3226 107.786 43.783 107.786 42.5C107.786 42.083 107.738 41.7623 107.641 41.5377C107.577 41.4094 107.401 41.2972 107.113 41.2009C106.857 41.1047 106.584 41.0406 106.296 41.0085C106.008 40.9443 105.831 40.9443 105.767 41.0085C104.742 41.65 103.781 42.7406 102.884 44.2802C102.019 45.7877 100.978 47.8726 99.7608 50.5349C99.5045 51.1443 99.2483 51.7057 98.992 52.2189C98.7677 52.7321 98.5435 53.2132 98.3193 53.6623C98.1911 53.9189 98.0149 54.2557 97.7907 54.6726C97.5985 55.0896 97.3582 55.5708 97.0699 56.116C96.5253 57.1425 96.0448 58.0726 95.6283 58.9066C95.2439 59.7406 94.9235 60.4783 94.6673 61.1198C94.1867 62.3387 93.8504 63.5575 93.6582 64.7764ZM101.106 51.5453C100.722 51.8981 100.482 52.0424 100.386 51.9783C100.45 51.85 100.562 51.5453 100.722 51.0641C100.882 50.5509 101.074 49.9736 101.299 49.3321C101.555 48.6906 101.795 48.1132 102.019 47.6C102.404 46.766 102.868 45.9321 103.413 45.0981C103.957 44.2321 104.502 43.5424 105.047 43.0292C105.591 42.484 106.024 42.3396 106.344 42.5962C106.504 42.6924 106.584 42.8528 106.584 43.0774C106.584 43.6226 106.088 44.7453 105.095 46.4453C104.806 46.9585 104.406 47.5519 103.893 48.2255C103.413 48.867 102.916 49.4924 102.404 50.1019C101.923 50.6792 101.491 51.1604 101.106 51.5453Z" fill="white"/>
<path fill-rule="evenodd" clip-rule="evenodd" d="M119.355 62.9481C119.868 63.3009 120.461 63.4774 121.133 63.4774C121.902 63.4774 122.751 63.2528 123.68 62.8038C124.641 62.3547 125.506 61.8255 126.275 61.216C127.076 60.6066 127.636 60.0453 127.957 59.5321C128.021 59.2434 127.957 59.0991 127.765 59.0991C127.7 59.0991 127.492 59.2274 127.14 59.484C126.371 60.1255 125.762 60.6066 125.314 60.9274C124.865 61.2481 124.465 61.4887 124.113 61.6491C123.792 61.8094 123.376 61.9858 122.863 62.1783C122.575 62.3066 122.222 62.3708 121.806 62.3708C121.261 62.3708 120.829 62.2104 120.509 61.8896C120.22 61.5368 120.076 61.1358 120.076 60.6868V60.3981L120.172 60.1094C121.229 59.5641 122.255 59.0028 123.248 58.4255C124.273 57.816 125.154 57.1264 125.89 56.3566C126.659 55.5868 127.156 54.7047 127.38 53.7104C127.508 53.1009 127.284 52.6038 126.707 52.2189C126.163 51.834 125.538 51.6415 124.833 51.6415C124.289 51.6415 123.856 51.7538 123.536 51.9783C121.71 53.1972 120.348 54.5283 119.451 55.9717C118.554 57.4151 118.106 58.7783 118.106 60.0613C118.106 61.3443 118.522 62.3066 119.355 62.9481ZM122.046 58.0406C121.245 58.5538 120.717 58.8104 120.461 58.8104C120.813 57.3991 121.486 56.2123 122.479 55.25C123.92 53.8066 124.945 53.0849 125.554 53.0849C125.746 53.0849 125.89 53.1651 125.987 53.3255C126.083 53.4538 126.131 53.5981 126.131 53.7585C126.131 54.3679 125.522 55.234 124.305 56.3566C123.6 56.966 122.847 57.5274 122.046 58.0406Z" fill="white"/>
<path d="M127.68 66.9896C127.68 67.2783 127.76 67.4226 127.92 67.4226C128.145 67.4226 128.401 67.2302 128.689 66.8453C128.753 66.717 128.945 66.316 129.266 65.6425C129.586 64.9689 130.051 64.0226 130.659 62.8038C132.325 59.1472 133.639 56.533 134.6 54.9613C134.856 54.9292 135.096 54.9132 135.32 54.9132C135.545 54.8811 135.753 54.8651 135.945 54.8651C136.682 54.8009 137.274 54.7368 137.723 54.6726C138.171 54.6085 138.476 54.5443 138.636 54.4802C138.924 54.3198 139.068 54.2075 139.068 54.1434C139.068 53.983 138.844 53.8547 138.396 53.7585C138.171 53.7264 137.899 53.7104 137.579 53.7104C137.291 53.6783 136.97 53.6623 136.618 53.6623H135.801C135.609 53.6623 135.432 53.6783 135.272 53.7104C135.432 53.2934 135.721 52.6358 136.137 51.7377C136.554 50.8396 137.018 49.8774 137.531 48.8509C138.043 47.8245 138.524 46.8783 138.972 46.0123C139.421 45.1462 139.741 44.5528 139.933 44.2321C140.094 43.8472 140.174 43.6387 140.174 43.6066C140.174 43.4462 140.078 43.366 139.885 43.366C139.501 43.366 139.165 43.5585 138.876 43.9434C138.716 44.1679 138.428 44.633 138.011 45.3387C137.627 46.0123 137.114 46.9425 136.474 48.1292C135.673 49.6047 135.016 50.7915 134.503 51.6896C133.991 52.5877 133.606 53.2132 133.35 53.566C133.094 53.6302 132.854 53.6783 132.629 53.7104C132.405 53.7425 132.197 53.7745 132.005 53.8066C131.78 53.8387 131.588 53.8708 131.428 53.9028L130.948 53.9991C130.819 54.0311 130.611 54.0632 130.323 54.0953C130.067 54.1274 129.762 54.1755 129.41 54.2396C129.09 54.3038 128.817 54.3679 128.593 54.4321C128.369 54.4642 128.177 54.5123 128.016 54.5764C127.696 54.7368 127.52 54.9132 127.488 55.1057C127.584 55.3302 127.76 55.4425 128.016 55.4425H128.257C128.385 55.4104 128.545 55.3783 128.737 55.3462C129.25 55.25 129.874 55.1859 130.611 55.1538C131.348 55.0896 131.909 55.0736 132.293 55.1057L129.842 61.1679L127.776 66.3642C127.744 66.4925 127.712 66.6047 127.68 66.7009V66.9896Z" fill="white"/>
<path fill-rule="evenodd" clip-rule="evenodd" d="M137.634 62.9481C138.147 63.3009 138.739 63.4774 139.412 63.4774C140.181 63.4774 141.03 63.2528 141.959 62.8038C142.92 62.3547 143.785 61.8255 144.554 61.216C145.355 60.6066 145.915 60.0453 146.236 59.5321C146.3 59.2434 146.236 59.0991 146.043 59.0991C145.979 59.0991 145.771 59.2274 145.419 59.484C144.65 60.1255 144.041 60.6066 143.593 60.9274C143.144 61.2481 142.744 61.4887 142.391 61.6491C142.071 61.8094 141.655 61.9858 141.142 62.1783C140.854 62.3066 140.501 62.3708 140.085 62.3708C139.54 62.3708 139.108 62.2104 138.787 61.8896C138.499 61.5368 138.355 61.1358 138.355 60.6868V60.3981L138.451 60.1094C139.508 59.5641 140.533 59.0028 141.526 58.4255C142.552 57.816 143.432 57.1264 144.169 56.3566C144.938 55.5868 145.435 54.7047 145.659 53.7104C145.787 53.1009 145.563 52.6038 144.986 52.2189C144.442 51.834 143.817 51.6415 143.112 51.6415C142.568 51.6415 142.135 51.7538 141.815 51.9783C139.989 53.1972 138.627 54.5283 137.73 55.9717C136.833 57.4151 136.385 58.7783 136.385 60.0613C136.385 61.3443 136.801 62.3066 137.634 62.9481ZM140.325 58.0406C139.524 58.5538 138.996 58.8104 138.739 58.8104C139.092 57.3991 139.764 56.2123 140.758 55.25C142.199 53.8066 143.224 53.0849 143.833 53.0849C144.025 53.0849 144.169 53.1651 144.265 53.3255C144.361 53.4538 144.41 53.5981 144.41 53.7585C144.41 54.3679 143.801 55.234 142.584 56.3566C141.879 56.966 141.126 57.5274 140.325 58.0406Z" fill="white"/>
<path fill-rule="evenodd" clip-rule="evenodd" d="M144.373 66.3641H144.469C145.174 66.2679 145.815 66.0273 146.391 65.6424C147 65.2575 147.304 64.7924 147.304 64.2472C147.304 64.2151 147.288 64.1509 147.256 64.0547C147.256 63.9906 147.24 63.8943 147.208 63.766C147.176 63.6698 147.064 63.6057 146.872 63.5736C146.68 63.5094 146.584 63.4292 146.584 63.333V63.1887C146.616 63.1566 146.648 63.0924 146.68 62.9962C147.224 61.7773 147.849 60.3821 148.554 58.8104C149.098 59.1953 149.547 59.516 149.899 59.7726C150.252 60.0292 150.636 60.2858 151.052 60.5424C151.501 60.799 152.094 61.1198 152.83 61.5047L154.608 62.4189C155.089 62.6755 155.473 62.8358 155.762 62.9C156.05 63.0604 156.194 63.0604 156.194 62.9V62.8519L156.146 62.6594C156.082 62.4349 155.81 62.1462 155.329 61.7934C155.393 61.8575 155.297 61.7774 155.041 61.5528C154.785 61.3283 154.336 60.9594 153.695 60.4462C152.126 59.2273 151.261 58.2651 151.1 57.5594C151.229 57.3028 151.373 57.0462 151.533 56.7896C151.725 56.5009 151.933 56.2123 152.158 55.9236C152.286 55.8594 152.526 55.7472 152.878 55.5868C153.231 55.4264 153.711 55.2179 154.32 54.9613L157.011 53.7585C157.684 53.4057 158.34 53.0207 158.981 52.6038C159.622 52.1868 159.99 51.8821 160.086 51.6896C160.182 51.5613 160.15 51.4972 159.99 51.4972L159.462 51.5453L157.828 52.267L157.251 52.5557C157.059 52.6519 156.883 52.7321 156.723 52.7962C156.082 53.117 155.473 53.3896 154.897 53.6141C154.32 53.8387 153.775 54.0311 153.263 54.1915C152.11 54.7047 151.1 55.0896 150.236 55.3462C150.78 54.2236 151.357 53.117 151.965 52.0264C153.279 50.7113 154.416 49.4924 155.377 48.3698C156.37 47.2151 157.187 46.1566 157.828 45.1943C158.533 44.1038 159.029 43.0774 159.317 42.1151C159.638 41.1207 159.798 40.2868 159.798 39.6132C159.798 39.4528 159.782 39.3085 159.75 39.1802C159.75 39.0198 159.734 38.8755 159.702 38.7472C159.638 38.5547 159.494 38.3943 159.269 38.266C159.045 38.1377 158.869 38.0736 158.741 38.0736H158.693C157.123 38.8113 155.746 40.2226 154.56 42.3075C153.407 44.3604 152.19 46.9906 150.908 50.1981L150.043 52.3632L148.361 55.8755C147.593 56.0679 147.112 56.2283 146.92 56.3566C146.439 56.4849 146.199 56.6453 146.199 56.8377L146.295 57.0302C146.327 57.0623 146.375 57.1264 146.439 57.2226C146.535 57.3189 146.664 57.4151 146.824 57.5113L147.352 57.8481L146.199 60.5906C146.135 60.783 145.991 61.0717 145.767 61.4566C145.574 61.8415 145.302 62.3387 144.95 62.9481C144.886 63.0764 144.742 63.333 144.517 63.7179C144.293 64.1349 144.101 64.5358 143.941 64.9207C143.748 65.3377 143.652 65.6585 143.652 65.883C143.652 66.2358 143.829 66.4123 144.181 66.4123C144.245 66.4123 144.309 66.3962 144.373 66.3641ZM152.926 49.6207C152.542 49.9736 152.302 50.1179 152.206 50.0538C152.27 49.9255 152.382 49.6207 152.542 49.1396C152.702 48.6264 152.894 48.049 153.119 47.4075C153.375 46.766 153.615 46.1887 153.839 45.6755C154.224 44.8415 154.672 43.9594 155.185 43.0292C155.73 42.099 156.274 41.3132 156.819 40.6717C157.363 40.0302 157.812 39.7094 158.164 39.7094C158.453 39.7094 158.597 39.9019 158.597 40.2868C158.597 40.7038 158.436 41.3132 158.116 42.1151C157.796 42.8849 157.395 43.6868 156.915 44.5207C156.627 45.034 156.226 45.6274 155.714 46.3009C155.233 46.9424 154.736 47.5679 154.224 48.1774C153.743 48.7547 153.311 49.2358 152.926 49.6207Z" fill="white"/>
<path fill-rule="evenodd" clip-rule="evenodd" d="M164.932 64.199C164.997 64.2311 165.061 64.2472 165.125 64.2472C165.445 64.2472 165.861 64.1349 166.374 63.9104C166.887 63.7179 167.383 63.4453 167.864 63.0924C168.184 62.9 168.456 62.7075 168.681 62.5151C168.937 62.3226 169.161 62.1462 169.353 61.9858C169.61 61.7292 169.738 61.5047 169.738 61.3123C169.738 61.184 169.658 61.1198 169.497 61.1198C169.337 61.1198 169.129 61.216 168.873 61.4085C168.649 61.5689 168.472 61.6972 168.344 61.7934C168.248 61.8575 168.184 61.9057 168.152 61.9377C167.415 62.4509 166.839 62.7075 166.422 62.7075C166.23 62.7075 166.054 62.6594 165.894 62.5632C165.573 62.3387 165.413 61.9057 165.413 61.2641C165.413 60.5585 165.589 59.7245 165.942 58.7623C166.294 57.7679 166.71 56.8217 167.191 55.9236C167.671 55.0255 168.104 54.384 168.488 53.999L168.584 53.9028C168.649 53.8707 168.713 53.8226 168.777 53.7585C168.937 53.6623 169.017 53.566 169.017 53.4698L168.969 53.4217C168.52 52.9726 168.024 52.6519 167.479 52.4594C166.967 52.267 166.438 52.1707 165.894 52.1707C164.9 52.1707 163.939 52.5075 163.01 53.1811C162.113 53.8547 161.184 54.7849 160.223 55.9717C159.839 56.4528 159.406 57.0623 158.926 57.8C158.445 58.5057 158.029 59.2434 157.677 60.0132C157.324 60.783 157.148 61.5047 157.148 62.1783C157.148 62.6915 157.292 63.1245 157.58 63.4774C157.741 63.6698 157.949 63.766 158.205 63.766C158.814 63.766 159.583 63.3009 160.512 62.3707L161.857 61.0717L164.308 58.7141C164.18 59.0991 164.068 59.6123 163.971 60.2538C163.907 60.8953 163.843 61.3443 163.779 61.6009C163.715 62.2424 163.747 62.7717 163.875 63.1887C164.003 63.6057 164.292 63.9264 164.74 64.1509C164.804 64.183 164.868 64.199 164.932 64.199ZM163.443 58.1849C161.617 60.1736 160.367 61.1679 159.695 61.1679C159.374 61.1679 159.214 60.9434 159.214 60.4943C159.214 59.9811 159.39 59.3236 159.743 58.5217C160.095 57.7198 160.448 57.0943 160.8 56.6453C161.312 56.0679 161.873 55.4906 162.482 54.9132C163.122 54.3358 163.747 53.8707 164.356 53.5179C164.964 53.133 165.445 52.9406 165.797 52.9406C166.086 52.9406 166.278 53.0368 166.374 53.2292C166.566 53.5821 166.374 54.2236 165.797 55.1538C165.477 55.6349 165.125 56.1321 164.74 56.6453C164.356 57.1264 163.923 57.6396 163.443 58.1849Z" fill="white"/>
<path d="M170.458 62.8519C170.458 63.5896 170.667 63.9585 171.083 63.9585C171.371 63.9585 171.628 63.8462 171.852 63.6217C172.301 62.5953 173.005 61.3924 173.966 60.0132C174.927 58.6019 176.001 57.399 177.186 56.4047C178.307 55.4104 179.38 54.9132 180.405 54.9132C180.694 54.9132 180.886 54.9292 180.982 54.9613C181.078 55.0575 181.206 55.1057 181.366 55.1057C181.687 55.1057 182.007 54.9132 182.327 54.5283C182.648 54.1113 182.808 53.7264 182.808 53.3736C182.808 52.9566 182.552 52.7481 182.039 52.7481C181.463 52.7481 180.758 52.9726 179.925 53.4217C179.092 53.8708 178.195 54.4481 177.234 55.1538C176.305 55.8274 175.392 56.5651 174.495 57.367C174.591 56.8217 174.895 55.8755 175.408 54.5283C175.568 54.1113 175.696 53.7585 175.792 53.4698C175.92 53.1491 176.017 52.8764 176.081 52.6519C176.241 52.267 176.113 52.0745 175.696 52.0745C175.504 52.0745 175.312 52.1708 175.12 52.3632L174.062 54.4802C173.71 55.25 173.326 56.0519 172.909 56.8858C172.301 58.2651 171.628 59.6604 170.891 61.0717C170.603 61.6491 170.458 62.2424 170.458 62.8519Z" fill="white"/>
<path d="M35.5186 34.842C34.918 34.87 34.3253 34.9222 33.7367 35.0024C31.3621 35.3111 29.1597 35.8844 27.1295 36.7264C24.4465 37.8892 22.4123 39.4248 21.0228 41.3373C19.4331 43.4623 18.7323 45.9561 18.9205 48.8149C19.0086 49.8894 19.1407 50.9118 19.3209 51.8821C19.5972 53.3215 19.9777 54.6486 20.4622 55.8715C21.2511 57.784 22.8048 60.6347 25.1273 64.4316C27.3818 68.1203 28.2707 71.7568 27.7902 75.3373C27.602 76.8208 27.1895 78.2361 26.5488 79.5873C25.6399 81.4998 24.2744 83.288 22.4444 84.9599C28.4629 82.3538 32.175 78.5849 33.5765 73.6533C34.8459 69.255 34.2372 64.2391 31.7545 58.5979C30.4211 55.5226 29.5241 53.0248 29.0716 51.1002C28.8994 50.3545 28.7753 49.6408 28.6912 48.9552C28.523 47.3033 28.6431 45.8318 29.0516 44.5448C29.0636 44.5167 29.0716 44.4967 29.0716 44.4847C29.8044 42.2514 31.5143 40.383 34.1972 38.8715C36.6679 37.4802 39.9435 36.3936 44.0279 35.6038C42.0938 35.1106 40.0516 34.842 37.9013 34.8019C37.1284 34.7899 36.3315 34.8019 35.5186 34.842Z" fill="url(#paint0_linear_157_111)"/>
<path d="M35.5186 34.842C34.918 34.87 34.3253 34.9222 33.7367 35.0024C24.9671 39.4007 22.8768 46.5215 27.4698 56.3726C31.5663 65.1132 31.262 72.8514 26.5488 79.5873C25.6398 81.4998 24.2743 83.288 22.4443 84.9599C28.4629 82.3538 32.175 78.5849 33.5765 73.6533C34.8459 69.255 34.2372 64.2391 31.7545 58.5979C30.4211 55.5226 29.5241 53.0248 29.0716 51.1002C28.4829 48.5462 28.4789 46.3611 29.0516 44.5448C29.0636 44.5167 29.0716 44.4967 29.0716 44.4847C29.8044 42.2514 31.5142 40.383 34.1972 38.8715C36.6679 37.4802 39.9435 36.3936 44.0279 35.6038C42.0938 35.1106 40.0516 34.842 37.9012 34.8019C37.1284 34.7899 36.3315 34.8019 35.5186 34.842Z" fill="url(#paint1_linear_157_111)"/>
<path d="M32.5155 32.1757C29.5923 27.5368 27.3779 23.9844 25.8683 21.5106C23.1333 17.0722 21.2753 13.3514 20.3022 10.3443C19.0208 6.33491 19.0008 2.88679 20.2421 0C19.4933 0.749764 18.8526 1.53561 18.32 2.36557C16.0776 5.82571 15.537 10.0837 16.6982 15.1356C17.2308 17.4611 18.1879 20.2356 19.5614 23.4552C20.3342 25.2875 21.5355 27.9858 23.1653 31.5542C24.3546 34.2526 24.8472 36.7986 24.6469 39.1922C24.4067 41.6901 23.4056 43.8231 21.6437 45.5873C17.6513 49.6649 10.4394 51.3608 0 50.6792C4.28468 53.7946 9.49838 55.4024 15.6371 55.5106C16.1056 55.5226 16.5661 55.5186 17.0186 55.4906C21.1551 55.4224 24.7751 54.7368 27.8705 53.4257C30.5254 52.275 32.5556 50.7394 33.9571 48.8149C35.5188 46.6778 36.1996 44.184 35.9993 41.3373C35.8512 39.0238 34.6899 35.9726 32.5155 32.1757Z" fill="url(#paint2_linear_157_111)"/>
<path d="M32.5155 32.1757C29.5923 27.5368 27.3779 23.9844 25.8682 21.5106C23.1332 17.0722 21.2752 13.3514 20.3021 10.3443C19.0207 6.33491 19.0007 2.88679 20.2421 0C19.4933 0.749764 18.8526 1.53561 18.32 2.36557C15.7692 8.15118 18.308 17.2325 25.9283 29.6097C33.0841 41.2651 30.1129 49.8894 17.0186 55.4906C21.1551 55.4224 24.775 54.7368 27.8704 53.4257C30.5253 52.275 32.5555 50.7394 33.9571 48.8149C35.5188 46.6778 36.1995 44.184 35.9993 41.3373C35.8511 39.0238 34.6899 35.9726 32.5155 32.1757Z" fill="url(#paint3_linear_157_111)"/>
<path d="M33.6169 22.0118C33.1604 22.096 32.7399 22.2564 32.3555 22.4929C31.3024 23.1064 30.8218 24.1448 30.9139 25.6002C31.0341 27.0717 31.7028 28.5271 32.9161 29.9705C34.0894 31.4019 35.4909 32.3962 37.1207 32.9575C38.7225 33.5189 40.0519 33.4788 41.1051 32.8373C41.2292 32.7651 41.3413 32.6849 41.4455 32.5967C42.2864 31.9512 42.6548 30.9889 42.5467 29.7099C42.4265 28.2545 41.7578 26.8111 40.5445 25.3797C39.3712 23.9243 37.9817 22.9219 36.3799 22.3726C35.3428 22.0078 34.4218 21.8875 33.6169 22.0118Z" fill="url(#paint4_linear_157_111)"/>
<path d="M36.3797 22.3726C35.3386 22.0118 34.4176 21.8995 33.6167 22.0318C34.7499 27.0557 37.3688 30.584 41.4653 32.6167C42.2942 31.9632 42.6546 30.9929 42.5465 29.7099C42.4263 28.2545 41.7576 26.8111 40.5443 25.3797C39.371 23.9243 37.9815 22.9219 36.3797 22.3726Z" fill="url(#paint5_linear_157_111)"/>
</g>
<defs>
<linearGradient id="paint0_linear_157_111" x1="36.8183" y1="73.6513" x2="30.1153" y2="48.6968" gradientUnits="userSpaceOnUse">
<stop stop-color="#03FF00"/>
<stop offset="1" stop-color="#00BFDD"/>
</linearGradient>
<linearGradient id="paint1_linear_157_111" x1="43.8922" y1="37.7762" x2="17.9692" y2="75.8353" gradientUnits="userSpaceOnUse">
<stop stop-color="#00F9FF"/>
<stop offset="1" stop-color="#00FF0F"/>
</linearGradient>
<linearGradient id="paint2_linear_157_111" x1="12.328" y1="55.5756" x2="31.7495" y2="13.6454" gradientUnits="userSpaceOnUse">
<stop stop-color="#00D1FF"/>
<stop offset="1" stop-color="#5300FF"/>
</linearGradient>
<linearGradient id="paint3_linear_157_111" x1="11.8452" y1="17.5214" x2="28.1515" y2="42.03" gradientUnits="userSpaceOnUse">
<stop stop-color="#C300FF"/>
<stop offset="1" stop-color="#00D1FF"/>
</linearGradient>
<linearGradient id="paint4_linear_157_111" x1="42.7008" y1="28.1232" x2="30.7376" y2="27.1933" gradientUnits="userSpaceOnUse">
<stop stop-color="#61FFB3"/>
<stop offset="1" stop-color="#0039FF"/>
</linearGradient>
<linearGradient id="paint5_linear_157_111" x1="35.2235" y1="27.2972" x2="40.8995" y2="27.2972" gradientUnits="userSpaceOnUse">
<stop stop-color="white" stop-opacity="0.0667"/>
<stop offset="1" stop-color="white" stop-opacity="0.2784"/>
</linearGradient>
<clipPath id="clip0_157_111">
<rect width="183" height="85" fill="white"/>
</clipPath>
</defs>
</svg>
