<svg width="27" height="40" viewBox="0 0 27 40" fill="none" xmlns="http://www.w3.org/2000/svg">
<path d="M0.714255 5.42733e-06C0.166883 -0.00207223 -0.177141 0.592784 0.0953994 1.07008L7.81444 14.4787V19.2822C7.81464 19.3008 7.81558 19.3194 7.81721 19.338C4.56849 21.2837 2.3821 24.8223 2.3821 28.8738C2.38211 35.0127 7.38541 40 13.5312 40C19.677 40 24.6803 35.0127 24.6803 28.8738C24.6803 24.7967 22.467 21.2378 19.1842 19.3003C19.1842 19.2943 19.1842 19.2882 19.1842 19.2822V14.5053L26.9046 1.07008C27.1771 0.592784 26.8331 -0.00207223 26.2857 5.42733e-06H17.7633C17.5142 0.000650917 17.2835 0.132467 17.1555 0.347395L13.5007 6.46926L9.84445 0.347395C9.7162 0.132041 9.48496 0.000161468 9.23531 5.42733e-06H0.714255ZM1.94642 1.42863H8.83153L12.6723 7.85742L9.09655 13.8467L1.94642 1.42863ZM18.1615 1.42863H25.0577L17.6467 14.3336L10.4841 14.2932C13.0468 10.0013 15.6005 5.72023 18.1615 1.42863ZM9.23531 15.7176L17.7633 15.7609V18.586C16.457 18.049 15.0292 17.7476 13.5312 17.7476C12.0093 17.7476 10.5585 18.0564 9.23531 18.6098V15.7176ZM13.5312 19.1776C18.9153 19.1776 23.2595 23.5132 23.2595 28.8738C23.2595 34.2343 18.9153 38.5714 13.5312 38.5714C8.14713 38.5714 3.80298 34.2343 3.80298 28.8738C3.80298 23.5132 8.14713 19.1776 13.5312 19.1776ZM13.4965 21.4433C13.2158 21.4509 12.9658 21.6231 12.8583 21.8827L11.1488 25.9914L6.71271 26.3583C6.08598 26.4127 5.83234 27.1943 6.30754 27.607L9.68488 30.5103L8.66086 34.8422C8.5123 35.4591 9.18248 35.9482 9.72374 35.6179L13.5201 33.2964L17.3248 35.6137C17.8661 35.944 18.5363 35.4549 18.3877 34.838L17.3554 30.5061L20.7327 27.6028C21.216 27.1895 20.9572 26.3975 20.3234 26.35L15.8887 25.9914L14.1751 21.8827C14.0619 21.6095 13.7919 21.4346 13.4965 21.4433ZM13.5159 24.0103L14.7412 26.9401C14.8442 27.1864 15.0761 27.3544 15.342 27.3754L18.507 27.6335L16.0996 29.7081C15.8968 29.8816 15.8079 30.1541 15.8693 30.414L16.6047 33.5084L13.8892 31.8552C13.6624 31.7175 13.3779 31.7175 13.151 31.8552L10.4397 33.5084L11.171 30.414C11.2324 30.1541 11.1435 29.8816 10.9406 29.7081L8.53042 27.6377L11.6955 27.3796C11.9614 27.3585 12.1933 27.1906 12.2963 26.9443L13.5159 24.0103Z" fill="url(#paint0_linear_1452_351)"/>
<defs>
<linearGradient id="paint0_linear_1452_351" x1="13.5" y1="0" x2="13.5" y2="40" gradientUnits="userSpaceOnUse">
<stop stop-color="#F99566"/>
<stop offset="1" stop-color="#853CC5"/>
</linearGradient>
</defs>
</svg>
