<svg width="52" height="50" viewBox="0 0 52 50" fill="none" xmlns="http://www.w3.org/2000/svg">
<rect x="0.5" y="0.5" width="51" height="49" rx="4.5" stroke="#46458E"/>
<path d="M25.526 12.7587C21.2506 12.7587 17.776 16.2333 17.776 20.5087V24.2417C17.776 25.0296 17.4402 26.2308 17.0398 26.9025L15.5543 29.3696C14.6373 30.8937 15.2702 32.5858 16.9493 33.1542C22.5164 35.0142 28.5227 35.0142 34.0898 33.1542C35.6527 32.6375 36.3373 30.7904 35.4848 29.3696L33.9993 26.9025C33.6118 26.2308 33.276 25.0296 33.276 24.2417V20.5087C33.276 16.2462 29.7885 12.7587 25.526 12.7587Z" stroke="#666695" stroke-width="2.5" stroke-miterlimit="10" stroke-linecap="round"/>
<path d="M27.9154 13.1333C26.3534 12.6885 24.6982 12.6885 23.1362 13.1333C23.5108 12.1775 24.4408 11.5058 25.5258 11.5058C26.6108 11.5058 27.5408 12.1775 27.9154 13.1333Z" stroke="#666695" stroke-width="2.5" stroke-miterlimit="10" stroke-linecap="round" stroke-linejoin="round"/>
<path d="M29.4009 33.6192C29.4009 35.7504 27.6571 37.4942 25.5259 37.4942C24.4667 37.4942 23.485 37.055 22.7875 36.3575C22.0618 35.6307 21.6532 34.6463 21.6509 33.6192" stroke="#666695" stroke-width="1.5" stroke-miterlimit="10"/>
<circle cx="34" cy="14" r="4" fill="#ED6C55"/>
</svg>
