<svg width="23" height="21" viewBox="0 0 23 21" fill="none" xmlns="http://www.w3.org/2000/svg">
<path d="M18.335 2.945L2.08385 7.25164C1.94551 7.28723 1.82219 7.36208 1.7307 7.46599C1.6392 7.5699 1.58397 7.69782 1.57253 7.83233C1.5611 7.96684 1.59401 8.10139 1.66678 8.21767C1.73956 8.33394 1.84866 8.42628 1.97923 8.48211L9.44222 11.8044C9.58841 11.8681 9.70582 11.9785 9.77352 12.1161L13.3045 19.138C13.3638 19.2608 13.462 19.3635 13.5855 19.4319C13.7091 19.5004 13.8521 19.5314 13.9951 19.5206C14.1381 19.5099 14.274 19.4579 14.3845 19.3718C14.4949 19.2857 14.5744 19.1697 14.6123 19.0395L19.1894 3.74891C19.2241 3.63733 19.2263 3.51902 19.1957 3.40639C19.165 3.29376 19.1028 3.19096 19.0154 3.10875C18.928 3.02655 18.8188 2.96797 18.6991 2.93916C18.5794 2.91035 18.4536 2.91237 18.335 2.945V2.945Z" stroke="#787878" stroke-width="1.66727" stroke-linecap="round" stroke-linejoin="round"/>
<path d="M9.66895 11.9026L13.6097 8.19482" stroke="#787878" stroke-width="1.66727" stroke-linecap="round" stroke-linejoin="round"/>
</svg>
