<svg width="28" height="29" viewBox="0 0 28 29" fill="none" xmlns="http://www.w3.org/2000/svg">
<path d="M6.06043 0.93042C5.60834 0.259587 4.70418 0.0845867 4.03334 0.53667C2.76459 1.3825 1.62709 2.38875 0.65001 3.51167C0.110426 4.12417 0.183343 5.04292 0.78126 5.56792C1.05834 5.81584 1.40834 5.9325 1.74376 5.9325C2.15209 5.9325 2.56043 5.7575 2.83751 5.43667C3.65418 4.50334 4.60209 3.67209 5.66668 2.9575C6.33751 2.50542 6.51251 1.60125 6.06043 0.93042ZM26.9292 3.51167C25.9522 2.38875 24.8147 1.3825 23.5459 0.53667C22.8751 0.0845867 21.9709 0.259587 21.5188 0.93042C21.0667 1.60125 21.2417 2.50542 21.9126 2.9575C22.9772 3.67209 23.9251 4.50334 24.7417 5.43667C25.0188 5.7575 25.4272 5.9325 25.8355 5.9325C26.1709 5.9325 26.5209 5.81584 26.798 5.56792C27.3959 5.04292 27.4688 4.12417 26.9292 3.51167Z" fill="#22A8E1"/>
<path d="M13.7896 1.93689C6.55622 1.93689 0.664551 7.82856 0.664551 15.0619C0.664551 22.2952 6.55622 28.1869 13.7896 28.1869C21.0229 28.1869 26.9146 22.2952 26.9146 15.0619C26.9146 7.82856 21.0229 1.93689 13.7896 1.93689ZM17.7854 18.6202C17.4937 18.9411 17.1 19.1015 16.6916 19.1015C16.3562 19.1015 16.0062 18.9848 15.7291 18.7369L12.8271 16.1556C12.5062 15.8786 12.3312 15.4848 12.3312 15.0619V9.22856C12.3312 8.42647 12.9875 7.77022 13.7896 7.77022C14.5916 7.77022 15.2479 8.42647 15.2479 9.22856V14.4056L17.6687 16.5494C18.2666 17.089 18.325 18.0077 17.7854 18.6202Z" fill="url(#paint0_linear_1064_248)"/>
<defs>
<linearGradient id="paint0_linear_1064_248" x1="13.7896" y1="1.93689" x2="13.7896" y2="28.1869" gradientUnits="userSpaceOnUse">
<stop stop-color="#5C62FD"/>
<stop offset="1" stop-color="#00C2FF"/>
</linearGradient>
</defs>
</svg>
