<svg width="25" height="25" viewBox="0 0 25 25" fill="none" xmlns="http://www.w3.org/2000/svg">
<path d="M1.0415 22.9167H23.9582M20.604 22.9271V18.2813M2.18734 22.9167V6.28127C2.18734 4.18752 3.229 3.13544 5.30192 3.13544H11.7915C13.8644 3.13544 14.8957 4.18752 14.8957 6.28127V22.9167M6.0415 8.59377H11.1978M6.0415 12.5H11.1978M8.59359 22.9167V19.0104M20.6248 11.3438C19.354 11.3438 18.3332 12.3646 18.3332 13.6354V16C18.3332 17.2709 19.354 18.2917 20.6248 18.2917C21.8957 18.2917 22.9165 17.2709 22.9165 16V13.6354C22.9165 12.3646 21.8957 11.3438 20.6248 11.3438Z" stroke="white" stroke-width="1.5" stroke-miterlimit="10" stroke-linecap="round" stroke-linejoin="round"/>
</svg>
