<svg width="26" height="26" viewBox="0 0 26 26" fill="none" xmlns="http://www.w3.org/2000/svg">
<g clip-path="url(#clip0_368_1028)">
<path d="M7.5835 6.49998C7.87081 6.49998 8.14636 6.38584 8.34953 6.18268C8.55269 5.97951 8.66683 5.70396 8.66683 5.41665C8.66683 5.12933 8.55269 4.85378 8.34953 4.65061C8.14636 4.44745 7.87081 4.33331 7.5835 4.33331H5.41683C5.12951 4.33331 4.85396 4.44745 4.6508 4.65061C4.44763 4.85378 4.3335 5.12933 4.3335 5.41665V20.5833C4.3335 20.8706 4.44763 21.1462 4.6508 21.3493C4.85396 21.5525 5.12951 21.6666 5.41683 21.6666H7.5835C7.87081 21.6666 8.14636 21.5525 8.34953 21.3493C8.55269 21.1462 8.66683 20.8706 8.66683 20.5833C8.66683 20.296 8.55269 20.0204 8.34953 19.8173C8.14636 19.6141 7.87081 19.5 7.5835 19.5H6.50016V6.49998H7.5835ZM22.5552 12.3716L19.5002 8.03831C19.3345 7.80476 19.0831 7.6463 18.8009 7.59758C18.5187 7.54886 18.2287 7.61384 17.9943 7.77831C17.8772 7.86041 17.7774 7.96491 17.7009 8.08577C17.6243 8.20663 17.5724 8.34145 17.5483 8.48246C17.5241 8.62347 17.5281 8.76788 17.56 8.90733C17.592 9.04679 17.6512 9.17854 17.7343 9.29498L19.5977 11.9166H10.8335C10.5462 11.9166 10.2706 12.0308 10.0675 12.2339C9.8643 12.4371 9.75016 12.7127 9.75016 13C9.75016 13.2873 9.8643 13.5628 10.0675 13.766C10.2706 13.9692 10.5462 14.0833 10.8335 14.0833H19.5002L17.5502 16.6833C17.4648 16.7971 17.4027 16.9266 17.3674 17.0645C17.3321 17.2023 17.3243 17.3457 17.3444 17.4865C17.3645 17.6274 17.4122 17.7628 17.4846 17.8853C17.5571 18.0077 17.653 18.1146 17.7668 18.2C17.9543 18.3406 18.1824 18.4166 18.4168 18.4166C18.585 18.4166 18.7509 18.3775 18.9013 18.3023C19.0517 18.2271 19.1826 18.1179 19.2835 17.9833L22.5335 13.65C22.6722 13.4668 22.7491 13.2441 22.753 13.0143C22.7569 12.7846 22.6876 12.5595 22.5552 12.3716Z" fill="white"/>
</g>
<defs>
<clipPath id="clip0_368_1028">
<rect width="26" height="26" fill="white"/>
</clipPath>
</defs>
</svg>
