<svg width="21" height="21" viewBox="0 0 21 21" fill="none" xmlns="http://www.w3.org/2000/svg">
<path d="M17.85 0H3.15C2.31457 0 1.51335 0.331874 0.922614 0.922614C0.331874 1.51335 0 2.31457 0 3.15V17.85C0 18.6854 0.331874 19.4866 0.922614 20.0774C1.51335 20.6681 2.31457 21 3.15 21H17.85C18.0227 20.9976 18.1949 20.98 18.3645 20.9475L18.6795 20.874H18.753H18.8055L19.194 20.727L19.3305 20.6535C19.4355 20.5905 19.551 20.538 19.656 20.4645C19.7962 20.3613 19.9295 20.2491 20.055 20.1285L20.1285 20.034C20.2316 19.9295 20.3264 19.8172 20.412 19.698L20.5065 19.5615C20.5798 19.4446 20.6431 19.3217 20.6955 19.194C20.7243 19.1436 20.7489 19.0909 20.769 19.0365C20.8215 18.9105 20.853 18.774 20.895 18.6375V18.48C20.9545 18.2748 20.9898 18.0634 21 17.85V3.15C21 2.31457 20.6681 1.51335 20.0774 0.922614C19.4866 0.331874 18.6854 0 17.85 0ZM3.15 18.9C2.87152 18.9 2.60445 18.7894 2.40754 18.5925C2.21062 18.3955 2.1 18.1285 2.1 17.85V13.3245L5.5545 9.8595C5.65211 9.76109 5.76824 9.68297 5.89619 9.62966C6.02415 9.57636 6.16139 9.54891 6.3 9.54891C6.43861 9.54891 6.57585 9.57636 6.70381 9.62966C6.83176 9.68297 6.94789 9.76109 7.0455 9.8595L16.0755 18.9H3.15ZM18.9 17.85C18.899 17.9795 18.8741 18.1076 18.8265 18.228C18.8025 18.2792 18.7744 18.3283 18.7425 18.375C18.7144 18.4194 18.6828 18.4616 18.648 18.501L13.0305 12.8835L13.9545 11.9595C14.0521 11.8611 14.1682 11.783 14.2962 11.7297C14.4241 11.6764 14.5614 11.6489 14.7 11.6489C14.8386 11.6489 14.9759 11.6764 15.1038 11.7297C15.2318 11.783 15.3479 11.8611 15.4455 11.9595L18.9 15.4245V17.85ZM18.9 12.453L16.926 10.5C16.3251 9.92984 15.5283 9.61199 14.7 9.61199C13.8717 9.61199 13.0749 9.92984 12.474 10.5L11.55 11.424L8.526 8.4C7.92511 7.82984 7.12834 7.51199 6.3 7.51199C5.47166 7.51199 4.67489 7.82984 4.074 8.4L2.1 10.353V3.15C2.1 2.87152 2.21062 2.60445 2.40754 2.40754C2.60445 2.21062 2.87152 2.1 3.15 2.1H17.85C18.1285 2.1 18.3955 2.21062 18.5925 2.40754C18.7894 2.60445 18.9 2.87152 18.9 3.15V12.453Z" fill="white"/>
</svg>
