<svg width="36" height="36" viewBox="0 0 36 36" fill="none" xmlns="http://www.w3.org/2000/svg">
<path d="M20.7605 16.6588C20.8811 16.7722 21.004 16.8791 21.1291 16.9795C22.0968 17.7556 23.1304 18.0889 24.1151 18.1416C25.7728 18.2304 27.2475 17.4906 27.8469 17.1899C27.9146 17.1559 27.9712 17.1276 28.0156 17.1067C28.7648 16.7532 29.0857 15.8593 28.7323 15.11C28.3788 14.3608 27.4849 14.0399 26.7356 14.3934C26.6535 14.4322 26.5701 14.4724 26.4855 14.5132C25.8223 14.8333 25.0849 15.1893 24.2756 15.1459C23.8814 15.1248 23.4568 15.0006 23.0062 14.6392C22.5373 14.2631 21.9772 13.5778 21.4356 12.3355C20.9966 11.3286 20.3432 10.5484 19.4147 10.1056C18.5248 9.68136 17.5781 9.66313 16.7345 9.76326C14.4735 10.0317 12.7555 11.3428 11.5869 12.5603C10.6248 13.5628 9.9069 14.6504 9.55492 15.1837C9.4833 15.2923 9.42675 15.3778 9.38647 15.4351C8.90947 16.1124 9.07185 17.0482 9.7491 17.5252C10.4264 18.0022 11.3622 17.8399 11.8392 17.1625C11.923 17.0435 12.0153 16.9047 12.118 16.7503C12.493 16.1861 13.0067 15.4135 13.7513 14.6377C14.3379 14.0264 14.9946 13.4979 15.7178 13.1505C15.5505 13.6113 15.3606 14.135 15.1683 14.6669C14.6136 16.2014 13.9954 17.9226 13.8958 18.2671C13.8048 18.5816 13.8328 18.8506 13.8538 18.9848C13.8776 19.1363 13.9177 19.2644 13.9498 19.3542C14.0139 19.5334 14.0987 19.7025 14.1733 19.8394C14.3266 20.1207 14.5363 20.4455 14.7621 20.7751C15.2197 21.4433 15.836 22.2649 16.4473 23.0592C16.9871 23.7608 17.5369 24.459 17.9892 25.0333L18.1704 25.2635C18.4132 25.5721 18.6163 25.8308 18.7657 26.0249C18.833 26.1124 18.8788 26.1733 18.9083 26.2128C18.9373 26.3125 18.9743 26.457 19.0184 26.6467C19.106 27.0238 19.207 27.5148 19.3135 28.0538C19.382 28.4005 19.4533 28.7699 19.5236 29.1352C19.6657 29.8721 19.8046 30.5926 19.911 31.0738C20.0898 31.8827 20.8905 32.3935 21.6994 32.2147C22.5082 32.0358 23.0191 31.2351 22.8403 30.4262C22.7425 29.9838 22.618 29.3383 22.4819 28.6318C22.4095 28.2555 22.3336 27.8618 22.2567 27.4724C22.1491 26.928 22.0401 26.3961 21.9405 25.9676C21.891 25.7545 21.84 25.5503 21.7891 25.3753C21.7522 25.2484 21.6747 24.9859 21.5441 24.7578C21.451 24.5951 21.2713 24.3617 21.1496 24.2036L21.1428 24.1948C20.9821 23.986 20.7693 23.7149 20.5279 23.4082L20.3455 23.1766C19.8925 22.6013 19.3535 21.9168 18.8248 21.2297C18.7667 21.1542 18.7089 21.0788 18.6514 21.0037L20.7605 16.6588ZM15.4551 25.7481L13.3141 22.772L12.6985 24.5414L8.9685 23.6648C8.16202 23.4752 7.35466 23.9754 7.16512 24.7818C6.97559 25.5883 7.4757 26.3957 8.28217 26.5852L13.3279 27.7711C14.0758 27.9468 14.8354 27.5293 15.0879 26.8037L15.4551 25.7481Z" stroke="white" stroke-width="1.5" stroke-linecap="round" stroke-linejoin="round"/>
<circle cx="26.1626" cy="8.58139" r="2.80814" stroke="white" stroke-width="1.5"/>
</svg>
