<svg width="28" height="28" viewBox="0 0 28 28" fill="none" xmlns="http://www.w3.org/2000/svg">
<path d="M14 17.5C14.9283 17.5 15.8185 17.1313 16.4749 16.4749C17.1313 15.8185 17.5 14.9283 17.5 14C17.5 13.0717 17.1313 12.1815 16.4749 11.5251C15.8185 10.8687 14.9283 10.5 14 10.5C13.0717 10.5 12.1815 10.8687 11.5251 11.5251C10.8687 12.1815 10.5 13.0717 10.5 14C10.5 14.9283 10.8687 15.8185 11.5251 16.4749C12.1815 17.1313 13.0717 17.5 14 17.5Z" stroke="white" stroke-width="1.5" stroke-miterlimit="10" stroke-linecap="round" stroke-linejoin="round"/>
<path d="M2.3335 15.0267V12.9734C2.3335 11.76 3.32516 10.7567 4.55016 10.7567C6.66183 10.7567 7.52516 9.26336 6.4635 7.43169C5.85683 6.38169 6.2185 5.01669 7.28016 4.41003L9.2985 3.25503C10.2202 2.70669 11.4102 3.03336 11.9585 3.95503L12.0868 4.17669C13.1368 6.00836 14.8635 6.00836 15.9252 4.17669L16.0535 3.95503C16.6018 3.03336 17.7918 2.70669 18.7135 3.25503L20.7318 4.41003C21.7935 5.01669 22.1552 6.38169 21.5485 7.43169C20.4868 9.26336 21.3502 10.7567 23.4618 10.7567C24.6752 10.7567 25.6785 11.7484 25.6785 12.9734V15.0267C25.6785 16.24 24.6868 17.2434 23.4618 17.2434C21.3502 17.2434 20.4868 18.7367 21.5485 20.5684C22.1552 21.63 21.7935 22.9834 20.7318 23.59L18.7135 24.745C17.7918 25.2934 16.6018 24.9667 16.0535 24.045L15.9252 23.8234C14.8752 21.9917 13.1485 21.9917 12.0868 23.8234L11.9585 24.045C11.4102 24.9667 10.2202 25.2934 9.2985 24.745L7.28016 23.59C6.77161 23.2972 6.40001 22.8146 6.2469 22.2481C6.09379 21.6816 6.17169 21.0775 6.4635 20.5684C7.52516 18.7367 6.66183 17.2434 4.55016 17.2434C3.32516 17.2434 2.3335 16.24 2.3335 15.0267Z" stroke="white" stroke-width="1.5" stroke-miterlimit="10" stroke-linecap="round" stroke-linejoin="round"/>
</svg>
