<svg width="30" height="19" viewBox="0 0 30 19" fill="none" xmlns="http://www.w3.org/2000/svg">
<path d="M29.4195 0.147522H22.7378C22.663 0.147566 22.5891 0.16433 22.5217 0.196574C22.4543 0.228818 22.395 0.275719 22.3482 0.333814L20.1499 3.06802L19.3761 0.501205C19.3453 0.398956 19.2822 0.309318 19.1961 0.245602C19.11 0.181886 19.0056 0.14749 18.8983 0.147522H9.47416C7.66004 0.147495 5.88405 0.665691 4.35727 1.64053C2.83048 2.61536 1.6171 4.00584 0.861324 5.64672C0.105547 7.28759 -0.160843 9.10987 0.0938121 10.897C0.348467 12.6841 1.11346 14.3609 2.29787 15.728C3.48229 17.0952 5.03632 18.0953 6.77528 18.6095C8.51424 19.1236 10.365 19.1302 12.1076 18.6285C13.8502 18.1267 15.4114 17.1377 16.6057 15.779C17.7999 14.4203 18.5769 12.749 18.8445 10.9638L29.5292 8.56943C29.6396 8.54465 29.7382 8.48323 29.8089 8.39527C29.8796 8.30731 29.9181 8.19803 29.9181 8.08541V0.64364C29.9181 0.512061 29.8656 0.385871 29.772 0.292831C29.6785 0.199791 29.5517 0.147522 29.4195 0.147522ZM28.9208 7.68852L18.285 10.0721C18.1837 10.0948 18.092 10.1484 18.0228 10.2254C17.9535 10.3025 17.9102 10.3991 17.8989 10.5018C17.7187 12.1204 17.0714 13.6524 16.0352 14.9129C14.999 16.1734 13.6182 17.1085 12.0595 17.6053C10.5008 18.102 8.83086 18.1391 7.25142 17.7121C5.67198 17.2852 4.25056 16.4124 3.1588 15.1991C2.06705 13.9859 1.35167 12.4841 1.09904 10.8752C0.846416 9.26628 1.06736 7.61898 1.73518 6.13226C2.403 4.64554 3.48915 3.38297 4.86245 2.49705C6.23574 1.61112 7.83746 1.13971 9.47416 1.13976H18.5275L19.4677 4.2589C19.4938 4.34565 19.5433 4.42364 19.6108 4.48441C19.6782 4.54519 19.7611 4.58643 19.8505 4.60368C19.9398 4.62092 20.0322 4.61351 20.1176 4.58224C20.203 4.55097 20.2782 4.49704 20.335 4.42629L22.9771 1.13976H28.9208V7.68852Z" fill="white"/>
</svg>
