<svg width="40" height="40" viewBox="0 0 40 40" fill="none" xmlns="http://www.w3.org/2000/svg">
<path fill-rule="evenodd" clip-rule="evenodd" d="M14.6965 26.4816L26.4815 14.6966C26.8065 14.3716 26.8065 13.8433 26.4815 13.5183C26.1565 13.1933 25.6282 13.1933 25.3032 13.5183L13.5182 25.3033C13.1932 25.6283 13.1932 26.1566 13.5182 26.4816C13.8432 26.8066 14.3715 26.8066 14.6965 26.4816Z" fill="white"/>
<path fill-rule="evenodd" clip-rule="evenodd" d="M26.4815 25.3033L14.6965 13.5183C14.3715 13.1933 13.8432 13.1933 13.5182 13.5183C13.1932 13.8433 13.1932 14.3716 13.5182 14.6966L25.3032 26.4816C25.6282 26.8066 26.1565 26.8066 26.4815 26.4816C26.8065 26.1566 26.8065 25.6283 26.4815 25.3033Z" fill="white"/>
</svg>
