<svg width="13" height="13" viewBox="0 0 13 13" fill="none" xmlns="http://www.w3.org/2000/svg">
<path d="M6.49968 1.08331C5.42836 1.08331 4.3811 1.40099 3.49034 1.99619C2.59957 2.59138 1.9053 3.43734 1.49533 4.42711C1.08535 5.41688 0.978087 6.50599 1.18709 7.55672C1.39609 8.60745 1.91198 9.57261 2.66952 10.3301C3.42705 11.0877 4.39221 11.6036 5.44294 11.8126C6.49367 12.0216 7.58278 11.9143 8.57255 11.5043C9.56231 11.0944 10.4083 10.4001 11.0035 9.50932C11.5987 8.61855 11.9163 7.5713 11.9163 6.49998C11.9147 5.06388 11.3436 3.68706 10.3281 2.67158C9.3126 1.65611 7.93578 1.08491 6.49968 1.08331ZM6.49968 10.8333C5.64262 10.8333 4.80482 10.5792 4.09221 10.103C3.37959 9.62686 2.82418 8.95009 2.4962 8.15827C2.16822 7.36646 2.0824 6.49517 2.24961 5.65459C2.41681 4.814 2.82952 4.04188 3.43555 3.43585C4.04158 2.82982 4.8137 2.41711 5.65429 2.24991C6.49487 2.08271 7.36616 2.16852 8.15797 2.4965C8.94979 2.82448 9.62656 3.3799 10.1027 4.09251C10.5789 4.80512 10.833 5.64293 10.833 6.49998C10.8317 7.64885 10.3747 8.75028 9.56235 9.56266C8.74998 10.375 7.64855 10.832 6.49968 10.8333ZM6.49968 6.22915C6.35602 6.22915 6.21824 6.28621 6.11666 6.3878C6.01508 6.48938 5.95801 6.62715 5.95801 6.77081V8.39581C5.95801 8.53947 6.01508 8.67725 6.11666 8.77883C6.21824 8.88041 6.35602 8.93748 6.49968 8.93748C6.64334 8.93748 6.78111 8.88041 6.88269 8.77883C6.98428 8.67725 7.04134 8.53947 7.04134 8.39581V6.77081C7.04134 6.62715 6.98428 6.48938 6.88269 6.3878C6.78111 6.28621 6.64334 6.22915 6.49968 6.22915ZM6.49968 4.06248C6.36576 4.06248 6.23486 4.10219 6.12351 4.17659C6.01216 4.25099 5.92538 4.35673 5.87413 4.48045C5.82289 4.60418 5.80948 4.74031 5.8356 4.87166C5.86173 5.003 5.92622 5.12364 6.02091 5.21833C6.1156 5.31302 6.23624 5.37751 6.36758 5.40364C6.49893 5.42976 6.63507 5.41635 6.75879 5.36511C6.88251 5.31386 6.98825 5.22708 7.06265 5.11573C7.13705 5.00438 7.17676 4.87348 7.17676 4.73956C7.17676 4.55999 7.10543 4.38777 6.97845 4.26079C6.85147 4.13382 6.67925 4.06248 6.49968 4.06248Z" fill="#CECECE"/>
</svg>
