<svg width="30" height="30" viewBox="0 0 30 30" fill="none" xmlns="http://www.w3.org/2000/svg">
<path d="M15 28.125C15.2115 28.1238 15.4163 28.0511 15.5813 27.9188C15.9375 27.6 25.3125 20.0438 25.3125 12.1875C25.3125 9.45246 24.226 6.82943 22.292 4.89546C20.3581 2.96149 17.735 1.875 15 1.875C12.265 1.875 9.64193 2.96149 7.70796 4.89546C5.77399 6.82943 4.6875 9.45246 4.6875 12.1875C4.6875 20.0438 14.0625 27.6 14.4187 27.9188C14.5837 28.0511 14.7885 28.1238 15 28.125ZM6.5625 12.1875C6.5625 9.94974 7.45145 7.80362 9.03379 6.22129C10.6161 4.63895 12.7622 3.75 15 3.75C17.2378 3.75 19.3839 4.63895 20.9662 6.22129C22.5486 7.80362 23.4375 9.94974 23.4375 12.1875C23.4375 18.0938 16.9969 24.1969 15 25.9594C13.0031 24.1969 6.5625 18.0938 6.5625 12.1875Z" fill="white"/>
<path d="M19.6875 12.1875C19.6875 11.2604 19.4126 10.3541 18.8975 9.58327C18.3824 8.81241 17.6504 8.2116 16.7938 7.85682C15.9373 7.50203 14.9948 7.4092 14.0855 7.59007C13.1762 7.77094 12.341 8.21738 11.6854 8.87294C11.0299 9.5285 10.5834 10.3637 10.4026 11.273C10.2217 12.1823 10.3145 13.1248 10.6693 13.9813C11.0241 14.8379 11.6249 15.5699 12.3958 16.085C13.1666 16.6001 14.0729 16.875 15 16.875C16.2432 16.875 17.4355 16.3811 18.3146 15.5021C19.1936 14.623 19.6875 13.4307 19.6875 12.1875ZM12.1875 12.1875C12.1875 11.6312 12.3525 11.0875 12.6615 10.625C12.9705 10.1624 13.4098 9.80196 13.9237 9.58909C14.4376 9.37622 15.0031 9.32052 15.5487 9.42904C16.0943 9.53756 16.5954 9.80543 16.9887 10.1988C17.3821 10.5921 17.6499 11.0932 17.7585 11.6388C17.867 12.1844 17.8113 12.7499 17.5984 13.2638C17.3855 13.7777 17.0251 14.217 16.5625 14.526C16.1 14.8351 15.5563 15 15 15C14.2541 15 13.5387 14.7037 13.0113 14.1762C12.4838 13.6488 12.1875 12.9334 12.1875 12.1875Z" fill="white"/>
</svg>
