<svg width="50" height="50" viewBox="0 0 50 50" fill="none" xmlns="http://www.w3.org/2000/svg">
<circle cx="25" cy="25" r="25" fill="#FF8D4E"/>
<g clip-path="url(#clip0_347_339)">
<path d="M14.1539 16.7155L20.6116 19.1663L14.5819 24.3223C14.1863 24.6599 14.0937 25.247 14.386 25.6936C14.7032 26.1781 15.3533 26.3137 15.8377 25.9966L20.7813 22.76C20.7813 22.76 19.8807 25.5075 19.8084 25.6929C19.4778 26.5409 19.8972 27.4965 20.7453 27.8272L26.7722 30.1771L30.4318 34.7602C30.8693 35.3067 31.6661 35.4144 32.2323 34.9932C32.8111 34.5627 32.9312 33.7444 32.5007 33.1655L29.1642 28.6805L30.1908 28.802L34.8013 31.5177C35.403 31.871 36.1839 31.6898 36.564 31.0972C36.9534 30.4898 36.7766 29.682 36.1694 29.2925L31.3931 26.2302C31.2585 26.1447 31.1001 26.0796 30.9336 26.0494L30.8622 26.0364L26.2592 25.2007C26.2592 25.2007 28.4025 18.875 25.9109 17.7216L15.0141 14.2491C14.3582 14.0416 13.643 14.3792 13.3959 15.0304C13.1399 15.7051 13.4793 16.4595 14.1539 16.7155Z" fill="white"/>
<path d="M25.8469 17.2216C26.2021 17.4606 26.6042 17.6261 27.0241 17.7081L27.0283 17.709C28.0686 17.9108 29.1627 17.5759 29.913 16.8276C30.6739 16.0681 31.008 14.9451 30.7863 13.8929C30.5703 12.8681 29.8458 11.9907 28.8783 11.5883C27.8884 11.1764 26.734 11.2907 25.845 11.8899C24.9558 12.4891 24.4169 13.5161 24.4269 14.5884C24.437 15.6361 24.9782 16.6369 25.8469 17.2216Z" fill="white"/>
<path d="M39.9992 38.0629C39.9992 37.8628 39.837 37.7005 39.6368 37.7005C39.3239 37.7005 39.1837 37.6513 39.0054 37.5887C38.7861 37.5116 38.5377 37.4243 38.065 37.4243C37.5922 37.4243 37.3437 37.5116 37.1238 37.5889C36.9462 37.6513 36.806 37.7005 36.4929 37.7005C36.1798 37.7005 36.0396 37.6513 35.8615 37.5887C35.6423 37.5116 35.3938 37.4243 34.9211 37.4243C34.4485 37.4243 34.2001 37.5117 33.9803 37.5889C33.8028 37.6513 33.6626 37.7005 33.3495 37.7005C33.0364 37.7005 32.8962 37.6513 32.7181 37.5887C32.4988 37.5116 32.2504 37.4243 31.7778 37.4243C31.3052 37.4243 31.0568 37.5116 30.8369 37.5889C30.6594 37.6513 30.5192 37.7005 30.2061 37.7005C29.8931 37.7005 29.7529 37.6513 29.5748 37.5887C29.3556 37.5117 29.1073 37.4243 28.6346 37.4243C28.1619 37.4243 27.9135 37.5117 27.6938 37.5889C27.5163 37.6513 27.376 37.7005 27.0631 37.7005C26.7502 37.7005 26.6101 37.6513 26.432 37.5887C26.2128 37.5117 25.9644 37.4243 25.4918 37.4243C25.0191 37.4243 24.7707 37.5117 24.551 37.5889C24.3734 37.6513 24.2332 37.7005 23.9203 37.7005C23.6074 37.7005 23.4672 37.6513 23.2891 37.5887C23.0699 37.5117 22.8215 37.4243 22.3489 37.4243C21.8762 37.4243 21.6278 37.5117 21.408 37.5889C21.2305 37.6513 21.0904 37.7005 20.7774 37.7005C20.4645 37.7005 20.3243 37.6513 20.1462 37.5887C19.927 37.5117 19.6786 37.4243 19.2059 37.4243C18.7331 37.4243 18.4847 37.5117 18.265 37.589C18.0875 37.6513 17.9473 37.7005 17.6343 37.7005C17.3214 37.7005 17.1813 37.6513 17.0032 37.5887C16.784 37.5117 16.5357 37.4243 16.063 37.4243C15.5904 37.4243 15.3419 37.5116 15.122 37.5889C14.9445 37.6513 14.8044 37.7005 14.4913 37.7005C14.1784 37.7005 14.0383 37.6513 13.8602 37.5887C13.7458 37.5485 13.6135 37.502 13.4378 37.4688V37.415C13.4378 37.2149 13.2756 37.0526 13.0754 37.0526H11.3624C11.1622 37.0526 11 37.2149 11 37.415V39.2937C11 39.4938 11.1622 39.6561 11.3624 39.6561H39.6376C39.8378 39.6561 40 39.4938 40 39.2937L39.9992 38.0629Z" fill="white"/>
</g>
<defs>
<clipPath id="clip0_347_339">
<rect width="29" height="29" fill="white" transform="translate(11 11)"/>
</clipPath>
</defs>
</svg>
