<svg width="14" height="14" viewBox="0 0 14 14" fill="none" xmlns="http://www.w3.org/2000/svg">
<g clip-path="url(#clip0_321_962)">
<path d="M12.1975 5.15665L4.99337 1.30082C4.83079 1.21451 4.64953 1.16937 4.46546 1.16937C4.28138 1.16937 4.10012 1.21451 3.93754 1.30082L1.80837 2.40915C1.6164 2.51436 1.45579 2.66864 1.34295 2.85623C1.23011 3.04382 1.1691 3.258 1.16613 3.4769C1.16316 3.69579 1.21836 3.91155 1.32607 4.10213C1.43378 4.29271 1.59015 4.45129 1.77921 4.56165L8.90754 8.60415C9.08067 8.70017 9.2754 8.75055 9.47337 8.75055C9.67135 8.75055 9.86607 8.70017 10.0392 8.60415L12.25 7.29749C12.4352 7.18434 12.5873 7.02446 12.6912 6.83391C12.795 6.64337 12.8468 6.42885 12.8415 6.21192C12.8362 5.99499 12.7739 5.78328 12.6608 5.59805C12.5478 5.41281 12.388 5.26059 12.1975 5.15665Z" stroke="#111111" stroke-width="1.16667" stroke-linecap="round" stroke-linejoin="round"/>
<path d="M7.00005 12.8333V7.58332M1.80255 5.15665L9.00671 1.30082C9.16929 1.21451 9.35056 1.16937 9.53463 1.16937C9.7187 1.16937 9.89997 1.21451 10.0625 1.30082L12.1917 2.40915C12.3852 2.5117 12.5481 2.6638 12.6635 2.84991C12.779 3.03602 12.843 3.24945 12.8489 3.46838C12.8548 3.68732 12.8025 3.9039 12.6973 4.09599C12.5921 4.28808 12.4377 4.44877 12.25 4.56165L5.09255 8.60415C4.91941 8.70017 4.72469 8.75055 4.52671 8.75055C4.32874 8.75055 4.13401 8.70017 3.96088 8.60415L1.75005 7.29749C1.56488 7.18434 1.41275 7.02446 1.30893 6.83391C1.20511 6.64337 1.15326 6.42885 1.15857 6.21192C1.16389 5.99499 1.2262 5.78328 1.33924 5.59805C1.45227 5.41281 1.61206 5.26059 1.80255 5.15665Z" stroke="#111111" stroke-width="1.16667" stroke-linecap="round" stroke-linejoin="round"/>
<path d="M11.6667 7.875V9.84083C11.6669 10.061 11.6067 10.277 11.4925 10.4653C11.3783 10.6535 11.2146 10.8068 11.0192 10.9083L7.51921 12.705C7.35884 12.7883 7.18077 12.8319 7.00004 12.8319C6.81931 12.8319 6.64124 12.7883 6.48087 12.705L2.98087 10.9083C2.78551 10.8068 2.62179 10.6535 2.5076 10.4653C2.39342 10.277 2.33315 10.061 2.33337 9.84083V7.875" stroke="#111111" stroke-width="1.16667" stroke-linecap="round" stroke-linejoin="round"/>
</g>
<defs>
<clipPath id="clip0_321_962">
<rect width="14" height="14" fill="white"/>
</clipPath>
</defs>
</svg>
