<svg width="12" height="12" viewBox="0 0 12 12" fill="none" xmlns="http://www.w3.org/2000/svg">
<path d="M3 4H5" stroke="#111111" stroke-width="0.625" stroke-linecap="round" stroke-linejoin="round"/>
<path d="M10.4165 4.5H9.1155C8.223 4.5 7.5 5.1715 7.5 6C7.5 6.8285 8.2235 7.5 9.115 7.5H10.4165C10.4585 7.5 10.479 7.5 10.4965 7.499C10.7665 7.4825 10.9815 7.283 10.999 7.0325C11 7.0165 11 6.997 11 6.9585V5.0415C11 5.003 11 4.9835 10.999 4.9675C10.981 4.717 10.7665 4.5175 10.4965 4.501C10.4795 4.5 10.4585 4.5 10.4165 4.5Z" stroke="#111111" stroke-width="0.625"/>
<path d="M10.4825 4.5C10.4435 3.564 10.3185 2.99 9.914 2.586C9.3285 2 8.3855 2 6.5 2H5C3.1145 2 2.1715 2 1.586 2.586C1 3.1715 1 4.1145 1 6C1 7.8855 1 8.8285 1.586 9.414C2.1715 10 3.1145 10 5 10H6.5C8.3855 10 9.3285 10 9.914 9.414C10.3185 9.01 10.444 8.436 10.4825 7.5" stroke="#111111" stroke-width="0.625"/>
<path d="M8.99548 6H8.99965" stroke="#111111" stroke-width="0.833333" stroke-linecap="round" stroke-linejoin="round"/>
</svg>
