<svg width="20" height="20" viewBox="0 0 20 20" fill="none" xmlns="http://www.w3.org/2000/svg">
<path opacity="0.4" d="M20 10C20 15.515 15.514 20 10 20C4.486 20 0 15.515 0 10C0 4.486 4.486 0 10 0C15.514 0 20 4.486 20 10Z" fill="black"/>
<path d="M14.2211 8.55797C14.2211 8.74897 14.1481 8.94097 14.0021 9.08697L10.5321 12.574C10.3911 12.715 10.2001 12.794 10.0001 12.794C9.80107 12.794 9.61007 12.715 9.46907 12.574L5.99707 9.08697C5.70507 8.79397 5.70507 8.31997 5.99907 8.02697C6.29307 7.73497 6.76807 7.73597 7.06007 8.02897L10.0001 10.982L12.9401 8.02897C13.2321 7.73597 13.7061 7.73497 14.0001 8.02697C14.1481 8.17297 14.2211 8.36597 14.2211 8.55797Z" fill="black"/>
</svg>
