<svg width="40" height="40" viewBox="0 0 40 40" fill="none" xmlns="http://www.w3.org/2000/svg">
<circle cx="20" cy="20" r="20" fill="#D6D6D6"/>
<g clip-path="url(#clip0_1_83)">
<path d="M18.973 14.3283L12.8333 20.5L18.9731 26.6717C19.0285 26.7445 19.0989 26.8045 19.1796 26.8478C19.2603 26.891 19.3493 26.9164 19.4407 26.9222C19.532 26.928 19.6235 26.9142 19.709 26.8815C19.7946 26.8489 19.8721 26.7983 19.9363 26.7331C20.0006 26.6679 20.0501 26.5897 20.0815 26.5038C20.1129 26.4178 20.1254 26.3261 20.1183 26.2348C20.1112 26.1436 20.0845 26.0549 20.0401 25.9749C19.9958 25.8948 19.9347 25.8252 19.8611 25.7708L15.2675 21.1389L27.4894 21.1389C27.6589 21.1389 27.8214 21.0716 27.9412 20.9518C28.061 20.8319 28.1283 20.6694 28.1283 20.5C28.1283 20.3306 28.061 20.1681 27.9412 20.0482C27.8214 19.9284 27.6589 19.8611 27.4894 19.8611L15.2675 19.8611L19.8611 15.2292C19.9806 15.1089 20.0473 14.946 20.0467 14.7765C20.0461 14.607 19.9782 14.4446 19.8579 14.3251C19.7376 14.2057 19.5748 14.1389 19.4052 14.1395C19.2357 14.1401 19.0733 14.208 18.9539 14.3283L18.973 14.3283Z" fill="#111111"/>
</g>
<defs>
<clipPath id="clip0_1_83">
<rect width="23" height="23" fill="white" transform="translate(9 32) rotate(-90)"/>
</clipPath>
</defs>
</svg>
