<svg width="30" height="26" viewBox="0 0 30 26" fill="none" xmlns="http://www.w3.org/2000/svg">
<path d="M28.8924 14.4412C29.0244 16.4704 27.9833 18.4211 26.1211 19.6125L27.2501 21.5631C27.5874 22.1523 27.6314 22.8461 27.3381 23.4615C27.0595 24.0768 26.4876 24.5612 25.7838 24.7706L24.6254 25.0979C24.1431 25.243 23.6223 25.2517 23.1342 25.1229C22.6462 24.994 22.2145 24.7338 21.8981 24.3779L18.7895 21.1049C17.4845 20.9085 16.2528 20.4111 15.2117 19.6648C14.4785 19.8612 13.7454 19.9659 13.0122 19.9659C11.7218 19.9659 10.4315 19.6125 9.34641 18.9317C8.56926 19.1411 7.77745 19.2328 6.97098 19.2197C5.81259 19.2328 4.66886 19.0233 3.59845 18.6306C2.56813 18.2201 1.68775 17.5594 1.05774 16.7237C0.42773 15.8881 0.0734489 14.9112 0.0353097 13.9044C-0.0819954 12.9618 0.0939624 12.0061 0.54852 11.142C0.123289 10.1601 0.0792992 9.08662 0.445878 8.09164C0.988414 6.84792 2.01483 5.81366 3.29053 5.15907C4.14099 2.94655 6.53108 1.46717 9.15579 1.62427C11.5019 -0.339501 15.0944 -0.54897 17.7044 1.13988C18.3203 0.995866 18.9654 0.917315 19.6106 0.917315C21.6048 0.878039 23.4963 1.66355 24.7427 3.06438C27.734 3.75824 29.8748 6.14096 29.9921 8.91642C30.0654 10.3696 29.6255 11.7966 28.7311 13.0142C28.8337 13.4855 28.8924 13.9568 28.8924 14.4412ZM21.5608 12.5952C22.3966 12.6869 23.0565 13.2498 23.0565 13.9961C23.0565 14.3433 22.902 14.6763 22.627 14.9218C22.352 15.1673 21.979 15.3052 21.5901 15.3052H20.6664C20.1971 16.4835 19.376 17.5178 18.2909 18.3033C18.6575 18.4211 19.0388 18.4866 19.42 18.5782C26.9422 18.4866 26.0624 14.3888 26.0624 14.3234C26.0235 13.4241 25.5861 12.5754 24.8463 11.9641C24.1066 11.3527 23.1252 11.0288 22.118 11.0635C21.7291 11.0635 21.3562 10.9256 21.0812 10.68C20.8062 10.4345 20.6517 10.1015 20.6517 9.7543C20.6517 9.40708 20.8062 9.07409 21.0812 8.82857C21.3562 8.58305 21.7291 8.44512 22.118 8.44512C23.9216 8.48439 25.6518 9.08662 27.0008 10.1471C27.0742 9.76739 27.1181 9.37464 27.1181 8.98188C27.0302 7.3585 26.209 5.94458 22.9098 5.66965C21.0769 1.79447 16.458 3.94153 16.458 5.14598C16.414 5.44709 16.766 6.08859 16.8246 6.12786C17.2135 6.12786 17.5865 6.2658 17.8615 6.51131C18.1364 6.75683 18.2909 7.08983 18.2909 7.43705C18.2909 8.1571 17.6311 8.74623 16.8246 8.74623C16.0475 8.72005 15.3143 8.45821 14.7278 8.01309C14.024 8.41893 13.2175 8.66768 12.3817 8.74623C11.5459 8.81169 10.8567 8.28802 10.8127 7.56797C10.7857 7.39695 10.7981 7.22281 10.8492 7.05624C10.9003 6.88966 10.989 6.73417 11.1098 6.59931C11.2307 6.46445 11.3811 6.35306 11.5519 6.27199C11.7227 6.19092 11.9103 6.14187 12.1031 6.12786C12.3377 6.10168 13.4814 5.94458 13.4814 5.11979C13.4814 4.25573 13.848 3.43095 14.4785 2.77636C13.1295 2.44906 11.6779 2.88109 10.2115 4.4652C7.51352 4.08554 6.41378 4.41283 5.60731 6.96574C4.21431 7.58106 3.48115 8.01309 3.15856 9.32227C4.74218 9.03425 6.36979 9.15208 7.88009 9.64957C8.61325 9.89831 9.02382 10.6315 8.74522 11.3384C8.46662 12.0192 7.61616 12.3596 6.85367 12.1108C5.78326 11.6919 4.58089 11.6657 3.48115 12.0323C3.01193 12.3858 3.01193 13.1189 3.01193 13.6949C3.01193 14.6637 3.55447 15.5671 4.47824 16.0907C5.25539 16.4442 6.12052 16.6275 6.98564 16.6144C6.7657 16.274 6.57507 15.9206 6.41378 15.554C6.29834 15.2176 6.33351 14.8544 6.51187 14.5407C6.69023 14.227 6.9979 13.9873 7.37015 13.872C7.7424 13.7567 8.15024 13.7748 8.50787 13.9224C8.8655 14.0701 9.14507 14.3358 9.28776 14.6637C9.87428 16.1562 11.3699 17.1774 13.1295 17.3476C15.1384 17.2559 16.9273 16.1955 17.807 14.559C18.1443 12.7523 19.7719 12.5952 21.5608 12.5952ZM24.4934 22.3748L23.5843 20.6729L22.5432 20.8824L24.0096 22.5188L24.4934 22.3748ZM17.6751 11.1028C17.6878 10.7683 17.5566 10.4422 17.3085 10.1914C17.0603 9.94064 16.714 9.78423 16.3407 9.7543C15.2996 9.70193 14.2879 10.0161 13.5107 10.6315C12.6749 11.3908 12.2351 12.4381 12.279 13.4986C12.279 13.8458 12.4335 14.1788 12.7085 14.4243C12.9835 14.6698 13.3565 14.8077 13.7454 14.8077C14.5812 14.8077 15.2117 14.2186 15.2117 13.4986C15.2117 13.1451 15.3143 12.7916 15.5489 12.5036C15.7249 12.3727 15.9448 12.3072 16.1794 12.3072C16.9859 12.3465 17.6751 11.8097 17.6751 11.1028Z" fill="#4CDB06"/>
</svg>
