<svg width="16" height="17" viewBox="0 0 16 17" fill="none" xmlns="http://www.w3.org/2000/svg">
<path d="M10.6347 1.89601e-06C10.9916 -0.00083649 11.2739 0.27646 11.2747 0.646188L11.2755 1.27641C13.5914 1.45791 15.1212 3.03597 15.1237 5.45601L15.1328 12.5397C15.1361 15.1782 13.4785 16.8016 10.8215 16.8058L4.33125 16.8142C1.69084 16.8176 0.012462 15.1555 0.0091418 12.5094L5.57173e-06 5.50895C-0.00330907 3.07295 1.47253 1.49908 3.7884 1.28649L3.78757 0.656271C3.78674 0.286543 4.06066 0.00840671 4.42588 0.00840671C4.79111 0.00756642 5.06503 0.284862 5.06586 0.65459L5.06669 1.24279L9.99723 1.23607L9.9964 0.647868C9.99557 0.27814 10.2695 0.000844092 10.6347 1.89601e-06ZM10.9734 11.9313H10.9651C10.5833 11.9405 10.277 12.2607 10.2853 12.6472C10.2861 13.0338 10.594 13.3522 10.9759 13.3606C11.3652 13.3598 11.6806 13.0396 11.6798 12.6447C11.6798 12.2498 11.3635 11.9313 10.9734 11.9313ZM4.1337 11.9321C3.75187 11.9489 3.45305 12.2691 3.45388 12.6556C3.47131 13.0422 3.78674 13.3447 4.16856 13.327C4.54292 13.3102 4.84091 12.9901 4.82348 12.6035C4.81518 12.2254 4.50723 11.9313 4.1337 11.9321ZM7.55354 11.9279C7.17171 11.9456 6.87372 12.2649 6.87372 12.6514C6.89115 13.038 7.20658 13.3396 7.5884 13.3228C7.96193 13.3052 8.26075 12.9859 8.24332 12.5985C8.23502 12.2212 7.92707 11.9271 7.55354 11.9279ZM4.12955 8.90709C3.74772 8.92389 3.44973 9.24404 3.45056 9.63058C3.46716 10.0171 3.78342 10.3196 4.16524 10.302C4.53877 10.2852 4.83676 9.96501 4.81933 9.57848C4.81103 9.20035 4.50391 8.90625 4.12955 8.90709ZM7.55022 8.87768C7.16839 8.89448 6.86957 9.21463 6.8704 9.60117C6.887 9.9877 7.20326 10.2894 7.58508 10.2726C7.95861 10.2549 8.2566 9.9356 8.24 9.54907C8.23087 9.17094 7.92375 8.87684 7.55022 8.87768ZM10.9701 8.88188C10.5882 8.89028 10.2894 9.20119 10.2902 9.58772V9.59697C10.2985 9.9835 10.614 10.2768 10.9966 10.2684C11.3701 10.2591 11.6681 9.93897 11.6598 9.55243C11.6424 9.1827 11.3428 8.88104 10.9701 8.88188ZM9.99889 2.53012L5.06835 2.53684L5.06918 3.21664C5.06918 3.5788 4.79609 3.8645 4.43086 3.8645C4.06564 3.86534 3.79089 3.58048 3.79089 3.21832L3.79006 2.57129C2.17144 2.73347 1.27581 3.68468 1.2783 5.50727L1.27913 5.7686L13.8462 5.7518V5.45769C13.8105 3.65107 12.9041 2.70322 11.2772 2.56205L11.278 3.20908C11.278 3.5704 10.9966 3.85694 10.6397 3.85694C10.2745 3.85778 9.99972 3.57208 9.99972 3.21076L9.99889 2.53012Z" fill="black"/>
</svg>
