<svg width="23" height="23" viewBox="0 0 23 23" fill="none" xmlns="http://www.w3.org/2000/svg">
<path d="M11.5479 18.2084L14.2791 15.5011L11.5479 12.7938L10.5416 13.8001L11.5718 14.8303C11.1246 14.8463 10.6892 14.7744 10.2656 14.6147C9.84204 14.4549 9.46286 14.2074 9.12808 13.872C8.80864 13.5525 8.5649 13.1852 8.39688 12.7699C8.22885 12.3546 8.14515 11.9393 8.14579 11.524C8.14579 11.2525 8.18189 10.981 8.25408 10.7095C8.32628 10.4379 8.42595 10.1744 8.55308 9.91883L7.49892 8.86466C7.22739 9.26397 7.02774 9.68723 6.89996 10.1345C6.77218 10.5817 6.70829 11.0369 6.70829 11.5001C6.70829 12.107 6.82808 12.706 7.06767 13.297C7.30725 13.8879 7.65864 14.415 8.12183 14.8782C8.58503 15.3414 9.10413 15.689 9.67913 15.9209C10.2541 16.1528 10.8451 16.2764 11.452 16.2917L10.5416 17.2022L11.5479 18.2084ZM15.501 14.1355C15.7725 13.7362 15.9722 13.3129 16.1 12.8657C16.2277 12.4185 16.2916 11.9633 16.2916 11.5001C16.2916 10.8931 16.1757 10.29 15.9437 9.69075C15.7118 9.09147 15.3646 8.56055 14.902 8.098C14.4388 7.6348 13.9156 7.2914 13.3323 7.06779C12.749 6.84418 12.1542 6.73237 11.5479 6.73237L12.4583 5.798L11.452 4.79175L8.72079 7.49904L11.452 10.2063L12.4583 9.20008L11.4041 8.14591C11.8354 8.14591 12.2746 8.22993 12.7218 8.39796C13.1691 8.56598 13.5524 8.8094 13.8718 9.12821C14.1913 9.44765 14.435 9.81501 14.603 10.2303C14.7711 10.6456 14.8548 11.0608 14.8541 11.4761C14.8541 11.7477 14.818 12.0192 14.7458 12.2907C14.6736 12.5622 14.574 12.8258 14.4468 13.0813L15.501 14.1355ZM11.5 21.0834C10.1743 21.0834 8.92843 20.8317 7.76246 20.3282C6.59649 19.8248 5.58225 19.1422 4.71975 18.2803C3.85725 17.4178 3.1746 16.4036 2.67179 15.2376C2.16899 14.0716 1.91726 12.8258 1.91663 11.5001C1.91663 10.1744 2.16835 8.92855 2.67179 7.76258C3.17524 6.59661 3.85789 5.58237 4.71975 4.71987C5.58225 3.85737 6.59649 3.17472 7.76246 2.67191C8.92843 2.16911 10.1743 1.91739 11.5 1.91675C12.8257 1.91675 14.0715 2.16847 15.2375 2.67191C16.4034 3.17536 17.4177 3.85801 18.2802 4.71987C19.1427 5.58237 19.8256 6.59661 20.3291 7.76258C20.8325 8.92855 21.0839 10.1744 21.0833 11.5001C21.0833 12.8258 20.8316 14.0716 20.3281 15.2376C19.8247 16.4036 19.142 17.4178 18.2802 18.2803C17.4177 19.1428 16.4034 19.8258 15.2375 20.3292C14.0715 20.8326 12.8257 21.0841 11.5 21.0834ZM11.5 19.1667C13.6402 19.1667 15.4531 18.424 16.9385 16.9386C18.4239 15.4532 19.1666 13.6404 19.1666 11.5001C19.1666 9.3598 18.4239 7.54696 16.9385 6.06154C15.4531 4.57612 13.6402 3.83341 11.5 3.83341C9.35968 3.83341 7.54683 4.57612 6.06142 6.06154C4.576 7.54696 3.83329 9.3598 3.83329 11.5001C3.83329 13.6404 4.576 15.4532 6.06142 16.9386C7.54683 18.424 9.35968 19.1667 11.5 19.1667Z" fill="#F31D1D"/>
</svg>
