<svg width="114" height="92" viewBox="0 0 114 92" fill="none" xmlns="http://www.w3.org/2000/svg">
<path d="M108 40.3329H85.673C85.2782 40.2792 84.8779 40.2792 84.483 40.3329H83.5197C83.2236 40.5019 82.9396 40.6912 82.6697 40.8995C82.3541 41.1079 82.0514 41.335 81.763 41.5795C81.5738 41.8112 81.4033 42.0576 81.253 42.3162C80.9934 42.6732 80.7658 43.0524 80.573 43.4495L71.5063 68.4395L47.8763 4.4062C47.4793 3.31224 46.755 2.36707 45.802 1.69912C44.849 1.03117 43.7135 0.672852 42.5497 0.672852C41.3859 0.672852 40.2503 1.03117 39.2973 1.69912C38.3443 2.36707 37.6201 3.31224 37.223 4.4062L24.133 40.3329H5.99967C4.49678 40.3329 3.05544 40.9299 1.99274 41.9926C0.93003 43.0553 0.333008 44.4966 0.333008 45.9995C0.333008 47.5024 0.93003 48.9438 1.99274 50.0065C3.05544 51.0692 4.49678 51.6662 5.99967 51.6662H30.3663C30.6884 51.5111 30.9925 51.3211 31.273 51.0995C31.5885 50.8912 31.8913 50.6641 32.1797 50.4195L32.6897 49.6829C32.9598 49.3329 33.188 48.9525 33.3697 48.5495L42.5497 22.8795L66.123 87.5929C66.519 88.6881 67.2427 89.6347 68.1958 90.3039C69.149 90.9731 70.2851 91.3324 71.4497 91.3329C72.6143 91.3324 73.7504 90.9731 74.7035 90.3039C75.6566 89.6347 76.3804 88.6881 76.7763 87.5929L89.8097 51.6662H108C109.503 51.6662 110.944 51.0692 112.007 50.0065C113.069 48.9438 113.666 47.5024 113.666 45.9995C113.666 44.4966 113.069 43.0553 112.007 41.9926C110.944 40.9299 109.503 40.3329 108 40.3329Z" fill="url(#paint0_linear_146_2616)"/>
<defs>
<linearGradient id="paint0_linear_146_2616" x1="-11.0009" y1="45.9996" x2="113.972" y2="45.9996" gradientUnits="userSpaceOnUse">
<stop stop-color="#4CDB06"/>
<stop offset="1" stop-color="#4CDB06"/>
</linearGradient>
</defs>
</svg>
