<svg width="21" height="21" viewBox="0 0 21 21" fill="none" xmlns="http://www.w3.org/2000/svg">
<path d="M5.25 9.625C5.25 7.1505 5.25 5.91238 6.01913 5.14413C6.78738 4.375 8.0255 4.375 10.5 4.375H13.125C15.5995 4.375 16.8376 4.375 17.6059 5.14413C18.375 5.91238 18.375 7.1505 18.375 9.625V14C18.375 16.4745 18.375 17.7126 17.6059 18.4809C16.8376 19.25 15.5995 19.25 13.125 19.25H10.5C8.0255 19.25 6.78738 19.25 6.01913 18.4809C5.25 17.7126 5.25 16.4745 5.25 14V9.625Z" stroke="#111111" stroke-width="1.875"/>
<path d="M5.25 16.625C4.55381 16.625 3.88613 16.3484 3.39384 15.8562C2.90156 15.3639 2.625 14.6962 2.625 14V8.75C2.625 5.45038 2.625 3.80012 3.6505 2.7755C4.67512 1.75 6.32538 1.75 9.625 1.75H13.125C13.8212 1.75 14.4889 2.02656 14.9812 2.51884C15.4734 3.01113 15.75 3.67881 15.75 4.375" stroke="#111111" stroke-width="1.875"/>
</svg>
