<svg width="15" height="16" viewBox="0 0 15 16" fill="none" xmlns="http://www.w3.org/2000/svg">
<path d="M0 0H2.5C2.73333 0 2.94167 0.0916666 3.09167 0.241667L4.825 1.98333L5.49167 1.325C5.83333 1 6.25 0.833333 6.66667 0.833333H11.6667C12.0833 0.833333 12.5 1 12.8417 1.325L13.675 2.15833C14 2.5 14.1667 2.91667 14.1667 3.33333V14.1667C14.1667 14.6087 13.9911 15.0326 13.6785 15.3452C13.3659 15.6577 12.942 15.8333 12.5 15.8333H4.16667C3.72464 15.8333 3.30072 15.6577 2.98816 15.3452C2.67559 15.0326 2.5 14.6087 2.5 14.1667V5C2.5 4.58333 2.66667 4.16667 2.99167 3.825L3.65 3.15833L2.15833 1.66667H0V0ZM6.66667 2.5V4.16667H11.6667V2.5H6.66667ZM7.00833 7.5L5.34167 5.83333H4.16667V7.00833L5.83333 8.675V11.325L4.16667 12.9917V14.1667H5.34167L7.00833 12.5H9.65833L11.325 14.1667H12.5V12.9917L10.8333 11.325V8.675L12.5 7.00833V5.83333H11.325L9.65833 7.5H7.00833ZM7.5 9.16667H9.16667V10.8333H7.5V9.16667Z" fill="#111111"/>
</svg>
