<svg width="19" height="19" viewBox="0 0 19 19" fill="none" xmlns="http://www.w3.org/2000/svg">
<path fill-rule="evenodd" clip-rule="evenodd" d="M18.1099 3.4397C18.2009 3.5779 18.2415 3.74329 18.2248 3.90793C18.208 4.07258 18.1349 4.22639 18.0179 4.34341L9.20793 13.1524C9.11781 13.2425 9.00535 13.307 8.8821 13.3393L5.21264 14.2976C5.09134 14.3293 4.96388 14.3286 4.84291 14.2958C4.72194 14.2629 4.61166 14.199 4.52302 14.1104C4.43438 14.0217 4.37046 13.9114 4.33762 13.7905C4.30477 13.6695 4.30413 13.542 4.33577 13.4207L5.2941 9.75224C5.32207 9.64212 5.37485 9.53985 5.44839 9.45324L14.2909 0.616451C14.4257 0.481853 14.6084 0.40625 14.7988 0.40625C14.9893 0.40625 15.172 0.481853 15.3068 0.616451L18.0179 3.32662C18.0523 3.36112 18.0831 3.39901 18.1099 3.4397ZM16.4932 3.83453L14.7988 2.14116L6.63577 10.3042L6.03681 12.5975L8.3301 11.9986L16.4932 3.83453Z" fill="#111111"/>
<path d="M16.3712 14.6963C16.6331 12.4576 16.7167 10.2016 16.6213 7.94965C16.6192 7.89659 16.6281 7.84368 16.6474 7.79421C16.6667 7.74475 16.696 7.69979 16.7334 7.66215L17.6764 6.71915C17.7022 6.69323 17.7349 6.67531 17.7706 6.66754C17.8063 6.65976 17.8435 6.66246 17.8777 6.67532C17.9119 6.68817 17.9417 6.71063 17.9634 6.74C17.9852 6.76936 17.998 6.80439 18.0003 6.84086C18.1778 9.51579 18.1105 12.2014 17.7991 14.864C17.5729 16.8018 16.0166 18.3207 14.0875 18.5364C10.7384 18.9072 7.35866 18.9072 4.00962 18.5364C2.08145 18.3207 0.524161 16.8018 0.297994 14.864C-0.0993313 11.4671 -0.0993313 8.0355 0.297994 4.63861C0.524161 2.70086 2.08049 1.1819 4.00962 0.966274C6.55147 0.684411 9.11248 0.61613 11.6657 0.762149C11.7023 0.764772 11.7373 0.777813 11.7667 0.799727C11.796 0.82164 11.8185 0.851508 11.8314 0.885793C11.8443 0.920079 11.8471 0.957345 11.8395 0.993179C11.8319 1.02901 11.8141 1.06191 11.7884 1.08798L10.8368 2.03865C10.7995 2.07578 10.755 2.10489 10.7061 2.12417C10.6571 2.14346 10.6047 2.15251 10.5522 2.15077C8.42155 2.07835 6.28849 2.16002 4.16966 2.39515C3.55052 2.46368 2.97256 2.73893 2.52914 3.17643C2.08572 3.61394 1.80274 4.18815 1.72591 4.80632C1.34167 8.09179 1.34167 11.4108 1.72591 14.6963C1.80274 15.3145 2.08572 15.8887 2.52914 16.3262C2.97256 16.7637 3.55052 17.039 4.16966 17.1075C7.38487 17.4669 10.7122 17.4669 13.9284 17.1075C14.5475 17.039 15.1255 16.7637 15.5689 16.3262C16.0123 15.8887 16.2943 15.3145 16.3712 14.6963Z" fill="#111111"/>
</svg>
