<svg width="30" height="30" viewBox="0 0 30 30" fill="none" xmlns="http://www.w3.org/2000/svg">
<path d="M4.09375 19.12C3.03125 17.74 2.5 17.0488 2.5 15C2.5 12.95 3.03125 12.2613 4.09375 10.88C6.215 8.125 9.7725 5 15 5C20.2275 5 23.785 8.125 25.9063 10.88C26.9688 12.2625 27.5 12.9512 27.5 15C27.5 17.05 26.9688 17.7387 25.9063 19.12C23.785 21.875 20.2275 25 15 25C9.7725 25 6.215 21.875 4.09375 19.12Z" stroke="#4CDB06" stroke-width="1.875"/>
<path d="M18.75 15C18.75 15.9946 18.3549 16.9484 17.6517 17.6517C16.9484 18.3549 15.9946 18.75 15 18.75C14.0054 18.75 13.0516 18.3549 12.3483 17.6517C11.6451 16.9484 11.25 15.9946 11.25 15C11.25 14.0054 11.6451 13.0516 12.3483 12.3483C13.0516 11.6451 14.0054 11.25 15 11.25C15.9946 11.25 16.9484 11.6451 17.6517 12.3483C18.3549 13.0516 18.75 14.0054 18.75 15Z" stroke="#4CDB06" stroke-width="1.875"/>
</svg>
