<svg width="48" height="48" viewBox="0 0 48 48" fill="none" xmlns="http://www.w3.org/2000/svg">
<mask id="mask0_16_17" style="mask-type:luminance" maskUnits="userSpaceOnUse" x="15" y="10" width="30" height="30">
<path d="M30.1345 12.5314L17.8136 24.803C14.5246 28.0788 14.5246 33.3899 17.8136 36.6657L17.8136 36.6657C21.1026 39.9414 26.4351 39.9414 29.724 36.6657L42.045 24.3941C45.3339 21.1183 45.3339 15.8072 42.0449 12.5314C38.756 9.25565 33.4235 9.25565 30.1345 12.5314Z" fill="white"/>
</mask>
<g mask="url(#mask0_16_17)">
<mask id="mask1_16_17" style="mask-type:luminance" maskUnits="userSpaceOnUse" x="13" y="8" width="33" height="33">
<path d="M45.9836 8.60855H13.8793V40.5886H45.9836V8.60855Z" fill="white"/>
</mask>
<g mask="url(#mask1_16_17)">
<path d="M34.7188 8.09078L20.3068 22.5028C17.193 25.6166 17.046 30.6177 19.9716 33.909C23.1507 37.4855 28.6847 37.6481 32.0684 34.2644L46.5924 19.7404C47.3537 18.9791 47.3537 17.7446 46.5924 16.9833L37.6999 8.09078C36.8767 7.26758 35.542 7.26758 34.7188 8.09078Z" fill="url(#paint0_linear_16_17)"/>
</g>
</g>
<path d="M26.8623 21.9888L17.3772 12.5417C14.0882 9.26589 8.7557 9.26589 5.46673 12.5417C2.17776 15.8175 2.17776 21.1286 5.46673 24.4044L17.7876 36.6759C21.0766 39.9517 26.4091 39.9517 29.698 36.6759L38.969 27.4576C35.8964 30.5179 26.8811 22.0065 26.8623 21.9888Z" fill="#4CDB06"/>
<defs>
<linearGradient id="paint0_linear_16_17" x1="41.7442" y1="12.1351" x2="20.9884" y2="37.042" gradientUnits="userSpaceOnUse">
<stop offset="0.0617752" stop-color="#53F007"/>
<stop offset="0.333333" stop-color="#44C404"/>
<stop offset="0.880208" stop-color="#1A4B00"/>
</linearGradient>
</defs>
</svg>
