<svg width="14" height="15" viewBox="0 0 14 15" fill="none" xmlns="http://www.w3.org/2000/svg">
<path d="M9.33333 8.34626C10.1069 8.34626 10.8487 8.6603 11.3957 9.21931C11.9427 9.77831 12.25 10.5365 12.25 11.327V11.9232C12.25 12.2394 12.1271 12.5427 11.9083 12.7663C11.6895 12.9899 11.3928 13.1155 11.0833 13.1155H2.91667C2.60725 13.1155 2.3105 12.9899 2.09171 12.7663C1.87292 12.5427 1.75 12.2394 1.75 11.9232V11.327C1.75 10.5365 2.05729 9.77831 2.60427 9.21931C3.15125 8.6603 3.89312 8.34626 4.66667 8.34626H9.33333ZM12.4915 5.41377C12.5962 5.30571 12.7374 5.24265 12.8862 5.23749C13.0349 5.23233 13.1799 5.28547 13.2916 5.38602C13.4032 5.48658 13.4731 5.62694 13.4868 5.77839C13.5005 5.92984 13.457 6.08091 13.3653 6.20069L13.3163 6.25733L11.6667 7.94326C11.5662 8.0459 11.4326 8.10756 11.2908 8.11667C11.149 8.12578 11.0089 8.08171 10.8967 7.99274L10.8418 7.94326L10.017 7.10029C9.91127 6.99326 9.84956 6.84897 9.84452 6.69696C9.83947 6.54496 9.89146 6.39673 9.98985 6.28262C10.0882 6.1685 10.2256 6.09714 10.3738 6.08313C10.522 6.06912 10.6698 6.11352 10.787 6.20725L10.8418 6.25733L11.2542 6.67881L12.4915 5.41377ZM7 1.19238C7.77355 1.19238 8.51541 1.50643 9.06239 2.06543C9.60938 2.62444 9.91667 3.38261 9.91667 4.17316C9.91667 4.96372 9.60938 5.72189 9.06239 6.28089C8.51541 6.8399 7.77355 7.15394 7 7.15394C6.22645 7.15394 5.48459 6.8399 4.93761 6.28089C4.39062 5.72189 4.08333 4.96372 4.08333 4.17316C4.08333 3.38261 4.39062 2.62444 4.93761 2.06543C5.48459 1.50643 6.22645 1.19238 7 1.19238Z" fill="black"/>
</svg>
