<svg width="9" height="14" viewBox="0 0 9 14" fill="none" xmlns="http://www.w3.org/2000/svg">
<path d="M1 0.5C1 0.367392 0.947322 0.240215 0.853553 0.146447C0.759785 0.0526784 0.632608 0 0.5 0C0.367392 0 0.240215 0.0526784 0.146447 0.146447C0.0526786 0.240215 5.21142e-08 0.367392 5.21142e-08 0.5V3.5C-0.000117575 4.07633 0.198892 4.63499 0.563347 5.08145C0.927802 5.52791 1.43532 5.83473 2 5.95V13.5C2 13.6326 2.05268 13.7598 2.14645 13.8536C2.24021 13.9473 2.36739 14 2.5 14C2.63261 14 2.75979 13.9473 2.85355 13.8536C2.94732 13.7598 3 13.6326 3 13.5V5.95C3.56468 5.83473 4.0722 5.52791 4.43665 5.08145C4.80111 4.63499 5.00012 4.07633 5 3.5V0.5C5 0.367392 4.94732 0.240215 4.85355 0.146447C4.75979 0.0526784 4.63261 0 4.5 0C4.36739 0 4.24021 0.0526784 4.14645 0.146447C4.05268 0.240215 4 0.367392 4 0.5V3.5C4.00016 3.81033 3.90407 4.11306 3.72497 4.36649C3.54587 4.61992 3.29258 4.81156 3 4.915V0.5C3 0.367392 2.94732 0.240215 2.85355 0.146447C2.75979 0.0526784 2.63261 0 2.5 0C2.36739 0 2.24021 0.0526784 2.14645 0.146447C2.05268 0.240215 2 0.367392 2 0.5V4.915C1.70742 4.81156 1.45413 4.61992 1.27503 4.36649C1.09593 4.11306 0.999837 3.81033 1 3.5V0.5ZM8 13.5V7H6.5C6.36739 7 6.24021 6.94732 6.14645 6.85355C6.05268 6.75979 6 6.63261 6 6.5V2.5C6 1.837 6.326 1.217 6.771 0.771C7.217 0.326 7.837 0 8.5 0C8.63261 0 8.75979 0.0526784 8.85355 0.146447C8.94732 0.240215 9 0.367392 9 0.5V13.5C9 13.6326 8.94732 13.7598 8.85355 13.8536C8.75979 13.9473 8.63261 14 8.5 14C8.36739 14 8.24021 13.9473 8.14645 13.8536C8.05268 13.7598 8 13.6326 8 13.5Z" fill="#111111"/>
</svg>
