<svg width="704" height="133" viewBox="0 0 704 133" fill="none" xmlns="http://www.w3.org/2000/svg">
<g clip-path="url(#clip0_77_2)">
<g style="mix-blend-mode:multiply">
<path d="M-18.9357 106.022C12.359 75.9336 58.5248 66.5047 101.427 70.384C144.329 74.2631 185.223 89.8544 225.968 104.053C266.712 118.252 308.854 131.334 351.902 129.891C442.796 126.843 524.615 59.8222 615.396 65.3382C654.655 67.7237 691.877 83.6842 730.747 89.7732C769.617 95.8621 814.907 89.1222 838 56.7558L838 -56.9999L-22 -57L-18.9357 106.022Z" fill="#4CDB06"/>
</g>
<path d="M281.244 46.061C283.774 46.061 287.546 47.004 287.937 51.213H284.027C283.82 50.04 283.107 49.235 281.451 49.235C280.071 49.235 279.174 49.764 279.174 50.776C279.174 51.673 279.818 52.064 281.06 52.317L283.245 52.777C286.12 53.375 287.96 54.548 287.96 57.239C287.96 60.367 285.384 62.299 281.474 62.299C277.955 62.299 274.781 60.62 274.413 56.756H278.323C278.576 58.136 279.749 59.01 281.589 59.01C282.969 59.01 283.797 58.481 283.797 57.607C283.797 57.055 283.498 56.48 282.141 56.227L279.565 55.675C276.483 55.008 275.034 53.605 275.034 51.121C275.034 47.993 277.564 46.061 281.244 46.061ZM294.469 50.546C298.402 50.546 300.771 53.352 300.219 57.308H292.146C292.399 58.458 293.158 59.355 294.676 59.355C295.504 59.355 295.987 59.171 296.332 58.757H300.104C299.437 60.942 297.367 62.299 294.745 62.299C291.088 62.299 288.65 59.815 288.65 56.411C288.65 53.03 291.019 50.546 294.469 50.546ZM294.561 53.306C293.25 53.306 292.491 54.042 292.192 55.169H296.838C296.631 53.881 295.826 53.306 294.561 53.306ZM308.049 50.546C310.855 50.546 312.787 52.455 312.787 55.629V62H309.061V56.227C309.061 54.64 308.256 53.927 307.014 53.927C306.347 53.927 305.634 54.272 304.99 54.985V62H301.241V50.845H304.99V51.581C305.887 50.914 306.853 50.546 308.049 50.546ZM322.365 45.67H326.091V62H322.365V61.448C321.537 61.977 320.548 62.299 319.306 62.299C316.293 62.299 313.763 59.769 313.763 56.434C313.763 53.122 316.293 50.592 319.306 50.592C320.548 50.592 321.537 50.914 322.365 51.466V45.67ZM320.065 59.171C320.87 59.171 321.652 58.964 322.365 58.182V54.732C321.652 53.95 320.87 53.743 320.065 53.743C318.547 53.743 317.42 54.916 317.42 56.434C317.42 57.998 318.547 59.171 320.065 59.171ZM339.54 53.214H347.912V62H345.014L344.853 60.091C343.726 61.471 342.093 62.299 339.908 62.299C335.009 62.299 331.582 58.826 331.582 54.341C331.582 49.465 335.17 46.061 339.931 46.061C343.772 46.061 347.084 48.2 347.751 51.926H343.657C342.99 50.109 341.426 49.58 340.023 49.58C337.332 49.58 335.515 51.489 335.515 54.249C335.515 56.71 337.286 58.757 340.046 58.757C341.863 58.757 343.243 57.837 344.025 56.319L339.54 56.273V53.214ZM351.698 49.097C350.479 49.097 349.513 48.2 349.513 47.004C349.513 45.785 350.479 44.888 351.698 44.888C352.894 44.888 353.883 45.785 353.883 47.004C353.883 48.2 352.894 49.097 351.698 49.097ZM349.858 50.845H353.584V62H349.858V50.845ZM360.778 50.201V50.845H364.711V54.042H360.778V62H357.052V54.042H354.315V50.845H357.052V50.201C357.052 46.958 359.237 45.164 362.089 45.164C362.986 45.164 363.768 45.302 364.918 45.601L364.412 48.706C363.86 48.522 363.193 48.361 362.71 48.361C361.514 48.361 360.778 49.074 360.778 50.201ZM372.737 58.412L373.151 61.747C372.001 62.23 370.805 62.299 370.161 62.299C367.125 62.299 365.285 60.321 365.285 57.308V54.042H363.1V50.845H365.285V47.05H369.011V50.845H372.806V54.042H369.011V57.193C369.011 58.343 369.678 58.872 370.759 58.872C371.472 58.872 372.07 58.665 372.737 58.412ZM396.072 46.36V62H392.185V54.157L388.712 59.516V59.539H386.55V59.516L383.054 54.111L383.077 62H379.19V46.36H382.088L387.631 54.709L393.174 46.36H396.072ZM403.099 50.546C407.032 50.546 409.401 53.352 408.849 57.308H400.776C401.029 58.458 401.788 59.355 403.306 59.355C404.134 59.355 404.617 59.171 404.962 58.757H408.734C408.067 60.942 405.997 62.299 403.375 62.299C399.718 62.299 397.28 59.815 397.28 56.411C397.28 53.03 399.649 50.546 403.099 50.546ZM403.191 53.306C401.88 53.306 401.121 54.042 400.822 55.169H405.468C405.261 53.881 404.456 53.306 403.191 53.306ZM418.147 50.845H421.873V62H418.147V61.402C417.319 61.954 416.33 62.299 415.088 62.299C412.075 62.299 409.545 59.723 409.545 56.411C409.545 53.076 412.075 50.546 415.088 50.546C416.33 50.546 417.319 50.868 418.147 51.42V50.845ZM415.847 59.125C416.652 59.125 417.434 58.918 418.147 58.136V54.686C417.434 53.904 416.652 53.697 415.847 53.697C414.329 53.697 413.202 54.87 413.202 56.411C413.202 57.952 414.329 59.125 415.847 59.125ZM423.483 45.67H427.232V62H423.483V45.67Z" fill="black"/>
<path d="M277.96 85.288H271.752V89.288H277.288V90.456H271.752V95H270.488V84.12H277.96V85.288ZM280.019 85.592C279.555 85.592 279.203 85.24 279.203 84.792C279.203 84.328 279.555 83.976 280.019 83.976C280.483 83.976 280.851 84.328 280.851 84.792C280.851 85.24 280.483 85.592 280.019 85.592ZM279.427 87.576H280.643V95H279.427V87.576ZM282.813 83.64H284.029V95H282.813V83.64ZM286.001 83.64H287.217V95H286.001V83.64ZM297.63 93.8L297.806 94.92C297.198 95.128 296.686 95.192 296.238 95.192C294.414 95.192 293.534 94.184 293.534 92.248V88.616H291.598V87.576H293.534V84.84H294.75V87.576H297.55V88.616H294.75V92.248C294.75 93.528 295.294 94.056 296.35 94.056C296.766 94.056 297.23 93.944 297.63 93.8ZM302.938 87.384C304.826 87.384 306.122 88.648 306.122 90.744V95H304.906V90.808C304.906 89.304 304.026 88.504 302.714 88.504C301.834 88.504 300.922 88.952 300.282 89.784V95H299.066V83.64H300.282V88.408C300.97 87.752 301.882 87.384 302.938 87.384ZM311.225 87.384C313.609 87.384 315.097 89.224 314.857 91.656H308.649C308.793 93.032 309.737 94.104 311.289 94.104C312.233 94.104 312.953 93.768 313.273 93.144H314.633C314.169 94.424 312.889 95.192 311.289 95.192C309.001 95.192 307.417 93.48 307.417 91.288C307.417 89.096 308.985 87.384 311.225 87.384ZM311.225 88.44C309.753 88.44 308.841 89.48 308.665 90.792H313.641C313.577 89.32 312.633 88.44 311.225 88.44ZM321.377 88.792C322.065 87.912 323.057 87.4 324.241 87.4V88.552C323.025 88.584 322.033 89.144 321.377 90.168V95H320.161V87.576H321.377V88.792ZM328.492 87.384C330.876 87.384 332.364 89.224 332.124 91.656H325.916C326.06 93.032 327.004 94.104 328.556 94.104C329.5 94.104 330.22 93.768 330.54 93.144H331.9C331.436 94.424 330.156 95.192 328.556 95.192C326.268 95.192 324.684 93.48 324.684 91.288C324.684 89.096 326.252 87.384 328.492 87.384ZM328.492 88.44C327.02 88.44 326.108 89.48 325.932 90.792H330.908C330.844 89.32 329.9 88.44 328.492 88.44ZM337.26 94.072C338.412 94.072 339.276 93.448 339.5 92.472H340.764C340.476 94.088 339.052 95.192 337.26 95.192C335.004 95.192 333.372 93.48 333.372 91.288C333.372 89.096 335.004 87.384 337.26 87.384C339.052 87.384 340.476 88.488 340.764 90.12H339.5C339.276 89.144 338.412 88.504 337.26 88.504C335.644 88.504 334.588 89.752 334.588 91.288C334.588 92.84 335.644 94.072 337.26 94.072ZM345.775 87.384C348.159 87.384 349.647 89.224 349.407 91.656H343.199C343.343 93.032 344.287 94.104 345.839 94.104C346.783 94.104 347.503 93.768 347.823 93.144H349.183C348.719 94.424 347.439 95.192 345.839 95.192C343.551 95.192 341.967 93.48 341.967 91.288C341.967 89.096 343.535 87.384 345.775 87.384ZM345.775 88.44C344.303 88.44 343.391 89.48 343.215 90.792H348.191C348.127 89.32 347.183 88.44 345.775 88.44ZM351.73 85.592C351.266 85.592 350.914 85.24 350.914 84.792C350.914 84.328 351.266 83.976 351.73 83.976C352.194 83.976 352.562 84.328 352.562 84.792C352.562 85.24 352.194 85.592 351.73 85.592ZM351.138 87.576H352.354V95H351.138V87.576ZM358.348 87.4C360.476 87.4 362.172 89.128 362.172 91.288C362.172 93.464 360.476 95.176 358.348 95.176C357.292 95.176 356.396 94.824 355.74 94.216V98.712H354.524V87.576H355.74V88.36C356.396 87.752 357.292 87.4 358.348 87.4ZM358.188 94.104C359.756 94.104 360.956 92.824 360.956 91.288C360.956 89.752 359.756 88.472 358.188 88.472C357.212 88.472 356.348 88.872 355.74 89.768V92.808C356.348 93.704 357.212 94.104 358.188 94.104ZM367.199 87.384C369.583 87.384 371.071 89.224 370.831 91.656H364.623C364.767 93.032 365.711 94.104 367.263 94.104C368.207 94.104 368.927 93.768 369.247 93.144H370.607C370.143 94.424 368.863 95.192 367.263 95.192C364.975 95.192 363.391 93.48 363.391 91.288C363.391 89.096 364.959 87.384 367.199 87.384ZM367.199 88.44C365.727 88.44 364.815 89.48 364.639 90.792H369.615C369.551 89.32 368.607 88.44 367.199 88.44ZM376.178 87.384C378.066 87.384 379.362 88.648 379.362 90.744V95H378.146V90.808C378.146 89.304 377.266 88.504 375.954 88.504C375.074 88.504 374.162 88.952 373.522 89.784V95H372.306V87.576H373.522V88.408C374.21 87.752 375.122 87.384 376.178 87.384ZM385.763 93.8L385.939 94.92C385.331 95.128 384.819 95.192 384.371 95.192C382.547 95.192 381.667 94.184 381.667 92.248V88.616H379.731V87.576H381.667V84.84H382.883V87.576H385.683V88.616H382.883V92.248C382.883 93.528 383.427 94.056 384.483 94.056C384.899 94.056 385.363 93.944 385.763 93.8ZM396.997 83.64H398.213V95H396.997V94.232C396.341 94.84 395.445 95.192 394.389 95.192C392.261 95.192 390.565 93.448 390.565 91.288C390.565 89.112 392.261 87.384 394.389 87.384C395.445 87.384 396.341 87.736 396.997 88.344V83.64ZM394.549 94.072C395.525 94.072 396.389 93.704 396.997 92.808V89.768C396.389 88.872 395.525 88.504 394.549 88.504C392.981 88.504 391.781 89.752 391.781 91.288C391.781 92.824 392.981 94.072 394.549 94.072ZM403.577 87.384C405.961 87.384 407.449 89.224 407.209 91.656H401.001C401.145 93.032 402.089 94.104 403.641 94.104C404.585 94.104 405.305 93.768 405.625 93.144H406.985C406.521 94.424 405.241 95.192 403.641 95.192C401.353 95.192 399.769 93.48 399.769 91.288C399.769 89.096 401.337 87.384 403.577 87.384ZM403.577 88.44C402.105 88.44 401.193 89.48 401.017 90.792H405.993C405.929 89.32 404.985 88.44 403.577 88.44ZM413.562 93.8L413.738 94.92C413.13 95.128 412.618 95.192 412.17 95.192C410.346 95.192 409.466 94.184 409.466 92.248V88.616H407.53V87.576H409.466V84.84H410.682V87.576H413.482V88.616H410.682V92.248C410.682 93.528 411.226 94.056 412.282 94.056C412.698 94.056 413.162 93.944 413.562 93.8ZM420.561 87.576H421.777V95H420.561V94.232C419.905 94.84 419.009 95.192 417.953 95.192C415.825 95.192 414.129 93.464 414.129 91.288C414.129 89.128 415.825 87.384 417.953 87.384C419.009 87.384 419.905 87.736 420.561 88.344V87.576ZM418.113 94.072C419.089 94.072 419.953 93.704 420.561 92.808V89.768C419.953 88.872 419.089 88.504 418.113 88.504C416.545 88.504 415.345 89.752 415.345 91.288C415.345 92.824 416.545 94.072 418.113 94.072ZM424.58 85.592C424.116 85.592 423.764 85.24 423.764 84.792C423.764 84.328 424.116 83.976 424.58 83.976C425.044 83.976 425.412 84.328 425.412 84.792C425.412 85.24 425.044 85.592 424.58 85.592ZM423.988 87.576H425.204V95H423.988V87.576ZM427.374 83.64H428.59V95H427.374V83.64ZM430.706 95.128C430.258 95.128 429.89 94.776 429.89 94.312C429.89 93.864 430.258 93.528 430.706 93.528C431.17 93.528 431.538 93.864 431.538 94.312C431.538 94.776 431.17 95.128 430.706 95.128Z" fill="black"/>
</g>
<defs>
<clipPath id="clip0_77_2">
<rect width="704" height="133" rx="10" fill="white"/>
</clipPath>
</defs>
</svg>
