<svg width="94" height="13" viewBox="0 0 94 13" fill="none" xmlns="http://www.w3.org/2000/svg">
<path d="M6.25281 5.888H12.0768V12H10.0608L9.94881 10.672C9.16481 11.632 8.02881 12.208 6.50881 12.208C3.10081 12.208 0.716814 9.792 0.716814 6.672C0.716814 3.28 3.21281 0.912 6.52481 0.912C9.19681 0.912 11.5008 2.4 11.9648 4.992H9.11681C8.65281 3.728 7.56481 3.36 6.58881 3.36C4.71681 3.36 3.45281 4.688 3.45281 6.608C3.45281 8.32 4.68481 9.744 6.60481 9.744C7.86881 9.744 8.82881 9.104 9.37281 8.048L6.25281 8.016V5.888ZM17.1103 4.032C19.6063 4.032 21.3663 5.744 21.3663 8.128C21.3663 10.528 19.6063 12.208 17.1103 12.208C14.6143 12.208 12.8383 10.528 12.8383 8.128C12.8383 5.744 14.6143 4.032 17.1103 4.032ZM17.1103 10.048C18.1823 10.048 18.9343 9.264 18.9343 8.128C18.9343 7.008 18.1823 6.208 17.1103 6.208C16.0223 6.208 15.2703 7.008 15.2703 8.128C15.2703 9.264 16.0223 10.048 17.1103 10.048ZM22.0816 0.639999H24.6896V12H22.0816V0.639999ZM31.3861 0.639999H33.9781V12H31.3861V11.616C30.8101 11.984 30.1221 12.208 29.2581 12.208C27.1621 12.208 25.4021 10.448 25.4021 8.128C25.4021 5.824 27.1621 4.064 29.2581 4.064C30.1221 4.064 30.8101 4.288 31.3861 4.672V0.639999ZM29.7861 10.032C30.3461 10.032 30.8901 9.888 31.3861 9.344V6.944C30.8901 6.4 30.3461 6.256 29.7861 6.256C28.7301 6.256 27.9461 7.072 27.9461 8.128C27.9461 9.216 28.7301 10.032 29.7861 10.032ZM44.5384 4.384C46.4264 4.384 47.6584 5.488 47.6584 7.616V12H46.4424V7.616C46.4424 6.144 45.6744 5.504 44.4584 5.504C43.5624 5.504 42.7304 5.872 42.1384 6.768C42.1864 7.008 42.2024 7.264 42.2024 7.552V12H40.9864V7.552C40.9864 6.096 40.2024 5.504 39.0664 5.504C38.1384 5.504 37.3224 5.888 36.7464 6.752V12H35.5304V4.576H36.7464V5.376C37.3544 4.752 38.1224 4.384 39.1944 4.384C40.3304 4.384 41.2104 4.8 41.7224 5.616C42.4424 4.832 43.3544 4.384 44.5384 4.384ZM52.7676 4.384C55.1516 4.384 56.6396 6.224 56.3996 8.656H50.1916C50.3356 10.032 51.2796 11.104 52.8316 11.104C53.7756 11.104 54.4956 10.768 54.8156 10.144H56.1756C55.7116 11.424 54.4316 12.192 52.8316 12.192C50.5436 12.192 48.9596 10.48 48.9596 8.288C48.9596 6.096 50.5276 4.384 52.7676 4.384ZM52.7676 5.44C51.2956 5.44 50.3836 6.48 50.2076 7.792H55.1836C55.1196 6.32 54.1756 5.44 52.7676 5.44ZM66.8834 4.384C68.7714 4.384 70.0034 5.488 70.0034 7.616V12H68.7874V7.616C68.7874 6.144 68.0194 5.504 66.8034 5.504C65.9074 5.504 65.0754 5.872 64.4834 6.768C64.5314 7.008 64.5474 7.264 64.5474 7.552V12H63.3314V7.552C63.3314 6.096 62.5474 5.504 61.4114 5.504C60.4834 5.504 59.6674 5.888 59.0914 6.752V12H57.8754V4.576H59.0914V5.376C59.6994 4.752 60.4674 4.384 61.5394 4.384C62.6754 4.384 63.5554 4.8 64.0674 5.616C64.7874 4.832 65.6994 4.384 66.8834 4.384ZM75.5126 4.384C77.6406 4.384 79.3366 6.112 79.3366 8.288C79.3366 10.448 77.6406 12.192 75.5126 12.192C74.4566 12.192 73.5606 11.84 72.9046 11.232V12H71.6886V0.639999H72.9046V5.344C73.5606 4.736 74.4566 4.384 75.5126 4.384ZM75.3526 11.072C76.9206 11.072 78.1206 9.824 78.1206 8.288C78.1206 6.752 76.9206 5.504 75.3526 5.504C74.3766 5.504 73.5126 5.872 72.9046 6.768V9.808C73.5126 10.704 74.3766 11.072 75.3526 11.072ZM84.3632 4.384C86.7472 4.384 88.2352 6.224 87.9952 8.656H81.7872C81.9312 10.032 82.8752 11.104 84.4272 11.104C85.3712 11.104 86.0912 10.768 86.4112 10.144H87.7712C87.3072 11.424 86.0272 12.192 84.4272 12.192C82.1392 12.192 80.5552 10.48 80.5552 8.288C80.5552 6.096 82.1232 4.384 84.3632 4.384ZM84.3632 5.44C82.8912 5.44 81.9792 6.48 81.8032 7.792H86.7792C86.7152 6.32 85.7712 5.44 84.3632 5.44ZM90.6871 5.792C91.3751 4.912 92.3671 4.4 93.5511 4.4V5.552C92.3351 5.584 91.3431 6.144 90.6871 7.168V12H89.4711V4.576H90.6871V5.792Z" fill="#F4D100"/>
</svg>
