<svg width="14" height="14" viewBox="0 0 14 14" fill="none" xmlns="http://www.w3.org/2000/svg">
<path d="M11.0835 4.08366H6.41683V8.16699H1.75016V2.91699H0.583496V11.667H1.75016V9.91699H12.2502V11.667H13.4168V6.41699C13.4168 5.79815 13.171 5.20466 12.7334 4.76708C12.2958 4.32949 11.7023 4.08366 11.0835 4.08366ZM4.0835 7.58366C4.54762 7.58366 4.99274 7.39928 5.32093 7.0711C5.64912 6.74291 5.8335 6.29779 5.8335 5.83366C5.8335 5.36953 5.64912 4.92441 5.32093 4.59622C4.99274 4.26803 4.54762 4.08366 4.0835 4.08366C3.61937 4.08366 3.17425 4.26803 2.84606 4.59622C2.51787 4.92441 2.3335 5.36953 2.3335 5.83366C2.3335 6.29779 2.51787 6.74291 2.84606 7.0711C3.17425 7.39928 3.61937 7.58366 4.0835 7.58366Z" fill="#111111"/>
</svg>
