<svg width="33" height="33" viewBox="0 0 33 33" fill="none" xmlns="http://www.w3.org/2000/svg">
<path d="M9.99623 13.7631C8.83573 12.3365 7.74673 12.0299 6.72786 12.8439C5.19955 14.0649 4.76092 18.3219 5.99017 22.0749C7.22011 25.828 9.61123 30.9389 14.4389 30.9389C19.2658 30.9389 20.4077 25.7964 22.3767 22.6875C24.3464 19.5786 25.388 16.5791 23.4582 12.8439" stroke="#4CDB06" stroke-width="1.66667" stroke-linecap="round" stroke-linejoin="round"/>
<path d="M7.56255 12.4004C6.65368 11.0118 5.737 9.62832 4.81255 8.25001C3.81843 6.77532 6.36012 4.86888 7.56255 6.16551C8.36418 7.03038 9.42912 8.30363 10.7574 9.98595" stroke="#4CDB06" stroke-width="1.66667" stroke-linecap="round"/>
<path d="M10.329 17.6274C9.9956 13.4584 10.2672 10.7441 11.1417 9.48395C12.4548 7.59333 14.8933 6.87695 17.1896 6.87695C18.5577 6.87695 19.8062 7.45927 20.9365 8.62389" stroke="#4CDB06" stroke-width="1.66667" stroke-linecap="round" stroke-linejoin="round"/>
<path d="M28.1875 8.67139C28.5904 10.0711 27.9332 11.3506 25.9078 11.64C23.8831 11.9295 22.3651 12.9476 21.2706 13.8043C20.1754 14.6609 18.2181 17.2596 17.831 18.5638C17.4447 19.8687 15.235 18.669 14.6417 18.1479C14.0484 17.6275 13.4647 16.4869 14.6417 15.2941C15.8187 14.1013 15.5637 13.8634 15.5637 12.6541C15.5637 11.4441 22 7.44283 25.6252 7.07708C26.431 7.03033 27.7853 7.27096 28.1875 8.67139Z" stroke="#4CDB06" stroke-width="1.66667"/>
<path d="M15.8181 2.75V6.36831M13.9611 7.36863C11.8863 4.76094 10.2136 3.3055 8.94238 3.003M11.6903 4.83244L12.3709 2.03638M24.484 7.36794C24.2626 8.12763 24.2626 8.83919 24.484 9.504C24.7054 10.1688 25.1804 10.8804 25.9078 11.6401" stroke="#4CDB06" stroke-width="1.66667" stroke-linecap="round"/>
</svg>
