<svg width="16" height="16" viewBox="0 0 16 16" fill="none" xmlns="http://www.w3.org/2000/svg">
<path d="M11.0291 2.5C9.00032 2.5 8.00032 4.5 8.00032 4.5C8.00032 4.5 7.00032 2.5 4.97157 2.5C3.32282 2.5 2.01719 3.87938 2.00032 5.52531C1.96594 8.94188 4.71063 11.3716 7.71907 13.4134C7.80201 13.4699 7.9 13.5 8.00032 13.5C8.10063 13.5 8.19863 13.4699 8.28157 13.4134C11.2897 11.3716 14.0344 8.94188 14.0003 5.52531C13.9834 3.87938 12.6778 2.5 11.0291 2.5Z" stroke="#111111" stroke-width="0.875" stroke-linecap="round" stroke-linejoin="round"/>
<path d="M1.5 8H5L6.5 5L8 10L9.5 7L10.5 9H14.5" stroke="#111111" stroke-width="0.875" stroke-linecap="round" stroke-linejoin="round"/>
</svg>
