<svg width="14" height="14" viewBox="0 0 14 14" fill="none" xmlns="http://www.w3.org/2000/svg">
<path d="M11.083 4.08366H6.41634V8.16699H1.74967V2.91699H0.583008V11.667H1.74967V9.91699H12.2497V11.667H13.4163V6.41699C13.4163 5.79815 13.1705 5.20466 12.7329 4.76708C12.2953 4.32949 11.7018 4.08366 11.083 4.08366ZM4.08301 7.58366C4.54714 7.58366 4.99226 7.39928 5.32044 7.0711C5.64863 6.74291 5.83301 6.29779 5.83301 5.83366C5.83301 5.36953 5.64863 4.92441 5.32044 4.59622C4.99226 4.26803 4.54714 4.08366 4.08301 4.08366C3.61888 4.08366 3.17376 4.26803 2.84557 4.59622C2.51738 4.92441 2.33301 5.36953 2.33301 5.83366C2.33301 6.29779 2.51738 6.74291 2.84557 7.0711C3.17376 7.39928 3.61888 7.58366 4.08301 7.58366Z" fill="#111111"/>
</svg>
