<svg width="30" height="30" viewBox="0 0 30 30" fill="none" xmlns="http://www.w3.org/2000/svg">
<g clip-path="url(#clip0_183_6451)">
<path fill-rule="evenodd" clip-rule="evenodd" d="M18.6588 7.50253C21.0375 7.59253 23.3613 8.70628 25.0938 9.84628L26.0925 10.52L26.4888 10.795L26.8937 11.095C27.8425 11.8213 28.75 12.735 28.75 13.75C28.75 15.0875 27.56 16.465 26.4137 17.5375L26.0138 17.9038L25.6287 18.2413L25.1075 18.685C22.8375 20.62 19.4363 22.5 15 22.5C10.7225 22.5 7.40625 20.7513 5.14 18.8938L4.73375 18.5513L4.19875 18.0863L3.8075 17.7313C2.6125 16.6225 1.25 15.1125 1.25 13.7513C1.25 12.7775 2.02 11.9388 2.8875 11.25L3.2925 10.9438C3.36 10.8938 3.4275 10.8463 3.495 10.7988L3.89375 10.525L4.60625 10.0475C6.36625 8.84128 8.8225 7.59753 11.3412 7.50253C12.1475 7.47253 12.85 7.73503 13.5363 8.05878L14.05 8.30878C14.29 8.42878 14.5312 8.54753 14.7762 8.65878C14.97 8.74503 15.03 8.74503 15.2238 8.65878L15.5887 8.48753L16.4637 8.05878C17.1512 7.73378 17.8512 7.47128 18.6588 7.50253ZM24.6237 15.7063C21.9212 16.5063 18.4037 16.875 15 16.875C11.5962 16.875 8.07875 16.5063 5.37625 15.7063C7.87625 18.3413 11.3337 20 15 20C18.6663 20 22.1238 18.3413 24.625 15.7063H24.6237ZM18.5637 10C18.0763 9.98128 17.5975 10.2075 17.1375 10.46L16.6838 10.715C16.5411 10.7956 16.3951 10.8703 16.2463 10.9388C15.9437 11.0738 15.4937 11.2513 15 11.2513C14.5063 11.2513 14.0563 11.0738 13.7537 10.9388C13.6031 10.8693 13.4554 10.7934 13.3113 10.7113L12.8612 10.4575C12.405 10.205 11.9325 9.98128 11.4363 10C9.04625 10.09 6.75875 11.4275 4.94375 12.915C7.2725 13.8525 11.0562 14.3738 15 14.3738C18.9438 14.3738 22.7275 13.8525 25.0562 12.915C23.2413 11.4275 20.9538 10.09 18.5637 10Z" fill="#4CDB06"/>
</g>
<defs>
<clipPath id="clip0_183_6451">
<rect width="30" height="30" fill="white"/>
</clipPath>
</defs>
</svg>
