<svg width="121" height="135" viewBox="0 0 121 135" fill="none" xmlns="http://www.w3.org/2000/svg">
<path d="M112.281 52.1451C112.281 64.4058 108.05 75.6723 100.981 84.5679C91.4255 96.5753 76.6887 104.281 60.1403 104.281C31.4412 104.281 8 81.0211 8 52.1403C8 39.8892 12.2303 28.6227 19.3095 19.7223C29.0798 7.39945 43.9935 0 60.1403 0C88.9351 0.00478001 112.281 23.336 112.281 52.1451Z" fill="#EDEDED"/>
<path d="M14.6442 97.407C15.997 97.1441 17.3067 98.0476 17.5696 99.4003C17.8325 100.753 16.9434 102.058 15.5955 102.321C14.2427 102.584 12.9187 101.699 12.6558 100.347C12.3929 98.9988 13.2963 97.6652 14.6442 97.407Z" fill="#D6DCE8"/>
<path d="M10.7342 92.6796C11.5946 92.5123 12.4311 93.0907 12.5936 93.9511C12.7609 94.8115 12.1969 95.6432 11.3365 95.8105C10.4761 95.9778 9.6348 95.4137 9.4675 94.5533C9.3002 93.6929 9.8738 92.8469 10.7342 92.6796Z" fill="#D6DCE8"/>
<path d="M10.9731 0.492367C12.3259 0.229467 13.6356 1.13289 13.8985 2.48563C14.1614 3.83837 13.2723 5.14332 11.9244 5.40622C10.5716 5.66912 9.24756 4.78481 8.98466 3.43207C8.72654 2.07933 9.62518 0.750488 10.9731 0.492367Z" fill="#D6DCE8"/>
<path d="M96.7552 11.7397C96.4206 11.4338 96.4015 10.9176 96.7026 10.583C97.1472 10.0954 97.5726 9.58872 97.9645 9.07247C98.237 8.71397 98.7485 8.64227 99.1117 8.91473C99.4702 9.1872 99.5419 9.69866 99.2695 10.0619C98.8488 10.6212 98.39 11.1661 97.912 11.6919C97.606 12.0265 97.0898 12.0456 96.7552 11.7397Z" fill="url(#paint0_linear_41_604)"/>
<path d="M36.6036 37.2554C35.5042 36.6818 34.247 36.2086 32.856 35.8405C32.421 35.7258 32.1581 35.2765 32.2729 34.8415C32.3876 34.4065 32.8369 34.1484 33.2719 34.2583C34.7776 34.6551 36.1495 35.1761 37.354 35.8071C37.7555 36.0174 37.9085 36.5097 37.703 36.9112C37.4926 37.3128 36.9955 37.4609 36.6036 37.2554ZM28.8456 35.1044C27.6984 34.9658 26.5321 34.8606 24.6918 34.6838C24.2425 34.6407 23.9126 34.2392 23.9557 33.7899C23.9987 33.3406 24.3859 33.006 24.8495 33.0538L25.9489 33.1589C26.9814 33.2545 28.0139 33.3549 29.0416 33.4792C29.4909 33.5318 29.8112 33.9429 29.7538 34.3922C29.7012 34.8367 29.2997 35.157 28.8456 35.1044ZM20.4662 34.1436C18.6976 33.8281 17.2923 33.4171 16.2694 33.0203C15.8488 32.8578 15.6384 32.3798 15.8057 31.9591C15.9683 31.5385 16.4463 31.3282 16.8621 31.4955C18.0667 31.9639 19.4577 32.3033 20.7531 32.5327C21.1976 32.614 21.494 33.0346 21.4127 33.4792C21.3362 33.9285 20.906 34.2201 20.4662 34.1436ZM12.4263 30.8454C11.1691 29.8655 10.1606 28.7518 9.42921 27.5281C9.19499 27.1409 9.32405 26.639 9.71123 26.4048C10.0984 26.1706 10.6003 26.2996 10.8345 26.6868C11.4607 27.7336 12.3355 28.6992 13.4349 29.5548C13.7934 29.832 13.8555 30.3483 13.5783 30.702C13.2962 31.0557 12.7848 31.1274 12.4263 30.8454ZM8.94165 23.9192C8.50189 23.9192 8.13861 23.6085 8.12427 23.1639C8.12427 23.1544 8.12427 23.0683 8.12427 23.0588V22.9727C8.12427 21.5292 8.49711 20.1047 9.23323 18.7281C9.44833 18.3313 9.94067 18.1784 10.3374 18.3935C10.7342 18.6086 10.8871 19.1009 10.672 19.5024C10.065 20.6401 9.75903 21.8064 9.75903 22.9775C9.75903 22.9871 9.75903 23.054 9.75903 23.0636C9.75903 23.5129 9.40053 23.9144 8.95599 23.9192C8.95121 23.9192 8.94643 23.9192 8.94165 23.9192ZM69.2223 21.467C68.7778 21.467 68.4145 21.1085 68.405 20.664C68.3954 20.2099 68.7587 19.837 69.208 19.8323C70.5225 19.8084 71.7844 19.5263 72.9794 19.0197C73.3953 18.8428 73.8733 19.0388 74.0501 19.4546C74.227 19.8705 74.031 20.3533 73.6152 20.5254C72.2003 21.1276 70.7424 21.4384 69.2367 21.467C69.2367 21.467 69.2271 21.467 69.2223 21.467ZM64.8678 20.8695C63.3716 20.4632 61.9185 19.8848 60.8239 19.426C60.408 19.2539 60.2072 18.7711 60.3841 18.3552C60.5562 17.9394 61.039 17.7386 61.4548 17.9155C62.5064 18.3552 63.8974 18.9097 65.3027 19.2921C65.7377 19.4116 65.9958 19.8609 65.8763 20.2959C65.7568 20.7213 65.3171 20.989 64.8678 20.8695ZM81.8416 18.6181C81.7938 18.1688 82.1188 17.7673 82.5681 17.7195C83.3042 17.6096 84.4562 17.5474 86.526 16.9356C86.9609 16.8065 87.415 17.0551 87.5441 17.4853C87.6732 17.9203 87.4246 18.3744 86.9944 18.5034C84.7669 19.1631 83.1656 19.2826 82.7402 19.3495C82.7115 19.3495 81.8894 19.0531 81.8416 18.6181ZM78.333 19.2348C76.8512 18.9671 75.3264 18.3983 74.141 17.4662C73.7872 17.1889 73.7251 16.6727 74.0023 16.319C74.2796 15.9652 74.7958 15.9031 75.1495 16.1803C75.4746 16.4337 75.8713 16.6727 76.2442 16.8591C77.2528 15.8935 78.0128 14.7702 78.4525 13.7569C78.6342 13.341 79.1122 13.1498 79.528 13.3362C79.9439 13.5179 80.1303 14.0007 79.9534 14.4117C79.5185 15.406 78.8254 16.5006 77.9315 17.4757C78.1562 17.5331 78.3856 17.5809 78.6198 17.6239C79.0644 17.7052 79.3607 18.1306 79.2795 18.5751C79.203 19.0244 78.7728 19.316 78.333 19.2348ZM56.9712 17.7912C55.6997 17.275 54.3947 16.7922 53.085 16.3524C52.6548 16.209 52.4254 15.7454 52.5736 15.3152C52.717 14.8897 53.1806 14.6555 53.6108 14.7989C54.9492 15.2482 56.2876 15.7454 57.5878 16.2712C58.0084 16.4385 58.2092 16.9165 58.0371 17.3371C57.865 17.753 57.3918 17.9633 56.9712 17.7912ZM90.6559 16.9882C89.7955 16.9882 89.523 15.8266 90.2878 15.4394C91.4924 14.8324 92.6444 14.1106 93.7199 13.3028C94.0784 13.0303 94.5946 13.102 94.8671 13.4605C95.1395 13.819 95.0678 14.3353 94.7093 14.6077C93.5574 15.4777 92.3193 16.2473 91.0335 16.9021C90.9045 16.9595 90.7802 16.9882 90.6559 16.9882ZM11.977 16.4289C11.6854 16.08 11.7332 15.5637 12.0821 15.2769C13.2293 14.3209 14.5151 13.6039 15.9061 13.0447C16.322 12.8774 16.8048 13.0781 16.9721 13.4988C17.1394 13.9194 16.9386 14.3926 16.518 14.5647C15.2943 15.057 14.1519 15.688 13.1289 16.5388C12.7896 16.8209 12.2733 16.7778 11.977 16.4289ZM49.1176 15.1479C47.7888 14.7846 46.4313 14.4595 45.0881 14.1775C44.6435 14.0867 44.3615 13.6517 44.4571 13.2072C44.5479 12.7626 44.9829 12.4806 45.4275 12.5762C46.8041 12.863 48.1903 13.1976 49.5526 13.5705C49.9876 13.69 50.2457 14.1393 50.1262 14.5743C50.0067 15.0045 49.5574 15.2674 49.1176 15.1479ZM71.5311 13.6422C71.1869 12.428 71.1917 11.1613 71.641 9.98067C71.7844 9.60783 71.9804 9.24933 72.229 8.91951C72.4966 8.55623 73.0081 8.47975 73.3714 8.75221C73.7347 9.01989 73.8111 9.53613 73.5387 9.89463C72.8599 10.8028 72.7834 12.0743 73.1037 13.1928C73.228 13.6278 72.9746 14.0819 72.5397 14.2062C72.1047 14.3305 71.6554 14.0771 71.5311 13.6422ZM19.4385 12.8152C19.3525 12.3707 19.6489 11.9453 20.0934 11.8592C22.1297 11.4768 24.0321 11.3382 24.3285 11.3095C24.7922 11.2761 25.1746 11.6011 25.2176 12.0504C25.2558 12.4997 24.926 12.8965 24.4767 12.9395L23.9031 12.9921C22.5456 13.1211 21.4366 13.2741 20.3993 13.4701C19.9548 13.5513 19.5246 13.2598 19.4385 12.8152ZM41.0107 13.4414C39.6484 13.2359 38.2622 13.0733 36.8951 12.9491C36.4458 12.906 36.1112 12.5093 36.1542 12.06C36.1973 11.6107 36.6083 11.2856 37.0433 11.3191C38.4439 11.4434 39.8587 11.6154 41.2545 11.821C41.7038 11.8879 42.0097 12.3038 41.9428 12.7531C41.8711 13.2072 41.4553 13.5083 41.0107 13.4414ZM32.7556 12.7005C31.3742 12.6575 29.988 12.6575 28.6114 12.6957C28.1668 12.7101 27.7844 12.3516 27.7701 11.9022C27.7558 11.4481 28.1143 11.0753 28.5636 11.061C29.9737 11.0227 31.3886 11.0227 32.8034 11.0657C33.2528 11.0801 33.6113 11.4577 33.5969 11.907C33.5826 12.3755 33.1859 12.7196 32.7556 12.7005ZM78.8445 10.234C78.5242 9.17285 77.7069 8.47497 76.5071 8.45585C76.0577 8.44629 75.6945 8.07345 75.704 7.62413C75.7136 7.17959 76.0769 6.82108 76.5214 6.82108C76.5262 6.82108 76.531 6.82108 76.5357 6.82108C78.4477 6.85454 79.8818 8.02565 80.4123 9.76079C80.5414 10.1958 80.2976 10.6499 79.8674 10.7837C79.4372 10.9128 78.9783 10.669 78.8445 10.234Z" fill="#C7CFDE"/>
<path d="M40.9008 41.132C40.5853 40.6014 40.2125 40.0947 39.7823 39.6311C39.4764 39.2965 39.5003 38.7802 39.8301 38.4743C40.1647 38.1684 40.6809 38.1923 40.9868 38.5221C41.4935 39.0718 41.9381 39.6693 42.3061 40.2955C42.5356 40.6827 42.4065 41.1846 42.0193 41.414C41.6369 41.6482 41.135 41.5239 40.9008 41.132Z" fill="url(#paint1_linear_41_604)"/>
<path d="M102.687 56.0026V37.6904C102.687 34.2344 99.8861 31.4334 96.4301 31.4334H51.8804C49.7533 31.4334 47.7744 30.3531 46.6224 28.5653L44.3519 25.0473C43.1999 23.2595 41.221 22.1793 39.0939 22.1793H24.7156C21.2597 22.1793 18.4586 24.9803 18.4586 28.4363V56.0026H102.687Z" fill="#878787"/>
<path d="M112.462 55.95L104.441 89.0755C103.414 93.3249 99.6088 96.3172 95.2351 96.3172H25.9106C21.5369 96.3172 17.732 93.3249 16.7043 89.0755L8.68347 55.95C7.34029 50.41 11.5371 45.0755 17.2397 45.0755H103.901C109.604 45.0755 113.801 50.41 112.462 55.95Z" fill="#C2C2C2"/>
<path d="M109.068 2.01716L109.781 1.53916C109.656 1.4579 109.513 1.39098 109.341 1.34318C108.5 1.01336 108.949 -0.234226 109.805 0.043014C110.249 0.215094 110.665 0.449315 110.961 0.740896L111.315 0.501895C111.64 0.282015 112.056 0.377614 112.262 0.683535C112.467 0.989455 112.4 1.4101 112.08 1.62998L111.726 1.86898C111.874 2.26094 111.946 2.68158 111.941 3.15958C111.936 3.5372 111.64 3.85746 111.258 3.85746C110.88 3.85268 110.574 3.54198 110.579 3.16436C110.574 2.98272 110.56 2.82498 110.531 2.6768L109.838 3.14524C109.752 2.94448 109.637 2.74372 109.503 2.54774C109.365 2.35654 109.217 2.1749 109.068 2.01716Z" fill="black"/>
<path d="M103.237 11.9309C103.141 11.6202 103.108 11.2904 103.103 10.9653C104.771 10.2914 106.85 9.18719 108.16 8.083C108.906 9.61739 108.251 12.1604 106.645 13.2454C105.24 14.2014 103.715 13.6087 103.237 11.9309Z" fill="url(#paint2_linear_41_604)"/>
<path d="M98.5045 1.21412C100.106 0.129056 102.725 0.473216 103.853 1.71124C102.319 2.52862 100.517 4.05822 99.298 5.33449C98.9825 5.21976 98.7053 5.05246 98.4615 4.86604C97.0801 3.8001 97.0992 2.16056 98.5045 1.21412Z" fill="url(#paint3_linear_41_604)"/>
<path d="M107.195 8.81433C103.519 11.2999 97.41 13.3267 96.2007 11.5389C94.9913 9.75599 99.1499 4.83258 102.821 2.34698C106.492 -0.133844 108.289 0.760018 109.499 2.54296C110.708 4.33546 110.866 6.33351 107.195 8.81433Z" fill="url(#paint4_linear_41_604)"/>
<path d="M10.0823 116.76H12.5303V129H10.6403L4.01628 121.314V129H1.56828V116.76H3.38628L10.0823 124.662V116.76ZM18.3627 120.198C21.0447 120.198 22.9167 122.052 22.9167 124.716C22.9167 127.362 21.0447 129.216 18.3627 129.216C15.6627 129.216 13.7907 127.362 13.7907 124.716C13.7907 122.052 15.6627 120.198 18.3627 120.198ZM18.3627 127.074C19.6587 127.074 20.5587 126.102 20.5587 124.716C20.5587 123.312 19.6587 122.34 18.3627 122.34C17.0487 122.34 16.1487 123.312 16.1487 124.716C16.1487 126.102 17.0487 127.074 18.3627 127.074ZM32.8289 116.76C36.5729 116.76 39.3809 119.37 39.3809 122.826C39.3809 126.354 36.5729 129 32.8289 129H28.1309V116.76H32.8289ZM32.8289 126.732C35.0789 126.732 36.8969 125.004 36.8969 122.826C36.8969 120.72 35.0789 119.028 32.8289 119.028H30.5789V126.732H32.8289ZM46.7342 120.414H49.0922V129H46.7342V128.514C46.0682 128.946 45.2222 129.216 44.2682 129.216C41.8922 129.216 39.9842 127.2 39.9842 124.716C39.9842 122.214 41.8922 120.198 44.2682 120.198C45.2222 120.198 46.0682 120.468 46.7342 120.9V120.414ZM44.6282 127.074C45.4022 127.074 46.1762 126.858 46.7342 126.066V123.348C46.1762 122.556 45.4022 122.34 44.6282 122.34C43.2782 122.34 42.3422 123.42 42.3422 124.716C42.3422 125.994 43.2782 127.074 44.6282 127.074ZM56.803 126.696L57.127 128.838C56.335 129.144 55.687 129.216 55.057 129.216C52.753 129.216 51.457 127.776 51.457 125.58V122.394H49.621V120.414H51.457V117.3H53.815V120.414H56.965V122.394H53.815V125.58C53.815 126.588 54.445 127.038 55.327 127.038C55.867 127.038 56.371 126.876 56.803 126.696ZM64.0501 120.414H66.4081V129H64.0501V128.514C63.3841 128.946 62.5381 129.216 61.5841 129.216C59.2081 129.216 57.3001 127.2 57.3001 124.716C57.3001 122.214 59.2081 120.198 61.5841 120.198C62.5381 120.198 63.3841 120.468 64.0501 120.9V120.414ZM61.9441 127.074C62.7181 127.074 63.4921 126.858 64.0501 126.066V123.348C63.4921 122.556 62.7181 122.34 61.9441 122.34C60.5941 122.34 59.6581 123.42 59.6581 124.716C59.6581 125.994 60.5941 127.074 61.9441 127.074ZM80.9186 119.028H74.4926V122.178H80.1086V124.446H74.4926V129H72.0446V116.76H80.9186V119.028ZM85.1476 120.198C87.8296 120.198 89.7016 122.052 89.7016 124.716C89.7016 127.362 87.8296 129.216 85.1476 129.216C82.4476 129.216 80.5756 127.362 80.5756 124.716C80.5756 122.052 82.4476 120.198 85.1476 120.198ZM85.1476 127.074C86.4436 127.074 87.3436 126.102 87.3436 124.716C87.3436 123.312 86.4436 122.34 85.1476 122.34C83.8336 122.34 82.9336 123.312 82.9336 124.716C82.9336 126.102 83.8336 127.074 85.1476 127.074ZM96.9022 120.414H99.2602V129H96.9022V128.316C96.2002 128.874 95.3902 129.216 94.4182 129.216C92.1322 129.216 90.6202 127.542 90.6202 125.022V120.414H92.9782V124.878C92.9782 126.282 93.6802 127.074 94.9222 127.074C95.5702 127.074 96.2902 126.678 96.9022 125.94V120.414ZM105.644 120.198C107.93 120.198 109.442 121.818 109.442 124.338V129H107.084V124.482C107.084 123.078 106.382 122.34 105.14 122.34C104.492 122.34 103.772 122.718 103.16 123.438V129H100.802V120.414H103.16V121.062C103.862 120.504 104.672 120.198 105.644 120.198ZM117.193 116.22H119.551V129H117.193V128.514C116.527 128.946 115.681 129.216 114.727 129.216C112.351 129.216 110.443 127.2 110.443 124.698C110.443 122.214 112.351 120.198 114.727 120.198C115.681 120.198 116.527 120.468 117.193 120.9V116.22ZM115.087 127.074C115.861 127.074 116.635 126.858 117.193 126.066V123.348C116.635 122.556 115.861 122.34 115.087 122.34C113.737 122.34 112.801 123.42 112.801 124.698C112.801 125.994 113.737 127.074 115.087 127.074Z" fill="#B1B1B1"/>
<defs>
<linearGradient id="paint0_linear_41_604" x1="8.1166" y1="10.3528" x2="99.4383" y2="10.3528" gradientUnits="userSpaceOnUse">
<stop stop-color="#D6DCE8"/>
<stop offset="1" stop-color="white"/>
</linearGradient>
<linearGradient id="paint1_linear_41_604" x1="8.12197" y1="39.8976" x2="99.4381" y2="39.8976" gradientUnits="userSpaceOnUse">
<stop stop-color="#D6DCE8"/>
<stop offset="1" stop-color="white"/>
</linearGradient>
<linearGradient id="paint2_linear_41_604" x1="107.771" y1="7.9914" x2="102.53" y2="10.5076" gradientUnits="userSpaceOnUse">
<stop stop-color="#2E2E2E"/>
<stop offset="1" stop-color="white"/>
</linearGradient>
<linearGradient id="paint3_linear_41_604" x1="103.021" y1="0.485575" x2="97.7287" y2="4.06485" gradientUnits="userSpaceOnUse">
<stop stop-color="#2E2E2E"/>
<stop offset="1" stop-color="white"/>
</linearGradient>
<linearGradient id="paint4_linear_41_604" x1="100.662" y1="3.80937" x2="105.036" y2="10.2768" gradientUnits="userSpaceOnUse">
<stop/>
<stop offset="1" stop-color="#656565"/>
</linearGradient>
</defs>
</svg>
