<svg width="121" height="137" viewBox="0 0 121 137" fill="none" xmlns="http://www.w3.org/2000/svg">
<path d="M109.281 52.1451C109.281 64.4058 105.05 75.6723 97.9807 84.5679C88.4255 96.5753 73.6887 104.281 57.1403 104.281C28.4412 104.281 5 81.0211 5 52.1403C5 39.8892 9.23031 28.6227 16.3095 19.7223C26.0798 7.39945 40.9935 0 57.1403 0C85.9351 0.00478001 109.281 23.336 109.281 52.1451Z" fill="#EDEDED"/>
<path d="M11.6442 97.407C12.997 97.1441 14.3067 98.0476 14.5696 99.4003C14.8325 100.753 13.9434 102.058 12.5955 102.321C11.2427 102.584 9.91867 101.699 9.65577 100.347C9.39287 98.9988 10.2963 97.6652 11.6442 97.407Z" fill="#D6DCE8"/>
<path d="M7.7342 92.6796C8.5946 92.5123 9.43111 93.0907 9.59363 93.9511C9.76093 94.8115 9.19688 95.6432 8.33648 95.8105C7.47608 95.9778 6.6348 95.4137 6.4675 94.5533C6.3002 93.6929 6.8738 92.8469 7.7342 92.6796Z" fill="#D6DCE8"/>
<path d="M7.97315 0.492367C9.32589 0.229467 10.6356 1.13289 10.8985 2.48563C11.1614 3.83837 10.2723 5.14332 8.92437 5.40622C7.57163 5.66912 6.24756 4.78481 5.98466 3.43207C5.72654 2.07933 6.62518 0.750488 7.97315 0.492367Z" fill="#D6DCE8"/>
<path d="M93.7552 11.7397C93.4206 11.4338 93.4015 10.9176 93.7026 10.583C94.1472 10.0954 94.5726 9.58871 94.9645 9.07247C95.237 8.71397 95.7485 8.64227 96.1117 8.91473C96.4702 9.18719 96.5419 9.69866 96.2695 10.0619C95.8488 10.6212 95.39 11.1661 94.912 11.6919C94.606 12.0265 94.0898 12.0456 93.7552 11.7397Z" fill="url(#paint0_linear_41_638)"/>
<path d="M33.6036 37.2554C32.5042 36.6818 31.247 36.2086 29.856 35.8405C29.421 35.7258 29.1581 35.2765 29.2729 34.8415C29.3876 34.4065 29.8369 34.1484 30.2719 34.2583C31.7776 34.6551 33.1495 35.1761 34.354 35.8071C34.7555 36.0174 34.9085 36.5097 34.703 36.9112C34.4926 37.3128 33.9955 37.4609 33.6036 37.2554ZM25.8456 35.1044C24.6984 34.9658 23.5321 34.8606 21.6918 34.6838C21.2425 34.6407 20.9126 34.2392 20.9557 33.7899C20.9987 33.3406 21.3859 33.006 21.8495 33.0538L22.9489 33.1589C23.9814 33.2545 25.0139 33.3549 26.0416 33.4792C26.4909 33.5318 26.8112 33.9428 26.7538 34.3922C26.7012 34.8367 26.2997 35.157 25.8456 35.1044ZM17.4662 34.1436C15.6976 33.8281 14.2923 33.4171 13.2694 33.0203C12.8488 32.8578 12.6384 32.3798 12.8057 31.9591C12.9683 31.5385 13.4463 31.3282 13.8621 31.4955C15.0667 31.9639 16.4577 32.3033 17.7531 32.5327C18.1976 32.614 18.494 33.0346 18.4127 33.4792C18.3362 33.9285 17.906 34.2201 17.4662 34.1436ZM9.42628 30.8454C8.16913 29.8655 7.16055 28.7518 6.42921 27.5281C6.19499 27.1409 6.32405 26.639 6.71123 26.4048C7.09841 26.1706 7.60031 26.2996 7.83453 26.6868C8.46071 27.7336 9.33545 28.6992 10.4349 29.5548C10.7934 29.832 10.8555 30.3483 10.5783 30.702C10.2962 31.0557 9.78478 31.1274 9.42628 30.8454ZM5.94165 23.9192C5.50189 23.9192 5.13861 23.6085 5.12427 23.1639C5.12427 23.1544 5.12427 23.0683 5.12427 23.0588V22.9727C5.12427 21.5292 5.49711 20.1047 6.23323 18.7281C6.44833 18.3313 6.94067 18.1784 7.33741 18.3935C7.73415 18.6086 7.88711 19.1009 7.67201 19.5024C7.06495 20.6401 6.75903 21.8064 6.75903 22.9775C6.75903 22.9871 6.75903 23.054 6.75903 23.0636C6.75903 23.5129 6.40053 23.9144 5.95599 23.9192C5.95121 23.9192 5.94643 23.9192 5.94165 23.9192ZM66.2223 21.467C65.7778 21.467 65.4145 21.1085 65.405 20.664C65.3954 20.2099 65.7587 19.837 66.208 19.8323C67.5225 19.8084 68.7844 19.5263 69.9794 19.0197C70.3953 18.8428 70.8733 19.0388 71.0501 19.4546C71.227 19.8705 71.031 20.3533 70.6152 20.5254C69.2003 21.1276 67.7424 21.4383 66.2367 21.467C66.2367 21.467 66.2271 21.467 66.2223 21.467ZM61.8678 20.8695C60.3716 20.4632 58.9185 19.8848 57.8239 19.426C57.408 19.2539 57.2072 18.7711 57.3841 18.3552C57.5562 17.9394 58.039 17.7386 58.4548 17.9155C59.5064 18.3552 60.8974 18.9097 62.3027 19.2921C62.7377 19.4116 62.9958 19.8609 62.8763 20.2959C62.7568 20.7213 62.3171 20.989 61.8678 20.8695ZM78.8416 18.6181C78.7938 18.1688 79.1188 17.7673 79.5681 17.7195C80.3042 17.6096 81.4562 17.5474 83.526 16.9356C83.9609 16.8065 84.415 17.0551 84.5441 17.4853C84.6732 17.9203 84.4246 18.3744 83.9944 18.5034C81.7669 19.1631 80.1656 19.2826 79.7402 19.3495C79.7115 19.3495 78.8894 19.0531 78.8416 18.6181ZM75.333 19.2348C73.8512 18.9671 72.3264 18.3983 71.141 17.4662C70.7872 17.1889 70.7251 16.6727 71.0023 16.319C71.2796 15.9652 71.7958 15.9031 72.1495 16.1803C72.4746 16.4337 72.8713 16.6727 73.2442 16.8591C74.2528 15.8935 75.0128 14.7702 75.4525 13.7569C75.6342 13.341 76.1122 13.1498 76.528 13.3362C76.9439 13.5179 77.1303 14.0007 76.9534 14.4117C76.5185 15.406 75.8254 16.5006 74.9315 17.4757C75.1562 17.5331 75.3856 17.5809 75.6198 17.6239C76.0644 17.7052 76.3607 18.1306 76.2795 18.5751C76.203 19.0244 75.7728 19.316 75.333 19.2348ZM53.9712 17.7912C52.6997 17.275 51.3947 16.7922 50.085 16.3524C49.6548 16.209 49.4254 15.7454 49.5736 15.3152C49.717 14.8897 50.1806 14.6555 50.6108 14.7989C51.9492 15.2482 53.2876 15.7454 54.5878 16.2712C55.0084 16.4385 55.2092 16.9165 55.0371 17.3371C54.865 17.753 54.3918 17.9633 53.9712 17.7912ZM87.6559 16.9882C86.7955 16.9882 86.523 15.8266 87.2878 15.4394C88.4924 14.8324 89.6444 14.1106 90.7199 13.3028C91.0784 13.0303 91.5946 13.102 91.8671 13.4605C92.1395 13.819 92.0678 14.3353 91.7093 14.6077C90.5574 15.4777 89.3193 16.2473 88.0335 16.9021C87.9045 16.9595 87.7802 16.9882 87.6559 16.9882ZM8.97695 16.4289C8.68537 16.08 8.73317 15.5637 9.08211 15.2769C10.2293 14.3209 11.5151 13.6039 12.9061 13.0447C13.322 12.8774 13.8048 13.0781 13.9721 13.4988C14.1394 13.9194 13.9386 14.3926 13.518 14.5647C12.2943 15.057 11.1519 15.688 10.1289 16.5388C9.78955 16.8209 9.27331 16.7778 8.97695 16.4289ZM46.1176 15.1479C44.7888 14.7846 43.4313 14.4595 42.0881 14.1775C41.6435 14.0867 41.3615 13.6517 41.4571 13.2072C41.5479 12.7626 41.9829 12.4806 42.4275 12.5762C43.8041 12.863 45.1903 13.1976 46.5526 13.5705C46.9876 13.69 47.2457 14.1393 47.1262 14.5743C47.0067 15.0045 46.5574 15.2674 46.1176 15.1479ZM68.5311 13.6422C68.1869 12.428 68.1917 11.1613 68.641 9.98067C68.7844 9.60783 68.9804 9.24933 69.229 8.91951C69.4966 8.55623 70.0081 8.47975 70.3714 8.75221C70.7347 9.01989 70.8111 9.53613 70.5387 9.89463C69.8599 10.8028 69.7834 12.0743 70.1037 13.1928C70.228 13.6278 69.9746 14.0819 69.5397 14.2062C69.1047 14.3305 68.6554 14.0771 68.5311 13.6422ZM16.4385 12.8152C16.3525 12.3707 16.6489 11.9453 17.0934 11.8592C19.1297 11.4768 21.0321 11.3382 21.3285 11.3095C21.7922 11.2761 22.1746 11.6011 22.2176 12.0504C22.2558 12.4997 21.926 12.8965 21.4767 12.9395L20.9031 12.9921C19.5456 13.1211 18.4366 13.2741 17.3993 13.4701C16.9548 13.5513 16.5246 13.2598 16.4385 12.8152ZM38.0107 13.4414C36.6484 13.2359 35.2622 13.0733 33.8951 12.9491C33.4458 12.906 33.1112 12.5093 33.1542 12.06C33.1973 11.6107 33.6083 11.2856 34.0433 11.3191C35.4439 11.4434 36.8587 11.6154 38.2545 11.821C38.7038 11.8879 39.0097 12.3038 38.9428 12.7531C38.8711 13.2072 38.4553 13.5083 38.0107 13.4414ZM29.7556 12.7005C28.3742 12.6575 26.988 12.6575 25.6114 12.6957C25.1668 12.7101 24.7844 12.3516 24.7701 11.9022C24.7558 11.4481 25.1143 11.0753 25.5636 11.061C26.9737 11.0227 28.3886 11.0227 29.8034 11.0657C30.2528 11.0801 30.6113 11.4577 30.5969 11.907C30.5826 12.3755 30.1859 12.7196 29.7556 12.7005ZM75.8445 10.234C75.5242 9.17285 74.7069 8.47497 73.5071 8.45585C73.0577 8.44629 72.6945 8.07345 72.704 7.62413C72.7136 7.17958 73.0769 6.82108 73.5214 6.82108C73.5262 6.82108 73.531 6.82108 73.5357 6.82108C75.4477 6.85454 76.8818 8.02565 77.4123 9.76079C77.5414 10.1958 77.2976 10.6499 76.8674 10.7837C76.4372 10.9128 75.9783 10.669 75.8445 10.234Z" fill="#C7CFDE"/>
<path d="M37.9008 41.132C37.5853 40.6014 37.2125 40.0947 36.7823 39.6311C36.4764 39.2965 36.5003 38.7802 36.8301 38.4743C37.1647 38.1684 37.6809 38.1923 37.9868 38.5221C38.4935 39.0718 38.9381 39.6693 39.3061 40.2955C39.5356 40.6827 39.4065 41.1846 39.0193 41.414C38.6369 41.6482 38.135 41.5239 37.9008 41.132Z" fill="url(#paint1_linear_41_638)"/>
<path d="M99.6871 56.0026V37.6904C99.6871 34.2344 96.8861 31.4334 93.4301 31.4334H48.8804C46.7533 31.4334 44.7744 30.3531 43.6224 28.5653L41.3519 25.0473C40.1999 23.2595 38.221 22.1793 36.0939 22.1793H21.7156C18.2597 22.1793 15.4586 24.9803 15.4586 28.4363V56.0026H99.6871Z" fill="url(#paint2_linear_41_638)"/>
<path d="M109.462 55.95L101.441 89.0755C100.414 93.3249 96.6088 96.3172 92.2351 96.3172H22.9106C18.5369 96.3172 14.732 93.3249 13.7043 89.0755L5.68347 55.95C4.34029 50.41 8.53714 45.0755 14.2397 45.0755H100.901C106.604 45.0755 110.801 50.41 109.462 55.95Z" fill="url(#paint3_linear_41_638)"/>
<path d="M60.6536 83.9752C60.3429 83.9752 60.0322 83.8557 59.7932 83.6215C58.5409 82.3882 56.5954 82.3787 55.3574 83.5976C54.8746 84.0756 54.1002 84.066 53.6222 83.5832C53.149 83.1005 53.1538 82.3261 53.6366 81.8481C55.8019 79.7162 59.3391 79.721 61.5188 81.872C62.0016 82.35 62.0064 83.1244 61.5332 83.6071C61.2846 83.8557 60.9691 83.9752 60.6536 83.9752Z" fill="black"/>
<path d="M74.9554 72.6418C74.9554 74.7928 73.2107 76.5375 71.0596 76.5375C68.9086 76.5375 67.1639 74.7928 67.1639 72.6418C67.1639 70.4908 68.9086 68.7461 71.0596 68.7461C73.2107 68.7413 74.9554 70.486 74.9554 72.6418Z" fill="black"/>
<path d="M78.4735 65.6773C78.3253 65.6773 78.1771 65.6487 78.0289 65.5961L69.0425 62.1162C68.4116 61.8725 68.0961 61.1602 68.3399 60.5293C68.5836 59.8983 69.2959 59.5828 69.9268 59.8266L78.9132 63.3065C79.5442 63.5502 79.8597 64.2625 79.6159 64.8934C79.4295 65.3762 78.9658 65.6773 78.4735 65.6773Z" fill="black"/>
<path d="M69.9364 74.2192C69.9364 74.8406 70.4383 75.3425 71.0597 75.3425C71.6811 75.3425 72.183 74.8406 72.183 74.2192C72.183 73.5978 71.6811 73.0959 71.0597 73.0959C70.4383 73.0959 69.9364 73.5978 69.9364 74.2192Z" fill="white"/>
<path d="M40.1952 72.6418C40.1952 74.7928 41.9399 76.5375 44.0909 76.5375C46.2419 76.5375 47.9866 74.7928 47.9866 72.6418C47.9866 70.4908 46.2419 68.7461 44.0909 68.7461C41.9399 68.7461 40.1952 70.486 40.1952 72.6418Z" fill="black"/>
<path d="M36.6771 65.6773C36.1847 65.6773 35.7211 65.381 35.5347 64.8934C35.2909 64.2625 35.6016 63.5502 36.2373 63.3065L45.2237 59.8266C45.8595 59.5828 46.5669 59.8935 46.8107 60.5293C47.0545 61.1602 46.7438 61.8724 46.108 62.1162L37.1216 65.5961C36.9734 65.6487 36.8205 65.6773 36.6771 65.6773Z" fill="black"/>
<path d="M44.273 75.3278C44.8854 75.2284 45.3013 74.6515 45.2019 74.0391C45.1025 73.4267 44.5255 73.0108 43.9131 73.1102C43.3008 73.2096 42.8849 73.7866 42.9843 74.399C43.0837 75.0114 43.6607 75.4272 44.273 75.3278Z" fill="white"/>
<path d="M104.516 98.0124C110.319 92.2088 110.319 82.7994 104.516 76.9959C98.7123 71.1924 89.3029 71.1924 83.4993 76.9959C77.6958 82.7994 77.6958 92.2088 83.4993 98.0124C89.3029 103.816 98.7123 103.816 104.516 98.0124Z" fill="white"/>
<path d="M94.0086 103.186C85.3616 103.186 78.3254 96.1499 78.3254 87.5029C78.3254 78.8558 85.3616 71.8196 94.0086 71.8196C102.656 71.8196 109.692 78.8558 109.692 87.5029C109.692 96.1499 102.656 103.186 94.0086 103.186ZM94.0086 73.4592C86.265 73.4592 79.965 79.7592 79.965 87.5029C79.965 95.2465 86.265 101.547 94.0086 101.547C101.752 101.547 108.052 95.2465 108.052 87.5029C108.052 79.7592 101.757 73.4592 94.0086 73.4592Z" fill="#AAB2C5"/>
<path d="M94.0084 97.5313C99.547 97.5313 104.037 93.0414 104.037 87.5028C104.037 81.9643 99.547 77.4744 94.0084 77.4744C88.4699 77.4744 83.98 81.9643 83.98 87.5028C83.98 93.0414 88.4699 97.5313 94.0084 97.5313Z" fill="#F31D1D"/>
<path d="M98.2771 91.7714C97.7896 92.2733 96.9674 92.2733 96.4799 91.7714L94.0086 89.3049L91.5421 91.7714C91.045 92.2733 90.2324 92.2733 89.7448 91.7714C89.2429 91.2838 89.2429 90.4617 89.7448 89.9741L92.2113 87.5076L89.7448 85.0364C89.2429 84.5345 89.2429 83.7314 89.7448 83.2295C90.2276 82.7324 91.0402 82.7276 91.5421 83.2295L94.0086 85.696L96.4799 83.2295C96.977 82.7324 97.7848 82.7324 98.2771 83.2295C98.7551 83.698 98.7982 84.5154 98.2771 85.0364L95.8107 87.5076L98.2771 89.9741C98.7838 90.4712 98.7838 91.2791 98.2771 91.7714Z" fill="white"/>
<path d="M106.068 2.01716L106.781 1.53916C106.656 1.4579 106.513 1.39098 106.341 1.34318C105.5 1.01336 105.949 -0.234226 106.805 0.043014C107.249 0.215094 107.665 0.449315 107.961 0.740896L108.315 0.501895C108.64 0.282015 109.056 0.377614 109.262 0.683535C109.467 0.989455 109.4 1.4101 109.08 1.62998L108.726 1.86898C108.874 2.26094 108.946 2.68158 108.941 3.15958C108.936 3.5372 108.64 3.85746 108.258 3.85746C107.88 3.85268 107.574 3.54198 107.579 3.16436C107.574 2.98272 107.56 2.82498 107.531 2.6768L106.838 3.14524C106.752 2.94448 106.637 2.74372 106.503 2.54774C106.365 2.35654 106.217 2.1749 106.068 2.01716Z" fill="black"/>
<path d="M100.237 11.9309C100.141 11.6202 100.108 11.2904 100.103 10.9653C101.771 10.2914 103.851 9.18719 105.16 8.083C105.906 9.61739 105.251 12.1604 103.645 13.2454C102.24 14.2014 100.715 13.6087 100.237 11.9309Z" fill="url(#paint4_linear_41_638)"/>
<path d="M95.5047 1.21412C97.106 0.129056 99.7254 0.473216 100.853 1.71124C99.3191 2.52862 97.517 4.05822 96.2981 5.33449C95.9827 5.21976 95.7054 5.05246 95.4616 4.86604C94.0802 3.8001 94.0993 2.16056 95.5047 1.21412Z" fill="url(#paint5_linear_41_638)"/>
<path d="M104.195 8.81433C100.519 11.2999 94.41 13.3267 93.2007 11.5389C91.9913 9.75599 96.1499 4.83258 99.821 2.34698C103.492 -0.133844 105.289 0.760018 106.499 2.54296C107.708 4.33546 107.866 6.33351 104.195 8.81433Z" fill="url(#paint6_linear_41_638)"/>
<path d="M10.0823 118.76H12.5303V131H10.6403L4.01628 123.314V131H1.56828V118.76H3.38628L10.0823 126.662V118.76ZM18.3627 122.198C21.0447 122.198 22.9167 124.052 22.9167 126.716C22.9167 129.362 21.0447 131.216 18.3627 131.216C15.6627 131.216 13.7907 129.362 13.7907 126.716C13.7907 124.052 15.6627 122.198 18.3627 122.198ZM18.3627 129.074C19.6587 129.074 20.5587 128.102 20.5587 126.716C20.5587 125.312 19.6587 124.34 18.3627 124.34C17.0487 124.34 16.1487 125.312 16.1487 126.716C16.1487 128.102 17.0487 129.074 18.3627 129.074ZM32.8289 118.76C36.5729 118.76 39.3809 121.37 39.3809 124.826C39.3809 128.354 36.5729 131 32.8289 131H28.1309V118.76H32.8289ZM32.8289 128.732C35.0789 128.732 36.8969 127.004 36.8969 124.826C36.8969 122.72 35.0789 121.028 32.8289 121.028H30.5789V128.732H32.8289ZM46.7342 122.414H49.0922V131H46.7342V130.514C46.0682 130.946 45.2222 131.216 44.2682 131.216C41.8922 131.216 39.9842 129.2 39.9842 126.716C39.9842 124.214 41.8922 122.198 44.2682 122.198C45.2222 122.198 46.0682 122.468 46.7342 122.9V122.414ZM44.6282 129.074C45.4022 129.074 46.1762 128.858 46.7342 128.066V125.348C46.1762 124.556 45.4022 124.34 44.6282 124.34C43.2782 124.34 42.3422 125.42 42.3422 126.716C42.3422 127.994 43.2782 129.074 44.6282 129.074ZM56.803 128.696L57.127 130.838C56.335 131.144 55.687 131.216 55.057 131.216C52.753 131.216 51.457 129.776 51.457 127.58V124.394H49.621V122.414H51.457V119.3H53.815V122.414H56.965V124.394H53.815V127.58C53.815 128.588 54.445 129.038 55.327 129.038C55.867 129.038 56.371 128.876 56.803 128.696ZM64.0501 122.414H66.4081V131H64.0501V130.514C63.3841 130.946 62.5381 131.216 61.5841 131.216C59.2081 131.216 57.3001 129.2 57.3001 126.716C57.3001 124.214 59.2081 122.198 61.5841 122.198C62.5381 122.198 63.3841 122.468 64.0501 122.9V122.414ZM61.9441 129.074C62.7181 129.074 63.4921 128.858 64.0501 128.066V125.348C63.4921 124.556 62.7181 124.34 61.9441 124.34C60.5941 124.34 59.6581 125.42 59.6581 126.716C59.6581 127.994 60.5941 129.074 61.9441 129.074ZM80.9186 121.028H74.4926V124.178H80.1086V126.446H74.4926V131H72.0446V118.76H80.9186V121.028ZM85.1476 122.198C87.8296 122.198 89.7016 124.052 89.7016 126.716C89.7016 129.362 87.8296 131.216 85.1476 131.216C82.4476 131.216 80.5756 129.362 80.5756 126.716C80.5756 124.052 82.4476 122.198 85.1476 122.198ZM85.1476 129.074C86.4436 129.074 87.3436 128.102 87.3436 126.716C87.3436 125.312 86.4436 124.34 85.1476 124.34C83.8336 124.34 82.9336 125.312 82.9336 126.716C82.9336 128.102 83.8336 129.074 85.1476 129.074ZM96.9022 122.414H99.2602V131H96.9022V130.316C96.2002 130.874 95.3902 131.216 94.4182 131.216C92.1322 131.216 90.6202 129.542 90.6202 127.022V122.414H92.9782V126.878C92.9782 128.282 93.6802 129.074 94.9222 129.074C95.5702 129.074 96.2902 128.678 96.9022 127.94V122.414ZM105.644 122.198C107.93 122.198 109.442 123.818 109.442 126.338V131H107.084V126.482C107.084 125.078 106.382 124.34 105.14 124.34C104.492 124.34 103.772 124.718 103.16 125.438V131H100.802V122.414H103.16V123.062C103.862 122.504 104.672 122.198 105.644 122.198ZM117.193 118.22H119.551V131H117.193V130.514C116.527 130.946 115.681 131.216 114.727 131.216C112.351 131.216 110.443 129.2 110.443 126.698C110.443 124.214 112.351 122.198 114.727 122.198C115.681 122.198 116.527 122.468 117.193 122.9V118.22ZM115.087 129.074C115.861 129.074 116.635 128.858 117.193 128.066V125.348C116.635 124.556 115.861 124.34 115.087 124.34C113.737 124.34 112.801 125.42 112.801 126.698C112.801 127.994 113.737 129.074 115.087 129.074Z" fill="#6B6B6B"/>
<defs>
<linearGradient id="paint0_linear_41_638" x1="5.1166" y1="10.3528" x2="96.4383" y2="10.3528" gradientUnits="userSpaceOnUse">
<stop stop-color="#D6DCE8"/>
<stop offset="1" stop-color="white"/>
</linearGradient>
<linearGradient id="paint1_linear_41_638" x1="5.12197" y1="39.8976" x2="96.4381" y2="39.8976" gradientUnits="userSpaceOnUse">
<stop stop-color="#D6DCE8"/>
<stop offset="1" stop-color="white"/>
</linearGradient>
<linearGradient id="paint2_linear_41_638" x1="57.4077" y1="35.3026" x2="57.7007" y2="55.6696" gradientUnits="userSpaceOnUse">
<stop/>
<stop offset="1" stop-color="#818181"/>
</linearGradient>
<linearGradient id="paint3_linear_41_638" x1="57.4897" y1="38.8039" x2="57.6616" y2="69.7396" gradientUnits="userSpaceOnUse">
<stop stop-color="#4CDB06"/>
<stop offset="1" stop-color="#4CDB06"/>
</linearGradient>
<linearGradient id="paint4_linear_41_638" x1="104.771" y1="7.9914" x2="99.5302" y2="10.5076" gradientUnits="userSpaceOnUse">
<stop stop-color="#2E2E2E"/>
<stop offset="1" stop-color="white"/>
</linearGradient>
<linearGradient id="paint5_linear_41_638" x1="100.021" y1="0.485575" x2="94.7288" y2="4.06485" gradientUnits="userSpaceOnUse">
<stop stop-color="#2E2E2E"/>
<stop offset="1" stop-color="white"/>
</linearGradient>
<linearGradient id="paint6_linear_41_638" x1="97.662" y1="3.80937" x2="102.036" y2="10.2768" gradientUnits="userSpaceOnUse">
<stop/>
<stop offset="1" stop-color="#656565"/>
</linearGradient>
</defs>
</svg>
