<svg width="704" height="180" viewBox="0 0 704 180" fill="none" xmlns="http://www.w3.org/2000/svg">
<g clip-path="url(#clip0_1_2)">
<rect width="704" height="180" rx="10" fill="#F6F6F6"/>
<g style="mix-blend-mode:multiply">
<path d="M-18.9358 156.022C12.3588 125.934 58.5247 116.505 101.427 120.384C144.329 124.263 185.223 139.854 225.968 154.053C266.712 168.252 308.854 181.334 351.902 179.891C442.796 176.843 524.615 109.822 615.396 115.338C654.655 117.724 691.877 133.684 730.747 139.773C769.617 145.862 814.907 139.122 838 106.756L838 -6.99993L-22 -7.00001L-18.9358 156.022V156.022Z" fill="#4CDB06"/>
</g>
<path d="M299.388 109.201C308.203 109.201 314.868 115.866 314.868 124.38C314.868 132.894 308.203 139.559 299.388 139.559C290.573 139.559 283.908 132.894 283.908 124.38C283.908 115.866 290.573 109.201 299.388 109.201ZM299.388 132.765C304.118 132.765 307.515 128.981 307.515 124.38C307.515 119.779 304.118 115.995 299.388 115.995C294.658 115.995 291.261 119.779 291.261 124.38C291.261 128.981 294.658 132.765 299.388 132.765ZM327.377 117.586C334.085 117.586 338.815 122.187 338.815 128.594C338.815 135.044 334.085 139.559 327.377 139.559C320.669 139.559 315.896 135.044 315.896 128.594C315.896 122.187 320.669 117.586 327.377 117.586ZM327.377 133.754C330.258 133.754 332.279 131.647 332.279 128.594C332.279 125.584 330.258 123.434 327.377 123.434C324.453 123.434 322.432 125.584 322.432 128.594C322.432 131.647 324.453 133.754 327.377 133.754ZM353.549 117.672C359.182 117.672 363.912 122.316 363.912 128.551C363.912 134.743 359.182 139.43 353.549 139.43C351.27 139.43 349.421 138.828 347.873 137.882V148.976H340.864V118.145H347.873V119.22C349.421 118.274 351.27 117.672 353.549 117.672ZM352.173 133.711C355.011 133.711 357.075 131.432 357.075 128.551C357.075 125.67 355.011 123.348 352.173 123.348C350.668 123.348 349.163 123.821 347.873 125.283V131.819C349.163 133.281 350.668 133.711 352.173 133.711ZM378.662 117.672C384.295 117.672 389.025 122.316 389.025 128.551C389.025 134.743 384.295 139.43 378.662 139.43C376.383 139.43 374.534 138.828 372.986 137.882V148.976H365.977V118.145H372.986V119.22C374.534 118.274 376.383 117.672 378.662 117.672ZM377.286 133.711C380.124 133.711 382.188 131.432 382.188 128.551C382.188 125.67 380.124 123.348 377.286 123.348C375.781 123.348 374.276 123.821 372.986 125.283V131.819C374.276 133.281 375.781 133.711 377.286 133.711ZM395.737 131.862C396.038 133.668 397.672 134.442 399.865 134.442C401.714 134.442 402.875 133.926 402.875 133.023C402.875 132.292 402.058 131.776 400.682 131.561L396.468 130.83C392.899 130.228 390.362 128.207 390.362 124.552C390.362 120.166 394.103 117.586 399.65 117.586C404.595 117.586 409.067 119.263 409.368 124.767H403.219C403.09 123.219 401.585 122.531 399.65 122.531C397.844 122.531 397.027 123.176 397.027 123.95C397.027 124.681 397.543 125.326 399.22 125.627L403.09 126.272C406.96 127.003 409.583 128.895 409.583 132.593C409.583 137.409 405.283 139.559 399.822 139.559C394.447 139.559 390.018 137.366 389.545 131.819L395.737 131.862ZM419.279 109.76L418.677 129.454H412.571L411.969 109.76H419.279ZM415.624 139.301C413.56 139.301 411.883 137.753 411.883 135.646C411.883 133.625 413.56 132.077 415.624 132.077C417.688 132.077 419.408 133.625 419.408 135.646C419.408 137.753 417.688 139.301 415.624 139.301Z" fill="#000002"/>
<path d="M319 61.6667H322.667V87.3333C322.667 91.3777 325.956 94.6667 330 94.6667H374C378.044 94.6667 381.333 91.3777 381.333 87.3333V61.6667H385C385.725 61.6665 386.434 61.4514 387.037 61.0485C387.64 60.6456 388.109 60.073 388.387 59.4031C388.664 58.7332 388.737 57.996 388.595 57.2849C388.454 56.5737 388.105 55.9205 387.592 55.4077L354.592 22.4077C354.252 22.0669 353.848 21.7965 353.403 21.612C352.958 21.4275 352.482 21.3326 352 21.3326C351.518 21.3326 351.042 21.4275 350.597 21.612C350.152 21.7965 349.748 22.0669 349.408 22.4077L316.408 55.4077C315.895 55.9205 315.546 56.5737 315.405 57.2849C315.263 57.996 315.336 58.7332 315.613 59.4031C315.891 60.073 316.36 60.6456 316.963 61.0485C317.566 61.4514 318.275 61.6665 319 61.6667ZM352 30.1847L374 52.1847V69L374.004 87.3333H330V52.1847L352 30.1847Z" fill="#111111"/>
<path d="M352 80C365.578 80 369.97 67.0237 370.15 66.4737L363.183 64.1967C363.154 64.281 360.32 72.6667 352 72.6667C343.794 72.6667 340.927 64.523 340.813 64.1747L333.85 66.4737C334.03 67.0237 338.422 80 352 80Z" fill="#111111"/>
</g>
<defs>
<clipPath id="clip0_1_2">
<rect width="704" height="180" rx="10" fill="white"/>
</clipPath>
</defs>
</svg>
