<svg width="256" height="256" viewBox="0 0 256 256" fill="none" xmlns="http://www.w3.org/2000/svg">
<path d="M224 152C224 154.122 223.157 156.157 221.657 157.657C220.157 159.157 218.122 160 216 160H192V176H208C210.122 176 212.157 176.843 213.657 178.343C215.157 179.843 216 181.878 216 184C216 186.122 215.157 188.157 213.657 189.657C212.157 191.157 210.122 192 208 192H192V208C192 210.122 191.157 212.157 189.657 213.657C188.157 215.157 186.122 216 184 216C181.878 216 179.843 215.157 178.343 213.657C176.843 212.157 176 210.122 176 208V152C176 149.878 176.843 147.843 178.343 146.343C179.843 144.843 181.878 144 184 144H216C218.122 144 220.157 144.843 221.657 146.343C223.157 147.843 224 149.878 224 152ZM64 144H48C45.8783 144 43.8434 144.843 42.3431 146.343C40.8429 147.843 40 149.878 40 152V208C40 210.122 40.8429 212.157 42.3431 213.657C43.8434 215.157 45.8783 216 48 216C50.1217 216 52.1566 215.157 53.6569 213.657C55.1571 212.157 56 210.122 56 208V200H64C71.4261 200 78.548 197.05 83.799 191.799C89.05 186.548 92 179.426 92 172C92 164.574 89.05 157.452 83.799 152.201C78.548 146.95 71.4261 144 64 144ZM64 184H56V160H64C67.1826 160 70.2348 161.264 72.4853 163.515C74.7357 165.765 76 168.817 76 172C76 175.183 74.7357 178.235 72.4853 180.485C70.2348 182.736 67.1826 184 64 184ZM128 144H112C109.878 144 107.843 144.843 106.343 146.343C104.843 147.843 104 149.878 104 152V208C104 210.122 104.843 212.157 106.343 213.657C107.843 215.157 109.878 216 112 216H128C137.548 216 146.705 212.207 153.456 205.456C160.207 198.705 164 189.548 164 180C164 170.452 160.207 161.295 153.456 154.544C146.705 147.793 137.548 144 128 144ZM128 200H120V160H128C133.304 160 138.391 162.107 142.142 165.858C145.893 169.609 148 174.696 148 180C148 185.304 145.893 190.391 142.142 194.142C138.391 197.893 133.304 200 128 200Z" fill="black"/>
<path fill-rule="evenodd" clip-rule="evenodd" d="M48 120H208C210.122 120 212.157 119.157 213.657 117.657C215.157 116.157 216 114.122 216 112V88C216.001 86.9491 215.795 85.9084 215.393 84.9372C214.992 83.966 214.403 83.0835 213.66 82.34L157.66 26.34C156.917 25.5973 156.034 25.0084 155.063 24.6069C154.092 24.2054 153.051 23.9992 152 24H56C51.7565 24 47.6869 25.6857 44.6863 28.6863C41.6857 31.6869 40 35.7565 40 40V112C40 114.122 40.8429 116.157 42.3431 117.657C43.8434 119.157 45.8783 120 48 120ZM152 44L196 88H152V44Z" fill="#4CDB06"/>
</svg>
