<svg width="128" height="128" viewBox="0 0 128 128" fill="none" xmlns="http://www.w3.org/2000/svg">
<path d="M99.3895 3.31128L123.442 28.3838V123.729H33.5913V124.04H123.749V28.6994L99.3895 3.31128Z" fill="#909090"/>
<path d="M99.0913 3H33.2844V123.729H123.442V28.3881L99.0913 3Z" fill="#E8E8E8"/>
<path d="M32.623 9.48425H5V38.9964H91.8894V9.48425H32.623Z" fill="#7A7B7C"/>
<path d="M92.352 38.4949H5.56201V8.96118H92.352V38.4949Z" fill="#4CDB06"/>
<path d="M34.3392 13.9541H28.6892V34.7038H33.1331V27.7051L34.1144 27.7613C35.0679 27.7449 36.0124 27.5741 36.9113 27.2556C37.6994 26.9845 38.4243 26.5566 39.0425 25.9976C39.6714 25.4651 40.1673 24.7931 40.4906 24.035C40.9242 22.7749 41.079 21.4357 40.9445 20.1099C40.9175 19.1628 40.7515 18.2248 40.4517 17.326C40.1788 16.6771 39.7738 16.0922 39.2625 15.6085C38.7512 15.1247 38.1448 14.7527 37.4819 14.5161C36.9087 14.3086 36.3165 14.158 35.7139 14.0665C35.2575 13.9961 34.7966 13.9585 34.3349 13.9541M33.5178 23.8708H33.1331V17.4729H33.9674C34.3356 17.4464 34.7051 17.5029 35.0486 17.6383C35.392 17.7738 35.7006 17.9846 35.9516 18.2554C36.4717 18.9514 36.7496 19.7986 36.7427 20.6675C36.7427 21.7309 36.7427 22.6949 35.783 23.3736C35.0916 23.7539 34.3047 23.9294 33.5178 23.8708ZM49.387 13.8979C48.9072 13.8979 48.4403 13.9325 48.1118 13.9455L47.083 13.9714H43.7111V34.7211H47.6795C49.1961 34.7627 50.706 34.5057 52.1234 33.9646C53.2643 33.5121 54.2745 32.7827 55.063 31.8421C55.8297 30.893 56.38 29.788 56.6754 28.6043C57.015 27.2636 57.1806 25.8848 57.1682 24.5019C57.252 22.8685 57.1256 21.2312 56.7921 19.63C56.4756 18.4515 55.8828 17.3653 55.063 16.4614C54.4197 15.7315 53.6322 15.1428 52.7502 14.7322C51.9928 14.3817 51.196 14.1234 50.377 13.9628C50.0513 13.909 49.7214 13.8844 49.3914 13.8893M48.6046 30.9084H48.1723V17.6631H48.2285C49.1197 17.5606 50.0214 17.7214 50.8222 18.1257C51.4087 18.594 51.8865 19.1839 52.2228 19.8548C52.5858 20.5609 52.795 21.3359 52.8367 22.1286C52.8756 23.0797 52.8367 23.8578 52.8367 24.5019C52.8543 25.2439 52.8066 25.9859 52.694 26.7195C52.5608 27.4727 52.3145 28.2014 51.9635 28.8809C51.5662 29.5128 51.0294 30.0451 50.3943 30.4372C49.8609 30.7821 49.2293 30.9431 48.596 30.8954M70.5561 13.9714H60.0515V34.7211H64.4954V26.4904H70.1151V22.6344H64.4954V17.8274H70.5474V13.9714" fill="#464648"/>
<path d="M89.3649 81.9137C89.3649 81.9137 103.146 79.4151 103.146 84.1227C103.146 88.8303 94.6085 86.9153 89.3649 81.9137ZM79.1759 82.2725C76.9863 82.7563 74.8525 83.4647 72.8083 84.3864L74.5375 80.4958C76.2666 76.6053 78.0606 71.3011 78.0606 71.3011C80.1239 74.7738 82.5246 78.0346 85.2279 81.0362C83.1893 81.3402 81.1689 81.7558 79.1759 82.2812V82.2725ZM73.7204 54.174C73.7204 50.0716 75.0475 48.952 76.0807 48.952C77.1139 48.952 78.2767 49.4491 78.3156 53.0111C77.979 56.5929 77.2291 60.1236 76.0807 63.5329C74.5077 60.6705 73.6937 57.453 73.7161 54.1869L73.7204 54.174ZM53.6235 99.6331C49.3957 97.1042 62.4897 89.3188 64.8629 89.0681C64.8499 89.0724 58.0501 102.279 53.6235 99.6331ZM107.171 84.6804C107.127 84.2481 106.738 79.4627 98.2224 79.6658C94.6728 79.6086 91.1249 79.8589 87.6184 80.4137C84.2218 76.9917 81.2968 73.132 78.9208 68.9365C80.4177 64.6112 81.3236 60.1035 81.614 55.5357C81.4886 50.3482 80.2479 47.3741 76.2709 47.4173C72.2939 47.4606 71.7146 50.9405 72.2377 56.1192C72.7501 59.5994 73.7165 62.9973 75.1124 66.2261C75.1124 66.2261 73.2752 71.9452 70.8457 77.6341C68.4163 83.323 66.7563 86.3058 66.7563 86.3058C62.5317 87.681 58.5547 89.7242 54.9765 92.3578C51.4145 95.6734 49.9663 98.2195 51.8425 100.766C53.4592 102.962 59.1178 103.459 64.1756 96.8319C66.8629 93.4091 69.318 89.8102 71.5244 86.0594C71.5244 86.0594 79.2364 83.9455 81.6356 83.3662C84.0348 82.7869 86.9354 82.3287 86.9354 82.3287C86.9354 82.3287 93.9773 89.4139 100.769 89.1632C107.56 88.9124 107.231 85.104 107.188 84.689" fill="black"/>
<path d="M98.7584 3.33289V28.721H123.109L98.7584 3.33289Z" fill="#909090"/>
<path d="M99.0912 3V28.3881H123.442L99.0912 3Z" fill="#F4F4F4"/>
<path d="M34.0064 13.6212H28.3564V34.3709H32.8176V27.3766L33.8032 27.4328C34.7567 27.4164 35.7013 27.2456 36.6001 26.927C37.3881 26.6558 38.1131 26.2279 38.7313 25.669C39.3556 25.1351 39.8469 24.4632 40.1665 23.7065C40.6 22.4463 40.7549 21.1071 40.6204 19.7813C40.5934 18.8342 40.4273 17.8962 40.1276 16.9974C39.8547 16.3486 39.4497 15.7637 38.9384 15.2799C38.4271 14.7961 37.8207 14.4241 37.1578 14.1875C36.582 13.978 35.9868 13.826 35.3811 13.7336C34.9247 13.6632 34.4639 13.6257 34.0021 13.6212M33.1851 23.5379H32.8003V17.14H33.639C34.0072 17.1135 34.3767 17.17 34.7201 17.3055C35.0636 17.4409 35.3722 17.6518 35.6232 17.9225C36.1433 18.6185 36.4211 19.4658 36.4142 20.3346C36.4142 21.3981 36.4143 22.3621 35.4546 23.0407C34.7632 23.421 33.9763 23.5922 33.1894 23.5336M49.0543 13.565C48.5744 13.565 48.1076 13.5996 47.779 13.6126L46.7632 13.6385H43.3913V34.3882H47.3597C48.8763 34.4298 50.3862 34.1728 51.8036 33.6317C52.9445 33.1792 53.9547 32.4498 54.7432 31.5092C55.5099 30.5602 56.0602 29.4552 56.3556 28.2714C56.6952 26.9307 56.8608 25.552 56.8484 24.169C56.9322 22.5357 56.8058 20.8983 56.4723 19.2972C56.1558 18.1186 55.563 17.0324 54.7432 16.1285C54.0999 15.3986 53.3124 14.8099 52.4304 14.3994C51.673 14.0488 50.8762 13.7905 50.0572 13.6299C49.7315 13.5761 49.4016 13.5515 49.0716 13.5564M48.2848 30.5755H47.8525V17.3303H47.9087C48.7999 17.2277 49.7016 17.3885 50.5024 17.7928C51.0889 18.2611 51.5667 18.851 51.903 19.5219C52.266 20.228 52.4752 21.003 52.5169 21.7958C52.5558 22.7468 52.5169 23.5249 52.5169 24.169C52.5345 24.911 52.4868 25.653 52.3742 26.3866C52.241 27.1398 51.9947 27.8685 51.6437 28.5481C51.2464 29.1799 50.7096 29.7122 50.0745 30.1043C49.5411 30.4492 48.9096 30.6102 48.2762 30.5625M70.2233 13.6385H59.7188V34.3882H64.1627V26.1575H69.7824V22.3015H64.1627V17.4945H70.2147V13.6385" fill="black"/>
</svg>
