<svg width="125" height="13" viewBox="0 0 125 13" fill="none" xmlns="http://www.w3.org/2000/svg">
<path d="M5.10556 1.12C7.95356 1.12 9.71356 2.656 9.71356 5.104C9.71356 7.648 7.85756 9.232 4.89756 9.232H3.42556V12H0.721562V1.12H5.10556ZM5.05756 6.864C6.24156 6.864 7.02556 6.176 7.02556 5.104C7.02556 4.128 6.24156 3.488 5.05756 3.488H3.42556V6.864H5.05756ZM10.2516 0.639999H12.8596V12H10.2516V0.639999ZM19.5561 4.24H22.1481V12H19.5561V11.584C18.9801 11.968 18.2921 12.208 17.4281 12.208C15.3321 12.208 13.5721 10.416 13.5721 8.112C13.5721 5.792 15.3321 4.032 17.4281 4.032C18.2921 4.032 18.9801 4.256 19.5561 4.64V4.24ZM17.9561 10C18.5161 10 19.0601 9.856 19.5561 9.312V6.912C19.0601 6.368 18.5161 6.224 17.9561 6.224C16.9001 6.224 16.1161 7.04 16.1161 8.112C16.1161 9.184 16.9001 10 17.9561 10ZM29.2044 9.504L29.4924 11.824C28.6924 12.16 27.8604 12.208 27.4124 12.208C25.3004 12.208 24.0204 10.832 24.0204 8.736V6.464H22.5004V4.24H24.0204V1.6H26.6124V4.24H29.2524V6.464H26.6124V8.656C26.6124 9.456 27.0764 9.824 27.8284 9.824C28.3244 9.824 28.7404 9.68 29.2044 9.504ZM31.6641 3.024C30.8161 3.024 30.1441 2.4 30.1441 1.568C30.1441 0.719999 30.8161 0.0959997 31.6641 0.0959997C32.4961 0.0959997 33.1841 0.719999 33.1841 1.568C33.1841 2.4 32.4961 3.024 31.6641 3.024ZM30.3841 4.24H32.9761V12H30.3841V4.24ZM39.0526 4.032C41.0046 4.032 42.3486 5.36 42.3486 7.568V12H39.7566V7.984C39.7566 6.88 39.1966 6.384 38.3326 6.384C37.8686 6.384 37.3726 6.624 36.9246 7.12V12H34.3166V4.24H36.9246V4.752C37.5486 4.288 38.2206 4.032 39.0526 4.032ZM48.7237 4.24H51.3157V12H48.7237V11.456C48.0997 11.936 47.4277 12.208 46.5957 12.208C44.6277 12.208 43.2837 10.848 43.2837 8.64V4.24H45.8757V8.24C45.8757 9.344 46.4517 9.872 47.2997 9.872C47.7797 9.872 48.2757 9.6 48.7237 9.104V4.24ZM61.9948 4.032C64.0108 4.032 65.3228 5.264 65.3228 7.504V12H62.7308V7.824C62.7308 6.768 62.1868 6.384 61.4508 6.384C60.9868 6.384 60.5708 6.528 60.1708 6.976C60.1868 7.12 60.1868 7.264 60.1868 7.424V12H57.5948V7.744C57.5948 6.688 57.0508 6.384 56.3948 6.384C55.8828 6.384 55.4348 6.576 55.0508 7.04V12H52.4428V4.24H55.0508V4.72C55.5948 4.288 56.1868 4.032 57.0508 4.032C58.0428 4.032 58.8588 4.352 59.4188 4.992C60.1868 4.336 60.9868 4.032 61.9948 4.032ZM75.7897 4.384C77.6777 4.384 78.9097 5.488 78.9097 7.616V12H77.6937V7.616C77.6937 6.144 76.9257 5.504 75.7097 5.504C74.8137 5.504 73.9817 5.872 73.3897 6.768C73.4377 7.008 73.4537 7.264 73.4537 7.552V12H72.2377V7.552C72.2377 6.096 71.4537 5.504 70.3177 5.504C69.3897 5.504 68.5737 5.888 67.9977 6.752V12H66.7817V4.576H67.9977V5.376C68.6057 4.752 69.3737 4.384 70.4457 4.384C71.5817 4.384 72.4617 4.8 72.9737 5.616C73.6937 4.832 74.6057 4.384 75.7897 4.384ZM84.0188 4.384C86.4028 4.384 87.8908 6.224 87.6508 8.656H81.4428C81.5868 10.032 82.5308 11.104 84.0828 11.104C85.0268 11.104 85.7468 10.768 86.0668 10.144H87.4268C86.9628 11.424 85.6828 12.192 84.0828 12.192C81.7948 12.192 80.2108 10.48 80.2108 8.288C80.2108 6.096 81.7788 4.384 84.0188 4.384ZM84.0188 5.44C82.5468 5.44 81.6348 6.48 81.4588 7.792H86.4348C86.3708 6.32 85.4268 5.44 84.0188 5.44ZM98.1347 4.384C100.023 4.384 101.255 5.488 101.255 7.616V12H100.039V7.616C100.039 6.144 99.2707 5.504 98.0547 5.504C97.1587 5.504 96.3267 5.872 95.7347 6.768C95.7827 7.008 95.7987 7.264 95.7987 7.552V12H94.5827V7.552C94.5827 6.096 93.7987 5.504 92.6627 5.504C91.7347 5.504 90.9187 5.888 90.3427 6.752V12H89.1267V4.576H90.3427V5.376C90.9507 4.752 91.7187 4.384 92.7907 4.384C93.9267 4.384 94.8067 4.8 95.3187 5.616C96.0387 4.832 96.9507 4.384 98.1347 4.384ZM106.764 4.384C108.892 4.384 110.588 6.112 110.588 8.288C110.588 10.448 108.892 12.192 106.764 12.192C105.708 12.192 104.812 11.84 104.156 11.232V12H102.94V0.639999H104.156V5.344C104.812 4.736 105.708 4.384 106.764 4.384ZM106.604 11.072C108.172 11.072 109.372 9.824 109.372 8.288C109.372 6.752 108.172 5.504 106.604 5.504C105.628 5.504 104.764 5.872 104.156 6.768V9.808C104.764 10.704 105.628 11.072 106.604 11.072ZM115.614 4.384C117.998 4.384 119.486 6.224 119.246 8.656H113.038C113.182 10.032 114.126 11.104 115.678 11.104C116.622 11.104 117.342 10.768 117.662 10.144H119.022C118.558 11.424 117.278 12.192 115.678 12.192C113.39 12.192 111.806 10.48 111.806 8.288C111.806 6.096 113.374 4.384 115.614 4.384ZM115.614 5.44C114.142 5.44 113.23 6.48 113.054 7.792H118.03C117.966 6.32 117.022 5.44 115.614 5.44ZM121.938 5.792C122.626 4.912 123.618 4.4 124.802 4.4V5.552C123.586 5.584 122.594 6.144 121.938 7.168V12H120.722V4.576H121.938V5.792Z" fill="#D9D9D9"/>
</svg>
