<svg width="212" height="141" viewBox="0 0 212 141" fill="none" xmlns="http://www.w3.org/2000/svg">
<rect width="212" height="141" rx="3" fill="#D9D9D9"/>
<path d="M79.9568 59.44C82.9828 59.44 84.8528 61.072 84.8528 63.673C84.8528 66.376 82.8808 68.059 79.7358 68.059H78.1718V71H75.2988V59.44H79.9568ZM79.9058 65.543C81.1638 65.543 81.9968 64.812 81.9968 63.673C81.9968 62.636 81.1638 61.956 79.9058 61.956H78.1718V65.543H79.9058ZM91.0344 62.619V65.237C89.6914 65.288 88.8414 65.645 88.1954 66.274V71H85.4244V62.755H88.1954V63.639C88.9264 63.01 89.8104 62.619 91.0344 62.619ZM95.633 62.534C98.285 62.534 100.155 64.353 100.155 66.886C100.155 69.436 98.285 71.221 95.633 71.221C92.981 71.221 91.094 69.436 91.094 66.886C91.094 64.353 92.981 62.534 95.633 62.534ZM95.633 68.926C96.772 68.926 97.571 68.093 97.571 66.886C97.571 65.696 96.772 64.846 95.633 64.846C94.477 64.846 93.678 65.696 93.678 66.886C93.678 68.093 94.477 68.926 95.633 68.926ZM106.949 58.93H109.703V71H106.949V70.592C106.337 70.983 105.606 71.221 104.688 71.221C102.461 71.221 100.591 69.351 100.591 66.886C100.591 64.438 102.461 62.568 104.688 62.568C105.606 62.568 106.337 62.806 106.949 63.214V58.93ZM105.249 68.909C105.844 68.909 106.422 68.756 106.949 68.178V65.628C106.422 65.05 105.844 64.897 105.249 64.897C104.127 64.897 103.294 65.764 103.294 66.886C103.294 68.042 104.127 68.909 105.249 68.909ZM116.571 62.755H119.325V71H116.571V70.422C115.908 70.932 115.194 71.221 114.31 71.221C112.219 71.221 110.791 69.776 110.791 67.43V62.755H113.545V67.005C113.545 68.178 114.157 68.739 115.058 68.739C115.568 68.739 116.095 68.45 116.571 67.923V62.755ZM124.638 68.892C125.471 68.892 126.117 68.365 126.253 67.617H128.854C128.65 69.742 126.899 71.221 124.621 71.221C122.037 71.221 120.116 69.385 120.116 66.869C120.116 64.37 122.037 62.534 124.621 62.534C126.899 62.534 128.65 64.013 128.854 66.138H126.253C126.117 65.39 125.471 64.863 124.638 64.863C123.448 64.863 122.751 65.747 122.751 66.869C122.751 67.991 123.448 68.892 124.638 68.892ZM135.978 68.348L136.284 70.813C135.434 71.17 134.55 71.221 134.074 71.221C131.83 71.221 130.47 69.759 130.47 67.532V65.118H128.855V62.755H130.47V59.95H133.224V62.755H136.029V65.118H133.224V67.447C133.224 68.297 133.717 68.688 134.516 68.688C135.043 68.688 135.485 68.535 135.978 68.348ZM98.9503 79.44C101.976 79.44 103.846 81.072 103.846 83.673C103.846 86.376 101.874 88.059 98.7293 88.059H97.1653V91H94.2923V79.44H98.9503ZM98.8993 85.543C100.157 85.543 100.99 84.812 100.99 83.673C100.99 82.636 100.157 81.956 98.8993 81.956H97.1653V85.543H98.8993ZM106.033 81.463C105.132 81.463 104.418 80.8 104.418 79.916C104.418 79.015 105.132 78.352 106.033 78.352C106.917 78.352 107.648 79.015 107.648 79.916C107.648 80.8 106.917 81.463 106.033 81.463ZM104.673 82.755H107.427V91H104.673V82.755ZM112.949 88.892C113.782 88.892 114.428 88.365 114.564 87.617H117.165C116.961 89.742 115.21 91.221 112.932 91.221C110.348 91.221 108.427 89.385 108.427 86.869C108.427 84.37 110.348 82.534 112.932 82.534C115.21 82.534 116.961 84.013 117.165 86.138H114.564C114.428 85.39 113.782 84.863 112.949 84.863C111.759 84.863 111.062 85.747 111.062 86.869C111.062 87.991 111.759 88.892 112.949 88.892Z" fill="#9A9A9A"/>
</svg>
