<svg width="62" height="82" viewBox="0 0 62 82" fill="none" xmlns="http://www.w3.org/2000/svg">
<rect width="62" height="82" fill="#F5F5F5"/>
<rect width="62" height="82" rx="3" fill="#D9D9D9"/>
<path d="M16.9771 34.88C18.5791 34.88 19.5691 35.744 19.5691 37.121C19.5691 38.552 18.5251 39.443 16.8601 39.443H16.0321V41H14.5111V34.88H16.9771ZM16.9501 38.111C17.6161 38.111 18.0571 37.724 18.0571 37.121C18.0571 36.572 17.6161 36.212 16.9501 36.212H16.0321V38.111H16.9501ZM22.8417 36.563V37.949C22.1307 37.976 21.6807 38.165 21.3387 38.498V41H19.8717V36.635H21.3387V37.103C21.7257 36.77 22.1937 36.563 22.8417 36.563ZM25.2763 36.518C26.6803 36.518 27.6703 37.481 27.6703 38.822C27.6703 40.172 26.6803 41.117 25.2763 41.117C23.8723 41.117 22.8733 40.172 22.8733 38.822C22.8733 37.481 23.8723 36.518 25.2763 36.518ZM25.2763 39.902C25.8793 39.902 26.3023 39.461 26.3023 38.822C26.3023 38.192 25.8793 37.742 25.2763 37.742C24.6643 37.742 24.2413 38.192 24.2413 38.822C24.2413 39.461 24.6643 39.902 25.2763 39.902ZM31.267 34.61H32.725V41H31.267V40.784C30.943 40.991 30.556 41.117 30.07 41.117C28.891 41.117 27.901 40.127 27.901 38.822C27.901 37.526 28.891 36.536 30.07 36.536C30.556 36.536 30.943 36.662 31.267 36.878V34.61ZM30.367 39.893C30.682 39.893 30.988 39.812 31.267 39.506V38.156C30.988 37.85 30.682 37.769 30.367 37.769C29.773 37.769 29.332 38.228 29.332 38.822C29.332 39.434 29.773 39.893 30.367 39.893ZM36.3612 36.635H37.8192V41H36.3612V40.694C36.0102 40.964 35.6322 41.117 35.1642 41.117C34.0572 41.117 33.3012 40.352 33.3012 39.11V36.635H34.7592V38.885C34.7592 39.506 35.0832 39.803 35.5602 39.803C35.8302 39.803 36.1092 39.65 36.3612 39.371V36.635ZM40.6316 39.884C41.0726 39.884 41.4146 39.605 41.4866 39.209H42.8636C42.7556 40.334 41.8286 41.117 40.6226 41.117C39.2546 41.117 38.2376 40.145 38.2376 38.813C38.2376 37.49 39.2546 36.518 40.6226 36.518C41.8286 36.518 42.7556 37.301 42.8636 38.426H41.4866C41.4146 38.03 41.0726 37.751 40.6316 37.751C40.0016 37.751 39.6326 38.219 39.6326 38.813C39.6326 39.407 40.0016 39.884 40.6316 39.884ZM46.6353 39.596L46.7973 40.901C46.3473 41.09 45.8793 41.117 45.6273 41.117C44.4393 41.117 43.7193 40.343 43.7193 39.164V37.886H42.8643V36.635H43.7193V35.15H45.1773V36.635H46.6623V37.886H45.1773V39.119C45.1773 39.569 45.4383 39.776 45.8613 39.776C46.1403 39.776 46.3743 39.695 46.6353 39.596ZM27.0325 44.88C28.6345 44.88 29.6245 45.744 29.6245 47.121C29.6245 48.552 28.5805 49.443 26.9155 49.443H26.0875V51H24.5665V44.88H27.0325ZM27.0055 48.111C27.6715 48.111 28.1125 47.724 28.1125 47.121C28.1125 46.572 27.6715 46.212 27.0055 46.212H26.0875V48.111H27.0055ZM30.7821 45.951C30.3051 45.951 29.9271 45.6 29.9271 45.132C29.9271 44.655 30.3051 44.304 30.7821 44.304C31.2501 44.304 31.6371 44.655 31.6371 45.132C31.6371 45.6 31.2501 45.951 30.7821 45.951ZM30.0621 46.635H31.5201V51H30.0621V46.635ZM34.4438 49.884C34.8848 49.884 35.2268 49.605 35.2988 49.209H36.6758C36.5678 50.334 35.6408 51.117 34.4348 51.117C33.0668 51.117 32.0498 50.145 32.0498 48.813C32.0498 47.49 33.0668 46.518 34.4348 46.518C35.6408 46.518 36.5678 47.301 36.6758 48.426H35.2988C35.2268 48.03 34.8848 47.751 34.4438 47.751C33.8138 47.751 33.4448 48.219 33.4448 48.813C33.4448 49.407 33.8138 49.884 34.4438 49.884Z" fill="#9A9A9A"/>
</svg>
