<svg width="64" height="64" viewBox="0 0 64 64" fill="none" xmlns="http://www.w3.org/2000/svg">
<circle cx="32" cy="32" r="32" fill="#949494"/>
<path opacity="0.4" d="M31.5003 9.5C43.6793 9.5 53.5837 19.5935 53.5837 32C53.5837 44.4065 43.6793 54.5 31.5003 54.5C19.3236 54.5 9.41699 44.4065 9.41699 32C9.41699 19.5935 19.3236 9.5 31.5003 9.5Z" fill="black"/>
<path d="M28.315 22.503C28.7368 22.503 29.1608 22.6672 29.4832 22.9957L37.1837 30.8032C37.4951 31.1205 37.6695 31.5502 37.6695 32.0002C37.6695 32.448 37.4951 32.8777 37.1837 33.195L29.4832 41.007C28.8362 41.664 27.7894 41.664 27.1424 41.0025C26.4976 40.341 26.4998 39.2722 27.1468 38.6152L33.668 32.0002L27.1468 25.3852C26.4998 24.7282 26.4976 23.6617 27.1424 23.0002C27.4648 22.6672 27.891 22.503 28.315 22.503Z" fill="black"/>
</svg>
