<svg width="13" height="13" viewBox="0 0 13 13" fill="none" xmlns="http://www.w3.org/2000/svg">
<path d="M5.97404 1.37575C6.13494 1.28639 6.31595 1.2395 6.5 1.2395C6.68405 1.2395 6.86506 1.28639 7.02596 1.37575L11.0966 3.63666C11.181 3.68359 11.2513 3.75223 11.3002 3.83547C11.3492 3.9187 11.375 4.01351 11.375 4.11008V8.5707C11.375 8.76389 11.3233 8.95354 11.2253 9.12002C11.1272 9.2865 10.9865 9.42375 10.8176 9.51754L7.02596 11.6246C6.86506 11.714 6.68405 11.7609 6.5 11.7609C6.31595 11.7609 6.13494 11.714 5.97404 11.6246L2.18237 9.51754C2.01357 9.42379 1.87288 9.28663 1.77489 9.12026C1.67689 8.95388 1.62514 8.76434 1.625 8.57125V4.11008C1.625 4.01351 1.65081 3.9187 1.69976 3.83547C1.74871 3.75223 1.81902 3.68359 1.90342 3.63666L5.97404 1.37575Z" stroke="#4CDB06" stroke-linecap="round" stroke-linejoin="round"/>
<path d="M4.0625 2.4375L8.9375 5.14583V7.04167M3.25 6.67767L4.875 7.58333" stroke="#4CDB06" stroke-linecap="round" stroke-linejoin="round"/>
<path d="M1.625 3.7915L6.5 6.49984M6.5 6.49984L11.375 3.7915M6.5 6.49984V11.9165" stroke="#4CDB06" stroke-linejoin="round"/>
</svg>
