<svg width="14" height="14" viewBox="0 0 14 14" fill="none" xmlns="http://www.w3.org/2000/svg">
<path d="M13.225 11.4804H8.68027V12.6004H13.2714C13.3726 12.6054 13.4725 12.5754 13.5542 12.5155C13.6359 12.4556 13.6946 12.3694 13.7203 12.2714V11.9998C13.7203 11.9998 13.7169 11.4804 13.225 11.4804ZM12.5964 11.2592C12.8947 11.2587 13.1806 11.1399 13.3914 10.9287C13.6021 10.7176 13.7204 10.4314 13.7203 10.133C13.7203 9.50947 13.2163 9.00659 12.5964 9.00659C12.4487 9.00685 12.3026 9.03619 12.1663 9.09295C12.03 9.14971 11.9063 9.23277 11.8021 9.33738C11.6979 9.44199 11.6154 9.5661 11.5592 9.70263C11.503 9.83915 11.4743 9.9854 11.4747 10.133C11.4747 10.7544 11.9773 11.2592 12.5964 11.2592ZM10.2292 11.2004C10.8189 11.2004 11.2932 10.7849 11.2932 10.196C11.293 9.60831 10.817 9.30003 10.2318 9.29555L8.68027 9.49211V11.2004H10.2292ZM5.18671 3.90163C5.87523 3.90163 6.43215 3.34163 6.43215 2.65087C6.43215 1.96011 5.87523 1.40039 5.18671 1.40039C4.49875 1.40039 3.94099 1.96011 3.94099 2.65087C3.94099 3.34163 4.49875 3.90163 5.18671 3.90163ZM3.91495 7.94931L3.90375 7.93307L3.33927 6.61875L3.33843 9.24039H5.02543L5.39391 8.84839L4.39459 8.46367C4.15771 8.37463 3.98943 8.17303 3.91495 7.94931ZM4.27251 7.83143C4.32711 7.95407 4.42819 8.05347 4.55531 8.09911L6.48087 8.81283C6.53954 8.83865 6.60272 8.85262 6.6668 8.85395C6.73088 8.85528 6.79459 8.84393 6.85428 8.82057C6.91396 8.7972 6.96844 8.76228 7.01459 8.7178C7.06074 8.67333 7.09765 8.62017 7.12319 8.56139C7.17532 8.44227 7.1782 8.30735 7.13119 8.18611C7.08419 8.06488 6.99112 7.96716 6.87231 7.91431L5.09571 7.24343L4.54691 5.92715L4.90475 5.79387L5.36983 6.92171L6.72027 7.42235V6.04419L7.43707 6.47063L7.79435 8.27047C7.81493 8.33137 7.84737 8.38758 7.8898 8.43586C7.93224 8.48415 7.98382 8.52354 8.04157 8.55176C8.09932 8.57999 8.16209 8.59648 8.22626 8.6003C8.29042 8.60411 8.35471 8.59517 8.41539 8.57399C8.53761 8.53052 8.63776 8.4406 8.6941 8.32376C8.75045 8.20692 8.75846 8.07258 8.71639 7.94987L8.31599 6.21639C8.28976 6.12043 8.23486 6.03475 8.15863 5.97083C7.95339 5.74347 6.91543 4.58287 6.84151 4.50531C6.73315 4.39667 6.48535 4.20039 6.01719 4.20039H4.33719C3.38239 4.20039 3.19871 5.17479 3.39387 5.67039L4.27251 7.83143ZM8.40027 9.52039H0.831033C0.555513 9.52039 0.280273 9.67579 0.280273 10.0177V12.6004H8.40027V9.52039Z" fill="#111111"/>
</svg>
