<svg width="704" height="183" viewBox="0 0 704 183" fill="none" xmlns="http://www.w3.org/2000/svg">
<g clip-path="url(#clip0_42_30)">
<g style="mix-blend-mode:multiply">
<path d="M-18.9357 156.022C12.3588 125.934 58.5247 116.505 101.427 120.384C144.329 124.263 185.223 139.854 225.968 154.053C266.712 168.252 308.854 181.334 351.902 179.891C442.796 176.843 524.615 109.822 615.396 115.338C654.655 117.724 691.877 133.684 730.747 139.773C769.617 145.862 814.907 139.122 838 106.756L838 -6.99994L-22 -7.00001L-18.9357 156.022Z" fill="#4CDB06"/>
</g>
<path d="M304.691 109.201C309.421 109.201 316.473 110.964 317.204 118.833H309.894C309.507 116.64 308.174 115.135 305.078 115.135C302.498 115.135 300.821 116.124 300.821 118.016C300.821 119.693 302.025 120.424 304.347 120.897L308.432 121.757C313.807 122.875 317.247 125.068 317.247 130.099C317.247 135.947 312.431 139.559 305.121 139.559C298.542 139.559 292.608 136.42 291.92 129.196H299.23C299.703 131.776 301.896 133.41 305.336 133.41C307.916 133.41 309.464 132.421 309.464 130.787C309.464 129.755 308.905 128.68 306.368 128.207L301.552 127.175C295.79 125.928 293.081 123.305 293.081 118.661C293.081 112.813 297.811 109.201 304.691 109.201ZM335.143 132.292L335.917 138.527C333.767 139.43 331.531 139.559 330.327 139.559C324.651 139.559 321.211 135.861 321.211 130.228V124.122H317.126V118.145H321.211V111.05H328.177V118.145H335.272V124.122H328.177V130.013C328.177 132.163 329.424 133.152 331.445 133.152C332.778 133.152 333.896 132.765 335.143 132.292ZM346.887 117.586C354.24 117.586 358.669 122.832 357.637 130.228H342.544C343.017 132.378 344.436 134.055 347.274 134.055C348.822 134.055 349.725 133.711 350.37 132.937H357.422C356.175 137.022 352.305 139.559 347.403 139.559C340.566 139.559 336.008 134.915 336.008 128.551C336.008 122.23 340.437 117.586 346.887 117.586ZM347.059 122.746C344.608 122.746 343.189 124.122 342.63 126.229H351.316C350.929 123.821 349.424 122.746 347.059 122.746ZM372.569 117.672C378.202 117.672 382.932 122.316 382.932 128.551C382.932 134.743 378.202 139.43 372.569 139.43C370.29 139.43 368.441 138.828 366.893 137.882V148.976H359.884V118.145H366.893V119.22C368.441 118.274 370.29 117.672 372.569 117.672ZM371.193 133.711C374.031 133.711 376.095 131.432 376.095 128.551C376.095 125.67 374.031 123.348 371.193 123.348C369.688 123.348 368.183 123.821 366.893 125.283V131.819C368.183 133.281 369.688 133.711 371.193 133.711ZM407.78 133.109H414.574V139H393.461V133.109H400.771V117.543L393.891 119.65V113.071L403.437 109.76H407.78V133.109Z" fill="#000002"/>
<path d="M351.5 90.9166C348.549 90.9166 346.04 89.8837 343.974 87.8177C341.908 85.7517 340.875 83.243 340.875 80.2916C340.875 77.3403 341.908 74.8316 343.974 72.7656C346.04 70.6996 348.549 69.6666 351.5 69.6666C354.451 69.6666 356.96 70.6996 359.026 72.7656C361.092 74.8316 362.125 77.3403 362.125 80.2916C362.125 83.243 361.092 85.7517 359.026 87.8177C356.96 89.8837 354.451 90.9166 351.5 90.9166ZM351.5 62.5833L333.792 44.875L338.75 39.9166L347.958 49.0364V20.0833H355.042V49.0364L364.162 39.9166L369.208 44.875L351.5 62.5833Z" fill="#111111"/>
</g>
<defs>
<clipPath id="clip0_42_30">
<rect width="704" height="183" rx="10" fill="white"/>
</clipPath>
</defs>
</svg>
