<svg width="704" height="186" viewBox="0 0 704 186" fill="none" xmlns="http://www.w3.org/2000/svg">
<g clip-path="url(#clip0_77_33)">
<g style="mix-blend-mode:multiply">
<path d="M-18.9357 156.022C12.3588 125.934 58.5247 116.505 101.427 120.384C144.329 124.263 185.223 139.854 225.968 154.053C266.712 168.252 308.854 181.334 351.902 179.891C442.796 176.843 524.615 109.822 615.396 115.338C654.655 117.724 691.877 133.684 730.747 139.773C769.617 145.862 814.907 139.122 838 106.756L838 -6.99994L-22 -7.00001L-18.9357 156.022Z" fill="#4CDB06"/>
</g>
<path d="M303.81 109.201C308.54 109.201 315.592 110.964 316.323 118.833H309.013C308.626 116.64 307.293 115.135 304.197 115.135C301.617 115.135 299.94 116.124 299.94 118.016C299.94 119.693 301.144 120.424 303.466 120.897L307.551 121.757C312.926 122.875 316.366 125.068 316.366 130.099C316.366 135.947 311.55 139.559 304.24 139.559C297.661 139.559 291.727 136.42 291.039 129.196H298.349C298.822 131.776 301.015 133.41 304.455 133.41C307.035 133.41 308.583 132.421 308.583 130.787C308.583 129.755 308.024 128.68 305.487 128.207L300.671 127.175C294.909 125.928 292.2 123.305 292.2 118.661C292.2 112.813 296.93 109.201 303.81 109.201ZM334.261 132.292L335.035 138.527C332.885 139.43 330.649 139.559 329.445 139.559C323.769 139.559 320.329 135.861 320.329 130.228V124.122H316.244V118.145H320.329V111.05H327.295V118.145H334.39V124.122H327.295V130.013C327.295 132.163 328.542 133.152 330.563 133.152C331.896 133.152 333.014 132.765 334.261 132.292ZM346.006 117.586C353.359 117.586 357.788 122.832 356.756 130.228H341.663C342.136 132.378 343.555 134.055 346.393 134.055C347.941 134.055 348.844 133.711 349.489 132.937H356.541C355.294 137.022 351.424 139.559 346.522 139.559C339.685 139.559 335.127 134.915 335.127 128.551C335.127 122.23 339.556 117.586 346.006 117.586ZM346.178 122.746C343.727 122.746 342.308 124.122 341.749 126.229H350.435C350.048 123.821 348.543 122.746 346.178 122.746ZM371.687 117.672C377.32 117.672 382.05 122.316 382.05 128.551C382.05 134.743 377.32 139.43 371.687 139.43C369.408 139.43 367.559 138.828 366.011 137.882V148.976H359.002V118.145H366.011V119.22C367.559 118.274 369.408 117.672 371.687 117.672ZM370.311 133.711C373.149 133.711 375.213 131.432 375.213 128.551C375.213 125.67 373.149 123.348 370.311 123.348C368.806 123.348 367.301 123.821 366.011 125.283V131.819C367.301 133.281 368.806 133.711 370.311 133.711ZM403.458 133.109H413.907V139H393.052V135.517L402.899 124.165C405.092 121.585 406.511 119.994 406.511 118.231C406.511 116.769 405.522 115.35 403.114 115.35C400.878 115.35 399.588 116.726 399.373 119.048H392.45C392.622 113.028 396.75 109.201 403.415 109.201C410.08 109.201 413.692 113.157 413.692 118.274C413.692 121.069 412.101 123.434 408.618 127.347L403.458 133.109Z" fill="#000002"/>
<path d="M351.5 90.9168C348.549 90.9168 346.04 89.8838 343.974 87.8179C341.908 85.7519 340.875 83.2432 340.875 80.2918C340.875 77.3404 341.908 74.8318 343.974 72.7658C346.04 70.6998 348.549 69.6668 351.5 69.6668C354.452 69.6668 356.96 70.6998 359.026 72.7658C361.092 74.8318 362.125 77.3404 362.125 80.2918C362.125 83.2432 361.092 85.7519 359.026 87.8179C356.96 89.8838 354.452 90.9168 351.5 90.9168ZM351.5 62.5835L333.792 44.8752L338.75 39.9168L347.959 49.0366V20.0835H355.042V49.0366L364.162 39.9168L369.209 44.8752L351.5 62.5835Z" fill="#111111"/>
</g>
<defs>
<clipPath id="clip0_77_33">
<rect width="704" height="186" rx="10" fill="white"/>
</clipPath>
</defs>
</svg>
