<svg width="19" height="19" viewBox="0 0 19 19" fill="none" xmlns="http://www.w3.org/2000/svg">
<path d="M3.16675 14.2497C3.16675 13.4098 3.50038 12.6044 4.09424 12.0105C4.68811 11.4166 5.49356 11.083 6.33341 11.083H12.6667C13.5066 11.083 14.3121 11.4166 14.9059 12.0105C15.4998 12.6044 15.8334 13.4098 15.8334 14.2497C15.8334 14.6696 15.6666 15.0723 15.3697 15.3693C15.0727 15.6662 14.67 15.833 14.2501 15.833H4.75008C4.33016 15.833 3.92743 15.6662 3.6305 15.3693C3.33356 15.0723 3.16675 14.6696 3.16675 14.2497Z" stroke="#686868" stroke-width="1.875" stroke-linejoin="round"/>
<path d="M9.5 7.9165C10.8117 7.9165 11.875 6.85318 11.875 5.5415C11.875 4.22983 10.8117 3.1665 9.5 3.1665C8.18832 3.1665 7.125 4.22983 7.125 5.5415C7.125 6.85318 8.18832 7.9165 9.5 7.9165Z" stroke="#686868" stroke-width="1.875"/>
</svg>
