<svg width="70" height="24" viewBox="0 0 70 24" fill="none" xmlns="http://www.w3.org/2000/svg">
<path d="M64.8113 22.99L64.1579 19.7087H56.8254L55.6588 22.9667L49.7817 22.9783C53.5588 13.8988 56.3646 7.17583 58.1933 2.80375C58.6717 1.66042 59.5204 1.07708 60.7717 1.08583C61.7283 1.09458 63.2887 1.09458 65.4558 1.08875L70 22.9813L64.8113 22.99ZM58.4762 15.2142H63.2013L61.4367 6.98917L58.4762 15.2142ZM20.5917 1.08292L26.5008 1.08875L17.3658 22.9929L11.3838 22.9871C9.87948 17.2013 8.39392 11.4108 6.92708 5.61542C6.63542 4.46042 6.05792 3.6525 4.94667 3.27042C3.30556 2.72036 1.65649 2.19433 0 1.6925L0 1.08875H9.44125C11.0746 1.08875 12.0283 1.87917 12.3346 3.50083C12.6438 5.12542 13.4196 9.26417 14.6679 15.9083L20.5917 1.08292ZM34.6208 1.08875L29.9513 22.99L24.325 22.9813L28.9917 1.08292L34.6208 1.08875ZM46.025 0.683332C47.7079 0.683332 49.8283 1.20833 51.0475 1.6925L50.0617 6.23083C48.9592 5.7875 47.145 5.18958 45.6196 5.21C43.4029 5.24792 42.0321 6.17833 42.0321 7.07083C42.0321 8.52333 44.4121 9.25541 46.8621 10.8421C49.6562 12.6504 50.0267 14.275 49.9917 16.0425C49.9538 19.7029 46.8621 23.3167 40.3404 23.3167C37.3654 23.2729 36.2921 23.025 33.8654 22.1617L34.8921 17.425C37.3625 18.4575 38.4096 18.7871 40.5213 18.7871C42.455 18.7871 44.1146 18.0054 44.1292 16.6433C44.1408 15.675 43.5458 15.1938 41.3758 13.9979C39.2058 12.7992 36.1608 11.1425 36.2017 7.80875C36.2513 3.54458 40.2908 0.683332 46.025 0.683332Z" fill="white"/>
</svg>
