<svg width="52" height="47" viewBox="0 0 52 47" fill="none" xmlns="http://www.w3.org/2000/svg">
<path d="M45.7438 2.86882H42.575V1.32507C42.575 0.675068 42.1281 0.106317 41.5188 0.0250674C41.1531 -0.0561826 40.7875 0.0656925 40.5031 0.309443C40.2188 0.553193 40.0563 0.918817 40.0563 1.28444V2.90944H32.0531V1.36569C32.0531 0.715692 31.6063 0.146942 30.9969 0.0656924C30.6313 -0.0155576 30.2656 0.106317 29.9813 0.350067C29.6969 0.593817 29.5344 0.959443 29.5344 1.32507V2.95007H21.5312V1.40632C21.5312 0.756317 21.0844 0.187567 20.475 0.106317C20.1094 -0.0561826 19.7031 0.0250674 19.4187 0.268817C19.1344 0.512567 18.9719 0.878192 18.9719 1.24382V2.86882H11.0094V1.32507C11.0094 0.675068 10.5625 0.106317 9.95312 0.0250674C9.5875 -0.0561826 9.22188 0.0656925 8.9375 0.309443C8.6125 0.512568 8.45 0.878192 8.45 1.24382V2.86882H5.28125C2.35625 2.86882 0 5.22507 0 8.15007V40.7719C0 43.6969 2.35625 46.0532 5.28125 46.0532H45.7438C48.6688 46.0532 51.025 43.6969 51.025 40.7719V8.15007C51.025 5.22507 48.6688 2.86882 45.7438 2.86882ZM47.8156 40.7719C47.8156 41.9094 46.8813 42.8438 45.7438 42.8438H5.28125C4.14375 42.8438 3.20938 41.9094 3.20938 40.7719V15.7063H47.8156V40.7719ZM47.8156 12.4969H3.20938V8.15007C3.20938 7.01257 4.14375 6.07819 5.28125 6.07819H8.45V8.27194C8.45 8.96257 9.01875 9.53132 9.70937 9.53132C10.4 9.53132 10.9688 8.96257 10.9688 8.27194V6.07819H18.9719V8.27194C18.9719 8.96257 19.5406 9.53132 20.2312 9.53132C20.9219 9.53132 21.4906 8.96257 21.4906 8.27194V6.07819H29.4938V8.27194C29.4938 8.96257 30.0625 9.53132 30.7531 9.53132C31.4438 9.53132 32.0125 8.96257 32.0125 8.27194V6.07819H40.0156V8.27194C40.0156 8.96257 40.5844 9.53132 41.275 9.53132C41.9656 9.53132 42.5344 8.96257 42.5344 8.27194V6.07819H45.7031C46.8406 6.07819 47.775 7.01257 47.775 8.15007V12.4969H47.8156Z" fill="url(#paint0_linear_645_245)"/>
<path d="M15.6504 29.855L21.2742 35.5705L36.2711 20.3292" stroke="url(#paint1_linear_645_245)" stroke-width="3" stroke-linecap="round" stroke-linejoin="round"/>
<defs>
<linearGradient id="paint0_linear_645_245" x1="25.5125" y1="0" x2="25.5125" y2="46.0532" gradientUnits="userSpaceOnUse">
<stop stop-color="#FF9960"/>
<stop offset="1" stop-color="#833AC6"/>
</linearGradient>
<linearGradient id="paint1_linear_645_245" x1="25.9607" y1="20.3292" x2="25.9607" y2="35.5705" gradientUnits="userSpaceOnUse">
<stop stop-color="#833AC6"/>
<stop offset="1" stop-color="#FF9960"/>
</linearGradient>
</defs>
</svg>
