<svg width="50" height="64" viewBox="0 0 50 64" fill="none" xmlns="http://www.w3.org/2000/svg">
<path d="M30.8371 28.7935C31.0921 29.035 31.3519 29.2626 31.6166 29.4763C33.6631 31.1293 35.8491 31.8391 37.9315 31.9514C41.4374 32.1405 44.556 30.5649 45.8237 29.9246C45.9669 29.8522 46.0865 29.7918 46.1804 29.7473C47.7649 28.9944 48.4435 27.0906 47.6961 25.4948C46.9486 23.8991 45.058 23.2157 43.4735 23.9686C43.2998 24.0511 43.1234 24.1368 42.9445 24.2238C41.542 24.9056 39.9826 25.6637 38.271 25.5712C37.4373 25.5263 36.5392 25.2618 35.5863 24.4922C34.5946 23.6911 33.4102 22.2316 32.2647 19.5856C31.3364 17.4412 29.9545 15.7795 27.9909 14.8366C26.1088 13.933 24.1068 13.8942 22.3227 14.1074C17.541 14.6791 13.9076 17.4714 11.4362 20.0645C9.40154 22.1997 7.88329 24.516 7.13892 25.6518C6.98744 25.883 6.86785 26.0652 6.78267 26.1871C5.77389 27.6297 6.11729 29.6227 7.54957 30.6386C8.98201 31.6545 10.961 31.3088 11.9698 29.8663C12.1471 29.6128 12.3422 29.3171 12.5595 28.9882C13.3526 27.7867 14.4389 26.1413 16.0137 24.4888C17.2542 23.187 18.643 22.0613 20.1725 21.3215C19.8186 22.3029 19.417 23.4183 19.0104 24.5511C17.8372 27.8193 16.53 31.485 16.3192 32.2187C16.1268 32.8886 16.1859 33.4615 16.2305 33.7473C16.2808 34.07 16.3655 34.3428 16.4334 34.534C16.569 34.9156 16.7484 35.2758 16.9062 35.5673C17.2302 36.1665 17.6739 36.8583 18.1513 37.5603C19.1192 38.9834 20.4225 40.7331 21.7152 42.4248C22.8569 43.9191 24.0195 45.4061 24.9761 46.6294L25.3593 47.1196C25.8728 47.7767 26.3023 48.3278 26.6183 48.7412C26.7607 48.9274 26.8576 49.0571 26.9199 49.1413C26.9813 49.3536 27.0595 49.6614 27.1528 50.0655C27.338 50.8687 27.5517 51.9143 27.7769 53.0623C27.9217 53.8006 28.0724 54.5874 28.2212 55.3654C28.5218 56.9349 28.8154 58.4693 29.0404 59.4942C29.4186 61.217 31.1119 62.3048 32.8226 61.924C34.5332 61.5431 35.6135 59.8377 35.2354 58.115C35.0286 57.1727 34.7654 55.7979 34.4776 54.2932C34.3243 53.4918 34.1638 52.6534 34.0012 51.8241C33.7738 50.6645 33.5432 49.5317 33.3325 48.6192C33.2278 48.1652 33.12 47.7304 33.0123 47.3577C32.9342 47.0875 32.7704 46.5284 32.4943 46.0425C32.2973 45.696 31.9174 45.1989 31.6599 44.8622L31.6455 44.8435C31.3056 44.3988 30.8556 43.8214 30.3452 43.1682L29.9594 42.6748C29.0014 41.4497 27.8615 39.9918 26.7434 38.5285C26.6205 38.3676 26.4982 38.2071 26.3767 38.0472L30.8371 28.7935ZM19.6169 48.1516L15.0889 41.8132L13.7872 45.5817L5.89872 43.7147C4.19315 43.3109 2.48569 44.3761 2.08485 46.0936C1.68402 47.8112 2.74169 49.5309 4.44724 49.9346L15.1183 52.4601C16.6998 52.8344 18.3064 51.9451 18.8403 50.3999L19.6169 48.1516Z" stroke="url(#paint0_linear_645_243)" stroke-width="4" stroke-linecap="round" stroke-linejoin="round"/>
<path fill-rule="evenodd" clip-rule="evenodd" d="M38 12.8C40.6509 12.8 42.8 10.651 42.8 8C42.8 5.34904 40.6509 3.2 38 3.2C35.349 3.2 33.2 5.34904 33.2 8C33.2 10.651 35.349 12.8 38 12.8ZM38 16C42.4182 16 46 12.4182 46 8C46 3.58173 42.4182 0 38 0C33.5818 0 30 3.58173 30 8C30 12.4182 33.5818 16 38 16Z" fill="url(#paint1_linear_645_243)"/>
<defs>
<linearGradient id="paint0_linear_645_243" x1="25" y1="14" x2="25" y2="62" gradientUnits="userSpaceOnUse">
<stop stop-color="#FF9960"/>
<stop offset="1" stop-color="#7F37C8"/>
</linearGradient>
<linearGradient id="paint1_linear_645_243" x1="38" y1="0" x2="38" y2="16" gradientUnits="userSpaceOnUse">
<stop stop-color="#FF9960"/>
<stop offset="1" stop-color="#802DB2"/>
</linearGradient>
</defs>
</svg>
