<svg width="48" height="49" viewBox="0 0 48 49" fill="none" xmlns="http://www.w3.org/2000/svg">
<path d="M46.9507 9.23696L24.6251 0.119605C24.2269 -0.0398683 23.7843 -0.0398683 23.386 0.119605L1.06047 9.23696C0.413023 9.48768 0 10.1259 0 10.8211V17.6591C0 18.605 0.747907 19.3686 1.67442 19.3686H4.46512V38.743H1.67442C0.747907 38.743 0 39.5066 0 40.4525V47.2905C0 48.2364 0.747907 49 1.67442 49H46.3256C47.2521 49 48 48.2364 48 47.2905V40.4525C48 39.5066 47.2521 38.743 46.3256 38.743H43.5349V19.3686H46.3256C47.2521 19.3686 48 18.605 48 17.6591V10.8211C48 10.1259 47.587 9.48768 46.9507 9.23696ZM44.6512 42.162V45.581H3.34884V42.162H44.6512ZM7.81395 38.743V19.3686H13.3953V38.743H7.81395ZM16.7442 38.743V19.3686H22.3256V38.743H16.7442ZM25.6744 38.743V19.3686H31.2558V38.743H25.6744ZM34.6047 38.743V19.3686H40.186V38.743H34.6047ZM44.6512 15.9496H3.34884V11.9836L24 3.55001L44.6512 11.9836V15.9496Z" fill="url(#paint0_linear_134_545)"/>
<defs>
<linearGradient id="paint0_linear_134_545" x1="47.7113" y1="1.86087" x2="-3.73579" y2="47.6432" gradientUnits="userSpaceOnUse">
<stop stop-color="#FF9960"/>
<stop offset="1" stop-color="#8029AB"/>
</linearGradient>
</defs>
</svg>
