<svg width="71" height="59" viewBox="0 0 71 59" fill="none" xmlns="http://www.w3.org/2000/svg">
<path d="M69.141 14.0625H53.4378C53.262 14.0626 53.0885 14.1022 52.93 14.1784C52.7716 14.2545 52.6323 14.3653 52.5224 14.5025L47.3558 20.961L45.5373 14.8979C45.4649 14.6564 45.3166 14.4447 45.1143 14.2942C44.912 14.1437 44.6665 14.0624 44.4144 14.0625H22.266C18.0025 14.0624 13.8286 15.2865 10.2404 17.5891C6.65214 19.8918 3.80048 23.1762 2.02427 27.0521C0.248055 30.928 -0.37801 35.2323 0.220475 39.4536C0.81896 43.6749 2.61683 47.6356 5.40042 50.8651C8.184 54.0945 11.8363 56.4568 15.9231 57.6713C20.01 58.8858 24.3596 58.9014 28.4551 57.7162C32.5506 56.531 36.2196 54.1949 39.0263 50.9855C41.8329 47.7761 43.6591 43.8284 44.2878 39.6115L69.3988 33.9558C69.6583 33.8973 69.8902 33.7522 70.0563 33.5444C70.2224 33.3366 70.3129 33.0785 70.3128 32.8125V15.2344C70.3128 14.9236 70.1894 14.6255 69.9696 14.4057C69.7498 14.186 69.4518 14.0625 69.141 14.0625ZM67.9691 31.875L42.973 37.5052C42.7349 37.5588 42.5194 37.6854 42.3567 37.8674C42.194 38.0494 42.0922 38.2776 42.0655 38.5202C41.6421 42.3434 40.1209 45.9622 37.6856 48.9397C35.2503 51.9172 32.0051 54.1259 28.3419 55.2992C24.6787 56.4725 20.7541 56.5602 17.0421 55.5516C13.3302 54.5431 9.98956 52.4815 7.42375 49.6157C4.85794 46.75 3.17666 43.2027 2.58294 39.4023C1.98923 35.6018 2.50848 31.7107 4.07798 28.199C5.64749 24.6872 8.20012 21.7049 11.4276 19.6123C14.6551 17.5196 18.4194 16.4061 22.266 16.4062H43.5429L45.7527 23.7739C45.814 23.9789 45.9303 24.1631 46.0888 24.3066C46.2474 24.4502 46.4422 24.5476 46.6522 24.5883C46.8622 24.6291 47.0793 24.6115 47.28 24.5377C47.4807 24.4638 47.6574 24.3364 47.7909 24.1693L54.0003 16.4062H67.9691V31.875Z" fill="url(#paint0_linear_645_244)"/>
<path d="M22.2661 24.6094C19.9484 24.6094 17.6827 25.2967 15.7555 26.5843C13.8284 27.872 12.3264 29.7022 11.4394 31.8436C10.5524 33.9849 10.3204 36.3411 10.7725 38.6143C11.2247 40.8876 12.3408 42.9756 13.9797 44.6145C15.6186 46.2534 17.7067 47.3695 19.9799 47.8217C22.2531 48.2739 24.6094 48.0418 26.7507 47.1548C28.892 46.2679 30.7222 44.7659 32.0099 42.8387C33.2976 40.9116 33.9849 38.6459 33.9849 36.3281C33.9814 33.2212 32.7457 30.2425 30.5487 28.0455C28.3518 25.8486 25.3731 24.6128 22.2661 24.6094ZM22.2661 45.7031C20.4119 45.7031 18.5994 45.1533 17.0576 44.1232C15.5159 43.093 14.3143 41.6288 13.6047 39.9158C12.8952 38.2027 12.7095 36.3177 13.0713 34.4992C13.433 32.6806 14.3259 31.0101 15.637 29.699C16.9481 28.3879 18.6186 27.495 20.4371 27.1333C22.2557 26.7715 24.1407 26.9572 25.8538 27.6668C27.5668 28.3763 29.031 29.5779 30.0611 31.1197C31.0913 32.6614 31.6411 34.4739 31.6411 36.3281C31.6383 38.8137 30.6496 41.1966 28.8921 42.9541C27.1346 44.7116 24.7516 45.7003 22.2661 45.7031ZM49.2192 8.20312C49.53 8.20312 49.8281 8.07966 50.0479 7.85989C50.2677 7.64012 50.3911 7.34205 50.3911 7.03125V1.17188C50.3911 0.861074 50.2677 0.563004 50.0479 0.343234C49.8281 0.123465 49.53 0 49.2192 0C48.9084 0 48.6104 0.123465 48.3906 0.343234C48.1708 0.563004 48.0474 0.861074 48.0474 1.17188V7.03125C48.0474 7.34205 48.1708 7.64012 48.3906 7.85989C48.6104 8.07966 48.9084 8.20312 49.2192 8.20312ZM53.9067 10.5469C54.0607 10.5471 54.2131 10.5168 54.3553 10.4579C54.4975 10.399 54.6266 10.3125 54.7353 10.2035L57.079 7.85977C57.2925 7.63875 57.4106 7.34273 57.4079 7.03547C57.4053 6.72821 57.282 6.43428 57.0647 6.21701C56.8475 5.99973 56.5535 5.87649 56.2463 5.87382C55.939 5.87115 55.643 5.98927 55.422 6.20273L53.0782 8.54648C52.9144 8.71037 52.8028 8.91916 52.7576 9.14645C52.7124 9.37374 52.7356 9.60932 52.8243 9.82342C52.913 10.0375 53.0631 10.2205 53.2558 10.3493C53.4485 10.4781 53.675 10.5468 53.9067 10.5469ZM43.7032 10.2035C43.9242 10.417 44.2203 10.5351 44.5275 10.5324C44.8348 10.5298 45.1287 10.4065 45.346 10.1892C45.5633 9.97196 45.6865 9.67804 45.6892 9.37078C45.6918 9.06352 45.5737 8.7675 45.3603 8.54648L43.0165 6.20273C42.7955 5.98927 42.4995 5.87115 42.1922 5.87382C41.8849 5.87649 41.591 5.99973 41.3738 6.21701C41.1565 6.43428 41.0332 6.72821 41.0306 7.03547C41.0279 7.34273 41.146 7.63875 41.3595 7.85977L43.7032 10.2035Z" fill="url(#paint1_linear_645_244)"/>
<defs>
<linearGradient id="paint0_linear_645_244" x1="35.1564" y1="14.0625" x2="35.1564" y2="58.5938" gradientUnits="userSpaceOnUse">
<stop stop-color="#FF9960"/>
<stop offset="1" stop-color="#802CAF"/>
</linearGradient>
<linearGradient id="paint1_linear_645_244" x1="33.9777" y1="0" x2="33.9777" y2="48.0469" gradientUnits="userSpaceOnUse">
<stop stop-color="#FF9960"/>
<stop offset="1" stop-color="#802CAF"/>
</linearGradient>
</defs>
</svg>
