<svg width="16" height="12" viewBox="0 0 16 12" fill="none" xmlns="http://www.w3.org/2000/svg">
<path d="M11.5134 1.43892H12.5965C13.3128 1.43892 13.9638 1.71848 14.4354 2.16854C14.9069 2.6186 15.1998 3.24018 15.1998 3.92377V9.51509C15.1998 10.1989 14.907 10.8203 14.4355 11.2703C13.964 11.7204 13.3128 12 12.5965 12H3.40314C2.68677 12 2.03577 11.7204 1.56426 11.2703C1.09268 10.8203 0.799805 10.1989 0.799805 9.51509V3.92377C0.799805 3.23999 1.09268 2.61854 1.56426 2.16848C2.03577 1.71835 2.68677 1.43892 3.40314 1.43892H4.4863C4.58865 1.12237 4.78864 0.843876 5.03461 0.61875C5.45284 0.235723 6.02697 0 6.47148 0H9.52806C9.97257 0 10.5468 0.235723 10.9649 0.61875C11.2108 0.843876 11.4109 1.12237 11.5134 1.43892ZM7.9998 3.69093C8.87575 3.69093 9.66918 4.03 10.2433 4.57801C10.8175 5.12609 11.1727 5.88336 11.1727 6.71952C11.1727 7.55562 10.8175 8.3129 10.2433 8.86098C9.66905 9.40899 8.87588 9.74806 7.9998 9.74806C7.12373 9.74806 6.33056 9.40899 5.7563 8.86098C5.18216 8.31284 4.82694 7.55569 4.82694 6.71952C4.82694 5.8833 5.18216 5.12615 5.7563 4.57801C6.33043 4.03 7.12386 3.69093 7.9998 3.69093ZM9.55316 5.23683C9.15575 4.8575 8.60652 4.62291 7.9998 4.62291C7.39315 4.62291 6.84385 4.8575 6.44645 5.23683C6.04918 5.61616 5.80327 6.14047 5.80327 6.71952C5.80327 7.29852 6.04918 7.82289 6.44645 8.20215C6.84385 8.58142 7.39315 8.81614 7.9998 8.81614C8.60639 8.81614 9.15575 8.58142 9.55316 8.20215C9.95056 7.82289 10.1963 7.29858 10.1963 6.71952C10.1963 6.14041 9.95056 5.61616 9.55316 5.23683ZM12.5965 2.37084H11.0994C10.8299 2.37084 10.6113 2.16221 10.6113 1.90491C10.6113 1.6749 10.476 1.45874 10.29 1.28848C10.049 1.06781 9.74565 0.931982 9.52813 0.931982H6.47155C6.25402 0.931982 5.95063 1.06781 5.70972 1.28848C5.52366 1.4588 5.38839 1.6749 5.38839 1.90491C5.38839 2.16221 5.16981 2.37084 4.90026 2.37084H3.4032C2.9562 2.37084 2.54946 2.54574 2.25448 2.8273C1.9595 3.10893 1.7762 3.49716 1.7762 3.92383V9.51515C1.7762 9.9417 1.9595 10.3301 2.25448 10.6116C2.54953 10.8932 2.95626 11.0681 3.4032 11.0681H12.5965C13.0435 11.0681 13.4504 10.8932 13.7453 10.6116C14.0404 10.33 14.2235 9.94183 14.2235 9.51515V3.92383C14.2235 3.49728 14.0403 3.10893 13.7453 2.82743C13.4502 2.5458 13.0434 2.37084 12.5965 2.37084Z" fill="#9B9B9B"/>
</svg>
