<svg width="60" height="54" viewBox="0 0 60 54" fill="none" xmlns="http://www.w3.org/2000/svg">
<path d="M53.75 6.75H44.4381L40.7956 2.78438C39.7088 1.58 38.1225 0.875 36.4775 0.875H24.0225C22.3775 0.875 20.7912 1.58 19.675 2.78438L16.0619 6.75H6.75C3.51875 6.75 0.875 9.39375 0.875 12.625V47.875C0.875 51.1063 3.51875 53.75 6.75 53.75H53.75C56.9813 53.75 59.625 51.1063 59.625 47.875V12.625C59.625 9.39375 56.9813 6.75 53.75 6.75ZM30.25 44.9375C22.1425 44.9375 15.5625 38.3575 15.5625 30.25C15.5625 22.1425 22.1425 15.5625 30.25 15.5625C38.3575 15.5625 44.9375 22.1425 44.9375 30.25C44.9375 38.3575 38.3575 44.9375 30.25 44.9375Z" fill="#666695"/>
</svg>
