<svg width="22" height="22" viewBox="0 0 22 22" fill="none" xmlns="http://www.w3.org/2000/svg">
<path d="M18.363 18.3288H3.63672C2.86207 18.3279 2.11941 18.0197 1.57165 17.472C1.02389 16.9242 0.715753 16.1815 0.714844 15.4069V6.59314C0.715753 5.81849 1.02389 5.07583 1.57165 4.52807C2.11941 3.98031 2.86207 3.67217 3.63672 3.67126H18.363C19.1376 3.67217 19.8803 3.98031 20.428 4.52807C20.9758 5.07583 21.2839 5.81849 21.2848 6.59314V15.4069C21.2839 16.1815 20.9758 16.9242 20.428 17.472C19.8803 18.0197 19.1376 18.3279 18.363 18.3288ZM3.63672 4.70251C3.13529 4.70251 2.65441 4.9017 2.29984 5.25627C1.94528 5.61083 1.74609 6.09171 1.74609 6.59314V15.4069C1.74609 15.9083 1.94528 16.3892 2.29984 16.7438C2.65441 17.0983 3.13529 17.2975 3.63672 17.2975H18.363C18.8644 17.2975 19.3453 17.0983 19.6998 16.7438C20.0544 16.3892 20.2536 15.9083 20.2536 15.4069V6.59314C20.2536 6.09171 20.0544 5.61083 19.6998 5.25627C19.3453 4.9017 18.8644 4.70251 18.363 4.70251H3.63672Z" fill="url(#paint0_linear_352_365)"/>
<path d="M10.9996 13.09C10.3636 13.091 9.74448 12.8846 9.23621 12.5022L1.20965 6.43157C1.15294 6.39177 1.10483 6.34095 1.0682 6.28214C1.03157 6.22333 1.00716 6.15775 0.996443 6.08929C0.985724 6.02084 0.988909 5.95094 1.00581 5.88374C1.02271 5.81655 1.05298 5.75346 1.09481 5.69822C1.13664 5.64299 1.18917 5.59675 1.24927 5.56228C1.30936 5.5278 1.37579 5.50578 1.44458 5.49755C1.51338 5.48932 1.58312 5.49503 1.64966 5.51435C1.7162 5.53368 1.77815 5.56621 1.83184 5.61001L9.8584 11.6875C10.188 11.9336 10.5883 12.0665 10.9996 12.0665C11.411 12.0665 11.8113 11.9336 12.1409 11.6875L20.1675 5.61001C20.2211 5.56621 20.2831 5.53368 20.3496 5.51435C20.4162 5.49503 20.4859 5.48932 20.5547 5.49755C20.6235 5.50578 20.6899 5.5278 20.75 5.56228C20.8101 5.59675 20.8627 5.64299 20.9045 5.69822C20.9463 5.75346 20.9766 5.81655 20.9935 5.88374C21.0104 5.95094 21.0136 6.02084 21.0029 6.08929C20.9921 6.15775 20.9677 6.22333 20.9311 6.28214C20.8945 6.34095 20.8464 6.39177 20.7896 6.43157L12.7631 12.5022C12.2548 12.8846 11.6357 13.091 10.9996 13.09Z" fill="url(#paint1_linear_352_365)"/>
<path d="M1.43338 16.8919C1.3288 16.892 1.22664 16.8604 1.14047 16.8011C1.0543 16.7419 0.98818 16.6578 0.950889 16.5601C0.913597 16.4624 0.906896 16.3557 0.931675 16.2541C0.956453 16.1525 1.01154 16.0608 1.08963 15.9912L7.41462 10.3503C7.51673 10.2591 7.65088 10.2123 7.78754 10.22C7.92421 10.2277 8.05221 10.2894 8.14337 10.3916C8.23454 10.4937 8.28141 10.6278 8.27368 10.7645C8.26594 10.9011 8.20423 11.0291 8.10212 11.1203L1.77712 16.7612C1.68319 16.8467 1.56036 16.8934 1.43338 16.8919ZM20.5665 16.8919C20.4395 16.8934 20.3167 16.8467 20.2227 16.7612L13.8977 11.1203C13.7956 11.0291 13.7339 10.9011 13.7262 10.7645C13.7185 10.6278 13.7653 10.4937 13.8565 10.3916C13.9477 10.2894 14.0757 10.2277 14.2123 10.22C14.349 10.2123 14.4831 10.2591 14.5852 10.3503L20.9068 15.9912C20.9849 16.0608 21.04 16.1525 21.0648 16.2541C21.0895 16.3557 21.0828 16.4624 21.0455 16.5601C21.0083 16.6578 20.9421 16.7419 20.856 16.8011C20.7698 16.8604 20.6676 16.892 20.5631 16.8919H20.5665Z" fill="url(#paint2_linear_352_365)"/>
<defs>
<linearGradient id="paint0_linear_352_365" x1="10.9998" y1="3.67126" x2="10.9998" y2="18.3288" gradientUnits="userSpaceOnUse">
<stop stop-color="#F69369"/>
<stop offset="1" stop-color="#9146BC"/>
</linearGradient>
<linearGradient id="paint1_linear_352_365" x1="10.9996" y1="5.4939" x2="10.9996" y2="13.09" gradientUnits="userSpaceOnUse">
<stop stop-color="#F69369"/>
<stop offset="1" stop-color="#9146BC"/>
</linearGradient>
<linearGradient id="paint2_linear_352_365" x1="10.9982" y1="10.2192" x2="10.9982" y2="16.8919" gradientUnits="userSpaceOnUse">
<stop stop-color="#F69369"/>
<stop offset="1" stop-color="#9146BC"/>
</linearGradient>
</defs>
</svg>
