<svg width="16" height="21" viewBox="0 0 16 21" fill="none" xmlns="http://www.w3.org/2000/svg">
<path d="M8 20.3636C8.16405 20.3627 8.32295 20.3063 8.45091 20.2036C8.72727 19.9564 16 14.0945 16 8C16 5.87827 15.1571 3.84344 13.6569 2.34315C12.1566 0.842855 10.1217 0 8 0C5.87827 0 3.84344 0.842855 2.34315 2.34315C0.842855 3.84344 0 5.87827 0 8C0 14.0945 7.27273 19.9564 7.54909 20.2036C7.67705 20.3063 7.83595 20.3627 8 20.3636ZM1.45455 8C1.45455 6.26404 2.14415 4.59918 3.37166 3.37167C4.59918 2.14415 6.26404 1.45455 8 1.45455C9.73596 1.45455 11.4008 2.14415 12.6283 3.37167C13.8558 4.59918 14.5455 6.26404 14.5455 8C14.5455 12.5818 9.54909 17.3164 8 18.6836C6.45091 17.3164 1.45455 12.5818 1.45455 8Z" fill="url(#paint0_linear_347_357)"/>
<path d="M11.636 8.00001C11.636 7.28081 11.4227 6.57775 11.0232 5.97976C10.6236 5.38176 10.0557 4.91568 9.39122 4.64045C8.72677 4.36522 7.99561 4.29321 7.29023 4.43352C6.58484 4.57383 5.9369 4.92016 5.42835 5.42872C4.91979 5.93727 4.57346 6.58521 4.43315 7.29059C4.29284 7.99598 4.36486 8.72713 4.64008 9.39159C4.91531 10.056 5.38139 10.624 5.97939 11.0235C6.57739 11.4231 7.28044 11.6364 7.99965 11.6364C8.96407 11.6364 9.88899 11.2533 10.5709 10.5713C11.2529 9.88936 11.636 8.96444 11.636 8.00001ZM5.81783 8.00001C5.81783 7.56849 5.94579 7.14666 6.18553 6.78786C6.42527 6.42906 6.76603 6.14941 7.1647 5.98428C7.56338 5.81914 8.00207 5.77593 8.4253 5.86012C8.84853 5.9443 9.23729 6.1521 9.54243 6.45723C9.84756 6.76237 10.0554 7.15113 10.1395 7.57436C10.2237 7.99759 10.1805 8.43628 10.0154 8.83496C9.85025 9.23363 9.5706 9.57439 9.2118 9.81413C8.853 10.0539 8.43117 10.1818 7.99965 10.1818C7.42099 10.1818 6.86604 9.95196 6.45687 9.54279C6.0477 9.13362 5.81783 8.57867 5.81783 8.00001Z" fill="url(#paint1_linear_347_357)"/>
<defs>
<linearGradient id="paint0_linear_347_357" x1="8" y1="0" x2="8" y2="20.3636" gradientUnits="userSpaceOnUse">
<stop stop-color="#EA8B74"/>
<stop offset="1" stop-color="#9E50B3"/>
</linearGradient>
<linearGradient id="paint1_linear_347_357" x1="7.99965" y1="4.36365" x2="7.99965" y2="11.6364" gradientUnits="userSpaceOnUse">
<stop stop-color="#EA8B74"/>
<stop offset="1" stop-color="#9E50B3"/>
</linearGradient>
</defs>
</svg>
