<svg width="22" height="22" viewBox="0 0 22 22" fill="none" xmlns="http://www.w3.org/2000/svg">
<path d="M18.7738 14.1962L17.2613 12.6837C16.8105 12.2365 16.2019 11.9843 15.5669 11.9816C14.9318 11.9789 14.3211 12.2259 13.8665 12.6693C13.6239 12.9133 13.3038 13.0651 12.9614 13.0986C12.619 13.1321 12.2756 13.0452 11.9903 12.8528C10.8643 12.1014 9.89698 11.1359 9.14334 10.0114C8.95439 9.72293 8.87065 9.37816 8.90621 9.03516C8.94178 8.69216 9.09448 8.3719 9.33859 8.12833C9.77797 7.67326 10.0218 7.06427 10.0178 6.43171C10.0138 5.79915 9.76235 5.19328 9.31728 4.74377L7.80478 3.23127C7.35196 2.78 6.73873 2.52661 6.09944 2.52661C5.46015 2.52661 4.84692 2.78 4.39409 3.23127L3.95891 3.66715C1.69016 5.9359 1.85997 10.7058 6.58034 15.4234C9.42659 18.2703 12.2914 19.4625 14.6145 19.4625C15.2983 19.4852 15.9798 19.3717 16.6193 19.1284C17.2588 18.8851 17.8435 18.517 18.3393 18.0455L18.7752 17.6096C19.2273 17.1566 19.4811 16.5427 19.4808 15.9026C19.4806 15.2626 19.2263 14.6489 18.7738 14.1962ZM17.8017 16.6375L17.3658 17.0734C15.5783 18.8609 11.6328 18.5343 7.55109 14.452C3.46941 10.3696 3.14216 6.42127 4.92966 4.63377L5.36209 4.19858C5.5568 4.00458 5.82045 3.89565 6.09531 3.89565C6.37017 3.89565 6.63383 4.00458 6.82853 4.19858L8.34103 5.71108C8.5322 5.90321 8.64071 6.16244 8.64341 6.43346C8.6461 6.70448 8.54278 6.96582 8.35547 7.16171C7.89091 7.62923 7.60112 8.2422 7.53466 8.89792C7.4682 9.55365 7.6291 10.2123 7.99041 10.7635C8.84672 12.045 9.94789 13.1445 11.2306 13.9989C11.7802 14.3603 12.4371 14.5221 13.0916 14.4574C13.7462 14.3927 14.3587 14.1054 14.8269 13.6435C15.0224 13.4539 15.2845 13.3487 15.5568 13.3504C15.8291 13.352 16.0899 13.4605 16.283 13.6524L17.7955 15.1649C17.893 15.261 17.9705 15.3754 18.0236 15.5015C18.0767 15.6277 18.1044 15.7631 18.1049 15.8999C18.1055 16.0368 18.079 16.1724 18.027 16.299C17.9749 16.4256 17.8984 16.5406 17.8017 16.6375Z" fill="url(#paint0_linear_352_361)"/>
<defs>
<linearGradient id="paint0_linear_352_361" x1="11.0114" y1="2.52661" x2="11.0114" y2="19.4653" gradientUnits="userSpaceOnUse">
<stop stop-color="#F89467"/>
<stop offset="1" stop-color="#873EC3"/>
</linearGradient>
</defs>
</svg>
