<svg width="45" height="45" viewBox="0 0 45 45" fill="none" xmlns="http://www.w3.org/2000/svg">
<path d="M37.9688 0H32.9062H12.1641H7.03125C6.67969 0 6.32812 0.28125 6.32812 0.703125V5.76562V39.2344V44.2969C6.32812 44.6484 6.60937 45 7.03125 45H37.9688C38.3203 45 38.6719 44.7188 38.6719 44.2969V0.703125C38.6719 0.28125 38.3203 0 37.9688 0ZM15.9609 1.33594H28.9688V7.38281H15.9609V1.33594ZM7.73438 1.33594H11.3906C11.1094 3.23438 9.63281 4.71094 7.73438 4.99219V1.33594ZM7.73438 43.6641V40.0078C9.63281 40.2891 11.1094 41.7656 11.3906 43.6641H7.73438ZM29.0391 43.6641H15.9609V37.6172H28.9688V43.6641H29.0391ZM37.2656 43.6641H33.6094C33.8906 41.7656 35.3672 40.2891 37.2656 40.0078V43.6641ZM37.2656 38.6016C34.5938 38.8828 32.5547 40.9922 32.2031 43.6641H30.375V36.9141C30.375 36.5625 30.0938 36.2109 29.6719 36.2109H15.3281C14.9766 36.2109 14.625 36.4922 14.625 36.9141V43.6641H12.7969C12.5156 40.9922 10.4062 38.9531 7.73438 38.6016V23.2031H16.4531C16.8047 26.2266 19.3359 28.6172 22.5 28.6172C25.5938 28.6172 28.1953 26.2266 28.5469 23.2031H37.2656V38.6016ZM27.1406 23.2031C26.7891 25.4531 24.8203 27.2109 22.5 27.2109C20.1094 27.2109 18.1406 25.4531 17.8594 23.2031H27.1406ZM17.8594 21.7969C18.2109 19.5469 20.1797 17.7891 22.5 17.7891C24.8906 17.7891 26.8594 19.5469 27.1406 21.7969H17.8594ZM37.2656 21.7969H28.5469C28.1953 18.7734 25.6641 16.3828 22.5 16.3828C19.4062 16.3828 16.8047 18.7734 16.4531 21.7969H7.73438V6.39844C10.4062 6.11719 12.4453 4.00781 12.7969 1.33594H14.625V8.08594C14.625 8.4375 14.9062 8.78906 15.3281 8.78906H29.7422C30.0938 8.78906 30.4453 8.50781 30.4453 8.08594V1.33594H32.2734C32.5547 4.00781 34.6641 6.04688 37.3359 6.39844V21.7969H37.2656ZM37.2656 5.0625C35.3672 4.78125 33.8906 3.30469 33.6094 1.40625H37.2656V5.0625Z" fill="#143751"/>
<path d="M37.2656 1.33594V4.99219C35.3672 4.71094 33.8906 3.23438 33.6094 1.33594H37.2656ZM37.2656 39.9375V43.5938H33.6094C33.8906 41.7656 35.3672 40.2891 37.2656 39.9375ZM11.3906 43.6641H7.73438V40.0078C9.63281 40.2891 11.1094 41.7656 11.3906 43.6641ZM11.3906 1.33594C11.1094 3.23438 9.63281 4.71094 7.73438 4.99219V1.33594H11.3906Z" fill="#22A8E1"/>
<path d="M27.1406 23.2031C26.7891 25.4531 24.8203 27.2109 22.5 27.2109C20.1094 27.2109 18.1406 25.4531 17.8594 23.2031H27.1406ZM27.1406 21.7969H17.8594C18.2109 19.5469 20.1797 17.7891 22.5 17.7891C24.8906 17.7891 26.8594 19.5469 27.1406 21.7969Z" fill="#22A8E1"/>
<path d="M28.9688 37.6172H15.9609V43.6641H28.9688V37.6172Z" fill="#22A8E1"/>
<path d="M28.9688 1.33594H15.9609V7.38281H28.9688V1.33594Z" fill="#22A8E1"/>
<path d="M37.2656 23.2031V38.6016C34.5938 38.8828 32.5547 40.9922 32.2031 43.6641H30.375V36.9141C30.375 36.5625 30.0938 36.2109 29.6719 36.2109H15.3281C14.9766 36.2109 14.625 36.4922 14.625 36.9141V43.6641H12.7969C12.5156 40.9922 10.4062 38.9531 7.73438 38.6016V23.2031H16.4531C16.8047 26.2266 19.3359 28.6172 22.5 28.6172C25.5938 28.6172 28.1953 26.2266 28.5469 23.2031H37.2656ZM37.2656 6.39844V21.7969H28.5469C28.1953 18.7734 25.6641 16.3828 22.5 16.3828C19.4062 16.3828 16.8047 18.7734 16.4531 21.7969H7.73438V6.39844C10.4062 6.11719 12.4453 4.00781 12.7969 1.33594H14.625V8.08594C14.625 8.4375 14.9062 8.78906 15.3281 8.78906H29.7422C30.0938 8.78906 30.4453 8.50781 30.4453 8.08594V1.33594H32.2734C32.5547 4.00781 34.6641 6.11719 37.2656 6.39844Z" fill="#AAE7D1"/>
</svg>
