<svg width="44" height="44" viewBox="0 0 44 44" fill="none" xmlns="http://www.w3.org/2000/svg">
<path d="M7.5625 8.25C7.00092 8.2501 6.45997 8.46167 6.04733 8.84259C5.63469 9.22351 5.38061 9.74584 5.33569 10.3056L2.75688 40.4786C2.75206 40.5343 2.75 40.5907 2.75 40.6471C2.75 41.1716 2.95839 41.6747 3.32932 42.0457C3.70026 42.4166 4.20336 42.625 4.72794 42.625H39.2721C39.7966 42.625 40.2997 42.4166 40.6707 42.0457C41.0416 41.6747 41.25 41.1716 41.25 40.6471C41.25 40.5907 41.25 40.5343 41.2431 40.4786L38.6643 10.3056C38.6194 9.74584 38.3653 9.22351 37.9527 8.84259C37.54 8.46167 36.9991 8.2501 36.4375 8.25H7.5625Z" fill="#737373"/>
<path d="M38.6643 10.3056C38.6194 9.74584 38.3653 9.22351 37.9527 8.84259C37.54 8.46167 36.9991 8.2501 36.4375 8.25H7.5625C7.3145 8.25187 7.06859 8.29556 6.83513 8.37925C6.77017 8.55647 6.72835 8.74133 6.71069 8.92925L4.13188 39.1036C4.12706 39.1593 4.125 39.2157 4.125 39.2721C4.125 39.7966 4.33339 40.2997 4.70432 40.6707C4.88799 40.8543 5.10604 41 5.34601 41.0994C5.58599 41.1988 5.84319 41.25 6.10294 41.25H40.6471C40.8245 41.2473 41.0007 41.2208 41.1709 41.1709C41.2208 41.0007 41.2473 40.8245 41.25 40.6471C41.25 40.5907 41.25 40.5343 41.2431 40.4786L38.6643 10.3056Z" fill="#22A8E1"/>
<path d="M35.75 11L38.5 39.875H5.5L8.25 11H35.75Z" fill="#66C3E9"/>
<path d="M10.3122 13.0625L7.75879 39.875H38.4997L35.9463 13.0625H10.3122Z" fill="#8ADEF9"/>
<path d="M26.125 6.1875H24.75V5.5C24.75 5.13533 24.6051 4.78559 24.3473 4.52773C24.0894 4.26987 23.7397 4.125 23.375 4.125C23.0103 4.125 22.6606 4.26987 22.4027 4.52773C22.1449 4.78559 22 5.13533 22 5.5V16.5H19.25V5.5C19.25 4.40598 19.6846 3.35677 20.4582 2.58319C21.2318 1.8096 22.281 1.375 23.375 1.375C24.0505 1.37451 24.7157 1.5401 25.3122 1.8572C25.9086 2.1743 26.4179 2.63318 26.7953 3.19344L26.125 6.1875Z" fill="#262948"/>
<path d="M26.125 7.5625H22V8.9375H26.125V7.5625Z" fill="#737373"/>
<path d="M26.125 10.3125H22V11.6875H26.125V10.3125Z" fill="#737373"/>
<path d="M28.875 16.5V5.5C28.875 5.13533 29.0199 4.78559 29.2777 4.52773C29.5356 4.26987 29.8853 4.125 30.25 4.125C30.6147 4.125 30.9644 4.26987 31.2223 4.52773C31.4801 4.78559 31.625 5.13533 31.625 5.5V6.1875H34.375V5.5C34.375 4.40598 33.9404 3.35677 33.1668 2.58318C32.3932 1.8096 31.344 1.375 30.25 1.375C29.156 1.375 28.1068 1.8096 27.3332 2.58318C26.5596 3.35677 26.125 4.40598 26.125 5.5V16.5H28.875Z" fill="#22A8E1"/>
<path d="M26.125 13.0625H22V14.4375H26.125V13.0625Z" fill="#737373"/>
<path d="M16.0975 23.375C15.6988 23.3762 15.3037 23.2982 14.9353 23.1456C14.5669 22.993 14.2324 22.7688 13.9512 22.4861C13.7976 22.3314 13.6148 22.2088 13.4135 22.1254C13.2121 22.042 12.9962 21.9993 12.7783 22C12.3047 21.9987 11.8356 22.0913 11.398 22.2724C10.9604 22.4536 10.5631 22.7197 10.229 23.0553L10.1122 23.1729L9.13867 22.2021L9.25623 22.0839C9.71774 21.62 10.2666 21.2522 10.8712 21.0018C11.4757 20.7514 12.1239 20.6233 12.7783 20.625C13.1771 20.6239 13.5721 20.7018 13.9406 20.8544C14.309 21.007 14.6435 21.2312 14.9247 21.514C15.0783 21.6686 15.261 21.7912 15.4624 21.8746C15.6637 21.9581 15.8796 22.0007 16.0975 22C16.5711 22.0013 17.0403 21.9087 17.4778 21.7276C17.9154 21.5465 18.3127 21.2804 18.6468 20.9447L18.7637 20.8271L19.7372 21.7979L19.6196 21.9161C19.1581 22.38 18.6092 22.7478 18.0047 22.9982C17.4001 23.2487 16.7519 23.3767 16.0975 23.375ZM31.2225 28.1875C30.8238 28.1887 30.4287 28.1107 30.0603 27.9581C29.6919 27.8055 29.3574 27.5813 29.0762 27.2986C28.9226 27.1439 28.7398 27.0213 28.5385 26.9379C28.3371 26.8545 28.1212 26.8118 27.9033 26.8125C27.4297 26.8112 26.9606 26.9038 26.523 27.0849C26.0854 27.2661 25.6881 27.5322 25.354 27.8678L25.2372 27.9854L24.2637 27.0146L24.3812 26.8964C24.8427 26.4325 25.3916 26.0647 25.9962 25.8143C26.6007 25.5639 27.2489 25.4358 27.9033 25.4375C28.3021 25.4364 28.6971 25.5143 29.0656 25.6669C29.434 25.8195 29.7685 26.0437 30.0497 26.3265C30.2033 26.4811 30.386 26.6037 30.5874 26.6871C30.7887 26.7706 31.0046 26.8132 31.2225 26.8125C31.6961 26.8138 32.1653 26.7212 32.6028 26.5401C33.0404 26.359 33.4377 26.0929 33.7718 25.7572L33.8887 25.6396L34.8622 26.6104L34.7446 26.7286C34.2831 27.1925 33.7342 27.5603 33.1297 27.8107C32.5251 28.0612 31.8769 28.1892 31.2225 28.1875ZM22.9725 35.0625C22.5738 35.0637 22.1787 34.9857 21.8103 34.8331C21.4419 34.6805 21.1074 34.4563 20.8262 34.1736C20.6726 34.0189 20.4898 33.8963 20.2885 33.8129C20.0871 33.7295 19.8712 33.6868 19.6533 33.6875C19.1797 33.6862 18.7106 33.7788 18.273 33.9599C17.8354 34.1411 17.4381 34.4072 17.104 34.7428L16.9872 34.8604L16.0137 33.8896L16.1312 33.7714C16.5927 33.3075 17.1416 32.9397 17.7462 32.6893C18.3507 32.4389 18.9989 32.3108 19.6533 32.3125C20.0521 32.3114 20.4471 32.3893 20.8156 32.5419C21.184 32.6945 21.5185 32.9187 21.7997 33.2015C21.9533 33.3561 22.136 33.4787 22.3374 33.5621C22.5387 33.6456 22.7546 33.6882 22.9725 33.6875C23.4461 33.6888 23.9153 33.5963 24.3528 33.4151C24.7904 33.234 25.1877 32.9679 25.5218 32.6322L25.6387 32.5146L26.6122 33.4854L26.4946 33.6036C26.0331 34.0675 25.4842 34.4353 24.8797 34.6857C24.2751 34.9362 23.6269 35.0642 22.9725 35.0625Z" fill="#22A8E1"/>
<path d="M26.3663 2.66956C25.8003 2.06843 25.0667 1.65133 24.2606 1.47239C23.4546 1.29345 22.6134 1.36093 21.8462 1.66608C21.0789 1.97123 20.4212 2.49995 19.9582 3.18362C19.4953 3.86729 19.2485 4.67433 19.25 5.49999V16.5H22V5.49999C22 5.13532 22.1449 4.78559 22.4027 4.52772C22.6606 4.26986 23.0103 4.12499 23.375 4.12499C23.7397 4.12499 24.0894 4.26986 24.3473 4.52772C24.6051 4.78559 24.75 5.13532 24.75 5.49999V6.18749H25.4375V5.49999C25.438 4.48171 25.7634 3.49015 26.3663 2.66956Z" fill="#22A8E1"/>
</svg>
