<svg width="24" height="24" viewBox="0 0 24 24" fill="none" xmlns="http://www.w3.org/2000/svg">
<g clip-path="url(#clip0_347_344)">
<path d="M3.375 23.997C3.47446 23.997 3.56984 23.9575 3.64016 23.8872C3.71049 23.8168 3.75 23.7214 3.75 23.622V19.4797C3.75 18.66 4.18725 17.8875 4.89075 17.466L7.82625 15.7042L9.43725 17.718C9.47027 17.7591 9.51157 17.7929 9.55847 17.817C9.60537 17.8412 9.65683 17.8552 9.7095 17.8582L9.7305 17.859C9.8295 17.859 9.9255 17.82 9.996 17.7495L10.7175 17.028V17.4847C10.7175 17.5842 10.757 17.6796 10.8273 17.7499C10.8977 17.8202 10.993 17.8597 11.0925 17.8597H11.1278L10.5023 23.5822C10.496 23.6316 10.4997 23.6818 10.513 23.7298C10.5264 23.7777 10.5492 23.8226 10.58 23.8616C10.6109 23.9007 10.6492 23.9332 10.6928 23.9573C10.7364 23.9814 10.7843 23.9966 10.8338 24.002C10.8833 24.0074 10.9334 24.0028 10.9811 23.9887C11.0288 23.9745 11.0733 23.9509 11.1118 23.9194C11.1503 23.8879 11.1822 23.849 11.2055 23.805C11.2289 23.761 11.2432 23.7128 11.2477 23.6632L11.8822 17.8597H12.1178L12.7523 23.6632C12.763 23.7622 12.8126 23.8528 12.8902 23.9152C12.9677 23.9776 13.0669 24.0066 13.1659 23.9959C13.2648 23.9851 13.3555 23.9355 13.4179 23.8579C13.4802 23.7804 13.5092 23.6812 13.4985 23.5822L12.873 17.8597H12.9083C13.0077 17.8597 13.1031 17.8202 13.1734 17.7499C13.2437 17.6796 13.2833 17.5842 13.2833 17.4847V17.028L14.0048 17.7495C14.0396 17.7843 14.081 17.8119 14.1266 17.8307C14.1722 17.8495 14.221 17.8591 14.2703 17.859L14.2913 17.8582C14.3439 17.8552 14.3954 17.8412 14.4423 17.817C14.4892 17.7929 14.5305 17.7591 14.5635 17.718L16.1745 15.7042L19.1108 17.466C19.4574 17.6758 19.7442 17.9712 19.9438 18.3239C20.1433 18.6765 20.2487 19.0746 20.25 19.4797V23.622C20.25 23.7214 20.2895 23.8168 20.3598 23.8872C20.4302 23.9575 20.5255 23.997 20.625 23.997C20.7245 23.997 20.8198 23.9575 20.8902 23.8872C20.9605 23.8168 21 23.7214 21 23.622V19.4797C21 18.3975 20.4233 17.3797 19.4955 16.8232L16.326 14.922L15.138 13.602C15.0885 13.5491 15.0245 13.5121 14.9541 13.4956C14.8836 13.479 14.8098 13.4837 14.742 13.509V12.036C15.2877 11.6171 15.7298 11.0784 16.0343 10.4615C16.3387 9.84455 16.4973 9.16593 16.4977 8.47799V6.77399L17.2215 3.42449C17.2761 3.12835 17.2709 2.82428 17.2061 2.5302C17.1413 2.23613 17.0183 1.958 16.8442 1.71224C16.6717 1.46541 16.4515 1.25562 16.1966 1.09526C15.9416 0.934888 15.6572 0.827182 15.36 0.77849L10.8915 0.0337401C10.5716 -0.0197069 10.2439 -0.00277246 9.93122 0.0833639C9.61854 0.1695 9.3284 0.322767 9.081 0.53249C8.65884 0.890863 8.38575 1.39399 8.31525 1.94324C7.87275 2.02574 7.47225 2.26199 7.1835 2.61899C7.00256 2.84312 6.87459 3.10523 6.80914 3.38574C6.74369 3.66625 6.74244 3.95793 6.8055 4.23899L7.49775 6.76649V8.47724C7.49775 9.92549 8.18775 11.2125 9.2535 12.036V13.5082C9.18607 13.4841 9.11308 13.4801 9.04343 13.4968C8.97378 13.5134 8.91048 13.55 8.86125 13.602L7.674 14.9212L4.5045 16.8232C4.0467 17.0996 3.66778 17.4891 3.40427 17.9544C3.14076 18.4197 3.00153 18.945 3 19.4797V23.622C3 23.7214 3.03951 23.8168 3.10984 23.8872C3.18016 23.9575 3.27554 23.997 3.375 23.997ZM12.5325 16.3492V17.109H11.4675V16.3492C11.4675 16.3282 11.4585 16.3095 11.4555 16.2892L12 15.7447L12.5452 16.29C12.5415 16.3095 12.5325 16.3282 12.5325 16.3492ZM15.594 15.2287L14.2388 16.923L12.6405 15.3247L14.7682 14.3115L15.594 15.2287ZM7.76625 3.09074C7.8746 2.95619 8.0118 2.84772 8.16771 2.77333C8.32362 2.69895 8.49425 2.66055 8.667 2.66099C8.874 2.66099 9.042 2.44274 9.042 2.23574C9.0416 2.04097 9.07966 1.84805 9.15399 1.66802C9.22832 1.488 9.33746 1.32442 9.47514 1.18666C9.61283 1.04891 9.77635 0.939688 9.95634 0.865268C10.1363 0.790849 10.3292 0.752694 10.524 0.75299C10.6059 0.753053 10.6877 0.759825 10.7685 0.77324L15.237 1.51799C15.642 1.58549 15.9945 1.80749 16.2308 2.14274C16.467 2.47874 16.557 2.88599 16.4858 3.27749L15.924 5.87624L15.216 4.99649V4.18124C15.216 4.08178 15.1765 3.9864 15.1062 3.91607C15.0358 3.84575 14.9405 3.80624 14.841 3.80624H9.1545C9.05504 3.80624 8.95966 3.84575 8.88933 3.91607C8.81901 3.9864 8.7795 4.08178 8.7795 4.18124V4.99724L8.04225 5.91599L7.53375 4.06124C7.461 3.71774 7.54575 3.36374 7.76625 3.09074ZM8.24775 8.47724V6.85874L9.44775 5.36399C9.50106 5.29735 9.53015 5.21458 9.53025 5.12924V4.55624H14.4667V5.12924C14.4667 5.2146 14.4958 5.29741 14.5492 5.36399L15.7485 6.85274V8.47649C15.7485 10.5442 14.0662 12.2265 11.9985 12.2265C9.93075 12.2265 8.24775 10.545 8.24775 8.47724ZM11.9977 12.9772C12.7147 12.9772 13.3905 12.8047 13.992 12.5055V13.8502L12 14.799L10.0035 13.848V12.5047C10.6058 12.804 11.2815 12.9772 11.9977 12.9772ZM9.23175 14.3115L11.3595 15.3247L9.76125 16.923L8.406 15.2287L9.23175 14.3115Z" fill="url(#paint0_linear_347_344)"/>
<path d="M7.1247 23.997C7.22416 23.997 7.31954 23.9575 7.38987 23.8872C7.46019 23.8168 7.4997 23.7215 7.4997 23.622V21.8655C7.50047 21.0921 7.21118 20.3465 6.68895 19.776L6.1212 19.1542C6.08796 19.1179 6.04788 19.0884 6.00324 19.0675C5.9586 19.0466 5.91029 19.0347 5.86105 19.0324C5.81181 19.0302 5.76261 19.0377 5.71627 19.0545C5.66993 19.0713 5.62734 19.097 5.59095 19.1302C5.55456 19.1635 5.52507 19.2036 5.50417 19.2482C5.48327 19.2928 5.47136 19.3412 5.46913 19.3904C5.46691 19.4396 5.4744 19.4888 5.49118 19.5352C5.50796 19.5815 5.53371 19.6241 5.56695 19.6605L6.1347 20.2822C6.53076 20.7143 6.75023 21.2793 6.7497 21.8655V23.622C6.7497 23.7215 6.78921 23.8168 6.85954 23.8872C6.92986 23.9575 7.02525 23.997 7.1247 23.997ZM17.8782 19.1542L17.3105 19.7767C16.7883 20.347 16.499 21.0923 16.4997 21.8655V23.622C16.4997 23.7215 16.5392 23.8168 16.6095 23.8872C16.6799 23.9575 16.7752 23.997 16.8747 23.997C16.9742 23.997 17.0695 23.9575 17.1399 23.8872C17.2102 23.8168 17.2497 23.7215 17.2497 23.622V21.8655C17.2497 21.2782 17.468 20.7157 17.864 20.2822L18.4317 19.6605C18.4649 19.6242 18.4907 19.5816 18.5075 19.5353C18.5243 19.489 18.5318 19.4399 18.5296 19.3907C18.5274 19.3415 18.5156 19.2932 18.4947 19.2486C18.4739 19.2039 18.4444 19.1639 18.4081 19.1306C18.3717 19.0974 18.3292 19.0716 18.2829 19.0548C18.2366 19.038 18.1875 19.0305 18.1382 19.0327C18.089 19.0349 18.0408 19.0468 17.9961 19.0676C17.9515 19.0885 17.9114 19.1179 17.8782 19.1542Z" fill="url(#paint1_linear_347_344)"/>
</g>
<defs>
<linearGradient id="paint0_linear_347_344" x1="12" y1="0.00323486" x2="12" y2="24.0042" gradientUnits="userSpaceOnUse">
<stop stop-color="#EF8E6F"/>
<stop offset="1" stop-color="#8C42C1"/>
</linearGradient>
<linearGradient id="paint1_linear_347_344" x1="11.9994" y1="19.032" x2="11.9994" y2="23.997" gradientUnits="userSpaceOnUse">
<stop stop-color="#EF8E6F"/>
<stop offset="1" stop-color="#8C42C1"/>
</linearGradient>
<clipPath id="clip0_347_344">
<rect width="24" height="24" fill="white"/>
</clipPath>
</defs>
</svg>
