<svg width="25" height="25" viewBox="0 0 25 25" fill="none" xmlns="http://www.w3.org/2000/svg">
<path d="M24.4535 4.71273L12.8256 0.0610229C12.6182 -0.020341 12.3877 -0.020341 12.1802 0.0610229L0.552326 4.71273C0.215116 4.84065 0 5.16627 0 5.52097V9.00975C0 9.49236 0.389535 9.88194 0.872093 9.88194H2.32558V19.7668H0.872093C0.389535 19.7668 0 20.1564 0 20.639V24.1278C0 24.6104 0.389535 25 0.872093 25H24.1279C24.6105 25 25 24.6104 25 24.1278V20.639C25 20.1564 24.6105 19.7668 24.1279 19.7668H22.6744V9.88194H24.1279C24.6105 9.88194 25 9.49236 25 9.00975V5.52097C25 5.16627 24.7849 4.84065 24.4535 4.71273ZM23.2558 21.5112V23.2556H1.74419V21.5112H23.2558ZM4.06977 19.7668V9.88194H6.97674V19.7668H4.06977ZM8.72093 19.7668V9.88194H11.6279V19.7668H8.72093ZM13.3721 19.7668V9.88194H16.2791V19.7668H13.3721ZM18.0233 19.7668V9.88194H20.9302V19.7668H18.0233ZM23.2558 8.13755H1.74419V6.11406L12.5 1.81123L23.2558 6.11406V8.13755Z" fill="white"/>
</svg>
