<svg width="50" height="50" viewBox="0 0 50 50" fill="none" xmlns="http://www.w3.org/2000/svg">
<circle cx="25" cy="25" r="25" fill="#5B17C9"/>
<g clip-path="url(#clip0_347_342)">
<path d="M9 31.2513C10.8516 30.5377 12.4115 31.0039 14.5781 31.6549C15.1432 31.8242 15.7578 32.0091 16.3125 32.1549C16.8073 32.2851 17.5677 32.0039 18.3646 31.7096C19.3594 31.3424 20.3958 30.9622 21.638 30.9935C22.5755 31.0169 23.3646 31.4466 24.1615 31.8815C24.6615 32.1549 25.1693 32.431 25.4505 32.4414C25.7734 32.4518 26.2526 32.1706 26.7318 31.8893C27.513 31.4284 28.2943 30.9674 29.3802 30.931C30.5469 30.8919 31.4505 31.293 32.3464 31.6914C32.8568 31.918 33.3646 32.1445 33.7891 32.1758C34.1901 32.207 34.7266 31.8633 35.2474 31.5325C35.9714 31.069 36.6823 30.6159 37.6172 30.5117C38.7292 30.3893 39.9427 30.9127 40.974 31.3555L41 31.3685C41 32.4232 41 33.4805 41 34.5351C40.7786 34.47 40.5495 34.3815 40.3125 34.2851C40.1484 34.2174 39.9792 34.1445 39.8073 34.0716C39.1016 33.7695 38.2708 33.4101 37.9401 33.4466C37.6745 33.4752 37.2552 33.7435 36.8281 34.0169C36.6719 34.1159 36.513 34.2174 36.3542 34.3164C35.5625 34.7982 34.7031 35.2096 33.5703 35.1237C32.6484 35.0534 31.8984 34.72 31.1458 34.3841L31.0807 34.3555C30.5182 34.1055 29.9531 33.8633 29.474 33.8789C29.1797 33.8893 28.7578 34.1263 28.3307 34.3763L28.2318 34.4336C27.3854 34.9336 26.5365 35.4336 25.3464 35.3893C24.375 35.3528 23.5573 34.9101 22.7526 34.47L22.651 34.4154C22.2031 34.1706 21.7734 33.9466 21.5677 33.9414C20.9375 33.9258 20.2109 34.1784 19.5052 34.4388L19.3828 34.4831C18.1484 34.9388 16.9714 35.3711 15.5755 35.0065C14.8255 34.8112 14.2578 34.6393 13.737 34.4831L13.7214 34.4778C11.8333 33.9101 10.6016 33.5456 9.125 34.5117C9.08594 34.5377 9.04427 34.5638 9.0026 34.5924V34.5117V31.2513H9ZM31.8932 18.444L35.5807 17.8841C37.875 17.5404 37.1849 13.4101 34.2448 14.0716L25.8828 15.4518C24.9766 15.6002 23.4219 15.7148 22.7448 16.319C22.3568 16.6654 22.1953 17.1471 22.2839 17.7487C22.4089 18.6002 23.1198 19.668 23.5469 20.4414L24.5807 22.3008C25.3333 23.6523 25.737 23.7825 24.3437 24.5299L14.8464 29.6237L15.5417 29.8294L17.6276 29.8607C17.8646 29.7825 18.112 29.6914 18.3646 29.5976C19.3594 29.2305 20.3958 28.8502 21.638 28.8815C22.5755 28.9049 23.3646 29.3346 24.1615 29.7695L24.5208 29.9622L26.3594 29.9909C26.4818 29.9232 26.6068 29.8502 26.7292 29.7773C27.5104 29.3164 28.2917 28.8555 29.3776 28.819C30.5443 28.7799 31.4479 29.181 32.3437 29.5794C32.8542 29.806 33.362 30.0325 33.7865 30.0638C33.8828 30.0716 33.987 30.056 34.0964 30.0273L29.2578 21.4232C28.8464 20.6914 28.1068 19.7669 28.2135 19.2096C28.25 19.0221 28.5 18.9466 28.8047 18.8997C29.8359 18.7513 30.862 18.6002 31.8932 18.444ZM35.8776 20.3607C37.901 20.3607 39.5417 22.0013 39.5417 24.0247C39.5417 26.0482 37.901 27.6888 35.8776 27.6888C33.8542 27.6888 32.2135 26.0482 32.2135 24.0247C32.2161 21.9987 33.8542 20.3607 35.8776 20.3607Z" fill="white"/>
</g>
<defs>
<clipPath id="clip0_347_342">
<rect width="32" height="32" fill="white" transform="translate(8 9)"/>
</clipPath>
</defs>
</svg>
