<svg width="31" height="55" viewBox="0 0 31 55" fill="none" xmlns="http://www.w3.org/2000/svg">
<path d="M30.0876 15.5019C30.0876 7.44506 23.5562 0.913574 15.4994 0.913574C7.44251 0.913574 0.911133 7.44506 0.911133 15.5019V39.2078C0.911133 47.2647 7.44251 53.796 15.4994 53.796C23.5562 53.796 30.0876 47.2647 30.0876 39.2078V15.5019Z" fill="#22A8E1"/>
<path d="M30.0876 15.5019C30.0876 7.44506 23.5562 0.913574 15.4994 0.913574C7.44251 0.913574 0.911133 7.44506 0.911133 15.5019V39.2078C0.911133 47.2647 7.44251 53.796 15.4994 53.796C23.5562 53.796 30.0876 47.2647 30.0876 39.2078V15.5019Z" stroke="#0C5286" stroke-linecap="round" stroke-linejoin="round"/>
<path d="M19.1467 15.5019C19.1467 13.4877 17.5138 11.8549 15.4996 11.8549C13.4854 11.8549 11.8525 13.4877 11.8525 15.5019V39.2078C11.8525 41.222 13.4854 42.8549 15.4996 42.8549C17.5138 42.8549 19.1467 41.222 19.1467 39.2078V15.5019Z" fill="#262948" stroke="#0C5286" stroke-linecap="round" stroke-linejoin="round"/>
<path d="M15.5 0C6.92941 0 0 6.9293 0 15.4999V39.2058C0 47.7764 6.92941 54.7058 15.5 54.7058C24.0706 54.7058 31 47.7764 31 39.2058V15.4999C31 6.9293 24.0706 0 15.5 0ZM15.5 1.82353C23.0932 1.82353 29.1765 7.90854 29.1765 15.4999V39.2058C29.1765 46.7989 23.0932 52.8822 15.5 52.8822C13.7022 52.8887 11.9208 52.5395 10.2586 51.8545C8.59631 51.1695 7.08604 50.1623 5.81476 48.891C4.54349 47.6198 3.53634 46.1095 2.85133 44.4473C2.16633 42.7851 1.81702 41.0036 1.82353 39.2058V15.4999C1.82353 7.90854 7.90682 1.82353 15.5 1.82353Z" fill="#262948"/>
<path d="M19.1467 15.5019C19.1467 13.4877 17.5138 11.8549 15.4996 11.8549C13.4854 11.8549 11.8525 13.4877 11.8525 15.5019V39.2078C11.8525 41.222 13.4854 42.8549 15.4996 42.8549C17.5138 42.8549 19.1467 41.222 19.1467 39.2078V15.5019Z" stroke="#0C5286" stroke-linecap="round" stroke-linejoin="round"/>
<path d="M15.5001 5.47058C14.183 5.47034 12.8787 5.7296 11.6617 6.23354C10.4448 6.73748 9.33908 7.47619 8.40772 8.40755C7.47635 9.33891 6.7376 10.4447 6.23366 11.6616C5.72972 12.8785 5.47046 14.1827 5.4707 15.4999V39.2058C5.4707 44.7475 9.96023 49.2352 15.5001 49.2352C21.04 49.2352 25.5295 44.7475 25.5295 39.2058V15.4999C25.5295 9.96 21.04 5.47058 15.5001 5.47058ZM15.5001 7.29411C16.5791 7.28928 17.6483 7.49814 18.6461 7.90882C19.6438 8.31949 20.5504 8.92376 21.3133 9.68671C22.0763 10.4497 22.6805 11.3561 23.0912 12.3539C23.5019 13.3517 23.7108 14.4209 23.706 15.4999V39.2058C23.7108 40.2847 23.5019 41.354 23.0912 42.3517C22.6805 43.3495 22.0763 44.256 21.3133 45.0189C20.5504 45.7819 19.6438 46.3862 18.6461 46.7968C17.6483 47.2075 16.5791 47.4165 15.5001 47.4116C14.4212 47.4165 13.3519 47.2075 12.3542 46.7968C11.3564 46.3862 10.4499 45.7819 9.68692 45.0189C8.92397 44.256 8.31971 43.3495 7.90903 42.3517C7.49836 41.354 7.28941 40.2847 7.29423 39.2058V15.4999C7.28941 14.4209 7.49836 13.3517 7.90903 12.3539C8.31971 11.3561 8.92397 10.4497 9.68692 9.68671C10.4499 8.92376 11.3564 8.31949 12.3542 7.90882C13.3519 7.49814 14.4212 7.28928 15.5001 7.29411Z" fill="#262948"/>
<path fill-rule="evenodd" clip-rule="evenodd" d="M6.92957 30.9999V32.8234H11.306V30.9999H6.92957ZM1.45898 32.8234V34.6469H5.83545V32.8234H1.45898Z" fill="#0C5286"/>
</svg>
