<svg width="32" height="32" viewBox="0 0 32 32" fill="none" xmlns="http://www.w3.org/2000/svg">
<rect x="1.07288" y="0.927475" width="30" height="30" rx="2" transform="rotate(0.277703 1.07288 0.927475)" fill="#D9D9D9"/>
<g clip-path="url(#clip0_3_23)">
<path d="M13.286 8.57009L13.2662 12.6534L9.14898 19.6335L9.14049 21.3835L20.807 21.44L20.8155 19.69L16.7661 12.6703L16.7859 8.58706M18.502 15.5955C14.4272 13.8257 14.9907 17.9118 11.4992 16.1449M11.536 8.56161L18.5359 8.59554M16.7379 18.5036C16.8926 18.5044 17.0413 18.4436 17.1512 18.3348C17.2611 18.2259 17.3233 18.0778 17.324 17.9231C17.3248 17.7684 17.264 17.6197 17.1552 17.5098C17.0463 17.3999 16.8982 17.3377 16.7435 17.337C16.5888 17.3362 16.4402 17.3969 16.3302 17.5058C16.2203 17.6147 16.1581 17.7627 16.1574 17.9175C16.1566 18.0722 16.2174 18.2208 16.3262 18.3308C16.4351 18.4407 16.5832 18.5029 16.7379 18.5036ZM13.2323 19.6533C13.387 19.654 13.5356 19.5933 13.6456 19.4844C13.7555 19.3756 13.8177 19.2275 13.8184 19.0728C13.8192 18.9181 13.7584 18.7694 13.6496 18.6595C13.5407 18.5496 13.3926 18.4874 13.2379 18.4866C13.0832 18.4859 12.9345 18.5466 12.8246 18.6555C12.7147 18.7644 12.6525 18.9124 12.6518 19.0671C12.651 19.2218 12.7118 19.3705 12.8206 19.4804C12.9295 19.5904 13.0776 19.6525 13.2323 19.6533Z" stroke="#111111" stroke-width="1.16667"/>
</g>
<defs>
<clipPath id="clip0_3_23">
<rect width="14" height="14" fill="white" transform="translate(8.03887 7.96132) rotate(0.277703)"/>
</clipPath>
</defs>
</svg>
