<svg width="14" height="14" viewBox="0 0 14 14" fill="none" xmlns="http://www.w3.org/2000/svg">
<path d="M4.08335 5.83341C3.96798 5.83341 3.8552 5.86763 3.75927 5.93172C3.66334 5.99582 3.58857 6.08693 3.54442 6.19352C3.50027 6.30011 3.48872 6.4174 3.51123 6.53055C3.53374 6.64371 3.58929 6.74765 3.67087 6.82923C3.75246 6.91081 3.8564 6.96636 3.96955 6.98887C4.08271 7.01138 4.2 6.99983 4.30659 6.95568C4.41318 6.91153 4.50428 6.83676 4.56838 6.74083C4.63247 6.6449 4.66669 6.53212 4.66669 6.41675C4.66669 6.26204 4.60523 6.11367 4.49583 6.00427C4.38644 5.89487 4.23806 5.83341 4.08335 5.83341ZM11.0834 3.50008H10.5V1.75008C10.5 1.59537 10.4386 1.447 10.3292 1.3376C10.2198 1.22821 10.0714 1.16675 9.91669 1.16675H4.08335C3.92864 1.16675 3.78027 1.22821 3.67087 1.3376C3.56148 1.447 3.50002 1.59537 3.50002 1.75008V3.50008H2.91669C2.45256 3.50008 2.00744 3.68446 1.67925 4.01264C1.35106 4.34083 1.16669 4.78595 1.16669 5.25008V8.75008C1.16669 9.21421 1.35106 9.65933 1.67925 9.98752C2.00744 10.3157 2.45256 10.5001 2.91669 10.5001H3.50002V12.2501C3.50002 12.4048 3.56148 12.5532 3.67087 12.6626C3.78027 12.772 3.92864 12.8334 4.08335 12.8334H9.91669C10.0714 12.8334 10.2198 12.772 10.3292 12.6626C10.4386 12.5532 10.5 12.4048 10.5 12.2501V10.5001H11.0834C11.5475 10.5001 11.9926 10.3157 12.3208 9.98752C12.649 9.65933 12.8334 9.21421 12.8334 8.75008V5.25008C12.8334 4.78595 12.649 4.34083 12.3208 4.01264C11.9926 3.68446 11.5475 3.50008 11.0834 3.50008ZM4.66669 2.33341H9.33335V3.50008H4.66669V2.33341ZM9.33335 11.6667H4.66669V9.33341H9.33335V11.6667ZM11.6667 8.75008C11.6667 8.90479 11.6052 9.05316 11.4958 9.16256C11.3864 9.27196 11.2381 9.33341 11.0834 9.33341H10.5V8.75008C10.5 8.59537 10.4386 8.447 10.3292 8.3376C10.2198 8.22821 10.0714 8.16675 9.91669 8.16675H4.08335C3.92864 8.16675 3.78027 8.22821 3.67087 8.3376C3.56148 8.447 3.50002 8.59537 3.50002 8.75008V9.33341H2.91669C2.76198 9.33341 2.6136 9.27196 2.50421 9.16256C2.39481 9.05316 2.33335 8.90479 2.33335 8.75008V5.25008C2.33335 5.09537 2.39481 4.947 2.50421 4.8376C2.6136 4.72821 2.76198 4.66675 2.91669 4.66675H11.0834C11.2381 4.66675 11.3864 4.72821 11.4958 4.8376C11.6052 4.947 11.6667 5.09537 11.6667 5.25008V8.75008Z" fill="#111111"/>
</svg>
