<svg width="19" height="19" viewBox="0 0 19 19" fill="none" xmlns="http://www.w3.org/2000/svg">
<path d="M15.4375 6.33332C16.9654 6.33332 18.2083 5.09041 18.2083 3.56249C18.2083 2.03457 16.9654 0.791656 15.4375 0.791656C13.9096 0.791656 12.6667 2.03457 12.6667 3.56249C12.6667 5.09041 13.9096 6.33332 15.4375 6.33332ZM16.625 12.6667V7.75041C16.2292 7.86124 15.8333 7.91666 15.4375 7.91666H15.0417V12.6667C15.0417 13.9808 13.9808 15.0417 12.6667 15.0417H6.33333C5.01917 15.0417 3.95833 13.9808 3.95833 12.6667V6.33332C3.95833 5.01916 5.01917 3.95832 6.33333 3.95832H11.0833V3.56249C11.0833 3.16666 11.1387 2.77082 11.2496 2.37499H6.33333C4.14833 2.37499 2.375 4.14832 2.375 6.33332V12.6667C2.375 14.8517 4.14833 16.625 6.33333 16.625H12.6667C14.8517 16.625 16.625 14.8517 16.625 12.6667Z" fill="#4CDB06"/>
</svg>
