<svg width="14" height="14" viewBox="0 0 14 14" fill="none" xmlns="http://www.w3.org/2000/svg">
<path d="M2.91669 6.99992C2.91669 6.99992 4.40127 4.08325 7.00002 4.08325C9.59819 4.08325 11.0834 6.99992 11.0834 6.99992C11.0834 6.99992 9.59819 9.91659 7.00002 9.91659C4.40127 9.91659 2.91669 6.99992 2.91669 6.99992Z" stroke="#111111" stroke-width="1.16667" stroke-linecap="round" stroke-linejoin="round"/>
<path d="M12.25 9.91667V11.0833C12.25 11.3928 12.1271 11.6895 11.9083 11.9083C11.6895 12.1271 11.3928 12.25 11.0833 12.25H2.91667C2.60725 12.25 2.3105 12.1271 2.09171 11.9083C1.87292 11.6895 1.75 11.3928 1.75 11.0833V9.91667M12.25 4.08333V2.91667C12.25 2.60725 12.1271 2.3105 11.9083 2.09171C11.6895 1.87292 11.3928 1.75 11.0833 1.75H2.91667C2.60725 1.75 2.3105 1.87292 2.09171 2.09171C1.87292 2.3105 1.75 2.60725 1.75 2.91667V4.08333M7 7.58333C7.15471 7.58333 7.30308 7.52187 7.41248 7.41248C7.52187 7.30308 7.58333 7.15471 7.58333 7C7.58333 6.84529 7.52187 6.69692 7.41248 6.58752C7.30308 6.47812 7.15471 6.41667 7 6.41667C6.84529 6.41667 6.69692 6.47812 6.58752 6.58752C6.47812 6.69692 6.41667 6.84529 6.41667 7C6.41667 7.15471 6.47812 7.30308 6.58752 7.41248C6.69692 7.52187 6.84529 7.58333 7 7.58333Z" stroke="#111111" stroke-width="1.16667" stroke-linecap="round" stroke-linejoin="round"/>
</svg>
