<svg width="21" height="21" viewBox="0 0 21 21" fill="none" xmlns="http://www.w3.org/2000/svg">
<path d="M2.32769 15.3439C1.14776 13.3531 0.73503 11.0002 1.16699 8.7267C1.59896 6.45324 2.84591 4.41562 4.67374 2.99638C6.50158 1.57713 8.7846 0.873869 11.0942 1.01861C13.4038 1.16336 15.5812 2.14615 17.2175 3.78249C18.8538 5.41884 19.8366 7.59619 19.9814 9.9058C20.1261 12.2154 19.4229 14.4984 18.0036 16.3263C16.5844 18.1541 14.5468 19.401 12.2733 19.833C9.99984 20.265 7.64688 19.8522 5.65615 18.6723L2.36731 19.6035C2.23257 19.6429 2.0897 19.6453 1.95369 19.6105C1.81768 19.5758 1.69353 19.505 1.59426 19.4057C1.49499 19.3065 1.42425 19.1823 1.38946 19.0463C1.35467 18.9103 1.3571 18.7674 1.39651 18.6327L2.32769 15.3439Z" stroke="white" stroke-width="1.66727" stroke-linecap="round" stroke-linejoin="round"/>
</svg>
