<svg width="24" height="22" viewBox="0 0 24 22" fill="none" xmlns="http://www.w3.org/2000/svg">
<path d="M6.8893 10L11.1406 1C11.9862 1 12.7972 1.31607 13.3952 1.87868C13.9931 2.44129 14.329 3.20435 14.329 4V8H20.3446C20.6527 7.99672 20.9579 8.0565 21.239 8.17522C21.5202 8.29393 21.7705 8.46873 21.9727 8.68751C22.1749 8.90629 22.3241 9.16382 22.41 9.44225C22.4959 9.72068 22.5165 10.0134 22.4702 10.3L21.0036 19.3C20.9267 19.7769 20.6692 20.2116 20.2786 20.524C19.888 20.8364 19.3905 21.0055 18.8779 21H6.8893M6.8893 10V21M6.8893 10H3.70084C3.13708 10 2.59642 10.2107 2.19778 10.5858C1.79915 10.9609 1.5752 11.4696 1.5752 12V19C1.5752 19.5304 1.79915 20.0391 2.19778 20.4142C2.59642 20.7893 3.13708 21 3.70084 21H6.8893" stroke="white" stroke-width="1.67" stroke-linecap="round" stroke-linejoin="round"/>
</svg>
