<svg width="23" height="21" viewBox="0 0 23 21" fill="none" xmlns="http://www.w3.org/2000/svg">
<path d="M18.8018 2.94512L2.55064 7.25177C2.41231 7.28735 2.28899 7.3622 2.19749 7.46611C2.106 7.57002 2.05077 7.69794 2.03933 7.83245C2.02789 7.96696 2.06081 8.10152 2.13358 8.21779C2.20636 8.33407 2.31546 8.42641 2.44602 8.48223L9.90902 11.8045C10.0552 11.8682 10.1726 11.9787 10.2403 12.1162L13.7713 19.1381C13.8306 19.2609 13.9288 19.3636 14.0523 19.4321C14.1759 19.5005 14.3189 19.5315 14.4619 19.5207C14.6049 19.51 14.7408 19.458 14.8512 19.3719C14.9617 19.2858 15.0412 19.1698 15.0791 19.0397L19.6562 3.74903C19.6909 3.63745 19.6931 3.51914 19.6625 3.40652C19.6318 3.29389 19.5696 3.19108 19.4822 3.10888C19.3948 3.02667 19.2856 2.96809 19.1659 2.93928C19.0462 2.91047 18.9204 2.91249 18.8018 2.94512V2.94512Z" stroke="white" stroke-width="1.66727" stroke-linecap="round" stroke-linejoin="round"/>
<path d="M10.1357 11.9025L14.0765 8.1947" stroke="white" stroke-width="1.66727" stroke-linecap="round" stroke-linejoin="round"/>
</svg>
