<svg width="13" height="13" viewBox="0 0 13 13" fill="none" xmlns="http://www.w3.org/2000/svg">
<path d="M10.2916 12.6208L9.96663 12.35C8.88329 11.3208 8.12496 10.6708 8.12496 9.85831C8.12496 9.20831 8.66663 8.66665 9.31663 8.66665C9.69579 8.66665 10.075 8.82915 10.2916 9.09998C10.5083 8.82915 10.8875 8.66665 11.2666 8.66665C11.9166 8.66665 12.4583 9.15415 12.4583 9.85831C12.4583 10.6708 11.7 11.3208 10.6166 12.35L10.2916 12.6208ZM9.74996 1.08331C10.3458 1.08331 10.8333 1.57081 10.8333 2.16665V7.08498L10.2916 7.04165L9.74996 7.08498V2.16665H7.04163V6.49998L5.68746 5.28123L4.33329 6.49998V2.16665H3.24996V10.8333H7.08496C7.14996 11.2233 7.28538 11.5862 7.47496 11.9166H3.24996C2.65413 11.9166 2.16663 11.4291 2.16663 10.8333V2.16665C2.16663 1.57081 2.65413 1.08331 3.24996 1.08331H9.74996Z" fill="#111111"/>
</svg>
