<svg width="14" height="14" viewBox="0 0 14 14" fill="none" xmlns="http://www.w3.org/2000/svg">
<path d="M1.75 11.8358V2.91667C1.75 2.60725 1.87292 2.3105 2.09171 2.09171C2.3105 1.87292 2.60725 1.75 2.91667 1.75H11.0833C11.3928 1.75 11.6895 1.87292 11.9083 2.09171C12.1271 2.3105 12.25 2.60725 12.25 2.91667V8.75C12.25 9.05942 12.1271 9.35616 11.9083 9.57496C11.6895 9.79375 11.3928 9.91667 11.0833 9.91667H4.64392C4.46905 9.91669 4.29643 9.95602 4.13882 10.0317C3.9812 10.1075 3.84262 10.2177 3.73333 10.3542L2.37358 12.054C2.32833 12.1107 2.26658 12.152 2.19686 12.172C2.12714 12.1921 2.0529 12.19 1.98442 12.1661C1.91594 12.1421 1.85659 12.0975 1.8146 12.0383C1.7726 11.9791 1.75003 11.9084 1.75 11.8358Z" stroke="#111111" stroke-width="0.875"/>
</svg>
