<svg width="12" height="12" viewBox="0 0 12 12" fill="none" xmlns="http://www.w3.org/2000/svg">
<g clip-path="url(#clip0_187_7253)">
<path fill-rule="evenodd" clip-rule="evenodd" d="M8 4.5C8 5.03043 7.78929 5.53914 7.41421 5.91421C7.03914 6.28929 6.53043 6.5 6 6.5C5.46957 6.5 4.96086 6.28929 4.58579 5.91421C4.21071 5.53914 4 5.03043 4 4.5C4 3.96957 4.21071 3.46086 4.58579 3.08579C4.96086 2.71071 5.46957 2.5 6 2.5C6.53043 2.5 7.03914 2.71071 7.41421 3.08579C7.78929 3.46086 8 3.96957 8 4.5ZM7 4.5C7 4.76522 6.89464 5.01957 6.70711 5.20711C6.51957 5.39464 6.26522 5.5 6 5.5C5.73478 5.5 5.48043 5.39464 5.29289 5.20711C5.10536 5.01957 5 4.76522 5 4.5C5 4.23478 5.10536 3.98043 5.29289 3.79289C5.48043 3.60536 5.73478 3.5 6 3.5C6.26522 3.5 6.51957 3.60536 6.70711 3.79289C6.89464 3.98043 7 4.23478 7 4.5Z" fill="#111111"/>
<path fill-rule="evenodd" clip-rule="evenodd" d="M6 0.5C2.9625 0.5 0.5 2.9625 0.5 6C0.5 9.0375 2.9625 11.5 6 11.5C9.0375 11.5 11.5 9.0375 11.5 6C11.5 2.9625 9.0375 0.5 6 0.5ZM1.5 6C1.5 7.045 1.8565 8.007 2.454 8.771C2.87362 8.21995 3.41495 7.77337 4.03572 7.46616C4.65648 7.15894 5.33987 6.9994 6.0325 7C6.71616 6.99935 7.39096 7.15476 8.00547 7.45439C8.61997 7.75402 9.15798 8.18996 9.5785 8.729C10.0117 8.1608 10.3034 7.49761 10.4294 6.79429C10.5555 6.09098 10.5122 5.36777 10.3032 4.68449C10.0943 4.00122 9.72561 3.37752 9.22774 2.86502C8.72988 2.35251 8.11713 1.96593 7.44019 1.73725C6.76326 1.50858 6.0416 1.44439 5.33493 1.54999C4.62826 1.65559 3.9569 1.92795 3.37638 2.34453C2.79587 2.76111 2.32291 3.30994 1.99661 3.9456C1.67032 4.58126 1.50009 5.28548 1.5 6ZM6 10.5C4.96697 10.5016 3.96513 10.1462 3.164 9.494C3.48646 9.03237 3.91567 8.65546 4.4151 8.39534C4.91452 8.13523 5.46939 7.9996 6.0325 8C6.58858 7.99955 7.13674 8.13179 7.63146 8.38571C8.12618 8.63964 8.55318 9.00793 8.877 9.46C8.06965 10.1334 7.05129 10.5015 6 10.5Z" fill="#111111"/>
</g>
<defs>
<clipPath id="clip0_187_7253">
<rect width="12" height="12" fill="white"/>
</clipPath>
</defs>
</svg>
