<svg width="14" height="14" viewBox="0 0 14 14" fill="none" xmlns="http://www.w3.org/2000/svg">
<path d="M7.58337 4.25002H10.7917L7.58337 1.04169V4.25002ZM3.50004 0.166687H8.16671L11.6667 3.66669V10.6667C11.6667 10.9761 11.5438 11.2729 11.325 11.4916C11.1062 11.7104 10.8095 11.8334 10.5 11.8334H3.50004C3.19062 11.8334 2.89388 11.7104 2.67508 11.4916C2.45629 11.2729 2.33337 10.9761 2.33337 10.6667V1.33335C2.33337 0.685854 2.85254 0.166687 3.50004 0.166687ZM4.08337 10.6667H5.25004V7.16669H4.08337V10.6667ZM6.41671 10.6667H7.58337V6.00002H6.41671V10.6667ZM8.75004 10.6667H9.91671V8.33335H8.75004V10.6667Z" fill="#111111"/>
</svg>
