<svg width="10" height="10" viewBox="0 0 10 10" fill="none" xmlns="http://www.w3.org/2000/svg">
<g clip-path="url(#clip0_187_7257)">
<path d="M4.375 2.5V3.125H2.5V2.5H4.375ZM2.5 4.375V3.75H4.375V4.375H2.5ZM2.5 5.625V5H3.75V5.625H2.5ZM1.875 2.5V3.125H1.25V2.5H1.875ZM1.875 3.75V4.375H1.25V3.75H1.875ZM1.25 5.625V5H1.875V5.625H1.25ZM0.625 0.625V9.375H3.75V10H0V0H5.44434L8.125 2.68066V3.75H7.5V3.125H5V0.625H0.625ZM5.625 1.06934V2.5H7.05566L5.625 1.06934ZM8.75 5H10V10H4.375V5H5.625V4.375H6.25V5H8.125V4.375H8.75V5ZM9.375 9.375V6.875H5V9.375H9.375ZM9.375 6.25V5.625H5V6.25H9.375Z" fill="#111111"/>
</g>
<defs>
<clipPath id="clip0_187_7257">
<rect width="10" height="10" fill="white"/>
</clipPath>
</defs>
</svg>
