<svg width="32" height="32" viewBox="0 0 32 32" fill="none" xmlns="http://www.w3.org/2000/svg">
<rect width="32" height="32" rx="5" fill="white" fill-opacity="0.2"/>
<path d="M22.8885 13.5011L22.5525 23.7386C22.5239 24.6154 22.1569 25.4464 21.5295 26.0553C20.9021 26.6642 20.0636 27.0031 19.192 27H12.8071C11.9361 27.0031 11.0981 26.6647 10.4708 26.0565C9.8435 25.4483 9.47616 24.6181 9.44668 23.742L9.11063 13.5011C9.10328 13.2769 9.18474 13.0589 9.33709 12.8951C9.48945 12.7312 9.70021 12.6351 9.92302 12.6277C10.1458 12.6203 10.3624 12.7023 10.5252 12.8556C10.6879 13.0089 10.7835 13.2211 10.7909 13.4453L11.1269 23.6853C11.1436 24.1224 11.328 24.5361 11.6413 24.8393C11.9546 25.1425 12.3725 25.3117 12.8071 25.3114H19.192C19.6272 25.3116 20.0456 25.142 20.359 24.838C20.6724 24.5341 20.8564 24.1197 20.8722 23.6819L21.2083 13.4453C21.2156 13.2211 21.3112 13.0089 21.474 12.8556C21.6367 12.7023 21.8533 12.6203 22.0761 12.6277C22.2989 12.6351 22.5097 12.7312 22.6621 12.8951C22.8144 13.0589 22.8959 13.2769 22.8885 13.5011ZM24 10.0943C24 10.3186 23.9115 10.5336 23.7539 10.6922C23.5964 10.8508 23.3827 10.9399 23.1599 10.9399H8.84012C8.6173 10.9399 8.40362 10.8508 8.24606 10.6922C8.08851 10.5336 8 10.3186 8 10.0943C8 9.87004 8.08851 9.65497 8.24606 9.49639C8.40362 9.33781 8.6173 9.24873 8.84012 9.24873H11.4445C11.7107 9.24945 11.9676 9.15046 12.1653 8.97103C12.363 8.79161 12.4872 8.54457 12.5139 8.278C12.5759 7.65268 12.867 7.07299 13.3304 6.65187C13.7939 6.23075 14.3965 5.99837 15.0208 6.00001H16.9783C17.6027 5.99837 18.2053 6.23075 18.6687 6.65187C19.1322 7.07299 19.4232 7.65268 19.4852 8.278C19.5119 8.54457 19.6362 8.79161 19.8339 8.97103C20.0316 9.15046 20.2885 9.24945 20.5547 9.24873H23.159C23.3819 9.24873 23.5955 9.33781 23.7531 9.49639C23.9106 9.65497 23.9992 9.87004 23.9992 10.0943H24ZM13.9724 9.24873H18.0285C17.9181 8.99483 17.8459 8.72581 17.8142 8.4505C17.7934 8.24207 17.6965 8.04884 17.5422 7.90824C17.3879 7.76764 17.1873 7.68968 16.9792 7.68948H15.0217C14.8136 7.68968 14.6129 7.76764 14.4586 7.90824C14.3044 8.04884 14.2074 8.24207 14.1866 8.4505C14.1547 8.72585 14.0831 8.99488 13.9724 9.24873ZM14.8184 22.0601V14.86C14.8184 14.6357 14.7299 14.4207 14.5723 14.2621C14.4148 14.1035 14.2011 14.0144 13.9783 14.0144C13.7554 14.0144 13.5418 14.1035 13.3842 14.2621C13.2267 14.4207 13.1381 14.6357 13.1381 14.86V22.0635C13.1381 22.2877 13.2267 22.5028 13.3842 22.6614C13.5418 22.82 13.7554 22.9091 13.9783 22.9091C14.2011 22.9091 14.4148 22.82 14.5723 22.6614C14.7299 22.5028 14.8184 22.2877 14.8184 22.0635V22.0601ZM18.8627 22.0601V14.86C18.8627 14.6357 18.7742 14.4207 18.6166 14.2621C18.4591 14.1035 18.2454 14.0144 18.0226 14.0144C17.7998 14.0144 17.5861 14.1035 17.4285 14.2621C17.271 14.4207 17.1825 14.6357 17.1825 14.86V22.0635C17.1825 22.2877 17.271 22.5028 17.4285 22.6614C17.5861 22.82 17.7998 22.9091 18.0226 22.9091C18.2454 22.9091 18.4591 22.82 18.6166 22.6614C18.7742 22.5028 18.8627 22.2877 18.8627 22.0635V22.0601Z" fill="white"/>
</svg>
