<svg width="32" height="32" viewBox="0 0 32 32" fill="none" xmlns="http://www.w3.org/2000/svg">
<rect width="32" height="32" rx="5" fill="white" fill-opacity="0.2"/>
<path d="M18.4831 15.8965C18.4831 17.5748 17.2502 18.931 15.7244 18.931C14.1987 18.931 12.9658 17.5748 12.9658 15.8965C12.9658 14.2183 14.1987 12.8621 15.7244 12.8621C17.2502 12.8621 18.4831 14.2183 18.4831 15.8965Z" stroke="white" stroke-width="1.5" stroke-linecap="round" stroke-linejoin="round"/>
<path d="M16 22.7931C18.8861 22.7931 21.5759 21.0596 23.4481 18.0593C24.184 16.8842 24.184 14.9089 23.4481 13.7338C21.5759 10.7335 18.8861 9 16 9C13.114 9 10.4241 10.7335 8.55187 13.7338C7.81604 14.9089 7.81604 16.8842 8.55187 18.0593C10.4241 21.0596 13.114 22.7931 16 22.7931Z" stroke="white" stroke-width="1.5" stroke-linecap="round" stroke-linejoin="round"/>
</svg>
