<svg width="15" height="19" viewBox="0 0 15 19" fill="none" xmlns="http://www.w3.org/2000/svg">
<path d="M7.5 8.86364C7.95312 8.86364 8.33984 8.70833 8.66016 8.39773C8.98047 8.08712 9.14062 7.71212 9.14062 7.27273C9.14062 6.83333 8.98047 6.45833 8.66016 6.14773C8.33984 5.83712 7.95312 5.68182 7.5 5.68182C7.04688 5.68182 6.66016 5.83712 6.33984 6.14773C6.01953 6.45833 5.85938 6.83333 5.85938 7.27273C5.85938 7.71212 6.01953 8.08712 6.33984 8.39773C6.66016 8.70833 7.04688 8.86364 7.5 8.86364ZM7.5 16.3864C9.57812 14.553 11.1133 12.8902 12.1055 11.3977C13.0977 9.9053 13.5938 8.59091 13.5938 7.45455C13.5938 5.66667 13.0039 4.20455 11.8242 3.06818C10.6445 1.93182 9.20312 1.36364 7.5 1.36364C5.79688 1.36364 4.35547 1.93182 3.17578 3.06818C1.99609 4.20455 1.40625 5.66667 1.40625 7.45455C1.40625 8.59091 1.91406 9.9053 2.92969 11.3977C3.94531 12.8902 5.46875 14.553 7.5 16.3864ZM7.5 18.1818C4.98438 16.1061 3.10547 14.178 1.86328 12.3977C0.621094 10.6174 0 8.9697 0 7.45455C0 5.18182 0.753906 3.37121 2.26172 2.02273C3.76953 0.674242 5.51563 0 7.5 0C9.48438 0 11.2305 0.674242 12.7383 2.02273C14.2461 3.37121 15 5.18182 15 7.45455C15 8.9697 14.3789 10.6174 13.1367 12.3977C11.8945 14.178 10.0156 16.1061 7.5 18.1818Z" fill="#FF9960"/>
</svg>
