<svg width="50" height="50" viewBox="0 0 50 50" fill="none" xmlns="http://www.w3.org/2000/svg">
<circle cx="25" cy="25" r="25" fill="#EA3370"/>
<g clip-path="url(#clip0_1027_948)">
<path d="M22.9072 15.7821C24.3421 15.7821 25.4934 14.5955 25.4934 13.1338C25.4934 11.6714 24.3421 10.4848 22.9072 10.4848C21.4832 10.4848 20.3203 11.6714 20.3203 13.1338C20.3203 14.5955 21.4832 15.7821 22.9072 15.7821ZM23.64 16.68H15.96C14.68 16.68 14.68 18.6 15.96 18.6H23.64C24.92 18.6 24.92 16.68 23.64 16.68ZM35.8 17.4826C35.8 14.5469 34.7728 11.7424 32.9008 9.53248C32.9091 9.5248 32.4285 9 32.4285 9L25.1453 16.4547L25.0211 16.5776L25.0902 16.671C25.2022 16.8752 25.2643 17.1024 25.2899 17.329C25.2976 17.4224 25.2899 17.519 25.279 17.6157C25.265 17.8128 25.2278 18.0061 25.1453 18.1891L25.1376 18.2077L25.0909 18.319L25.0435 18.4125C24.7235 18.9155 24.1757 19.24 23.5101 19.24H19.16V29.48L17.7603 39.2291C17.6074 40.0323 18.2192 40.8138 19.0038 40.9699C19.7885 41.1344 20.92 40.5315 21.08 39.72L22.36 28.84H23L25.1696 39.8019C25.3296 40.6134 26.4509 41.1344 27.2426 40.9699C28.0208 40.8138 28.4547 40.0323 28.3018 39.2291L26.2 28.8202V20.1085L32.1686 25.9549C32.1686 25.9549 32.7786 25.4269 32.7786 25.4198C34.6416 23.2118 35.8 20.4067 35.8 17.4826ZM34.481 18.6C34.2672 20.52 33.1485 22.8419 31.7462 24.5405C30.4502 23.2176 27.48 20.7261 26.2 19.0934V18.6H34.481ZM34.481 16.68H26.1373C27.6701 14.76 30.536 12.1789 32.0048 10.68C33.4134 12.376 34.2749 14.12 34.481 16.68Z" fill="white"/>
</g>
<defs>
<clipPath id="clip0_1027_948">
<rect width="32" height="32" fill="white" transform="translate(9 9)"/>
</clipPath>
</defs>
</svg>
