<svg width="53" height="53" viewBox="0 0 53 53" fill="none" xmlns="http://www.w3.org/2000/svg">
<path d="M13.25 14.0781C15.5368 14.0781 17.3906 12.9658 17.3906 11.5938C17.3906 10.2217 15.5368 9.10938 13.25 9.10938C10.9632 9.10938 9.10938 10.2217 9.10938 11.5938C9.10938 12.9658 10.9632 14.0781 13.25 14.0781Z" fill="#FFCDB0"/>
<path d="M13.25 36.4375C15.5368 36.4375 17.3906 35.3252 17.3906 33.9531C17.3906 32.581 15.5368 31.4688 13.25 31.4688C10.9632 31.4688 9.10938 32.581 9.10938 33.9531C9.10938 35.3252 10.9632 36.4375 13.25 36.4375Z" fill="#FFCDB0"/>
<path d="M27.3281 11.5938C27.3281 11.3741 27.2409 11.1635 27.0856 11.0082C26.9303 10.8529 26.7196 10.7656 26.5 10.7656H22.3594C22.1397 10.7656 21.9291 10.8529 21.7738 11.0082C21.6185 11.1635 21.5312 11.3741 21.5312 11.5938V14.0781H27.3281V11.5938Z" fill="#FFCDB0"/>
<path d="M4.96875 4.14062H3.3125V43.0625H4.96875V4.14062Z" fill="#D3D3D3"/>
<path d="M46.375 48.0312H43.8906V49.6875H46.375V48.0312Z" fill="#D3D3D3"/>
<path d="M9.10938 48.0312H6.625V49.6875H9.10938V48.0312Z" fill="#D3D3D3"/>
<path d="M49.6875 44.7188H3.3125V46.375H49.6875V44.7188Z" fill="#D3D3D3"/>
<path d="M29.8125 16.5625H31.4688V17.3906H39.75V16.5625H41.4062V20.7031H46.375V16.5625C46.375 16.3429 46.2878 16.1322 46.1325 15.9769C45.9771 15.8216 45.7665 15.7344 45.5469 15.7344H7.45312C7.23349 15.7344 7.02286 15.8216 6.86755 15.9769C6.71225 16.1322 6.625 16.3429 6.625 16.5625V20.7031H29.8125V16.5625Z" fill="#22A8E1"/>
<path d="M39.75 19.0469H31.4688V20.7031H39.75V19.0469Z" fill="#AEAEAE"/>
<path d="M22.3594 33.125C22.1397 33.125 21.9291 33.2122 21.7738 33.3676C21.6185 33.5229 21.5312 33.7335 21.5312 33.9531V36.4375H27.3281V33.9531C27.3281 33.7335 27.2409 33.5229 27.0856 33.3676C26.9303 33.2122 26.7196 33.125 26.5 33.125H22.3594ZM46.375 14.2305V13.25C46.375 13.0304 46.2878 12.8197 46.1324 12.6644C45.9771 12.5091 45.7665 12.4219 45.5469 12.4219H28.9844V14.0781H45.5469C45.8296 14.0809 46.1098 14.1324 46.375 14.2305Z" fill="#22A8E1"/>
<path d="M49.6875 4.14062H48.0312V43.0625H49.6875V4.14062Z" fill="#D3D3D3"/>
<path d="M28.9844 36.4375H45.5469C45.8296 36.4402 46.1098 36.4918 46.375 36.5899V35.6094C46.375 35.3897 46.2878 35.1791 46.1325 35.0238C45.9771 34.8685 45.7665 34.7812 45.5469 34.7812H28.9844V36.4375ZM46.375 38.9219C46.375 38.7022 46.2878 38.4916 46.1325 38.3363C45.9771 38.181 45.7665 38.0938 45.5469 38.0938H7.45312C7.23349 38.0938 7.02286 38.181 6.86755 38.3363C6.71225 38.4916 6.625 38.7022 6.625 38.9219V43.0625H46.375V38.9219Z" fill="#22A8E1"/>
<path d="M29.8125 22.3594V28.1562H31.4688V25.6719H39.75V28.1562H41.4062V22.3594H39.75V24.0156H31.4688V22.3594H29.8125Z" fill="#AEAEAE"/>
</svg>
