<svg width="22" height="22" viewBox="0 0 22 22" fill="none" xmlns="http://www.w3.org/2000/svg">
<path d="M18.363 18.3286H3.63672C2.86207 18.3277 2.11941 18.0196 1.57165 17.4718C1.02389 16.9241 0.715753 16.1814 0.714844 15.4068V6.59302C0.715753 5.81837 1.02389 5.07571 1.57165 4.52794C2.11941 3.98018 2.86207 3.67205 3.63672 3.67114H18.363C19.1376 3.67205 19.8803 3.98018 20.428 4.52794C20.9758 5.07571 21.2839 5.81837 21.2848 6.59302V15.4068C21.2839 16.1814 20.9758 16.9241 20.428 17.4718C19.8803 18.0196 19.1376 18.3277 18.363 18.3286ZM3.63672 4.70239C3.13529 4.70239 2.65441 4.90158 2.29984 5.25614C1.94528 5.6107 1.74609 6.09159 1.74609 6.59302V15.4068C1.74609 15.9082 1.94528 16.3891 2.29984 16.7436C2.65441 17.0982 3.13529 17.2974 3.63672 17.2974H18.363C18.8644 17.2974 19.3453 17.0982 19.6998 16.7436C20.0544 16.3891 20.2536 15.9082 20.2536 15.4068V6.59302C20.2536 6.09159 20.0544 5.6107 19.6998 5.25614C19.3453 4.90158 18.8644 4.70239 18.363 4.70239H3.63672Z" fill="url(#paint0_linear_1027_994)"/>
<path d="M10.9996 13.09C10.3636 13.091 9.74448 12.8846 9.23621 12.5022L1.20965 6.43157C1.15294 6.39177 1.10483 6.34095 1.0682 6.28214C1.03157 6.22333 1.00716 6.15775 0.996443 6.08929C0.985724 6.02084 0.988909 5.95094 1.00581 5.88374C1.02271 5.81655 1.05298 5.75346 1.09481 5.69822C1.13664 5.64299 1.18917 5.59675 1.24927 5.56228C1.30936 5.5278 1.37579 5.50578 1.44458 5.49755C1.51338 5.48932 1.58312 5.49503 1.64966 5.51435C1.7162 5.53368 1.77815 5.56621 1.83184 5.61001L9.8584 11.6875C10.188 11.9336 10.5883 12.0665 10.9996 12.0665C11.411 12.0665 11.8113 11.9336 12.1409 11.6875L20.1675 5.61001C20.2211 5.56621 20.2831 5.53368 20.3496 5.51435C20.4162 5.49503 20.4859 5.48932 20.5547 5.49755C20.6235 5.50578 20.6899 5.5278 20.75 5.56228C20.8101 5.59675 20.8627 5.64299 20.9045 5.69822C20.9463 5.75346 20.9766 5.81655 20.9935 5.88374C21.0104 5.95094 21.0136 6.02084 21.0029 6.08929C20.9921 6.15775 20.9677 6.22333 20.9311 6.28214C20.8945 6.34095 20.8464 6.39177 20.7896 6.43157L12.7631 12.5022C12.2548 12.8846 11.6357 13.091 10.9996 13.09Z" fill="url(#paint1_linear_1027_994)"/>
<path d="M1.43338 16.8919C1.3288 16.8921 1.22664 16.8604 1.14047 16.8012C1.0543 16.7419 0.98818 16.6579 0.950889 16.5602C0.913597 16.4625 0.906896 16.3557 0.931675 16.2541C0.956453 16.1525 1.01154 16.0609 1.08963 15.9913L7.41462 10.3504C7.51673 10.2592 7.65088 10.2123 7.78754 10.2201C7.92421 10.2278 8.05221 10.2895 8.14337 10.3916C8.23454 10.4937 8.28141 10.6279 8.27368 10.7645C8.26594 10.9012 8.20423 11.0292 8.10212 11.1204L1.77712 16.7613C1.68319 16.8468 1.56036 16.8934 1.43338 16.8919ZM20.5665 16.8919C20.4395 16.8934 20.3167 16.8468 20.2227 16.7613L13.8977 11.1204C13.7956 11.0292 13.7339 10.9012 13.7262 10.7645C13.7185 10.6279 13.7653 10.4937 13.8565 10.3916C13.9477 10.2895 14.0757 10.2278 14.2123 10.2201C14.349 10.2123 14.4831 10.2592 14.5852 10.3504L20.9068 15.9913C20.9849 16.0609 21.04 16.1525 21.0648 16.2541C21.0895 16.3557 21.0828 16.4625 21.0455 16.5602C21.0083 16.6579 20.9421 16.7419 20.856 16.8012C20.7698 16.8604 20.6676 16.8921 20.5631 16.8919H20.5665Z" fill="url(#paint2_linear_1027_994)"/>
<defs>
<linearGradient id="paint0_linear_1027_994" x1="10.9998" y1="3.67114" x2="10.9998" y2="18.3286" gradientUnits="userSpaceOnUse">
<stop stop-color="#F69369"/>
<stop offset="1" stop-color="#9146BC"/>
</linearGradient>
<linearGradient id="paint1_linear_1027_994" x1="10.9996" y1="5.4939" x2="10.9996" y2="13.09" gradientUnits="userSpaceOnUse">
<stop stop-color="#F69369"/>
<stop offset="1" stop-color="#9146BC"/>
</linearGradient>
<linearGradient id="paint2_linear_1027_994" x1="10.9982" y1="10.2192" x2="10.9982" y2="16.892" gradientUnits="userSpaceOnUse">
<stop stop-color="#F69369"/>
<stop offset="1" stop-color="#9146BC"/>
</linearGradient>
</defs>
</svg>
