<svg width="31" height="55" viewBox="0 0 31 55" fill="none" xmlns="http://www.w3.org/2000/svg">
<path d="M30.0876 15.5019C30.0876 7.44506 23.5562 0.913574 15.4994 0.913574C7.44251 0.913574 0.911133 7.44506 0.911133 15.5019V39.2078C0.911133 47.2647 7.44251 53.796 15.4994 53.796C23.5562 53.796 30.0876 47.2647 30.0876 39.2078V15.5019Z" fill="#22A8E1"/>
<path d="M30.0876 15.5019C30.0876 7.44506 23.5562 0.913574 15.4994 0.913574C7.44251 0.913574 0.911133 7.44506 0.911133 15.5019V39.2078C0.911133 47.2647 7.44251 53.796 15.4994 53.796C23.5562 53.796 30.0876 47.2647 30.0876 39.2078V15.5019Z" stroke="#0C5286" stroke-linecap="round" stroke-linejoin="round"/>
<path d="M19.1467 15.502C19.1467 13.4878 17.5138 11.855 15.4996 11.855C13.4854 11.855 11.8525 13.4878 11.8525 15.502V39.2079C11.8525 41.2221 13.4854 42.855 15.4996 42.855C17.5138 42.855 19.1467 41.2221 19.1467 39.2079V15.502Z" fill="#262948" stroke="#0C5286" stroke-linecap="round" stroke-linejoin="round"/>
<path d="M15.5 0C6.92941 0 0 6.9293 0 15.4999V39.2058C0 47.7764 6.92941 54.7058 15.5 54.7058C24.0706 54.7058 31 47.7764 31 39.2058V15.4999C31 6.9293 24.0706 0 15.5 0ZM15.5 1.82353C23.0932 1.82353 29.1765 7.90854 29.1765 15.4999V39.2058C29.1765 46.7989 23.0932 52.8822 15.5 52.8822C13.7022 52.8887 11.9208 52.5395 10.2586 51.8545C8.59631 51.1695 7.08604 50.1623 5.81476 48.891C4.54349 47.6198 3.53634 46.1095 2.85133 44.4473C2.16633 42.7851 1.81702 41.0036 1.82353 39.2058V15.4999C1.82353 7.90854 7.90682 1.82353 15.5 1.82353Z" fill="#262948"/>
<path d="M19.1467 15.502C19.1467 13.4878 17.5138 11.855 15.4996 11.855C13.4854 11.855 11.8525 13.4878 11.8525 15.502V39.2079C11.8525 41.2221 13.4854 42.855 15.4996 42.855C17.5138 42.855 19.1467 41.2221 19.1467 39.2079V15.502Z" stroke="#0C5286" stroke-linecap="round" stroke-linejoin="round"/>
<path d="M15.5001 5.4707C14.183 5.47046 12.8787 5.72972 11.6617 6.23366C10.4448 6.7376 9.33908 7.47631 8.40772 8.40767C7.47635 9.33904 6.7376 10.4448 6.23366 11.6617C5.72972 12.8787 5.47046 14.1829 5.4707 15.5V39.2059C5.4707 44.7476 9.96023 49.2353 15.5001 49.2353C21.04 49.2353 25.5295 44.7476 25.5295 39.2059V15.5C25.5295 9.96012 21.04 5.4707 15.5001 5.4707ZM15.5001 7.29423C16.5791 7.2894 17.6483 7.49826 18.6461 7.90894C19.6438 8.31961 20.5504 8.92389 21.3133 9.68684C22.0763 10.4498 22.6805 11.3563 23.0912 12.354C23.5019 13.3518 23.7108 14.421 23.706 15.5V39.2059C23.7108 40.2848 23.5019 41.3541 23.0912 42.3519C22.6805 43.3496 22.0763 44.2561 21.3133 45.0191C20.5504 45.782 19.6438 46.3863 18.6461 46.7969C17.6483 47.2076 16.5791 47.4166 15.5001 47.4118C14.4212 47.4166 13.3519 47.2076 12.3542 46.7969C11.3564 46.3863 10.4499 45.782 9.68692 45.0191C8.92397 44.2561 8.31971 43.3496 7.90903 42.3519C7.49836 41.3541 7.28941 40.2848 7.29423 39.2059V15.5C7.28941 14.421 7.49836 13.3518 7.90903 12.354C8.31971 11.3563 8.92397 10.4498 9.68692 9.68684C10.4499 8.92389 11.3564 8.31961 12.3542 7.90894C13.3519 7.49826 14.4212 7.2894 15.5001 7.29423Z" fill="#262948"/>
<path fill-rule="evenodd" clip-rule="evenodd" d="M6.93006 31V32.8235H11.3065V31H6.93006ZM1.45947 32.8235V34.6471H5.83594V32.8235H1.45947Z" fill="#0C5286"/>
</svg>
