<svg width="50" height="50" viewBox="0 0 50 50" fill="none" xmlns="http://www.w3.org/2000/svg">
<circle cx="25" cy="25" r="25" fill="#FF8D4E"/>
<g clip-path="url(#clip0_1027_952)">
<path d="M14.1534 16.7156L20.6111 19.1664L14.5814 24.3223C14.1858 24.6599 14.0932 25.247 14.3856 25.6936C14.7027 26.1781 15.3528 26.3138 15.8372 25.9966L20.7808 22.7601C20.7808 22.7601 19.8802 25.5075 19.808 25.693C19.4773 26.541 19.8967 27.4965 20.7448 27.8272L26.7717 30.1771L30.4313 34.7602C30.8688 35.3068 31.6656 35.4145 32.2318 34.9933C32.8106 34.5627 32.9308 33.7444 32.5002 33.1656L29.1637 28.6806L30.1903 28.8021L34.8008 31.5177C35.4026 31.8711 36.1834 31.6899 36.5635 31.0973C36.9529 30.4899 36.7762 29.682 36.1689 29.2926L31.3926 26.2303C31.258 26.1448 31.0996 26.0797 30.9331 26.0495L30.8617 26.0365L26.2587 25.2008C26.2587 25.2008 28.4021 18.875 25.9104 17.7217L15.0137 14.2492C14.3577 14.0417 13.6426 14.3793 13.3954 15.0305C13.1394 15.7052 13.4788 16.4596 14.1534 16.7156Z" fill="white"/>
<path d="M25.8464 17.2217C26.2016 17.4607 26.6038 17.6262 27.0237 17.7082L27.0278 17.7091C28.0682 17.9109 29.1623 17.576 29.9125 16.8276C30.6734 16.0682 31.0075 14.9452 30.7858 13.893C30.5699 12.8681 29.8453 11.9908 28.8778 11.5883C27.8879 11.1765 26.7336 11.2907 25.8445 11.89C24.9553 12.4891 24.4164 13.5162 24.4264 14.5885C24.4366 15.6361 24.9777 16.637 25.8464 17.2217Z" fill="white"/>
<path d="M39.9992 38.063C39.9992 37.8629 39.837 37.7006 39.6368 37.7006C39.3239 37.7006 39.1837 37.6514 39.0054 37.5889C38.7861 37.5118 38.5377 37.4245 38.065 37.4245C37.5922 37.4245 37.3437 37.5118 37.1238 37.5891C36.9462 37.6514 36.806 37.7006 36.4929 37.7006C36.1798 37.7006 36.0396 37.6514 35.8615 37.5889C35.6423 37.5118 35.3938 37.4245 34.9211 37.4245C34.4485 37.4245 34.2001 37.5118 33.9803 37.5891C33.8028 37.6514 33.6626 37.7006 33.3495 37.7006C33.0364 37.7006 32.8962 37.6514 32.7181 37.5889C32.4988 37.5118 32.2504 37.4245 31.7778 37.4245C31.3052 37.4245 31.0568 37.5118 30.8369 37.5891C30.6594 37.6514 30.5192 37.7006 30.2061 37.7006C29.8931 37.7006 29.7529 37.6514 29.5748 37.5889C29.3556 37.5118 29.1073 37.4245 28.6346 37.4245C28.1619 37.4245 27.9135 37.5118 27.6938 37.5891C27.5163 37.6514 27.376 37.7006 27.0631 37.7006C26.7502 37.7006 26.6101 37.6514 26.432 37.5889C26.2128 37.5118 25.9644 37.4245 25.4918 37.4245C25.0191 37.4245 24.7707 37.5118 24.551 37.5891C24.3734 37.6514 24.2332 37.7006 23.9203 37.7006C23.6074 37.7006 23.4672 37.6514 23.2891 37.5889C23.0699 37.5118 22.8215 37.4245 22.3489 37.4245C21.8762 37.4245 21.6278 37.5118 21.408 37.5891C21.2305 37.6514 21.0904 37.7006 20.7774 37.7006C20.4645 37.7006 20.3243 37.6514 20.1462 37.5889C19.927 37.5118 19.6786 37.4245 19.2059 37.4245C18.7331 37.4245 18.4847 37.5118 18.265 37.5891C18.0875 37.6514 17.9473 37.7006 17.6343 37.7006C17.3214 37.7006 17.1813 37.6514 17.0032 37.5889C16.784 37.5118 16.5357 37.4245 16.063 37.4245C15.5904 37.4245 15.3419 37.5118 15.122 37.5891C14.9445 37.6514 14.8044 37.7006 14.4913 37.7006C14.1784 37.7006 14.0383 37.6514 13.8602 37.5889C13.7458 37.5487 13.6135 37.5021 13.4378 37.4689V37.4151C13.4378 37.215 13.2756 37.0527 13.0754 37.0527H11.3624C11.1622 37.0527 11 37.215 11 37.4151V39.2938C11 39.494 11.1622 39.6562 11.3624 39.6562H39.6376C39.8378 39.6562 40 39.494 40 39.2938L39.9992 38.063Z" fill="white"/>
</g>
<defs>
<clipPath id="clip0_1027_952">
<rect width="29" height="29" fill="white" transform="translate(11 11)"/>
</clipPath>
</defs>
</svg>
