<svg width="16" height="21" viewBox="0 0 16 21" fill="none" xmlns="http://www.w3.org/2000/svg">
<path d="M8 20.3636C8.16405 20.3627 8.32295 20.3063 8.45091 20.2036C8.72727 19.9564 16 14.0945 16 8C16 5.87827 15.1571 3.84344 13.6569 2.34315C12.1566 0.842855 10.1217 0 8 0C5.87827 0 3.84344 0.842855 2.34315 2.34315C0.842855 3.84344 0 5.87827 0 8C0 14.0945 7.27273 19.9564 7.54909 20.2036C7.67705 20.3063 7.83595 20.3627 8 20.3636ZM1.45455 8C1.45455 6.26404 2.14415 4.59918 3.37166 3.37167C4.59918 2.14415 6.26404 1.45455 8 1.45455C9.73596 1.45455 11.4008 2.14415 12.6283 3.37167C13.8558 4.59918 14.5455 6.26404 14.5455 8C14.5455 12.5818 9.54909 17.3164 8 18.6836C6.45091 17.3164 1.45455 12.5818 1.45455 8Z" fill="url(#paint0_linear_1027_985)"/>
<path d="M11.636 8.00014C11.636 7.28093 11.4227 6.57788 11.0232 5.97988C10.6236 5.38188 10.0557 4.9158 9.39122 4.64057C8.72677 4.36535 7.99561 4.29333 7.29023 4.43364C6.58484 4.57395 5.9369 4.92028 5.42835 5.42884C4.91979 5.93739 4.57346 6.58533 4.43315 7.29072C4.29284 7.9961 4.36486 8.72725 4.64008 9.39171C4.91531 10.0562 5.38139 10.6241 5.97939 11.0237C6.57739 11.4232 7.28044 11.6365 7.99965 11.6365C8.96407 11.6365 9.88899 11.2534 10.5709 10.5714C11.2529 9.88948 11.636 8.96456 11.636 8.00014ZM5.81783 8.00014C5.81783 7.56861 5.94579 7.14678 6.18553 6.78798C6.42527 6.42918 6.76603 6.14953 7.1647 5.9844C7.56338 5.81926 8.00207 5.77605 8.4253 5.86024C8.84853 5.94443 9.23729 6.15222 9.54243 6.45736C9.84756 6.76249 10.0554 7.15125 10.1395 7.57448C10.2237 7.99772 10.1805 8.43641 10.0154 8.83508C9.85025 9.23376 9.5706 9.57451 9.2118 9.81425C8.853 10.054 8.43117 10.182 7.99965 10.182C7.42099 10.182 6.86604 9.95209 6.45687 9.54291C6.0477 9.13374 5.81783 8.57879 5.81783 8.00014Z" fill="url(#paint1_linear_1027_985)"/>
<defs>
<linearGradient id="paint0_linear_1027_985" x1="8" y1="0" x2="8" y2="20.3636" gradientUnits="userSpaceOnUse">
<stop stop-color="#EA8B74"/>
<stop offset="1" stop-color="#9E50B3"/>
</linearGradient>
<linearGradient id="paint1_linear_1027_985" x1="7.99965" y1="4.36377" x2="7.99965" y2="11.6365" gradientUnits="userSpaceOnUse">
<stop stop-color="#EA8B74"/>
<stop offset="1" stop-color="#9E50B3"/>
</linearGradient>
</defs>
</svg>
