<svg width="24" height="24" viewBox="0 0 24 24" fill="none" xmlns="http://www.w3.org/2000/svg">
<g clip-path="url(#clip0_1027_978)">
<path d="M3.375 23.9969C3.47446 23.9969 3.56984 23.9574 3.64016 23.8871C3.71049 23.8168 3.75 23.7214 3.75 23.6219V19.4797C3.75 18.6599 4.18725 17.8874 4.89075 17.4659L7.82625 15.7042L9.43725 17.7179C9.47027 17.7591 9.51157 17.7928 9.55847 17.817C9.60537 17.8411 9.65683 17.8552 9.7095 17.8582L9.7305 17.8589C9.8295 17.8589 9.9255 17.8199 9.996 17.7494L10.7175 17.0279V17.4847C10.7175 17.5841 10.757 17.6795 10.8273 17.7498C10.8977 17.8202 10.993 17.8597 11.0925 17.8597H11.1278L10.5023 23.5822C10.496 23.6316 10.4997 23.6817 10.513 23.7297C10.5264 23.7777 10.5492 23.8225 10.58 23.8616C10.6109 23.9006 10.6492 23.9332 10.6928 23.9573C10.7364 23.9814 10.7843 23.9966 10.8338 24.0019C10.8833 24.0073 10.9334 24.0028 10.9811 23.9886C11.0288 23.9744 11.0733 23.9509 11.1118 23.9193C11.1503 23.8878 11.1822 23.8489 11.2055 23.8049C11.2289 23.761 11.2432 23.7128 11.2477 23.6632L11.8822 17.8597H12.1178L12.7523 23.6632C12.763 23.7621 12.8126 23.8528 12.8902 23.9152C12.9677 23.9775 13.0669 24.0065 13.1659 23.9958C13.2648 23.9851 13.3555 23.9355 13.4179 23.8579C13.4802 23.7803 13.5092 23.6811 13.4985 23.5822L12.873 17.8597H12.9083C13.0077 17.8597 13.1031 17.8202 13.1734 17.7498C13.2437 17.6795 13.2833 17.5841 13.2833 17.4847V17.0279L14.0048 17.7494C14.0396 17.7842 14.081 17.8118 14.1266 17.8306C14.1722 17.8494 14.221 17.859 14.2703 17.8589L14.2913 17.8582C14.3439 17.8552 14.3954 17.8411 14.4423 17.817C14.4892 17.7928 14.5305 17.7591 14.5635 17.7179L16.1745 15.7042L19.1108 17.4659C19.4574 17.6757 19.7442 17.9711 19.9438 18.3238C20.1433 18.6765 20.2487 19.0745 20.25 19.4797V23.6219C20.25 23.7214 20.2895 23.8168 20.3598 23.8871C20.4302 23.9574 20.5255 23.9969 20.625 23.9969C20.7245 23.9969 20.8198 23.9574 20.8902 23.8871C20.9605 23.8168 21 23.7214 21 23.6219V19.4797C21 18.3974 20.4233 17.3797 19.4955 16.8232L16.326 14.9219L15.138 13.6019C15.0885 13.5491 15.0245 13.512 14.9541 13.4955C14.8836 13.4789 14.8098 13.4836 14.742 13.5089V12.0359C15.2877 11.617 15.7298 11.0783 16.0343 10.4614C16.3387 9.84449 16.4973 9.16587 16.4977 8.47793V6.77393L17.2215 3.42443C17.2761 3.12829 17.2709 2.82422 17.2061 2.53014C17.1413 2.23607 17.0183 1.95794 16.8442 1.71218C16.6717 1.46535 16.4515 1.25556 16.1966 1.0952C15.9416 0.934827 15.6572 0.827121 15.36 0.778429L10.8915 0.0336791C10.5716 -0.0197679 10.2439 -0.00283349 9.93122 0.0833028C9.61854 0.169439 9.3284 0.322706 9.081 0.532429C8.65884 0.890802 8.38575 1.39392 8.31525 1.94318C7.87275 2.02568 7.47225 2.26193 7.1835 2.61893C7.00256 2.84306 6.87459 3.10516 6.80914 3.38568C6.74369 3.66619 6.74244 3.95787 6.8055 4.23893L7.49775 6.76643V8.47718C7.49775 9.92543 8.18775 11.2124 9.2535 12.0359V13.5082C9.18607 13.4841 9.11308 13.4801 9.04343 13.4967C8.97378 13.5134 8.91048 13.5499 8.86125 13.6019L7.674 14.9212L4.5045 16.8232C4.0467 17.0995 3.66778 17.4891 3.40427 17.9544C3.14076 18.4196 3.00153 18.945 3 19.4797V23.6219C3 23.7214 3.03951 23.8168 3.10984 23.8871C3.18016 23.9574 3.27554 23.9969 3.375 23.9969ZM12.5325 16.3492V17.1089H11.4675V16.3492C11.4675 16.3282 11.4585 16.3094 11.4555 16.2892L12 15.7447L12.5452 16.2899C12.5415 16.3094 12.5325 16.3282 12.5325 16.3492ZM15.594 15.2287L14.2388 16.9229L12.6405 15.3247L14.7682 14.3114L15.594 15.2287ZM7.76625 3.09068C7.8746 2.95613 8.0118 2.84766 8.16771 2.77327C8.32362 2.69889 8.49425 2.66049 8.667 2.66093C8.874 2.66093 9.042 2.44268 9.042 2.23568C9.0416 2.04091 9.07966 1.84799 9.15399 1.66796C9.22832 1.48794 9.33746 1.32436 9.47514 1.1866C9.61283 1.04885 9.77635 0.939627 9.95634 0.865207C10.1363 0.790788 10.3292 0.752632 10.524 0.752929C10.6059 0.752992 10.6877 0.759764 10.7685 0.773179L15.237 1.51793C15.642 1.58543 15.9945 1.80743 16.2308 2.14268C16.467 2.47868 16.557 2.88593 16.4858 3.27743L15.924 5.87618L15.216 4.99643V4.18118C15.216 4.08172 15.1765 3.98634 15.1062 3.91601C15.0358 3.84569 14.9405 3.80618 14.841 3.80618H9.1545C9.05504 3.80618 8.95966 3.84569 8.88933 3.91601C8.81901 3.98634 8.7795 4.08172 8.7795 4.18118V4.99718L8.04225 5.91593L7.53375 4.06118C7.461 3.71768 7.54575 3.36368 7.76625 3.09068ZM8.24775 8.47718V6.85868L9.44775 5.36393C9.50106 5.29729 9.53015 5.21452 9.53025 5.12918V4.55618H14.4667V5.12918C14.4667 5.21454 14.4958 5.29735 14.5492 5.36393L15.7485 6.85268V8.47643C15.7485 10.5442 14.0662 12.2264 11.9985 12.2264C9.93075 12.2264 8.24775 10.5449 8.24775 8.47718ZM11.9977 12.9772C12.7147 12.9772 13.3905 12.8047 13.992 12.5054V13.8502L12 14.7989L10.0035 13.8479V12.5047C10.6058 12.8039 11.2815 12.9772 11.9977 12.9772ZM9.23175 14.3114L11.3595 15.3247L9.76125 16.9229L8.406 15.2287L9.23175 14.3114Z" fill="url(#paint0_linear_1027_978)"/>
<path d="M7.12519 23.9969C7.22465 23.9969 7.32003 23.9574 7.39036 23.8871C7.46068 23.8168 7.50019 23.7214 7.50019 23.6219V21.8654C7.50096 21.092 7.21167 20.3464 6.68944 19.7759L6.12169 19.1542C6.08845 19.1178 6.04837 19.0883 6.00373 19.0674C5.95909 19.0465 5.91077 19.0346 5.86154 19.0324C5.8123 19.0301 5.7631 19.0376 5.71676 19.0544C5.67042 19.0712 5.62783 19.0969 5.59144 19.1302C5.55505 19.1634 5.52556 19.2035 5.50466 19.2481C5.48376 19.2928 5.47185 19.3411 5.46962 19.3903C5.46739 19.4396 5.47489 19.4888 5.49167 19.5351C5.50845 19.5815 5.5342 19.624 5.56744 19.6604L6.13519 20.2822C6.53125 20.7143 6.75072 21.2793 6.75019 21.8654V23.6219C6.75019 23.7214 6.7897 23.8168 6.86003 23.8871C6.93035 23.9574 7.02573 23.9969 7.12519 23.9969ZM17.8787 19.1542L17.3109 19.7767C16.7888 20.3469 16.4995 21.0922 16.5002 21.8654V23.6219C16.5002 23.7214 16.5397 23.8168 16.61 23.8871C16.6804 23.9574 16.7757 23.9969 16.8752 23.9969C16.9746 23.9969 17.07 23.9574 17.1404 23.8871C17.2107 23.8168 17.2502 23.7214 17.2502 23.6219V21.8654C17.2502 21.2782 17.4684 20.7157 17.8644 20.2822L18.4322 19.6604C18.4654 19.6241 18.4912 19.5816 18.508 19.5353C18.5248 19.489 18.5323 19.4398 18.5301 19.3906C18.5279 19.3414 18.5161 19.2931 18.4952 19.2485C18.4743 19.2039 18.4449 19.1638 18.4086 19.1306C18.3722 19.0973 18.3297 19.0716 18.2834 19.0548C18.2371 19.038 18.1879 19.0304 18.1387 19.0326C18.0895 19.0348 18.0412 19.0467 17.9966 19.0675C17.952 19.0884 17.9119 19.1178 17.8787 19.1542Z" fill="url(#paint1_linear_1027_978)"/>
</g>
<defs>
<linearGradient id="paint0_linear_1027_978" x1="12" y1="0.00317383" x2="12" y2="24.0041" gradientUnits="userSpaceOnUse">
<stop stop-color="#EF8E6F"/>
<stop offset="1" stop-color="#8C42C1"/>
</linearGradient>
<linearGradient id="paint1_linear_1027_978" x1="11.9999" y1="19.032" x2="11.9999" y2="23.9969" gradientUnits="userSpaceOnUse">
<stop stop-color="#EF8E6F"/>
<stop offset="1" stop-color="#8C42C1"/>
</linearGradient>
<clipPath id="clip0_1027_978">
<rect width="24" height="24" fill="white"/>
</clipPath>
</defs>
</svg>
