<svg width="22" height="22" viewBox="0 0 22 22" fill="none" xmlns="http://www.w3.org/2000/svg">
<path d="M18.7743 14.1962L17.2618 12.6837C16.811 12.2365 16.2024 11.9843 15.5674 11.9816C14.9323 11.9789 14.3216 12.2259 13.867 12.6693C13.6244 12.9133 13.3043 13.0651 12.9619 13.0986C12.6195 13.1321 12.2761 13.0452 11.9908 12.8528C10.8648 12.1014 9.89747 11.1359 9.14383 10.0114C8.95488 9.72293 8.87113 9.37816 8.9067 9.03516C8.94226 8.69216 9.09497 8.3719 9.33908 8.12833C9.77846 7.67326 10.0222 7.06427 10.0183 6.43171C10.0143 5.79915 9.76284 5.19328 9.31777 4.74377L7.80527 3.23127C7.35245 2.78 6.73922 2.52661 6.09993 2.52661C5.46063 2.52661 4.84741 2.78 4.39458 3.23127L3.95939 3.66715C1.69064 5.9359 1.86046 10.7058 6.58083 15.4234C9.42708 18.2703 12.2919 19.4625 14.615 19.4625C15.2988 19.4852 15.9803 19.3717 16.6198 19.1284C17.2593 18.8851 17.844 18.517 18.3398 18.0455L18.7757 17.6096C19.2278 17.1566 19.4816 16.5427 19.4813 15.9026C19.4811 15.2626 19.2268 14.6489 18.7743 14.1962ZM17.8022 16.6375L17.3663 17.0734C15.5788 18.8609 11.6333 18.5343 7.55158 14.452C3.46989 10.3696 3.14264 6.42127 4.93014 4.63377L5.36258 4.19858C5.55729 4.00458 5.82094 3.89565 6.0958 3.89565C6.37066 3.89565 6.63431 4.00458 6.82902 4.19858L8.34152 5.71108C8.53269 5.90321 8.6412 6.16244 8.6439 6.43346C8.64659 6.70448 8.54326 6.96582 8.35596 7.16171C7.8914 7.62923 7.60161 8.2422 7.53515 8.89792C7.46869 9.55365 7.62959 10.2123 7.99089 10.7635C8.84721 12.045 9.94837 13.1445 11.2311 13.9989C11.7807 14.3603 12.4376 14.5221 13.0921 14.4574C13.7467 14.3927 14.3592 14.1054 14.8274 13.6435C15.0229 13.4539 15.285 13.3487 15.5573 13.3504C15.8296 13.352 16.0903 13.4605 16.2835 13.6524L17.796 15.1649C17.8935 15.261 17.971 15.3754 18.0241 15.5015C18.0772 15.6277 18.1049 15.7631 18.1054 15.8999C18.106 16.0368 18.0795 16.1724 18.0275 16.299C17.9754 16.4256 17.8989 16.5406 17.8022 16.6375Z" fill="url(#paint0_linear_1027_989)"/>
<defs>
<linearGradient id="paint0_linear_1027_989" x1="11.0119" y1="2.52661" x2="11.0119" y2="19.4653" gradientUnits="userSpaceOnUse">
<stop stop-color="#F89467"/>
<stop offset="1" stop-color="#873EC3"/>
</linearGradient>
</defs>
</svg>
