<svg width="50" height="50" viewBox="0 0 50 50" fill="none" xmlns="http://www.w3.org/2000/svg">
<circle cx="25" cy="25" r="25" fill="#880E4F"/>
<g clip-path="url(#clip0_1027_961)">
<path d="M35.429 23.0177L31.68 20.792C31.68 20.792 30.7732 20.2762 29.9678 19.4336C28.3708 17.7629 26.9152 16.9521 24.478 17.1065L19.6227 17.5429L19.3808 17.5956C18.7223 17.74 18.2146 18.3096 18.1782 19.0152L17.9069 24.2648C17.8741 24.8892 18.2974 25.4636 18.9282 25.6004C19.6289 25.7525 20.3202 25.3076 20.4722 24.6069L21.2889 20.8414L22.9474 20.6956C22.9474 20.6956 21.3633 26.7893 21.3245 26.9619L20.4985 30.637L15.1562 32.6475C14.2999 32.9726 13.813 33.9071 14.0675 34.8049C14.3363 35.7535 15.3231 36.3045 16.2717 36.0358L22.9231 34.1509C23.523 33.976 24.0378 33.5078 24.2325 32.8652L24.2796 32.7101L25.2272 29.5847L27.6062 32.5413L27.7496 39.2532C27.7717 40.174 28.4987 40.9449 29.4342 40.9972C30.4184 41.0523 31.2611 40.2991 31.3161 39.3149L31.7351 31.8273C31.7573 31.432 31.6527 31.0253 31.4092 30.6749L31.3222 30.5496L29.0143 27.2266C29.3487 26.3335 29.825 24.9924 30.2264 23.5993L34.111 25.4732C34.755 25.7815 35.5448 25.5548 35.9162 24.929C36.3096 24.2667 36.0914 23.411 35.429 23.0177Z" fill="white"/>
<path d="M29.5343 17.9202C31.6586 18.6612 33.9808 17.5402 34.7219 15.416C35.4628 13.2922 34.342 10.9694 32.218 10.2285C30.0938 9.48736 27.7712 10.6086 27.0302 12.7325C26.2892 14.8568 27.41 17.1791 29.5343 17.9202Z" fill="white"/>
</g>
<defs>
<clipPath id="clip0_1027_961">
<rect width="31" height="31" fill="white" transform="translate(10 10)"/>
</clipPath>
</defs>
</svg>
