<svg width="11" height="10" viewBox="0 0 11 10" fill="none" xmlns="http://www.w3.org/2000/svg">
<path fill-rule="evenodd" clip-rule="evenodd" d="M1.98498 9.81878L10.7465 1.05725C10.9881 0.815625 10.9881 0.422836 10.7465 0.181216C10.5049 -0.0604052 10.1121 -0.0604052 9.87049 0.181216L1.10895 8.94275C0.867329 9.18438 0.867329 9.57716 1.10895 9.81878C1.35057 10.0604 1.74336 10.0604 1.98498 9.81878Z" fill="white"/>
<path fill-rule="evenodd" clip-rule="evenodd" d="M10.7465 8.94275L1.98498 0.181216C1.74336 -0.0604052 1.35057 -0.0604052 1.10895 0.181216C0.867329 0.422836 0.867329 0.815625 1.10895 1.05725L9.87049 9.81878C10.1121 10.0604 10.5049 10.0604 10.7465 9.81878C10.9881 9.57716 10.9881 9.18438 10.7465 8.94275Z" fill="white"/>
</svg>
