<svg width="24" height="24" viewBox="0 0 24 24" fill="none" xmlns="http://www.w3.org/2000/svg">
<path d="M11.9999 13.4299C12.4096 13.4299 12.8153 13.3492 13.1939 13.1924C13.5724 13.0357 13.9163 12.8058 14.2061 12.5161C14.4958 12.2264 14.7256 11.8824 14.8824 11.5039C15.0392 11.1254 15.1199 10.7197 15.1199 10.3099C15.1199 9.90022 15.0392 9.49451 14.8824 9.11597C14.7256 8.73743 14.4958 8.39349 14.2061 8.10377C13.9163 7.81405 13.5724 7.58423 13.1939 7.42744C12.8153 7.27064 12.4096 7.18994 11.9999 7.18994C11.1724 7.18994 10.3788 7.51865 9.79371 8.10377C9.2086 8.68888 8.87988 9.48247 8.87988 10.3099C8.87988 11.1374 9.2086 11.931 9.79371 12.5161C10.3788 13.1012 11.1724 13.4299 11.9999 13.4299Z" stroke="#93F8FF" stroke-width="1.5"/>
<path d="M3.6202 8.49C5.5902 -0.169998 18.4202 -0.159997 20.3802 8.5C21.5302 13.58 18.3702 17.88 15.6002 20.54C14.6323 21.4735 13.34 21.9952 11.9952 21.9952C10.6504 21.9952 9.35812 21.4735 8.3902 20.54C5.6302 17.88 2.4702 13.57 3.6202 8.49Z" stroke="#93F8FF" stroke-width="1.5"/>
</svg>
