<svg width="76" height="96" viewBox="0 0 76 96" fill="none" xmlns="http://www.w3.org/2000/svg">
<path d="M27.7802 64.8616C34.6186 64.3106 41.4885 64.3106 48.3269 64.8616C52.0508 65.0787 55.7571 65.5446 59.4222 66.2562C67.3532 67.8621 72.531 70.4822 74.75 74.7082C76.4166 78.0064 76.4166 81.9327 74.75 85.2309C72.531 89.4568 67.5587 92.246 59.34 93.6828C55.6777 94.4213 51.9707 94.9014 48.2447 95.1197C44.7929 95.5 41.341 95.5 37.8481 95.5H31.5608C30.2458 95.331 28.9719 95.2464 27.7391 95.2464C24.013 95.0548 20.3051 94.5887 16.6439 93.8519C8.71283 92.3305 3.53506 89.6259 1.31601 85.3999C0.459378 83.7629 0.00776189 81.9342 0.000495035 80.0752C-0.0168355 78.2048 0.421123 76.3597 1.27492 74.7082C3.45287 70.4822 8.63065 67.7353 16.6439 66.2562C20.3213 65.5344 24.0418 65.0685 27.7802 64.8616ZM38.0125 0.5C51.7885 0.5 62.9562 11.9847 62.9562 26.1517C62.9562 40.3187 51.7885 51.8034 38.0125 51.8034C24.2364 51.8034 13.0687 40.3187 13.0687 26.1517C13.0687 11.9847 24.2364 0.5 38.0125 0.5Z" fill="#666695"/>
</svg>
