<svg width="65" height="65" viewBox="0 0 65 65" fill="none" xmlns="http://www.w3.org/2000/svg">
<path d="M29.6334 48.552L29.8974 51.8944L29.0951 53.0898L26.8729 53.3132L26.428 52.6145L25.2225 43.3672L21.5195 41.0191L24.1002 38.48L23.762 35.2849L29.0311 32.111L28.8077 31.4448L32.9341 28.3339L34.8384 30.3977L35.5057 32.8728L32.1409 36.332L30.522 38.0149L30.0467 41.8235L30.0772 45.5995L29.6334 48.552Z" fill="#EDB29F"/>
<path d="M21.5818 44.2142L20.0178 42.8391L19.7842 42.3312L21.8154 41.082L25.2229 42.4582L23.4455 44.2985L21.5818 44.2142Z" fill="#30384C"/>
<path d="M37.1348 10.9738L36.627 8.05389L39.8221 7.07991L42.5724 6.78436L44.3071 7.10124L44.0745 9.93686L42.742 13.195L42.0646 13.5545L40.8794 12.6445L39.8851 12.9198L39.1873 14.105L37.1348 10.9738Z" fill="#EDB29F"/>
<path d="M37.0496 6.53046L36.6475 8.22249C36.6475 8.22249 36.8374 8.73031 37.5991 8.62468C38.3608 8.51906 39.0382 7.65171 39.5877 7.41914C40.1382 7.18554 40.5404 7.05859 40.8156 7.39781C41.0898 7.73601 41.1964 8.07421 41.1964 8.07421L41.6616 8.26515C41.6616 8.26515 41.5773 7.54609 41.8525 7.50343C42.1268 7.46078 43.3546 7.33382 43.3546 7.33382L41.8942 6.33953L41.0482 5.45085L39.1652 5.17664L37.5148 6.06429L37.0496 6.53046Z" fill="#546187"/>
<path d="M41.1332 5.83171C41.1332 5.83171 40.3298 5.72609 39.6951 5.85304C39.0603 5.97999 38.5525 6.3182 38.2133 6.59445C37.8751 6.86866 36.9234 7.07991 36.8595 7.07991C36.7955 7.07991 36.5212 5.51484 36.5212 5.51484L35.918 4.46671L36.7955 3.67452L36.8381 2.69952L38.9963 3.22968L40.3715 4.56218L41.0489 5.45085L41.1332 5.83171Z" fill="#292C33"/>
<path d="M24.2697 35.9196C24.2697 35.9196 29.2848 33.0637 29.2848 32.8098C29.2848 32.5559 29.0309 32.111 29.0309 32.111C29.0309 32.111 29.9196 30.4921 30.8083 29.9213C31.697 29.3495 32.934 28.3339 32.934 28.3339L27.2536 23.8276L28.777 22.3671L34.4473 18.7383L35.2516 18.4001C35.2516 18.4001 36.2348 17.162 37.0595 17.0036C37.8852 16.8452 39.9164 16.4958 39.9164 16.4958L39.3781 14.0837L38.4884 11.9895C38.4884 11.9895 38.8693 11.6401 38.393 10.8144C37.9177 9.98969 37.7968 9.06953 36.4927 8.87859C35.1877 8.68867 29.75 9.76726 29.75 9.76726L24.1641 12.0951L20.1442 15.3532L17.7321 17.6384L15.0681 21.4449L14.8965 24.2826L16.5895 27.2868L24.2697 35.9196ZM36.7111 2.84883C36.7111 2.84883 38.5098 3.03875 39.2075 3.67351C39.9062 4.30828 40.2658 4.62617 40.7523 5.38789C41.2398 6.14961 41.387 6.59343 41.7679 6.80469C42.1488 7.01695 44.2013 7.90562 44.4552 8.01125C44.7091 8.11687 45.1966 8.30781 45.3439 8.18086C45.4922 8.0539 44.963 5.15429 44.963 5.15429L42.4666 2.99609L39.7366 2.48828L36.5212 2.3725L36.7111 2.84883Z" fill="#2E2B57"/>
<path d="M37.2612 2.3613C37.2612 2.3613 39.0589 2.55224 39.7577 3.187C40.4564 3.82177 40.8159 4.13864 41.3024 4.90036C41.7899 5.66208 41.9372 6.10692 42.318 6.31817C42.6989 6.53044 44.7515 7.41911 45.0054 7.52474C45.2593 7.63036 45.3649 7.65169 45.5132 7.52474C45.6615 7.39778 44.7088 4.75208 44.7088 4.75208L42.2124 2.59489L40.2868 2.00177L37.0703 1.88599L37.2612 2.3613Z" fill="#93F8FF"/>
<path d="M39.0176 5.93737C39.0805 6.00136 38.9973 6.12831 39.2715 6.42487C39.5457 6.72042 39.759 6.84737 39.822 7.07995C39.8849 7.31354 40.1388 12.5176 40.1388 12.5176L40.8802 12.6446C40.8802 12.6446 40.7949 9.57737 40.668 9.04823C40.541 8.51909 40.5837 7.03729 40.604 6.89003C40.6253 6.74175 40.9219 6.2969 40.9645 6.12831C41.0062 5.9587 40.7523 5.3869 40.7523 5.3869L39.0176 5.93737Z" fill="#292C33"/>
<path d="M36.0977 16.6654L39.6523 15.9453L44.2227 21.1504L47.2269 23.268L49.9355 25.9756L51.1624 26.4834L51.8348 26.844L53.5644 27.4462L54.58 29.4775L54.2306 30.5886C54.2306 30.5886 53.4689 31.3818 53.0251 31.4458C52.5802 31.5087 51.6916 31.0964 51.6916 31.0964L50.0889 29.3191L46.328 26.2092L41.6836 23.5219L37.7582 18.8774L36.0977 16.6654Z" fill="#EDB29F"/>
<path d="M15.3613 21.2357C15.3613 21.2357 15.7005 23.2243 17.5195 25.6364C19.3395 28.0485 24.8828 34.6074 25.0524 34.8613C25.222 35.1152 28.6914 33.2109 28.6914 33.2109C28.6914 33.2109 23.6559 25.0016 21.9212 23.2243C20.1855 21.4469 17.6891 18.4001 17.4779 18.0192C17.2656 17.6383 15.3613 21.2357 15.3613 21.2357Z" fill="#93F8FF"/>
<path d="M20.1437 42.2043C20.1437 42.2043 20.4606 42.8807 20.8628 43.2829C21.265 43.6851 22.2806 44.1086 22.6605 44.1289C23.0423 44.1502 23.4445 44.2985 23.4445 44.2985L25.0949 47.0488L24.9883 48.5093L22.957 47.6206L19.509 45.5467L19.0215 44.6164L19.5933 42.8594L20.1437 42.2043Z" fill="#2E2B57"/>
<path d="M26.4707 52.847C26.4707 52.847 27.401 52.9526 28.0358 52.7201C28.6705 52.4865 29.8984 51.8943 29.8984 51.8943L30.7231 52.974L29.4749 54.4761L26.8932 54.9636L26.5123 53.9043L26.4707 52.847Z" fill="#30384C"/>
<path d="M14.3036 63.0134C7.75281 63.0134 2.42383 57.6844 2.42383 51.1326C2.42383 44.5819 7.75281 39.2529 14.3036 39.2529C20.8544 39.2529 26.1834 44.5819 26.1834 51.1326C26.1834 57.6834 20.8544 63.0134 14.3036 63.0134ZM14.3036 40.1619C8.25352 40.1619 3.3318 45.0826 3.3318 51.1326C3.3318 57.1827 8.25352 62.1054 14.3036 62.1054C20.3537 62.1054 25.2754 57.1837 25.2754 51.1337C25.2754 45.0836 20.3537 40.1619 14.3036 40.1619Z" fill="#7C7FD2"/>
<path d="M14.3045 59.6599C9.6032 59.6599 5.77734 55.834 5.77734 51.1327C5.77734 46.4314 9.6032 42.6065 14.3045 42.6065C19.0059 42.6065 22.8307 46.4314 22.8307 51.1327C22.8307 55.835 19.0059 59.6599 14.3045 59.6599ZM14.3045 43.5145C10.1039 43.5145 6.68633 46.9331 6.68633 51.1327C6.68633 55.3333 10.1039 58.7509 14.3045 58.7509C18.5052 58.7509 21.9217 55.3333 21.9217 51.1337C21.9217 46.9331 18.5052 43.5145 14.3045 43.5145ZM50.9513 59.6599C46.25 59.6599 42.4241 55.834 42.4241 51.1327C42.4241 46.4314 46.25 42.6065 50.9513 42.6065C55.6526 42.6065 59.4775 46.4314 59.4775 51.1327C59.4775 55.835 55.6526 59.6599 50.9513 59.6599ZM50.9513 43.5145C46.7507 43.5145 43.3331 46.9331 43.3331 51.1327C43.3331 55.3333 46.7507 58.7509 50.9513 58.7509C55.1519 58.7509 58.5695 55.3333 58.5695 51.1337C58.5695 46.9331 55.1519 43.5145 50.9513 43.5145Z" fill="#7C7FD2"/>
<path d="M26.5122 53.9043C26.5122 53.9043 26.8514 54.3918 27.5918 54.3491C28.3332 54.3065 29.3488 54.0526 29.7287 53.7144C30.1095 53.3762 30.5544 53.0796 30.5544 53.0796L32.7542 54.1155L34.6798 54.8772L36.6055 55.2378L36.4998 56.2961L34.6372 56.8242L31.3577 57.1847L28.5018 57.0151L26.6391 57.2264L26.1953 55.2165L26.5122 53.9043Z" fill="#2E2B57"/>
<path d="M51.0352 63.0135C44.4845 63.0135 39.1555 57.6845 39.1555 51.1327C39.1555 44.5819 44.4845 39.2529 51.0352 39.2529C57.586 39.2529 62.915 44.5819 62.915 51.1327C62.915 57.6835 57.586 63.0135 51.0352 63.0135ZM51.0352 40.1619C44.9852 40.1619 40.0634 45.0826 40.0634 51.1327C40.0634 57.1828 44.9852 62.1055 51.0352 62.1055C57.0853 62.1055 62.007 57.1838 62.007 51.1337C62.007 45.0836 57.0853 40.1619 51.0352 40.1619ZM27.2107 57.718C26.4642 57.718 26.1687 57.5585 25.9402 56.9664C25.7827 56.5541 25.8396 55.6644 25.9391 54.4538L25.9747 54.0079C26.0417 53.1131 26.062 50.8676 25.9178 50.0256C25.7624 49.1319 25.2597 46.4486 24.7844 44.7718C24.3446 43.2138 24.8473 40.6149 25.2638 38.7959L25.2861 38.6963C25.4567 37.9478 25.2424 37.571 25.086 37.2958C24.8199 36.9342 19.1629 30.7217 15.4295 26.6378C15.0189 26.2273 14.6938 25.7394 14.4727 25.2025C14.2517 24.6657 14.1392 24.0903 14.1416 23.5097C14.1416 22.5916 14.3214 21.8187 14.6759 21.2144C16.8117 17.4055 19.9066 14.2215 23.6534 11.9784C27.4001 9.73539 31.6684 8.51129 36.0345 8.42767C36.0568 8.13314 36.1299 7.73299 36.3249 7.27291C36.5727 6.68791 36.525 6.18619 36.1878 5.82361C35.7115 5.3097 35.4931 4.63228 35.484 4.60385C35.4659 4.54517 35.4598 4.48346 35.4661 4.4224C35.4724 4.36133 35.491 4.30216 35.5206 4.24841C35.5503 4.19466 35.5905 4.14745 35.6388 4.10957C35.6871 4.0717 35.7426 4.04396 35.8019 4.02799L35.6902 3.85127C35.6469 3.78246 35.6229 3.70329 35.6206 3.62203C35.6184 3.54077 35.638 3.4604 35.6774 3.38932C35.7169 3.31823 35.7747 3.25904 35.8448 3.21792C35.9149 3.1768 35.9948 3.15527 36.0761 3.15556H36.3026L36.0893 2.51572C36.0674 2.44942 36.061 2.37896 36.0707 2.3098C36.0803 2.24063 36.1058 2.17463 36.1451 2.11688C36.1843 2.05914 36.2364 2.01122 36.2972 1.97682C36.3579 1.94243 36.4258 1.92248 36.4955 1.91853C36.9627 1.89111 41.1116 1.67885 42.3984 2.42228C43.154 2.86103 44.978 4.03002 45.5722 5.43158C46.0038 6.44822 46.0546 8.11283 45.6656 8.50181C45.4645 8.70392 45.0309 8.88775 44.6317 8.88267C43.3409 13.2174 43.155 13.4174 43.0748 13.5038C42.8747 13.7536 42.6096 14.0888 42.1485 14.1142C41.7768 14.1335 41.3888 13.9456 40.9765 13.5322C40.6393 13.195 40.4484 13.1087 40.3742 13.0863C40.3555 13.0995 40.3362 13.1117 40.3163 13.1229L38.9676 13.8206C38.9146 13.8481 38.8567 13.8649 38.7972 13.87C38.7377 13.8751 38.6777 13.8684 38.6208 13.8503C38.5639 13.8323 38.5111 13.8032 38.4654 13.7647C38.4198 13.7262 38.3821 13.6792 38.3547 13.6261C38.3272 13.5731 38.3104 13.5152 38.3053 13.4557C38.3002 13.3962 38.3069 13.3363 38.325 13.2794C38.343 13.2225 38.3721 13.1697 38.4106 13.124C38.449 13.0783 38.4961 13.0407 38.5491 13.0132L39.839 12.347C39.9575 12.246 40.1052 12.1855 40.2605 12.1743C40.682 12.1306 41.1024 12.3734 41.6194 12.8893C41.8794 13.1503 42.0835 13.2001 42.0967 13.2082C42.1505 13.2042 42.248 13.0823 42.3049 13.0092C42.3425 12.9614 42.376 12.9198 42.4085 12.8853C42.5223 12.6638 43.2647 10.3025 43.8934 8.17783C43.9119 8.11393 43.9442 8.05491 43.9882 8.00497C44.0321 7.95503 44.0865 7.9154 44.1475 7.88892C44.2086 7.86243 44.2747 7.84974 44.3412 7.85176C44.4077 7.85377 44.4729 7.87044 44.5322 7.90056L44.7221 7.99603C44.7404 7.98588 44.8897 7.93509 44.9791 7.88634C45.0502 7.58369 45.0705 6.57924 44.7353 5.78705C44.3971 4.98978 43.3541 4.02697 41.9423 3.21041C41.2375 2.80213 38.8345 2.73916 37.1415 2.79908L37.3649 3.46635C37.3871 3.53469 37.3929 3.60731 37.3818 3.67831C37.3706 3.74931 37.3429 3.81668 37.3009 3.87495C37.2588 3.93323 37.2036 3.98077 37.1397 4.01371C37.0759 4.04665 37.0051 4.06407 36.9333 4.06455H36.8967L36.9384 4.13056C36.9777 4.19464 37.0007 4.26744 37.0052 4.3425C37.0096 4.41756 36.9955 4.49258 36.9641 4.56089C36.9327 4.6292 36.8848 4.68869 36.8249 4.7341C36.765 4.77951 36.6947 4.80942 36.6205 4.82119L36.5798 4.82728C36.654 4.95424 36.7454 5.08728 36.8541 5.2051C37.435 5.83174 37.5477 6.71431 37.1618 7.62736C36.8744 8.3058 36.9404 8.80549 36.9414 8.81056C36.9505 8.87509 36.9457 8.94082 36.9274 9.00336C36.9091 9.0659 36.8776 9.12381 36.8352 9.17322C36.7927 9.22263 36.7401 9.26241 36.681 9.28989C36.6219 9.31738 36.5577 9.33193 36.4925 9.33259C32.2081 9.33673 28.002 10.4815 24.3065 12.6493C20.611 14.8171 17.5593 17.9297 15.465 21.6674C15.1877 22.1386 15.0496 22.7551 15.0496 23.5087C15.0496 24.4552 15.4183 25.3429 16.0855 26.0102C19.6768 29.9356 25.7015 36.5422 25.8701 36.8367C26.0671 37.182 26.4216 37.8046 26.1738 38.8984L26.1504 39C25.9219 39.9913 25.2313 43.0087 25.6598 44.524C26.1443 46.2394 26.6562 48.9653 26.8116 49.8702C26.9873 50.8889 26.9395 53.2797 26.8816 54.0749L26.8461 54.5279C26.7953 55.1302 26.6938 56.3814 26.7892 56.6404C26.8045 56.681 26.84 56.7745 26.8573 56.7978C26.8898 56.8049 27.0787 56.8273 27.6718 56.7948C28.0331 56.7696 28.3906 56.7056 28.7382 56.6038C29.1912 56.4881 29.6167 56.3753 30.221 56.483C30.7867 56.5845 32.7164 56.8974 33.796 56.676C34.8533 56.4576 36.0832 56.0117 36.2538 55.9122C36.3046 55.8797 36.3209 55.8685 36.3209 55.703C36.3158 55.6167 36.1441 55.3831 35.9684 55.3749C35.8537 55.3668 35.6658 55.3749 35.4515 55.382C34.6634 55.4074 34.0296 55.4135 33.6538 55.2531C33.471 55.1749 33.1409 54.987 32.7662 54.7717C32.2472 54.4731 31.6013 54.1024 31.2316 53.9744C30.4546 53.7083 29.8341 53.0908 29.6116 52.3656C29.4278 51.7685 29.112 49.4366 29.3425 47.6369C29.5863 45.7133 29.7325 43.2413 29.633 42.7375C29.5111 42.1353 29.373 39.6977 29.7894 38.7512C29.8706 38.5694 29.9529 38.3967 30.0331 38.2332C30.2738 37.7376 30.4627 37.3466 30.3937 36.9911C30.287 36.4447 28.1593 31.3361 27.4443 29.9985C27.1528 29.4521 26.8085 28.6985 26.4744 27.9703C26.0275 26.9953 25.5664 25.9888 25.2698 25.5552C25.1221 25.336 24.9772 25.1149 24.8352 24.892C24.4177 24.241 23.9434 23.5026 23.4844 23.1014C23.3937 23.0219 23.3382 22.9098 23.3301 22.7895C23.3219 22.6692 23.3617 22.5506 23.4407 22.4595C23.5203 22.369 23.6326 22.3137 23.7528 22.3057C23.8731 22.2978 23.9917 22.3377 24.0826 22.4169C24.6391 22.9044 25.149 23.6986 25.5999 24.4004C25.7452 24.6259 25.8843 24.8442 26.0194 25.0423C26.3606 25.5399 26.8166 26.5373 27.3011 27.5915C27.6322 28.3167 27.9653 29.0438 28.2456 29.5699C28.9007 30.7968 31.1402 36.073 31.2864 36.8164C31.4134 37.4705 31.1402 38.0342 30.8497 38.6303C30.7755 38.7847 30.6963 38.9462 30.6202 39.1178C30.3256 39.7881 30.4028 41.9524 30.5237 42.5588C30.673 43.3073 30.4526 46.1043 30.2423 47.7517C30.0331 49.397 30.3185 51.5724 30.481 52.0985C30.6181 52.5454 31.0284 52.9445 31.5271 53.1162C31.9791 53.2716 32.6382 53.6504 33.2191 53.9835C33.5543 54.1765 33.8468 54.3471 34.0113 54.4182C34.2338 54.5127 35.0066 54.4863 35.423 54.4741C35.6688 54.466 35.8811 54.4599 36.0152 54.467C36.6987 54.5005 37.2288 55.1586 37.2288 55.703C37.2288 56.1539 37.0816 56.4535 36.7515 56.6729C36.459 56.8679 35.0087 57.3534 33.9788 57.5667C32.818 57.8043 31.0284 57.5494 30.0616 57.3777C29.6553 57.3067 29.3669 57.3798 28.9677 57.4834C28.562 57.6003 28.1449 57.6732 27.7236 57.7007C27.5316 57.7109 27.362 57.718 27.2107 57.718Z" fill="black"/>
<path d="M49.9348 25.9746L48.6602 27.7621L50.3735 29.2703L51.77 30.5398C51.77 30.5398 52.1031 30.4769 52.0716 30.2067C52.0402 29.9376 52.5795 30.0645 52.6434 29.9691C52.7064 29.8736 53.2782 29.5405 53.3259 29.4298C53.3727 29.318 53.9282 29.1759 53.9445 29.0489C53.9607 28.922 53.8023 27.7794 53.8023 27.7794L53.0873 27.1598L51.834 26.843L49.9348 25.9746Z" fill="#2E2B57"/>
<path d="M49.9582 25.9746L48.6836 27.7621L50.398 29.2703L51.7945 30.5398C51.7945 30.5398 52.5958 30.2382 52.5643 29.9691C52.548 29.834 51.8595 29.3912 51.437 28.8112C50.9342 28.1186 50.6874 27.2594 51.1333 26.5291L51.1617 26.4824L49.9592 25.9746H49.9582Z" fill="#30384C"/>
<path d="M30.9348 37.8127C30.8427 37.8131 30.7527 37.7855 30.6767 37.7335C30.6007 37.6815 30.5423 37.6077 30.5092 37.5217C30.4762 37.4358 30.47 37.3418 30.4916 37.2523C30.5132 37.1628 30.5615 37.082 30.6301 37.0205C31.6914 36.0628 34.528 33.475 34.9018 33.0261C35.1913 32.6788 35.2349 31.3737 34.4397 30.2839C33.7714 29.3688 28.6039 25.5318 26.6691 24.1313C26.6135 24.0905 26.5678 24.0377 26.5355 23.9768C26.5032 23.9158 26.4852 23.8483 26.4827 23.7794C26.4803 23.7105 26.4935 23.6419 26.5214 23.5788C26.5493 23.5157 26.5911 23.4598 26.6437 23.4152C26.791 23.2913 30.2695 20.3856 31.728 19.5691C33.1438 18.7779 36.2231 16.9183 36.2536 16.9C36.3564 16.8441 36.4769 16.83 36.5899 16.8606C36.7028 16.8913 36.7997 16.9642 36.8602 17.0644C36.9208 17.1646 36.9404 17.2843 36.915 17.3985C36.8896 17.5128 36.8211 17.6129 36.7238 17.678C36.6934 17.6973 33.6008 19.563 32.1728 20.3633C31.083 20.9706 28.676 22.9186 27.6766 23.7413C29.3545 24.9651 34.4031 28.6924 35.174 29.7487C36.0789 30.9898 36.279 32.7935 35.6005 33.608C35.1171 34.187 31.6345 37.3384 31.2395 37.6959C31.156 37.7715 31.0473 37.8132 30.9348 37.8127Z" fill="#231F20"/>
<path d="M30.5544 53.0796L44.4766 38.7126L44.8148 39.1777L46.6774 45.0176L50.5703 50.3496L47.0999 41.6752L45.7461 36.6813L44.6878 33.3379L43.5452 30.1224L42.8262 31.3493L42.1071 32.9997L34.9124 34.0153L30.7443 34.5546L30.2365 35.1264L30.8083 35.8881L41.5353 34.7456L42.7094 35.7297L42.6789 37.1892L39.822 40.9977L34.4899 46.7106L31.6543 49.6732L29.75 51.4506L30.5544 53.0796Z" fill="#E6E7E8"/>
<path d="M53.8079 31.5494C53.7199 31.5488 53.634 31.5227 53.5605 31.4744C53.487 31.4261 53.4291 31.3575 53.3937 31.277C53.3583 31.1965 53.3469 31.1075 53.3609 31.0207C53.3749 30.9338 53.4137 30.8529 53.4727 30.7877C53.6109 30.6357 53.7424 30.4778 53.8668 30.3144C53.9277 30.1905 53.9785 29.5496 53.9358 28.9027C53.9125 28.5909 53.1223 27.497 52.778 27.301C52.5617 27.1771 51.7604 27.0705 51.1408 27.043C51.0356 27.038 50.9354 26.9966 50.8574 26.9258C50.7794 26.855 50.7285 26.7593 50.7133 26.6551C50.5578 26.5441 50.3953 26.4434 50.2268 26.3534C50.1362 26.4134 50.0283 26.4417 49.9199 26.434C49.8115 26.4263 49.7087 26.383 49.6276 26.3108C49.524 26.2143 47.0641 23.9586 46.3379 23.1461C45.95 22.7124 44.5667 21.6684 43.4556 20.8295C42.444 20.0657 41.8641 19.6239 41.6844 19.4248C41.3675 19.0724 39.2976 16.3739 38.8772 14.9307C38.6639 14.1944 38.0972 12.2403 37.4797 11.6655C37.0551 11.2694 36.0334 11.0987 35.6759 11.0662C35.6165 11.061 35.5588 11.0441 35.5059 11.0165C35.4531 10.9889 35.4062 10.9511 35.368 10.9054C35.3298 10.8596 35.301 10.8067 35.2832 10.7498C35.2655 10.6929 35.2591 10.633 35.2646 10.5737C35.2859 10.3238 35.5327 10.1278 35.7562 10.1623C35.9197 10.1755 37.371 10.3218 38.1012 11.0012C38.803 11.6563 39.3098 13.1544 39.7506 14.6768C40.103 15.8915 42.0083 18.4255 42.3597 18.8165C42.4897 18.9607 43.2941 19.568 44.003 20.1043C45.2055 21.0113 46.5685 22.0401 47.0154 22.5398C47.5953 23.1888 49.4285 24.8899 50.0409 25.4546C50.2521 25.4157 50.4702 25.4509 50.6584 25.5541C51.1398 25.8141 51.3795 26.002 51.5004 26.1534C51.9869 26.1909 52.8339 26.2854 53.2279 26.5109C53.7561 26.8135 54.7981 28.1562 54.8428 28.8448C54.8733 29.312 54.9088 30.4403 54.595 30.8598C54.4517 31.0469 54.3009 31.2281 54.143 31.4031C54.1003 31.4493 54.0484 31.4861 53.9907 31.5113C53.9331 31.5365 53.8708 31.5494 53.8079 31.5494Z" fill="#231F20"/>
<path d="M38.9958 34.9883L39.9271 33.2322L37.4297 33.6558L36.0332 35.5601L38.9958 34.9883Z" fill="#2E2B57"/>
<path d="M36.2172 35.4545L37.7051 33.6974L33.7157 34.121L31.4844 36.0253L36.2172 35.4545Z" fill="#30384C"/>
<path d="M40.9199 41.9047L40.5005 39.9608L38.8633 41.8935L39.0217 44.2497L40.9199 41.9047Z" fill="#2E2B57"/>
<path d="M39.0948 44.0497L39.1009 41.7483L36.3222 44.6428L35.8418 47.5353L39.0948 44.0497Z" fill="#30384C"/>
<path d="M33.7694 46.3724L32.3516 45.1445L33.093 43.4738L34.8277 41.992L35.5894 41.3156L36.4994 40.173L37.7689 40.5112L38.361 41.4842L37.6836 42.3312C37.6836 42.3312 37.0915 42.3312 36.9645 42.6055C36.8376 42.8807 37.1128 43.6424 37.1128 43.6424C37.1128 43.6424 35.7163 45.3781 35.632 45.4624C35.5467 45.5467 33.7694 46.3724 33.7694 46.3724Z" fill="#2E2B57"/>
<path d="M30.0139 35.168C29.8997 35.1664 29.7902 35.1218 29.7073 35.0432C29.6244 34.9646 29.5741 34.8576 29.5665 34.7436C29.5588 34.6297 29.5943 34.5169 29.6659 34.4279C29.7375 34.3389 29.84 34.2801 29.953 34.2631C33.144 33.8223 41.5311 32.6564 42.0135 32.5548C42.3639 32.4807 42.5416 32.2562 42.5416 31.8886C42.5416 31.5778 42.1892 30.5784 41.9404 29.966C41.9178 29.9108 41.9064 29.8517 41.9067 29.792C41.907 29.7324 41.9191 29.6734 41.9422 29.6184C41.9653 29.5634 41.999 29.5135 42.0414 29.4716C42.0837 29.4296 42.134 29.3964 42.1892 29.3739C42.2444 29.3514 42.3035 29.3399 42.3632 29.3402C42.4228 29.3405 42.4818 29.3526 42.5368 29.3757C42.5918 29.3988 42.6417 29.4325 42.6836 29.4749C42.7256 29.5173 42.7588 29.5675 42.7813 29.6227C42.893 29.8969 43.4496 31.2904 43.4496 31.8886C43.4496 32.6858 42.9712 33.282 42.2004 33.4435C41.589 33.5725 30.5461 35.099 30.0769 35.164C30.056 35.1667 30.0349 35.1681 30.0139 35.168ZM31.0305 50.7508C30.9423 50.7499 30.8563 50.7235 30.7828 50.6747C30.7093 50.6259 30.6516 50.5569 30.6165 50.4759C30.5815 50.395 30.5707 50.3057 30.5854 50.2187C30.6001 50.1317 30.6397 50.0509 30.6994 49.986C30.7766 49.9027 38.4771 41.6995 40.8069 39.4337C42.5944 37.6939 42.4604 36.9677 42.3294 36.2649C42.296 36.0984 42.2716 35.9303 42.2562 35.7612C42.2278 35.3458 42.043 35.2787 41.5961 35.2148L41.4539 35.1924C41.0101 35.1924 34.8584 36.0273 30.8406 36.5919C30.7226 36.6058 30.6038 36.573 30.5096 36.5004C30.4155 36.4278 30.3535 36.3213 30.3369 36.2035C30.3203 36.0858 30.3505 35.9663 30.4209 35.8706C30.4913 35.7748 30.5964 35.7104 30.7137 35.6911C37.6666 34.7161 41.329 34.255 41.6174 34.2976L41.7261 34.3149C42.0968 34.3687 43.0809 34.5099 43.1632 35.6972C43.1723 35.8323 43.1977 35.9633 43.2231 36.0994C43.4171 37.1424 43.4161 38.1631 41.4397 40.0847C39.1251 42.3373 31.4388 50.5253 31.3616 50.6086C31.3191 50.6537 31.2678 50.6896 31.2109 50.7141C31.1539 50.7386 31.0925 50.751 31.0305 50.7508Z" fill="#231F20"/>
<path d="M48.8269 34.448C48.5849 34.4494 48.3433 34.4266 48.1058 34.3799C47.9933 34.3496 47.8967 34.2773 47.8359 34.1779C47.7752 34.0784 47.7549 33.9595 47.7792 33.8455C47.8036 33.7315 47.8707 33.6313 47.9668 33.5654C48.0629 33.4995 48.1807 33.4729 48.2957 33.4913C48.3506 33.5034 49.6546 33.7716 50.5484 32.8961C51.1415 32.3172 51.5295 31.2447 51.1222 30.5256C50.8754 30.093 50.395 29.9152 49.9309 29.7436C48.9823 29.3942 48.0926 29.4897 47.5147 29.6319L42.7921 30.8679C42.6756 30.8985 42.5517 30.8815 42.4477 30.8208C42.3437 30.76 42.2681 30.6604 42.2375 30.5439C42.207 30.4274 42.2239 30.3035 42.2847 30.1995C42.3454 30.0956 42.445 30.02 42.5615 29.9894L47.2913 28.7513C48.3059 28.5035 49.3256 28.5523 50.2457 28.8915C50.7749 29.0865 51.5 29.3546 51.9114 30.0767C52.5664 31.2295 52.0261 32.7234 51.1832 33.5471C50.4184 34.2956 49.4708 34.448 48.8269 34.448Z" fill="#231F20"/>
<path d="M22.0482 34.968L23.0943 34.904L23.5006 36.4467L22.0157 38.998L14.5895 50.6939L25.7299 53.0583L25.2525 54.2648L18.9374 53.4869L13.4784 51.4241L13.4307 49.6468L22.0482 34.968Z" fill="#E6E7E8"/>
<path d="M25.2004 42.1505C25.1043 42.1504 25.0106 42.1199 24.9329 42.0634C24.8552 42.0068 24.7974 41.9271 24.7677 41.8356L22.378 34.4734C22.3594 34.4167 22.3522 34.357 22.3568 34.2976C22.3614 34.2382 22.3776 34.1803 22.4046 34.1272C22.4316 34.0741 22.4688 34.0268 22.514 33.9881C22.5593 33.9494 22.6118 33.92 22.6684 33.9016C22.9071 33.8203 23.1641 33.9523 23.2413 34.192L25.632 41.5553C25.628 41.795 25.5792 42.0509 25.3395 42.1281C25.2943 42.1428 25.248 42.1504 25.2004 42.1505Z" fill="#231F20"/>
<path d="M25.3432 54.7767L16.7103 53.4442C15.846 53.3112 12.983 52.8165 12.466 52.0406C11.9379 51.2484 12.6326 50.0906 12.7128 49.9606L22.4628 33.6964C22.5071 33.6227 22.5712 33.5631 22.648 33.5243C22.7247 33.4856 22.8108 33.4694 22.8963 33.4776C22.9818 33.4858 23.0633 33.518 23.1313 33.5706C23.1993 33.6231 23.251 33.6939 23.2804 33.7746L24.095 36.0181C24.1183 36.0831 24.1266 36.1524 24.1192 36.2211C24.1118 36.2897 24.0889 36.3557 24.0523 36.4142L15.0539 50.7934L25.9292 52.5464C26.0481 52.5655 26.1546 52.6311 26.2251 52.7287C26.2957 52.8263 26.3246 52.948 26.3055 53.0669C26.2863 53.1858 26.2208 53.2923 26.1231 53.3628C26.0255 53.4334 25.9039 53.4623 25.785 53.4432L14.2322 51.5815C14.1581 51.5699 14.0881 51.5399 14.0285 51.4943C13.9689 51.4487 13.9217 51.389 13.891 51.3205C13.8597 51.2524 13.8459 51.1775 13.8509 51.1026C13.8558 51.0278 13.8794 50.9554 13.9194 50.8919L23.1646 36.1197L22.7503 34.9832L13.4878 50.4359C13.2846 50.765 13.0815 51.3256 13.2227 51.5369C13.4482 51.809 15.1443 52.2833 16.8485 52.5454L25.4813 53.8789L25.3432 54.7767Z" fill="#7C7FD2"/>
<path d="M25.169 49.2385C25.169 49.2385 23.9503 48.5966 23.4049 48.2767C22.8189 47.9324 20.03 46.3552 19.4104 46.1195C18.4659 45.759 18.2607 44.395 18.2607 44.0761C18.2607 43.9556 18.3086 43.84 18.3939 43.7547C18.4791 43.6695 18.5947 43.6216 18.7152 43.6216C18.8358 43.6216 18.9514 43.6695 19.0366 43.7547C19.1218 43.84 19.1697 43.9556 19.1697 44.0761C19.1697 44.3198 19.3698 45.1323 19.7344 45.2705C20.4586 45.5457 23.4008 47.2205 23.865 47.4927C24.3982 47.8065 25.5915 48.4341 25.5915 48.4352L25.169 49.2385ZM32.774 54.7503C32.7093 54.7506 32.6453 54.737 32.5863 54.7105C32.5273 54.6839 32.4746 54.645 32.4319 54.5964C32.3892 54.5478 32.3573 54.4907 32.3386 54.4287C32.3198 54.3668 32.3145 54.3016 32.3231 54.2374C32.4402 53.3439 32.2276 52.4384 31.7251 51.6904C31.2225 50.9424 30.4646 50.4032 29.5931 50.1739C29.4789 50.1415 29.382 50.0657 29.323 49.9627C29.264 49.8597 29.2478 49.7377 29.2776 49.6229C29.3075 49.508 29.3812 49.4094 29.4828 49.3482C29.5845 49.287 29.7061 49.268 29.8216 49.2954C30.9068 49.5807 31.8509 50.2517 32.477 51.1829C33.103 52.1141 33.3683 53.2416 33.2229 54.3542C33.2091 54.4636 33.1559 54.5641 33.0732 54.637C32.9906 54.7099 32.8842 54.7502 32.774 54.7503ZM50.8664 30.2798C50.8035 30.2802 50.7412 30.2674 50.6835 30.2424C50.6259 30.2174 50.574 30.1807 50.5312 30.1346C50.1504 29.7202 49.4618 29.0022 49.2383 28.8356C49.1368 28.7595 48.9011 28.599 48.6117 28.403C47.7007 27.7814 46.9237 27.2452 46.6515 26.973C46.4322 26.7678 44.6914 25.7796 43.5397 25.1256C42.5951 24.5893 41.7806 24.1272 41.4353 23.9017C40.4603 23.267 38.5885 20.9788 37.8034 19.8951C36.9577 18.7462 36.0994 17.6066 35.2288 16.4765L35.9499 15.923C35.9499 15.923 37.647 18.1299 38.5397 19.3609C39.4386 20.603 41.1631 22.6413 41.9319 23.139C42.2539 23.3502 43.0968 23.8286 43.9886 24.3354C46.1265 25.5491 47.0578 26.0945 47.2934 26.3311C47.527 26.5647 48.5264 27.2452 49.1236 27.6514C49.4282 27.8586 49.6781 28.0282 49.7837 28.1084C50.1463 28.3786 51.0939 29.4023 51.2005 29.5171C51.2597 29.5823 51.2988 29.6632 51.3131 29.7501C51.3273 29.837 51.3161 29.9262 51.2808 30.0068C51.2454 30.0875 51.1875 30.1562 51.114 30.2046C51.0404 30.2531 50.9544 30.2792 50.8664 30.2798Z" fill="#231F20"/>
<path d="M41.9802 4.56218C41.7625 4.27707 41.4888 4.03961 41.1758 3.86444C41.4602 3.90913 41.9182 4.02186 42.361 4.35093C42.8546 4.71757 43.3695 5.3828 43.202 5.65702C43.1329 5.76975 42.9501 5.81546 42.8059 5.78397C42.4301 5.70475 42.4179 5.14413 41.9802 4.56218Z" fill="#2E2B57"/>
<path d="M38.3887 4.61805C38.2099 4.60789 37.9875 4.6282 37.7285 4.72266C37.8646 4.60383 38.1043 4.42914 38.4405 4.34891C38.8163 4.26055 39.3444 4.28086 39.4084 4.47281C39.4348 4.55101 39.383 4.65766 39.3098 4.71453C39.1199 4.86281 38.8457 4.64344 38.3887 4.61805ZM38.3887 5.35844C38.2099 5.34828 37.9875 5.36859 37.7285 5.46305C37.8646 5.34422 38.1043 5.16953 38.4405 5.09031C38.8163 5.00094 39.3444 5.02125 39.4084 5.2132C39.4348 5.29242 39.383 5.39805 39.3098 5.45492C39.1199 5.6032 38.8457 5.38383 38.3887 5.35844Z" fill="#546187"/>
<path d="M46.9096 40.5539L45.2155 41.6102L45.1729 40.5529L46.485 39.1138L46.9096 40.5539Z" fill="#2E2B57"/>
<path d="M48.0095 47.186L45.7244 42.7121L45.375 41.1887L46.4861 40.2675L47.9466 44.0131L49.6914 47.9802L48.0095 47.186Z" fill="#30384C"/>
<path d="M19.5719 43.1235C19.4796 43.1228 19.3897 43.0941 19.3141 43.0412C19.2385 42.9883 19.1808 42.9136 19.1487 42.8271C19.1165 42.7406 19.1114 42.6464 19.134 42.5569C19.1566 42.4675 19.2059 42.387 19.2753 42.3262L23.8883 38.348C23.9331 38.3066 23.9857 38.2746 24.0431 38.254C24.1005 38.2334 24.1614 38.2245 24.2223 38.228C24.2832 38.2314 24.3428 38.2471 24.3975 38.2741C24.4522 38.301 24.5008 38.3388 24.5406 38.385C24.5804 38.4312 24.6105 38.4849 24.6291 38.543C24.6476 38.6011 24.6543 38.6623 24.6487 38.7231C24.6431 38.7838 24.6253 38.8427 24.5964 38.8964C24.5674 38.9501 24.528 38.9975 24.4804 39.0356L19.8695 43.0138C19.787 43.0856 19.6812 43.1239 19.5719 43.1235ZM23.4445 44.7525C23.3554 44.7522 23.2684 44.7258 23.1942 44.6766C23.1201 44.6273 23.062 44.5574 23.0271 44.4754C22.9923 44.3935 22.9823 44.3031 22.9984 44.2155C23.0144 44.1279 23.0558 44.047 23.1174 43.9827L24.8948 42.1424C25.0705 41.9616 25.1944 41.9596 25.3742 42.1302C25.4608 42.214 25.5107 42.3288 25.5128 42.4493C25.5148 42.5698 25.469 42.6863 25.3853 42.7731L23.7715 44.6134C23.7292 44.6574 23.6784 44.6924 23.6222 44.7163C23.566 44.7402 23.5055 44.7525 23.4445 44.7525ZM32.2042 51.9899C32.1147 51.9907 32.0269 51.965 31.9519 51.916C31.877 51.867 31.8183 51.7969 31.7831 51.7145C31.748 51.6321 31.7381 51.5412 31.7547 51.4531C31.7713 51.3651 31.8135 51.284 31.8762 51.22L44.148 38.3978C44.204 38.3387 44.2749 38.2958 44.3532 38.2736C44.4315 38.2513 44.5143 38.2506 44.593 38.2715C44.6717 38.2924 44.7433 38.3341 44.8003 38.3923C44.8573 38.4504 44.8975 38.5228 44.9168 38.6019C44.927 38.6456 46.0137 42.964 47.0699 44.7911C47.4579 45.4614 48.1465 46.3887 48.8696 47.3017C48.6127 46.7736 48.3598 46.2353 48.1343 45.7194C47.0882 43.3428 44.4699 34.8888 44.3592 34.5303C44.2628 34.2357 43.4198 31.5464 44.148 30.1326C44.3532 29.7335 44.6761 29.4562 45.0814 29.3292C45.2936 29.2622 45.7242 29.1546 46.1315 29.053C46.424 28.9809 46.7033 28.9108 46.8668 28.8651C46.9806 28.8388 47.1001 28.8574 47.2007 28.9168C47.3012 28.9762 47.375 29.072 47.4069 29.1844C47.4387 29.2968 47.4261 29.4171 47.3717 29.5204C47.3173 29.6237 47.2253 29.7022 47.1146 29.7396C46.945 29.7883 46.6556 29.8594 46.3509 29.9356C45.9649 30.031 45.5546 30.1326 45.3525 30.1956C45.2652 30.2236 45.1848 30.2696 45.1163 30.3306C45.0479 30.3917 44.9931 30.4664 44.9554 30.55C44.4842 31.4651 44.991 33.536 45.2256 34.255C45.255 34.3495 47.9403 43.0239 48.9651 45.3528C49.9929 47.6877 51.5651 50.5243 51.5814 50.5528C51.6337 50.6507 51.6485 50.7644 51.623 50.8725C51.5975 50.9805 51.5334 51.0756 51.4428 51.1398C51.3521 51.204 51.2412 51.2329 51.1308 51.2211C51.0204 51.2093 50.918 51.1577 50.843 51.0758C50.7028 50.9164 47.3929 47.1677 46.2828 45.2461C45.4399 43.7867 44.6172 40.9846 44.2435 39.6135L32.5323 51.8477C32.4899 51.8922 32.4388 51.9276 32.3822 51.9517C32.3256 51.9758 32.2647 51.9881 32.2032 51.9878L32.2042 51.9899Z" fill="#7C7FD2"/>
<path d="M14.1562 53.5092C15.4452 53.5092 16.4901 52.4643 16.4901 51.1753C16.4901 49.8864 15.4452 48.8414 14.1562 48.8414C12.8672 48.8414 11.8223 49.8864 11.8223 51.1753C11.8223 52.4643 12.8672 53.5092 14.1562 53.5092Z" fill="#30384C"/>
<path d="M14.1562 54.0171C13.4027 54.0165 12.6802 53.7169 12.1474 53.1841C11.6146 52.6513 11.315 51.9288 11.3145 51.1753C11.3155 50.422 11.6153 49.6998 12.148 49.1671C12.6807 48.6344 13.4028 48.3347 14.1562 48.3336C14.9095 48.3347 15.6317 48.6344 16.1644 49.1671C16.6971 49.6998 16.9968 50.422 16.9979 51.1753C16.9968 51.9289 16.6969 52.6512 16.164 53.1839C15.6311 53.7166 14.9097 54.0162 14.1562 54.0171ZM14.1562 49.3492C13.672 49.3498 13.2079 49.5423 12.8655 49.8847C12.5232 50.227 12.3306 50.6912 12.3301 51.1753C12.3306 51.6593 12.523 52.1233 12.8652 52.4656C13.2073 52.8079 13.6712 53.0006 14.1552 53.0014C14.6397 53.0014 15.1043 52.8091 15.4471 52.4667C15.7899 52.1243 15.9827 51.6598 15.9833 51.1753C15.9827 50.6908 15.7899 50.2264 15.4471 49.884C15.1043 49.5416 14.6407 49.3492 14.1562 49.3492Z" fill="#7C7FD2"/>
<path d="M36.3457 40.6483C36.3457 40.6483 37.0434 40.9347 37.3613 41.3471C37.6782 41.7594 37.8844 42.0773 37.8844 42.0773L38.3617 41.4842L37.7686 40.5112L36.6951 40.2208L36.3457 40.6483Z" fill="#30384C"/>
<path d="M51.0218 52.4783C51.7415 52.4783 52.3248 51.895 52.3248 51.1753C52.3248 50.4556 51.7415 49.8723 51.0218 49.8723C50.3021 49.8723 49.7188 50.4556 49.7188 51.1753C49.7188 51.895 50.3021 52.4783 51.0218 52.4783Z" fill="#30384C"/>
<path d="M51.0215 52.9872C50.0231 52.9872 49.2106 52.1747 49.2106 51.1753C49.2106 50.177 50.0231 49.3635 51.0215 49.3635C52.0209 49.3635 52.8334 50.177 52.8334 51.1753C52.8334 52.1747 52.0209 52.9872 51.0215 52.9872ZM51.0215 50.3791C50.8173 50.3894 50.6248 50.4778 50.4839 50.626C50.343 50.7742 50.2645 50.9708 50.2645 51.1753C50.2645 51.3798 50.343 51.5765 50.4839 51.7247C50.6248 51.8729 50.8173 51.9613 51.0215 51.9716C51.2327 51.9716 51.4352 51.8877 51.5845 51.7384C51.7338 51.589 51.8177 51.3865 51.8177 51.1753C51.8177 50.9642 51.7338 50.7616 51.5845 50.6123C51.4352 50.463 51.2327 50.3791 51.0215 50.3791ZM34.1499 47.123C34.0518 47.1231 33.9563 47.0913 33.8777 47.0326C31.7388 45.433 31.6992 45.2756 31.6576 45.108C31.5073 44.5159 33.2582 42.9569 33.4177 42.8767C33.7975 42.6867 34.5247 42.5517 34.8527 42.9884C34.9248 43.0852 34.9557 43.2066 34.9385 43.3261C34.9214 43.4456 34.8577 43.5535 34.7613 43.6262C34.6783 43.6872 34.5771 43.7184 34.4741 43.7149C34.3711 43.7114 34.2723 43.6734 34.1936 43.6069C34.0654 43.6025 33.9382 43.6308 33.8239 43.6892C33.636 43.8049 32.9576 44.5321 32.659 44.9221C33.0094 45.2248 33.763 45.8118 34.4221 46.3044C34.4989 46.3614 34.5558 46.4411 34.5846 46.5323C34.6133 46.6235 34.6126 46.7215 34.5824 46.8122C34.5522 46.903 34.4942 46.9819 34.4165 47.0377C34.3389 47.0935 34.2456 47.1233 34.1499 47.123Z" fill="#7C7FD2"/>
<path d="M33.896 43.483C33.8069 43.4837 33.7196 43.458 33.645 43.4093C33.5703 43.3606 33.5117 43.291 33.4765 43.2091C33.4413 43.1273 33.431 43.0368 33.4469 42.9492C33.4628 42.8615 33.5042 42.7804 33.5659 42.7162L35.0691 41.1298C35.1452 41.0485 35.2519 40.9977 35.3636 40.9886C35.4601 40.9805 35.5779 40.9581 35.6551 40.9358C35.652 40.8771 35.6446 40.8187 35.6327 40.7611C35.6155 40.6827 35.6191 40.6011 35.6431 40.5245C35.6672 40.4479 35.7109 40.3789 35.7698 40.3244L36.5092 39.647C36.6514 39.5149 36.8647 39.4906 37.0373 39.586L37.7117 39.9598L37.9372 39.7648C37.9824 39.7257 38.0349 39.6959 38.0916 39.6771C38.1483 39.6583 38.2082 39.6509 38.2678 39.6552C38.3274 39.6595 38.3856 39.6756 38.439 39.7024C38.4924 39.7292 38.54 39.7663 38.5791 39.8115C38.6181 39.8567 38.6479 39.9092 38.6667 39.9659C38.6855 40.0226 38.693 40.0825 38.6886 40.1421C38.6843 40.2017 38.6683 40.2599 38.6415 40.3133C38.6146 40.3667 38.5776 40.4143 38.5323 40.4534L38.0652 40.8556C37.9945 40.9162 37.907 40.9537 37.8145 40.9632C37.7219 40.9726 37.6286 40.9535 37.5472 40.9084L36.8809 40.5387L36.559 40.8332C36.5712 41.014 36.5559 41.2425 36.4513 41.4314C36.2959 41.7107 35.9395 41.8285 35.6134 41.8752L34.2261 43.3418C34.1836 43.3867 34.1324 43.4224 34.0757 43.4469C34.0189 43.4713 33.9578 43.4829 33.896 43.483ZM34.0027 2.85798H23.2096C23.0892 2.85798 22.9737 2.81015 22.8886 2.72501C22.8035 2.63987 22.7556 2.5244 22.7556 2.404C22.7556 2.28359 22.8035 2.16812 22.8886 2.08298C22.9737 1.99784 23.0892 1.95001 23.2096 1.95001H34.0027C34.1231 1.95001 34.2385 1.99784 34.3237 2.08298C34.4088 2.16812 34.4566 2.28359 34.4566 2.404C34.4566 2.5244 34.4088 2.63987 34.3237 2.72501C34.2385 2.81015 34.1231 2.85798 34.0027 2.85798ZM29.346 4.97048C29.2864 4.97061 29.2273 4.959 29.1722 4.93631C29.1171 4.91362 29.067 4.88029 29.0247 4.83823C28.9394 4.75328 28.8913 4.63792 28.891 4.51751C28.8907 4.39711 28.9383 4.28153 29.0233 4.1962C29.1082 4.11087 29.2236 4.06278 29.344 4.06251L34.0006 4.04423H34.0027C34.1232 4.0441 34.2389 4.09185 34.3242 4.17699C34.4095 4.26213 34.4575 4.37768 34.4577 4.49821C34.4578 4.61875 34.41 4.73441 34.3249 4.81974C34.2398 4.90507 34.1242 4.95308 34.0037 4.95321L29.348 4.97048H29.346ZM63.667 63.1302H1.33203C1.19735 63.1302 1.06819 63.0767 0.972954 62.9815C0.87772 62.8863 0.824219 62.7571 0.824219 62.6224C0.824219 62.4877 0.87772 62.3586 0.972954 62.2634C1.06819 62.1681 1.19735 62.1146 1.33203 62.1146H63.667C63.8017 62.1146 63.9309 62.1681 64.0261 62.2634C64.1213 62.3586 64.1749 62.4877 64.1749 62.6224C64.1749 62.7571 64.1213 62.8863 64.0261 62.9815C63.9309 63.0767 63.8017 63.1302 63.667 63.1302Z" fill="#7C7FD2"/>
</svg>
