<svg width="20" height="20" viewBox="0 0 20 20" fill="none" xmlns="http://www.w3.org/2000/svg">
<path d="M10.0004 11.1917C10.3418 11.1917 10.6799 11.1244 10.9954 10.9938C11.3108 10.8631 11.5974 10.6716 11.8389 10.4301C12.0803 10.1887 12.2718 9.90209 12.4025 9.58665C12.5331 9.2712 12.6004 8.93311 12.6004 8.59167C12.6004 8.25023 12.5331 7.91214 12.4025 7.59669C12.2718 7.28125 12.0803 6.99462 11.8389 6.75319C11.5974 6.51176 11.3108 6.32024 10.9954 6.18958C10.6799 6.05892 10.3418 5.99167 10.0004 5.99167C9.31083 5.99167 8.64951 6.2656 8.16191 6.75319C7.67432 7.24079 7.40039 7.90211 7.40039 8.59167C7.40039 9.28123 7.67432 9.94255 8.16191 10.4301C8.64951 10.9177 9.31083 11.1917 10.0004 11.1917Z" stroke="url(#paint0_linear_855_265)" stroke-width="1.5"/>
<path d="M3.01675 7.07499C4.65842 -0.141675 15.3501 -0.133341 16.9834 7.08333C17.9418 11.3167 15.3084 14.9 13.0001 17.1167C12.1935 17.8946 11.1165 18.3293 9.99592 18.3293C8.87529 18.3293 7.79835 17.8946 6.99175 17.1167C4.69175 14.9 2.05842 11.3083 3.01675 7.07499Z" stroke="url(#paint1_linear_855_265)" stroke-width="1.5"/>
<defs>
<linearGradient id="paint0_linear_855_265" x1="10.0004" y1="5.99167" x2="10.0004" y2="11.1917" gradientUnits="userSpaceOnUse">
<stop stop-color="#F89468"/>
<stop offset="1" stop-color="#873EC4"/>
</linearGradient>
<linearGradient id="paint1_linear_855_265" x1="10.0001" y1="1.66666" x2="10.0001" y2="18.3293" gradientUnits="userSpaceOnUse">
<stop stop-color="#F89468"/>
<stop offset="1" stop-color="#873EC4"/>
</linearGradient>
</defs>
</svg>
