<svg width="63" height="63" viewBox="0 0 63 63" fill="none" xmlns="http://www.w3.org/2000/svg">
<g clip-path="url(#clip0_855_323)">
<path d="M55.9418 41.8458C55.5283 44.5528 53.3529 46.7283 50.6557 47.1319L50.4785 47.1614V49.5731L50.7049 49.5436C54.6818 49.0908 57.8908 45.8719 58.3535 41.895L58.383 41.6686H55.9713L55.9418 41.8458ZM48.9133 49.5731V47.1614L48.7361 47.1319C45.9996 46.7184 43.8733 44.5922 43.4599 41.8458L43.4304 41.6686H41.0088L41.0383 41.895C41.4911 45.8719 44.71 49.0809 48.6869 49.5436L48.9133 49.5731ZM48.9133 34.6303V32.2087L48.6869 32.2383C44.71 32.6911 41.501 35.91 41.0383 39.8869L41.0088 40.1133H43.4304L43.4599 39.9361C43.8733 37.1995 45.9996 35.0733 48.7361 34.6598L48.9133 34.6303ZM50.7049 32.2383L50.4785 32.2087V34.6303L50.6557 34.6598C53.4021 35.0733 55.5283 37.1995 55.9418 39.9361L55.9713 40.1133H58.383L58.3535 39.8869C57.9007 35.91 54.6818 32.6911 50.7049 32.2383Z" fill="#11013D"/>
<path d="M49.7008 45.6455C52.3192 45.6455 54.4553 43.5094 54.4553 40.8909C54.4553 38.2725 52.3192 36.1462 49.7008 36.1462C47.0823 36.1462 44.9561 38.2725 44.9561 40.8909C44.9462 43.5192 47.0823 45.6455 49.7008 45.6455Z" fill="#93F8FF"/>
<path d="M28.8914 32.7108C28.9702 33.0652 29.0095 33.4491 29.0095 33.833C29.0095 36.6384 26.7258 38.9123 23.9302 38.9123C21.4495 38.9123 19.343 37.1011 18.9295 34.6992C18.9295 34.6992 17.9944 35.8509 17.5219 36.7566C18.6342 39.1978 21.0952 40.8909 23.9302 40.8909C27.8184 40.8909 30.9881 37.7213 30.9881 33.833C30.9783 33.4294 30.9487 33.0455 30.8503 32.7108H28.8914ZM10.6411 26.7553L10.523 26.5978L10.2769 26.3123C9.12516 27.7791 7.03828 29.5509 6.94969 29.6198C0.807188 35.5163 0.07875 46.6988 0 50.0358H13.2792C12.5606 43.0467 16.0059 36.668 17.2364 34.6795L10.6411 26.7553Z" fill="#11013D"/>
<path d="M23.005 32.5041H22.0797L21.1445 33.1439C21.7056 34.5712 23.005 36.1659 25.6234 36.5794C25.6727 36.5892 25.7219 36.5892 25.7809 36.5892C26.2633 36.5892 26.6767 36.2447 26.7555 35.7623C26.8342 35.2209 26.47 34.7091 25.9286 34.6303C24.1173 34.3547 23.3397 33.3211 23.005 32.5041Z" fill="#11013D"/>
<path d="M46.4128 21.5775H30.3281V25.4953H46.4128V21.5775Z" fill="#11013D"/>
<path d="M42.8592 26.2533H30.3281V28.7831H42.8592V26.2533Z" fill="#11013D"/>
<path d="M18.6537 28.5469H26.8732V25.5544H15.543L15.8088 26.3616C16.242 27.6609 17.3937 28.5469 18.6537 28.5469ZM26.883 21.8138H18.6635C17.3937 21.8138 16.2715 22.6702 15.8187 23.9892L15.5332 24.7964H26.883V21.8138Z" fill="#93F8FF"/>
<path d="M11.4578 25.5642L18.122 33.5574L21.5279 31.2342L21.6559 31.1653L21.7642 31.1456H29.5801V20.1895C29.5801 19.6875 29.1667 19.2741 28.6646 19.2741H15.4543C15.0212 19.2741 14.6373 19.5792 14.5487 20.0222L14.4503 20.5538C14.214 21.7055 13.7809 22.7292 13.1017 23.7333C13.1017 23.753 13.0721 23.7825 13.0032 23.8613C12.6981 24.3338 12.3142 24.7669 11.881 25.1606L11.4578 25.5642ZM18.6535 21.0558H27.2471C27.4539 21.0558 27.6212 21.233 27.6212 21.4299V28.9209C27.6212 29.1277 27.444 29.295 27.2471 29.295H18.6535C16.5568 29.295 14.8538 27.4444 14.8538 25.1705C14.8637 22.9064 16.5568 21.0558 18.6535 21.0558ZM11.3003 23.8219C11.7432 23.3199 12.1271 22.7883 12.4224 22.1977V22.1878C11.566 21.5972 10.2667 20.3667 10.2076 18.3094C10.1978 17.7581 9.7351 17.325 9.20354 17.3545C8.66213 17.3644 8.229 17.8172 8.24869 18.3586C8.3176 21.2625 10.0993 22.995 11.3003 23.8219Z" fill="#11013D"/>
<path d="M48.7268 30.6436C49.0516 30.6239 49.3666 30.6042 49.7013 30.6042C50.036 30.6042 50.351 30.6239 50.6759 30.6436L50.8924 30.6534V28.7733C50.8924 28.1138 50.3609 27.5822 49.7013 27.5822C49.0418 27.5822 48.5102 28.1138 48.5102 28.7733V30.6534L48.7268 30.6436ZM49.7013 51.1777C49.3666 51.1777 49.0516 51.158 48.7268 51.1383L48.5102 51.1284V53.0086C48.5102 53.6681 49.0418 54.1997 49.7013 54.1997C50.3609 54.1997 50.8924 53.6681 50.8924 53.0086V51.1284L50.6759 51.1383C50.351 51.158 50.0262 51.1777 49.7013 51.1777ZM61.8091 39.6999H59.929L59.9388 39.9164C59.9585 40.2413 59.9782 40.5563 59.9782 40.8909C59.9782 41.2256 59.9585 41.5406 59.9388 41.8655L59.929 42.082H61.8091C62.4687 42.082 63.0002 41.5505 63.0002 40.8909C63.0002 40.2314 62.4687 39.6999 61.8091 39.6999ZM39.4638 39.6999H37.5837C36.9241 39.6999 36.3926 40.2314 36.3926 40.8909C36.3926 41.5505 36.9241 42.082 37.5837 42.082H39.2473H39.4638L39.454 41.8655C39.4343 41.5406 39.4146 41.2256 39.4146 40.8909C39.4146 40.5563 39.4343 40.2413 39.454 39.9164L39.4638 39.6999ZM50.292 23.1033C50.4495 23.1919 50.607 23.2313 50.7743 23.2313C51.1188 23.2313 51.4535 23.0541 51.6405 22.7292L52.3099 21.5381C53.2155 19.9238 53.3238 17.955 52.6052 16.252C52.1327 15.1397 52.182 13.8895 52.743 12.8166L53.5305 11.2908C53.7865 10.8085 53.5896 10.208 53.1073 9.96189C52.6249 9.70595 52.0245 9.90283 51.7784 10.3852L50.9909 11.911C50.164 13.5056 50.0852 15.3661 50.7841 17.0199C51.2665 18.1617 51.1976 19.4906 50.5873 20.5735L49.9179 21.7645C49.6521 22.2272 49.8195 22.8277 50.292 23.1033ZM58.3343 8.91845C57.8519 8.66251 57.2515 8.85939 57.0054 9.34173L56.2179 10.8675C55.391 12.4622 55.3123 14.3227 56.0112 15.9764C56.4935 17.1183 56.4246 18.4472 55.8143 19.53L55.1449 20.7211C54.8791 21.1936 55.0465 21.8039 55.519 22.0697C55.6765 22.1583 55.834 22.1977 56.0013 22.1977C56.3459 22.1977 56.6805 22.0205 56.8676 21.6956L57.537 20.5045C58.4426 18.8902 58.5509 16.9214 57.8323 15.2185C57.3598 14.1061 57.409 12.856 57.9701 11.783L58.7576 10.2572C59.0037 9.76501 58.8166 9.16454 58.3343 8.91845Z" fill="#93F8FF"/>
</g>
<defs>
<clipPath id="clip0_855_323">
<rect width="63" height="63" fill="white"/>
</clipPath>
</defs>
</svg>
