<svg width="47" height="46" viewBox="0 0 47 46" fill="none" xmlns="http://www.w3.org/2000/svg">
<mask id="mask0_829_359" style="mask-type:luminance" maskUnits="userSpaceOnUse" x="0" y="0" width="47" height="46">
<path d="M0 -7.62939e-06H46.6479V46H0V-7.62939e-06Z" fill="white"/>
</mask>
<g mask="url(#mask0_829_359)">
<path d="M45.4219 25.8605C43.7622 25.3436 40.7056 21.7895 38.0564 21.7895C34.3737 21.7895 34.3737 13.3158 33.1461 10.8948C31.9186 8.47374 29.4634 6.05268 29.4634 4.84216C29.4634 3.63163 25.7807 2.4211 19.6428 4.84216C13.5049 7.26321 9.82218 7.26321 7.36703 7.26321C4.91188 7.26321 3.6843 9.68426 2.45672 12.1053C1.22915 14.5264 2.45672 14.5264 2.45672 14.5264C3.6843 15.7369 4.91188 12.1053 7.36703 10.8948C9.82218 9.68426 11.0498 12.1053 13.5049 10.8948C15.3377 9.99053 19.223 11.1103 22.0979 10.7289C23.0726 10.6006 23.9307 10.298 24.5531 9.68426C24.5531 9.68426 24.5531 19.3685 27.0083 23.0001C27.0083 23.0001 25.7807 24.2106 24.5531 27.8422C23.3255 31.4737 22.0979 27.8422 22.0979 25.4211C22.0979 23.0001 20.8704 19.3685 15.9601 16.9474C13.7639 15.864 9.01444 16.1206 7.36703 19.3685C4.91188 24.2106 7.36703 29.0527 9.82218 30.2632C12.2773 31.4737 13.5049 32.6843 18.4152 32.6843C20.8004 32.6843 40.282 33.2653 45.4219 33.1249V25.8605Z" fill="#D99E82"/>
<path d="M11.2727 21.0693C13.9562 18.7196 18.1877 19.0271 21.124 21.6406C20.2451 19.9786 18.6627 18.279 15.9596 16.9474C13.7635 15.864 9.01397 16.1206 7.36657 19.3685C4.91141 24.2106 7.36657 29.0527 9.82172 30.2632C10.1163 30.4073 10.3901 30.5525 10.6577 30.6942C8.4321 27.5214 8.61379 23.4007 11.2727 21.0693Z" fill="#11013D"/>
<path d="M15.9593 23.6054C15.8382 23.6044 15.7202 23.5684 15.6198 23.5017C15.5194 23.435 15.4411 23.3407 15.3948 23.2304C15.3484 23.1201 15.336 22.9988 15.3591 22.8817C15.3822 22.7645 15.4398 22.6567 15.5247 22.5716C16.9168 21.2 18.3543 21.1843 18.4144 21.1843C18.5772 21.1843 18.7333 21.2481 18.8484 21.3616C18.9635 21.4751 19.0282 21.629 19.0282 21.7896C19.0282 21.9501 18.9635 22.104 18.8484 22.2176C18.7333 22.3311 18.5772 22.3948 18.4144 22.3948C18.38 22.3948 17.4066 22.4287 16.3938 23.4286C16.2783 23.5418 16.1221 23.6054 15.9593 23.6054ZM11.049 27.2369C10.9279 27.236 10.8098 27.2 10.7095 27.1333C10.6091 27.0666 10.5308 26.9722 10.4845 26.862C10.4381 26.7517 10.4257 26.6304 10.4488 26.5133C10.4719 26.3961 10.5295 26.2882 10.6144 26.2031C12.0065 24.8316 13.444 24.8159 13.5041 24.8159C13.6669 24.8159 13.823 24.8797 13.9381 24.9932C14.0532 25.1067 14.1179 25.2606 14.1179 25.4211C14.1179 25.5817 14.0532 25.7356 13.9381 25.8491C13.823 25.9626 13.6669 26.0264 13.5041 26.0264C13.4697 26.0276 12.4963 26.0603 11.4835 27.0602C11.368 27.1734 11.2118 27.237 11.049 27.2369Z" fill="#C1694F"/>
<path d="M45.4213 30.2632H1.22852V44.7895H45.4213V30.2632Z" fill="#93F8FF"/>
<path d="M8.59375 30.2632C12.2765 27.8422 17.1868 24.2106 15.9592 26.6316C14.7316 29.0527 14.7304 30.2632 17.1868 29.0527C19.6419 27.8422 23.3247 26.6316 22.0971 29.0527C20.8695 31.4737 24.5522 30.2632 25.7798 29.0527C27.0074 27.8422 30.6901 29.0527 29.4625 30.2632C28.235 31.4737 18.4144 32.6843 14.7316 32.6843C11.0489 32.6843 8.59375 30.2632 8.59375 30.2632Z" fill="#93F8FF"/>
</g>
</svg>
