<svg width="71" height="50" viewBox="0 0 71 50" fill="none" xmlns="http://www.w3.org/2000/svg">
<path d="M31.5633 33.716L27.4436 37.6186L25.4225 48.8063H23.4675L22.3257 36.6813C22.2115 35.4691 22.5883 34.2618 23.3716 33.3296L26.8129 29.234L31.5633 33.716Z" fill="url(#paint0_linear_829_417)"/>
<path d="M39.4355 33.716L43.5552 37.6186L45.5763 48.8063H47.5313L48.6731 36.6813C48.7873 35.4691 48.4105 34.2618 47.6272 33.3296L44.186 29.234L39.4355 33.716Z" fill="url(#paint1_linear_829_417)"/>
<path d="M45.4282 30.3894C45.3701 30.3167 41.1405 24.9661 40.55 24.4694H30.4494C29.8607 24.9646 25.6288 30.3172 25.5712 30.3894C24.8128 31.1949 29.8148 35.9023 30.5732 35.0974L35.4994 31.8069L40.4261 35.0974C41.1845 35.9024 46.1865 31.195 45.4282 30.3894Z" fill="#11013D"/>
<path d="M0.39299 15.0493C0.190633 15.0493 0.0186307 14.8942 0.0014089 14.6888C-0.0168175 14.4722 0.143918 14.2819 0.360482 14.2637C11.9295 13.2901 23.7069 12.7964 35.3653 12.7964C47.0236 12.7964 58.8914 13.2901 70.639 14.2637C70.8555 14.2817 71.0166 14.4718 70.9986 14.6884C70.9807 14.9049 70.7906 15.0665 70.574 15.048C47.122 13.1044 23.5211 13.1044 0.426429 15.048C0.415235 15.0489 0.404112 15.0493 0.39299 15.0493Z" fill="url(#paint2_linear_829_417)"/>
<path d="M60.8923 6.99846C60.2399 6.96552 59.6842 7.46761 59.6512 8.1201L59.0554 19.9001C59.0224 20.5526 59.5245 21.1083 60.177 21.1413C60.8294 21.1742 61.3851 20.6721 61.4181 20.0196L62.0139 8.23965C62.047 7.58716 61.5447 7.03147 60.8923 6.99846ZM63.7572 7.99948C63.1047 7.96654 62.5491 8.46863 62.516 9.12112L62.0066 19.1933C61.9736 19.8458 62.4758 20.4015 63.1282 20.4344C63.7807 20.4673 64.3364 19.9653 64.3693 19.3128L64.8788 9.24059C64.9117 8.5881 64.4096 8.03249 63.7572 7.99948ZM66.5932 9.56967C65.9407 9.53674 65.385 10.0388 65.352 10.6913L64.9866 17.9172C64.9536 18.5696 65.4557 19.1253 66.1082 19.1583C66.7606 19.1913 67.3163 18.6891 67.3493 18.0367L67.7148 10.8108C67.7478 10.1583 67.2457 9.60268 66.5932 9.56967ZM58.0241 6.06468C57.3717 6.03167 56.8159 6.53383 56.783 7.18625L56.1076 20.5397C56.0746 21.1922 56.5768 21.7479 57.2292 21.7809C57.8817 21.8138 58.4373 21.3117 58.4704 20.6592L59.1457 7.3058C59.1787 6.65331 58.6766 6.09762 58.0241 6.06468ZM11.3482 8.1201C11.3152 7.46761 10.7596 6.96552 10.1071 6.99846C9.45467 7.03147 8.95244 7.58716 8.98552 8.23965L9.58132 20.0196C9.61433 20.6721 10.17 21.1742 10.8224 21.1413C11.4749 21.1083 11.9771 20.5526 11.9441 19.9001L11.3482 8.1201ZM8.48343 9.12112C8.45043 8.46863 7.89474 7.96654 7.24232 7.99948C6.58983 8.03249 6.08767 8.5881 6.12068 9.24059L6.63008 19.3128C6.66309 19.9653 7.21878 20.4673 7.8712 20.4344C8.52369 20.4015 9.02585 19.8458 8.99284 19.1933L8.48343 9.12112ZM5.64743 10.6913C5.61443 10.0388 5.05874 9.53674 4.40632 9.56967C3.7539 9.60268 3.25167 10.1583 3.28475 10.8108L3.65021 18.0367C3.68322 18.6891 4.23891 19.1913 4.89133 19.1583C5.54375 19.1253 6.04598 18.5696 6.0129 17.9172L5.64743 10.6913ZM14.2165 7.18625C14.1835 6.53383 13.6278 6.03167 12.9754 6.06468C12.323 6.09762 11.8207 6.65331 11.8537 7.3058L12.5291 20.6592C12.5621 21.3117 13.1178 21.8138 13.7702 21.7809C14.4227 21.7479 14.9249 21.1922 14.8918 20.5397L14.2165 7.18625Z" fill="#11013D"/>
<path d="M51.3237 13.8902C51.106 14.5473 50.8135 14.786 50.7952 14.8004C50.5813 17.6518 50.003 24.2956 49.1905 25.0747C48.2934 25.9357 44.8275 24.7999 42.4273 21.5701C41.6766 22.8085 41.0659 23.351 40.717 24.874C39.7368 29.1362 31.2234 28.9696 30.2815 24.874C29.9336 23.3549 29.3099 22.7886 28.5712 21.5701C26.1711 24.7998 22.7052 25.9357 21.8081 25.0747C20.9956 24.2956 20.4171 17.6518 20.2034 14.8004C20.185 14.786 19.8925 14.5388 19.6748 13.8817C19.8217 13.8758 21.2684 13.824 21.9517 13.8016C23.6016 13.0169 23.5745 14.0934 23.6463 14.1125C23.1499 14.4076 22.3393 14.7348 22.2934 14.7532L23.7 20.0953C23.8935 19.4493 24.2929 18.8814 24.6142 18.0637C25.1405 16.7245 26.5432 15.1005 27.5843 14.1395C28.6637 13.0541 30.5898 12.7767 32.1204 12.7754C32.8595 12.7754 33.4601 12.1806 33.4601 11.4415V7.35925H37.5385V11.4415C37.5385 12.1806 38.1392 12.7754 38.8783 12.7754C42.3472 12.7784 43.3439 14.1082 43.4157 14.1408C43.4839 14.2031 45.6552 16.2078 46.3845 18.0637C46.7058 18.8814 47.1052 19.4494 47.2987 20.0953L48.7066 14.7539C48.7066 14.7539 47.8632 14.4162 47.3524 14.1125C47.3524 14.1099 47.353 14.1073 47.3537 14.104C47.4107 13.679 47.8468 13.4134 48.258 13.5354C48.601 13.637 48.879 13.7178 49.0686 13.8122C49.9506 13.8402 50.889 13.8735 51.3237 13.8902Z" fill="url(#paint3_linear_829_417)"/>
<path d="M50.9125 13.5103C50.5387 13.6867 48.934 13.49 48.4448 13.2585C48.2362 13.1595 48.1569 12.991 48.1353 12.8297C48.1044 12.6047 48.2855 12.4066 48.5124 12.406C52.3283 12.4008 51.2765 13.3386 50.9125 13.5103Z" fill="url(#paint4_linear_829_417)"/>
<path d="M20.0866 13.5103C20.4603 13.6867 22.065 13.49 22.5543 13.2585C22.7628 13.1595 22.8422 12.991 22.8638 12.8297C22.8946 12.6047 22.7136 12.4066 22.4867 12.406C18.6706 12.4008 19.7225 13.3386 20.0866 13.5103Z" fill="url(#paint5_linear_829_417)"/>
<path d="M38.5954 1.67407L33.7627 3.40257V7.92264C34.8342 9.72943 36.4943 11.4503 38.9032 11.3281C39.1273 11.317 39.31 11.1461 39.3441 10.925C39.8492 7.63167 39.6828 4.52564 38.5954 1.67407Z" fill="url(#paint6_linear_829_417)"/>
<path d="M41.2542 23.4114C41.0358 23.8311 40.8686 24.2744 40.7525 24.7328C40.3256 25.9304 38.4009 27.3179 35.5003 27.3179C32.6004 27.3179 30.5167 26.0893 30.2487 24.7328C30.1326 24.2744 29.9654 23.8311 29.7471 23.4114C29.6787 23.5133 29.6256 23.6469 29.5843 23.7898C29.4102 24.3932 29.4819 25.0391 29.7454 25.6092C30.0198 26.2027 30.5182 26.9542 31.3819 27.3841C32.4952 27.9382 33.9599 28.2359 35.5003 28.2359C37.0415 28.2359 38.6177 28.121 39.6193 27.3841C41.2261 26.2018 41.3889 24.7004 41.3889 24.7004C41.3889 24.7004 41.5277 23.8193 41.2542 23.4114Z" fill="#93F8FF"/>
<path d="M35.0462 27.2877C34.0022 27.3172 32.9256 27.3815 31.8921 27.6449C31.8336 27.6594 31.7991 27.715 31.8124 27.7679C31.8749 28.0207 31.9175 28.2843 31.9688 28.5411C31.9805 28.5996 32.0416 28.6336 32.0979 28.6157C33.1205 28.2985 34.1149 28.2228 35.1689 28.2072L35.0462 27.2877Z" fill="#00D1FF"/>
<path d="M36.708 28.3043C36.6962 28.3619 36.645 28.4039 36.586 28.4072C36.2214 28.4269 35.8561 28.4328 35.5007 28.4328C35.0994 28.4328 34.7039 28.4132 34.319 28.3738C34.2645 28.3685 34.218 28.3299 34.2049 28.2767C34.1144 27.914 34.1177 27.5403 34.2003 27.156C34.2147 27.0878 34.2777 27.0425 34.3465 27.0511C34.7203 27.0977 35.1072 27.1213 35.5008 27.1213C35.8713 27.1213 36.2267 27.0977 36.5651 27.0544C36.6353 27.0452 36.6988 27.0924 36.7126 27.1613C36.788 27.5468 36.7887 27.9278 36.708 28.3043Z" fill="white"/>
<path d="M42.5962 1.67608C42.6099 3.02763 40.8236 3.83232 39.7435 4.09395C38.3795 4.42511 37.123 4.52615 36.5144 6.00822C36.3013 6.52825 36.4803 7.41094 36.0908 7.81752C35.6042 8.32642 35.0769 7.50796 34.5864 8.11129C34.2126 8.57097 34.4874 9.41958 33.9241 9.76193C32.4285 10.6689 32.4869 5.96704 32.6977 4.10443C32.8617 2.65249 33.6722 1.75868 34.9655 1.1501C36.3288 0.508157 42.5673 -1.34053 42.5962 1.67608Z" fill="#11013D"/>
<path d="M51.2761 49.6831H45.6144C45.3131 49.6831 45.0692 49.4535 45.0476 49.1593C44.9686 48.2049 44.8538 46.3105 45.0906 46.4397C46.8343 46.8415 47.8317 46.1526 47.8748 46.3033C47.9753 46.454 47.6954 46.411 48.2479 47.0783C48.7215 47.638 49.3387 48.0614 50.0204 48.3341C50.659 48.5852 51.2905 48.9512 51.4555 49.4391C51.4914 49.5539 51.4053 49.6831 51.2761 49.6831Z" fill="#11013D"/>
<path d="M19.7071 49.6831H25.3688C25.6702 49.6831 25.9141 49.4535 25.9357 49.1593C26.0146 48.2049 26.1294 46.3105 25.8926 46.4397C24.1489 46.8415 23.1515 46.1526 23.1084 46.3033C23.008 46.454 23.2878 46.411 22.7353 47.0783C22.2617 47.638 21.6446 48.0614 20.9629 48.3341C20.3242 48.5852 19.6928 48.9512 19.5277 49.4391C19.4918 49.5539 19.5779 49.6831 19.7071 49.6831Z" fill="#11013D"/>
<defs>
<linearGradient id="paint0_linear_829_417" x1="26.9344" y1="52.3734" x2="26.9344" y2="-0.122242" gradientUnits="userSpaceOnUse">
<stop stop-color="#FBD2C3"/>
<stop offset="0.996" stop-color="#F8AF9B"/>
</linearGradient>
<linearGradient id="paint1_linear_829_417" x1="44.0641" y1="52.3734" x2="44.0641" y2="-0.122242" gradientUnits="userSpaceOnUse">
<stop stop-color="#FBD2C3"/>
<stop offset="0.996" stop-color="#F8AF9B"/>
</linearGradient>
<linearGradient id="paint2_linear_829_417" x1="35.5" y1="26.0291" x2="35.5" y2="24.3047" gradientUnits="userSpaceOnUse">
<stop stop-color="#383647"/>
<stop offset="0.993" stop-color="#272535"/>
</linearGradient>
<linearGradient id="paint3_linear_829_417" x1="35.4991" y1="52.2314" x2="35.4991" y2="-0.0985035" gradientUnits="userSpaceOnUse">
<stop stop-color="#FBD2C3"/>
<stop offset="0.996" stop-color="#F8AF9B"/>
</linearGradient>
<linearGradient id="paint4_linear_829_417" x1="49.7277" y1="52.3733" x2="49.7277" y2="-0.122271" gradientUnits="userSpaceOnUse">
<stop stop-color="#FBD2C3"/>
<stop offset="0.996" stop-color="#F8AF9B"/>
</linearGradient>
<linearGradient id="paint5_linear_829_417" x1="21.2713" y1="52.3733" x2="21.2713" y2="-0.122271" gradientUnits="userSpaceOnUse">
<stop stop-color="#FBD2C3"/>
<stop offset="0.996" stop-color="#F8AF9B"/>
</linearGradient>
<linearGradient id="paint6_linear_829_417" x1="36.69" y1="52.3734" x2="36.69" y2="-0.122233" gradientUnits="userSpaceOnUse">
<stop stop-color="#FBD2C3"/>
<stop offset="0.996" stop-color="#F8AF9B"/>
</linearGradient>
</defs>
</svg>
