<svg width="100" height="100" viewBox="0 0 100 100" fill="none" xmlns="http://www.w3.org/2000/svg">
<circle cx="50" cy="50" r="50" fill="#905CFF"/>
<path d="M46.7216 65.0581L46.9775 68.2976L46.1999 69.4562L44.0461 69.6728L43.6149 68.9956L42.4465 60.0328L38.8574 57.7569L41.3587 55.296L41.0309 52.1992L46.1379 49.123L45.9213 48.4772L49.9208 45.4621L51.7665 47.4623L52.4133 49.8613L49.152 53.214L47.5829 54.8452L47.1222 58.5366L47.1518 62.1965L46.7216 65.0581Z" fill="#EDB29F"/>
<path d="M38.9181 60.8538L37.4022 59.521L37.1758 59.0288L39.1445 57.818L42.4471 59.1518L40.7245 60.9355L38.9181 60.8538Z" fill="#30384C"/>
<path d="M53.9922 28.6362L53.5 25.8061L56.5968 24.8621L59.2625 24.5756L60.9438 24.8827L60.7184 27.6311L59.4269 30.789L58.7703 31.1375L57.6216 30.2555L56.6579 30.5222L55.9816 31.671L53.9922 28.6362Z" fill="#EDB29F"/>
<path d="M53.9093 24.3295L53.5195 25.9695C53.5195 25.9695 53.7036 26.4617 54.4419 26.3593C55.1802 26.2569 55.8368 25.4163 56.3693 25.1909C56.9028 24.9645 57.2926 24.8414 57.5594 25.1702C57.8252 25.498 57.9285 25.8258 57.9285 25.8258L58.3794 26.0108C58.3794 26.0108 58.2977 25.3139 58.5645 25.2726C58.8302 25.2312 60.0203 25.1082 60.0203 25.1082L58.6048 24.1445L57.7848 23.2831L55.9598 23.0174L54.3602 23.8777L53.9093 24.3295Z" fill="#546187"/>
<path d="M57.8673 23.6523C57.8673 23.6523 57.0886 23.5499 56.4734 23.6729C55.8582 23.796 55.366 24.1238 55.0372 24.3915C54.7094 24.6573 53.787 24.8621 53.725 24.8621C53.663 24.8621 53.3972 23.3451 53.3972 23.3451L52.8125 22.3293L53.663 21.5615L53.7043 20.6165L55.7961 21.1303L57.129 22.4218L57.7856 23.2831L57.8673 23.6523Z" fill="#292C33"/>
<path d="M41.5223 52.8144C41.5223 52.8144 46.3831 50.0463 46.3831 49.8002C46.3831 49.5541 46.137 49.123 46.137 49.123C46.137 49.123 46.9984 47.5539 47.8597 47.0007C48.721 46.4465 49.92 45.4621 49.92 45.4621L44.4144 41.0944L45.891 39.6789L51.3867 36.1617L52.1663 35.8339C52.1663 35.8339 53.1192 34.634 53.9185 34.4804C54.7188 34.3268 56.6876 33.9882 56.6876 33.9882L56.1659 31.6503L55.3035 29.6205C55.3035 29.6205 55.6727 29.2819 55.211 28.4816C54.7503 27.6823 54.6332 26.7905 53.3692 26.6054C52.1043 26.4213 46.834 27.4667 46.834 27.4667L41.4199 29.7229L37.5238 32.8808L35.1859 35.0956L32.6039 38.7851L32.4375 41.5354L34.0785 44.4472L41.5223 52.8144ZM53.5809 20.7612C53.5809 20.7612 55.3242 20.9452 56.0005 21.5605C56.6777 22.1757 57.0262 22.4838 57.4977 23.2221C57.9702 23.9604 58.113 24.3906 58.4821 24.5953C58.8512 24.801 60.8407 25.6624 61.0868 25.7647C61.3328 25.8671 61.8053 26.0522 61.9481 25.9291C62.0918 25.8061 61.5789 22.9957 61.5789 22.9957L59.1593 20.9039L56.5133 20.4117L53.3968 20.2995L53.5809 20.7612Z" fill="#2E2B57"/>
<path d="M54.1147 20.2887C54.1147 20.2887 55.8571 20.4737 56.5343 21.089C57.2116 21.7042 57.5601 22.0113 58.0316 22.7496C58.5041 23.4879 58.6468 23.919 59.016 24.1238C59.3851 24.3295 61.3745 25.1908 61.6206 25.2932C61.8667 25.3956 61.9691 25.4163 62.1128 25.2932C62.2565 25.1702 61.3332 22.6059 61.3332 22.6059L58.9136 20.5151L57.0472 19.9402L53.9297 19.828L54.1147 20.2887Z" fill="#93F8FF"/>
<path d="M55.8164 23.7547C55.8774 23.8167 55.7967 23.9397 56.0625 24.2272C56.3283 24.5136 56.535 24.6367 56.596 24.8621C56.6571 25.0885 56.9032 30.1324 56.9032 30.1324L57.6217 30.2555C57.6217 30.2555 57.5391 27.2827 57.416 26.7698C57.293 26.2569 57.3343 24.8207 57.354 24.678C57.3747 24.5343 57.6621 24.1031 57.7035 23.9397C57.7438 23.7753 57.4977 23.2211 57.4977 23.2211L55.8164 23.7547Z" fill="#292C33"/>
<path d="M52.9863 34.1526L56.4316 33.4547L60.8613 38.4996L63.7731 40.552L66.3984 43.1764L67.5876 43.6686L68.2392 44.018L69.9156 44.6017L70.9 46.5705L70.5614 47.6474C70.5614 47.6474 69.8231 48.4162 69.3929 48.4782C68.9618 48.5392 68.1004 48.1396 68.1004 48.1396L66.5471 46.4169L62.9019 43.4028L58.4004 40.7981L54.5958 36.2966L52.9863 34.1526Z" fill="#EDB29F"/>
<path d="M32.8887 38.5823C32.8887 38.5823 33.2175 40.5097 34.9805 42.8476C36.7445 45.1855 42.1172 51.5426 42.2816 51.7887C42.446 52.0348 45.8086 50.1891 45.8086 50.1891C45.8086 50.1891 40.9281 42.2324 39.2467 40.5097C37.5645 38.787 35.1449 35.8339 34.9401 35.4648C34.7344 35.0956 32.8887 38.5823 32.8887 38.5823Z" fill="#93F8FF"/>
<path d="M37.5233 58.9057C37.5233 58.9057 37.8304 59.5613 38.2202 59.9511C38.61 60.3409 39.5944 60.7514 39.9626 60.7711C40.3327 60.7918 40.7225 60.9355 40.7225 60.9355L42.3221 63.6012L42.2188 65.0167L40.25 64.1554L36.908 62.1453L36.4355 61.2436L36.9897 59.5406L37.5233 58.9057Z" fill="#2E2B57"/>
<path d="M43.6562 69.221C43.6562 69.221 44.5579 69.3233 45.1732 69.0979C45.7884 68.8715 46.9785 68.2976 46.9785 68.2976L47.7778 69.344L46.568 70.7999L44.0658 71.2724L43.6966 70.2457L43.6562 69.221Z" fill="#30384C"/>
<path d="M31.8638 79.0746C25.5146 79.0746 20.3496 73.9095 20.3496 67.5593C20.3496 61.2101 25.5146 56.0451 31.8638 56.0451C38.2131 56.0451 43.3781 61.2101 43.3781 67.5593C43.3781 73.9086 38.2131 79.0746 31.8638 79.0746ZM31.8638 56.9261C25.9999 56.9261 21.2296 61.6954 21.2296 67.5593C21.2296 73.4233 25.9999 78.1945 31.8638 78.1945C37.7278 78.1945 42.498 73.4242 42.498 67.5603C42.498 61.6964 37.7278 56.9261 31.8638 56.9261Z" fill="#231F20"/>
<path d="M31.8644 75.8242C27.3077 75.8242 23.5996 72.116 23.5996 67.5594C23.5996 63.0027 27.3077 59.2955 31.8644 59.2955C36.4211 59.2955 40.1283 63.0027 40.1283 67.5594C40.1283 72.117 36.4211 75.8242 31.8644 75.8242ZM31.8644 60.1756C27.793 60.1756 24.4806 63.489 24.4806 67.5594C24.4806 71.6307 27.793 74.9432 31.8644 74.9432C35.9358 74.9432 39.2472 71.6307 39.2472 67.5603C39.2472 63.489 35.9358 60.1756 31.8644 60.1756ZM67.3836 75.8242C62.827 75.8242 59.1188 72.116 59.1188 67.5594C59.1188 63.0027 62.827 59.2955 67.3836 59.2955C71.9403 59.2955 75.6474 63.0027 75.6474 67.5594C75.6474 72.117 71.9403 75.8242 67.3836 75.8242ZM67.3836 60.1756C63.3122 60.1756 59.9998 63.489 59.9998 67.5594C59.9998 71.6307 63.3122 74.9432 67.3836 74.9432C71.455 74.9432 74.7674 71.6307 74.7674 67.5603C74.7674 63.489 71.455 60.1756 67.3836 60.1756Z" fill="#231F20"/>
<path d="M43.6958 70.2457C43.6958 70.2457 44.0246 70.7182 44.7422 70.6769C45.4608 70.6355 46.4452 70.3894 46.8133 70.0616C47.1825 69.7338 47.6136 69.4464 47.6136 69.4464L49.7458 70.4505L51.6121 71.1888L53.4785 71.5382L53.3761 72.5639L51.5708 73.0758L48.3923 73.4253L45.6242 73.2609L43.8188 73.4656L43.3887 71.5175L43.6958 70.2457Z" fill="#2E2B57"/>
<path d="M67.4655 79.0746C61.1163 79.0746 55.9512 73.9095 55.9512 67.5593C55.9512 61.2101 61.1163 56.0451 67.4655 56.0451C73.8147 56.0451 78.9797 61.2101 78.9797 67.5593C78.9797 73.9086 73.8147 79.0746 67.4655 79.0746ZM67.4655 56.9261C61.6016 56.9261 56.8313 61.6954 56.8313 67.5593C56.8313 73.4233 61.6016 78.1945 67.4655 78.1945C73.3294 78.1945 78.0997 73.4242 78.0997 67.5603C78.0997 61.6964 73.3294 56.9261 67.4655 56.9261ZM44.374 73.942C43.6505 73.942 43.364 73.7875 43.1426 73.2136C42.99 72.8139 43.0451 71.9516 43.1416 70.7782L43.176 70.3461C43.241 69.4789 43.2607 67.3024 43.1209 66.4864C42.9703 65.6201 42.483 63.0194 42.0223 61.3942C41.5961 59.8842 42.0834 57.3651 42.487 55.6021L42.5086 55.5057C42.674 54.7802 42.4663 54.415 42.3147 54.1482C42.0568 53.7978 36.5738 47.7764 32.9553 43.8182C32.5574 43.4202 32.2422 42.9474 32.028 42.4271C31.8137 41.9067 31.7047 41.349 31.7071 40.7863C31.7071 39.8964 31.8813 39.1473 32.2249 38.5616C34.295 34.8699 37.2947 31.7839 40.9262 29.6099C44.5576 27.4358 48.6945 26.2494 52.9263 26.1683C52.9479 25.8829 53.0188 25.495 53.2078 25.0491C53.448 24.4821 53.4017 23.9958 53.0749 23.6444C52.6132 23.1463 52.4016 22.4897 52.3927 22.4622C52.3752 22.4053 52.3693 22.3455 52.3754 22.2863C52.3815 22.2271 52.3995 22.1698 52.4283 22.1177C52.457 22.0656 52.496 22.0198 52.5428 21.9831C52.5896 21.9464 52.6434 21.9195 52.7008 21.904L52.5926 21.7327C52.5506 21.666 52.5273 21.5893 52.5252 21.5106C52.523 21.4318 52.542 21.3539 52.5802 21.285C52.6185 21.2161 52.6745 21.1587 52.7424 21.1189C52.8104 21.079 52.8878 21.0582 52.9666 21.0584H53.1861L52.9794 20.4383C52.9582 20.374 52.952 20.3057 52.9613 20.2387C52.9707 20.1717 52.9954 20.1077 53.0335 20.0517C53.0715 19.9958 53.122 19.9493 53.1809 19.916C53.2398 19.8826 53.3056 19.8633 53.3732 19.8595C53.826 19.8329 57.8471 19.6272 59.0944 20.3477C59.8267 20.773 61.5947 21.906 62.1705 23.2644C62.5889 24.2498 62.6381 25.8632 62.2611 26.2402C62.0662 26.4361 61.6459 26.6143 61.259 26.6093C60.0079 30.8106 59.8277 31.0046 59.7499 31.0882C59.556 31.3304 59.2991 31.6552 58.8522 31.6799C58.4919 31.6986 58.1159 31.5164 57.7162 31.1158C57.3894 30.789 57.2044 30.7053 57.1325 30.6837C57.1144 30.6964 57.0957 30.7082 57.0764 30.7191L55.7691 31.3954C55.7177 31.422 55.6616 31.4382 55.604 31.4432C55.5463 31.4481 55.4882 31.4417 55.4331 31.4241C55.3779 31.4066 55.3267 31.3784 55.2825 31.3412C55.2382 31.3039 55.2017 31.2582 55.1751 31.2069C55.1484 31.1555 55.1322 31.0993 55.1272 31.0417C55.1223 30.984 55.1288 30.9259 55.1463 30.8708C55.1638 30.8156 55.192 30.7644 55.2293 30.7202C55.2666 30.6759 55.3122 30.6394 55.3636 30.6128L56.6137 29.967C56.7286 29.8692 56.8717 29.8106 57.0222 29.7997C57.4308 29.7574 57.8383 29.9926 58.3393 30.4927C58.5913 30.7457 58.7892 30.7939 58.802 30.8018C58.8542 30.7979 58.9487 30.6797 59.0038 30.6089C59.0402 30.5626 59.0727 30.5222 59.1042 30.4888C59.2144 30.2742 59.934 27.9855 60.5434 25.9262C60.5613 25.8642 60.5927 25.807 60.6352 25.7586C60.6778 25.7102 60.7306 25.6718 60.7897 25.6462C60.8489 25.6205 60.9129 25.6082 60.9774 25.6101C61.0418 25.6121 61.105 25.6282 61.1625 25.6574L61.3466 25.75C61.3643 25.7401 61.509 25.6909 61.5956 25.6437C61.6646 25.3503 61.6842 24.3768 61.3594 23.609C61.0316 22.8362 60.0206 21.903 58.6524 21.1116C57.9692 20.7159 55.6402 20.6549 53.9992 20.7129L54.2158 21.3597C54.2373 21.4259 54.2429 21.4963 54.2321 21.5651C54.2213 21.6339 54.1945 21.6992 54.1537 21.7557C54.1129 21.8122 54.0594 21.8583 53.9975 21.8902C53.9356 21.9221 53.8671 21.939 53.7974 21.9395H53.762L53.8024 22.0034C53.8405 22.0655 53.8627 22.1361 53.8671 22.2089C53.8714 22.2816 53.8578 22.3543 53.8273 22.4205C53.7968 22.4867 53.7505 22.5444 53.6924 22.5884C53.6343 22.6324 53.5662 22.6614 53.4942 22.6728L53.4549 22.6787C53.5267 22.8018 53.6153 22.9307 53.7206 23.0449C54.2837 23.6523 54.393 24.5077 54.0189 25.3926C53.7403 26.0502 53.8043 26.5345 53.8053 26.5394C53.8141 26.602 53.8095 26.6657 53.7917 26.7263C53.774 26.7869 53.7435 26.8431 53.7023 26.8909C53.6611 26.9388 53.6102 26.9774 53.5529 27.004C53.4957 27.0307 53.4334 27.0448 53.3702 27.0454C49.2176 27.0494 45.141 28.159 41.5592 30.2601C37.9774 32.3612 35.0196 35.378 32.9897 39.0006C32.721 39.4574 32.5871 40.0549 32.5871 40.7853C32.5871 41.7028 32.9444 42.5631 33.5912 43.2098C37.0719 47.0144 42.9112 53.4178 43.0746 53.7033C43.2656 54.038 43.6091 54.6414 43.369 55.7016L43.3463 55.8C43.1248 56.7607 42.4555 59.6853 42.8709 61.154C43.3404 62.8166 43.8365 65.4587 43.9871 66.3358C44.1574 67.3231 44.1112 69.6403 44.0551 70.4111L44.0206 70.8501C43.9714 71.4338 43.873 72.6466 43.9655 72.8976C43.9803 72.937 44.0147 73.0275 44.0314 73.0502C44.0629 73.0571 44.246 73.0787 44.8209 73.0472C45.1711 73.0228 45.5176 72.9608 45.8545 72.8622C46.2935 72.7499 46.706 72.6407 47.2917 72.745C47.84 72.8435 49.7103 73.1466 50.7567 72.9321C51.7814 72.7204 52.9735 72.2883 53.1389 72.1918C53.1881 72.1603 53.2039 72.1495 53.2039 71.989C53.1989 71.9053 53.0326 71.6789 52.8623 71.6711C52.751 71.6632 52.5689 71.6711 52.3612 71.678C51.5974 71.7026 50.9831 71.7085 50.6189 71.5529C50.4417 71.4771 50.1218 71.295 49.7585 71.0863C49.2555 70.7969 48.6295 70.4376 48.2711 70.3136C47.5181 70.0557 46.9166 69.4572 46.7011 68.7544C46.5229 68.1756 46.2168 65.9154 46.4402 64.1711C46.6765 62.3067 46.8182 59.9107 46.7217 59.4225C46.6036 58.8388 46.4697 56.4763 46.8733 55.5588C46.9521 55.3826 47.0318 55.2153 47.1096 55.0568C47.3429 54.5764 47.526 54.1974 47.459 53.8529C47.3557 53.3233 45.2934 48.3719 44.6004 47.0755C44.3179 46.5459 43.9842 45.8155 43.6603 45.1097C43.2272 44.1647 42.7803 43.1892 42.4929 42.7688C42.3496 42.5564 42.2092 42.3421 42.0716 42.126C41.667 41.4951 41.2073 40.7794 40.7623 40.3906C40.6745 40.3135 40.6207 40.2048 40.6128 40.0883C40.6048 39.9717 40.6434 39.8567 40.72 39.7685C40.7972 39.6807 40.906 39.6271 41.0225 39.6194C41.1391 39.6116 41.254 39.6504 41.3421 39.7271C41.8816 40.1996 42.3757 40.9694 42.8128 41.6496C42.9536 41.8681 43.0884 42.0798 43.2193 42.2717C43.5501 42.7541 43.9921 43.7207 44.4616 44.7425C44.7825 45.4454 45.1054 46.1502 45.3771 46.6601C46.012 47.8492 48.1826 52.963 48.3243 53.6836C48.4474 54.3175 48.1826 54.8638 47.901 55.4417C47.8292 55.5913 47.7524 55.7478 47.6786 55.9142C47.3931 56.5639 47.4679 58.6616 47.585 59.2492C47.7297 59.9747 47.5161 62.6857 47.3124 64.2823C47.1096 65.877 47.3862 67.9856 47.5437 68.4955C47.6766 68.9286 48.0743 69.3155 48.5576 69.4818C48.9956 69.6324 49.6345 69.9996 50.1976 70.3225C50.5224 70.5095 50.8059 70.6749 50.9654 70.7438C51.181 70.8353 51.9301 70.8097 52.3337 70.7979C52.5719 70.7901 52.7776 70.7841 52.9076 70.791C53.57 70.8235 54.0839 71.4614 54.0839 71.989C54.0839 72.4261 53.9412 72.7165 53.6212 72.9291C53.3377 73.1181 51.932 73.5886 50.9339 73.7953C49.8087 74.0257 48.0743 73.7786 47.1371 73.6123C46.7434 73.5434 46.4638 73.6142 46.077 73.7146C45.6838 73.828 45.2795 73.8986 44.8711 73.9253C44.6851 73.9351 44.5207 73.942 44.374 73.942Z" fill="black"/>
<path d="M66.3995 43.1754L65.1641 44.9079L66.8247 46.3697L68.1782 47.6002C68.1782 47.6002 68.5011 47.5391 68.4706 47.2773C68.4401 47.0164 68.9628 47.1395 69.0248 47.047C69.0858 46.9544 69.64 46.6316 69.6863 46.5243C69.7316 46.416 70.27 46.2782 70.2858 46.1551C70.3015 46.0321 70.148 44.9246 70.148 44.9246L69.455 44.3242L68.2402 44.0171L66.3995 43.1754Z" fill="#2E2B57"/>
<path d="M66.4209 43.1754L65.1855 44.9079L66.8472 46.3697L68.2007 47.6002C68.2007 47.6002 68.9774 47.3078 68.9468 47.047C68.9311 46.916 68.2637 46.4869 67.8542 45.9248C67.3669 45.2534 67.1277 44.4206 67.5599 43.7129L67.5874 43.6676L66.4219 43.1754H66.4209Z" fill="#30384C"/>
<path d="M47.9833 54.6493C47.8941 54.6496 47.8068 54.6228 47.7332 54.5725C47.6595 54.5221 47.6029 54.4505 47.5709 54.3672C47.5388 54.2839 47.5329 54.1928 47.5538 54.1061C47.5747 54.0193 47.6215 53.941 47.688 53.8814C48.7167 52.9532 51.466 50.445 51.8283 50.0099C52.1088 49.6732 52.1512 48.4083 51.3804 47.3521C50.7327 46.4652 45.7242 42.7462 43.8489 41.3887C43.795 41.3493 43.7507 41.2981 43.7194 41.239C43.6881 41.1799 43.6706 41.1145 43.6682 41.0477C43.6659 40.9809 43.6787 40.9144 43.7057 40.8533C43.7328 40.7922 43.7733 40.738 43.8243 40.6948C43.9671 40.5747 47.3386 37.7584 48.7521 36.9669C50.1243 36.2001 53.109 34.3977 53.1385 34.38C53.2382 34.3258 53.3549 34.3122 53.4644 34.3418C53.5739 34.3715 53.6678 34.4423 53.7265 34.5394C53.7852 34.6365 53.8042 34.7524 53.7795 34.8632C53.7549 34.9739 53.6886 35.0709 53.5943 35.134C53.5647 35.1527 50.5673 36.961 49.1833 37.7367C48.127 38.3254 45.7941 40.2134 44.8254 41.0107C46.4516 42.1969 51.345 45.8096 52.0921 46.8333C52.9692 48.0362 53.1631 49.7845 52.5055 50.5739C52.037 51.135 48.6616 54.1896 48.2786 54.5361C48.1978 54.6093 48.0924 54.6497 47.9833 54.6493Z" fill="#231F20"/>
<path d="M47.6136 69.4464L61.1074 55.5214L61.4352 55.9722L63.2406 61.6324L67.0137 66.8004L63.6501 58.3928L62.3379 53.5526L61.3122 50.3121L60.2048 47.1956L59.5078 48.3847L58.8109 49.9843L51.8376 50.9687L47.7977 51.4914L47.3055 52.0456L47.8597 52.7839L58.2567 51.6764L59.3946 52.6303L59.3651 54.0448L56.596 57.7362L51.4281 63.2734L48.6797 66.1448L46.834 67.8674L47.6136 69.4464Z" fill="#E6E7E8"/>
<path d="M70.1523 48.5786C70.067 48.578 69.9838 48.5528 69.9126 48.506C69.8413 48.4591 69.7852 48.3927 69.7508 48.3147C69.7165 48.2366 69.7055 48.1503 69.7191 48.0662C69.7327 47.982 69.7703 47.9036 69.8274 47.8403C69.9614 47.6931 70.0888 47.54 70.2094 47.3816C70.2684 47.2615 70.3177 46.6404 70.2763 46.0133C70.2537 45.7111 69.4878 44.651 69.1541 44.461C68.9445 44.3409 68.1678 44.2375 67.5673 44.211C67.4653 44.2061 67.3682 44.1659 67.2926 44.0973C67.217 44.0287 67.1676 43.9359 67.1529 43.8349C67.0022 43.7274 66.8447 43.6297 66.6814 43.5426C66.5936 43.6007 66.489 43.6282 66.384 43.6207C66.2789 43.6132 66.1793 43.5712 66.1006 43.5012C66.0002 43.4077 63.616 41.2214 62.9122 40.4339C62.5362 40.0136 61.1955 39.0016 60.1186 38.1886C59.1381 37.4483 58.576 37.0201 58.4018 36.8272C58.0947 36.4856 56.0885 33.8701 55.681 32.4713C55.4743 31.7576 54.925 29.8637 54.3265 29.3065C53.915 28.9226 52.9247 28.7573 52.5782 28.7258C52.5207 28.7207 52.4647 28.7043 52.4135 28.6775C52.3622 28.6508 52.3168 28.6142 52.2798 28.5698C52.2427 28.5255 52.2148 28.4742 52.1976 28.4191C52.1804 28.3639 52.1743 28.3059 52.1796 28.2483C52.2002 28.0062 52.4394 27.8162 52.656 27.8497C52.8145 27.8625 54.2212 28.0042 54.9289 28.6628C55.6091 29.2977 56.1003 30.7496 56.5276 32.2252C56.8691 33.4025 58.7158 35.8585 59.0564 36.2375C59.1824 36.3773 59.962 36.966 60.6491 37.4857C61.8146 38.3648 63.1357 39.3619 63.5688 39.8462C64.1309 40.4753 65.9077 42.1241 66.5012 42.6714C66.7059 42.6337 66.9173 42.6678 67.0997 42.7679C67.5663 43.0199 67.7986 43.202 67.9158 43.3486C68.3873 43.3851 69.2083 43.4766 69.5902 43.6951C70.1021 43.9885 71.1121 45.2898 71.1554 45.9572C71.1849 46.41 71.2193 47.5037 70.9152 47.9102C70.7763 48.0916 70.6301 48.2673 70.4771 48.4369C70.4357 48.4816 70.3854 48.5173 70.3295 48.5417C70.2736 48.5661 70.2133 48.5787 70.1523 48.5786Z" fill="#231F20"/>
<path d="M55.7953 51.9117L56.6979 50.2097L54.2773 50.6202L52.9238 52.4659L55.7953 51.9117Z" fill="#2E2B57"/>
<path d="M53.1028 52.3636L54.5449 50.6606L50.6783 51.0711L48.5156 52.9168L53.1028 52.3636Z" fill="#30384C"/>
<path d="M57.6613 58.6153L57.2548 56.7312L55.668 58.6045L55.8215 60.8882L57.6613 58.6153Z" fill="#2E2B57"/>
<path d="M55.8912 60.6943L55.8971 58.4637L53.2039 61.2692L52.7383 64.0727L55.8912 60.6943Z" fill="#30384C"/>
<path d="M50.7297 62.9456L49.3555 61.7555L50.0741 60.1362L51.7554 58.7L52.4937 58.0444L53.3757 56.937L54.6061 57.2647L55.18 58.2078L54.5234 59.0287C54.5234 59.0287 53.9495 59.0287 53.8265 59.2945C53.7035 59.5613 53.9702 60.2996 53.9702 60.2996C53.9702 60.2996 52.6167 61.9819 52.535 62.0636C52.4523 62.1453 50.7297 62.9456 50.7297 62.9456Z" fill="#2E2B57"/>
<path d="M47.0909 52.0859C46.9802 52.0844 46.8741 52.0412 46.7938 51.965C46.7134 51.8888 46.6647 51.7851 46.6572 51.6746C46.6498 51.5641 46.6842 51.4549 46.7536 51.3686C46.823 51.2823 46.9223 51.2253 47.0319 51.2089C50.1248 50.7816 58.2537 49.6516 58.7213 49.5531C59.0609 49.4813 59.2332 49.2637 59.2332 48.9074C59.2332 48.6062 58.8916 47.6376 58.6504 47.044C58.6286 46.9905 58.6175 46.9332 58.6178 46.8754C58.6181 46.8176 58.6298 46.7604 58.6522 46.7071C58.6746 46.6538 58.7072 46.6054 58.7483 46.5648C58.7894 46.5241 58.8381 46.4919 58.8916 46.4701C58.9451 46.4482 59.0024 46.4371 59.0602 46.4374C59.118 46.4377 59.1752 46.4494 59.2285 46.4718C59.2818 46.4942 59.3301 46.5269 59.3708 46.568C59.4115 46.609 59.4436 46.6577 59.4655 46.7113C59.5738 46.977 60.1132 48.3276 60.1132 48.9074C60.1132 49.6801 59.6496 50.258 58.9024 50.4145C58.3098 50.5395 47.6067 52.019 47.1519 52.082C47.1317 52.0847 47.1113 52.086 47.0909 52.0859ZM48.0763 67.1892C47.9908 67.1884 47.9074 67.1628 47.8362 67.1155C47.765 67.0682 47.709 67.0013 47.675 66.9228C47.641 66.8444 47.6306 66.7578 47.6448 66.6735C47.6591 66.5892 47.6975 66.5109 47.7554 66.448C47.8302 66.3673 55.2937 58.4165 57.5519 56.2203C59.2844 54.5341 59.1544 53.8303 59.0274 53.1491C58.9951 52.9877 58.9714 52.8247 58.9566 52.6608C58.929 52.2582 58.7499 52.1932 58.3167 52.1312L58.1789 52.1096C57.7487 52.1096 51.7864 52.9187 47.8922 53.466C47.7778 53.4795 47.6626 53.4476 47.5714 53.3773C47.4802 53.3069 47.4201 53.2037 47.404 53.0896C47.3879 52.9755 47.4171 52.8597 47.4854 52.7668C47.5536 52.674 47.6555 52.6116 47.7691 52.5929C54.5082 51.6479 58.0578 51.201 58.3374 51.2423L58.4427 51.2591C58.802 51.3112 59.7559 51.4481 59.8356 52.5988C59.8445 52.7297 59.8691 52.8567 59.8937 52.9886C60.0817 53.9996 60.0807 54.9889 58.1651 56.8513C55.9217 59.0346 48.472 66.9707 48.3972 67.0514C48.356 67.0951 48.3063 67.13 48.2511 67.1537C48.1958 67.1774 48.1364 67.1895 48.0763 67.1892Z" fill="#231F20"/>
<path d="M65.3249 51.388C65.0903 51.3894 64.8561 51.3673 64.626 51.3221C64.5169 51.2927 64.4233 51.2226 64.3644 51.1262C64.3055 51.0298 64.2858 50.9145 64.3094 50.8041C64.333 50.6936 64.3981 50.5965 64.4913 50.5326C64.5844 50.4687 64.6985 50.443 64.81 50.4607C64.8632 50.4726 66.1271 50.7324 66.9934 49.8839C67.5683 49.3228 67.9443 48.2833 67.5496 47.5864C67.3104 47.167 66.8447 46.9948 66.3949 46.8284C65.4755 46.4898 64.6132 46.5823 64.0531 46.7201L59.4757 47.9181C59.3628 47.9477 59.2427 47.9313 59.1419 47.8724C59.0411 47.8135 58.9679 47.717 58.9382 47.6041C58.9086 47.4912 58.925 47.3711 58.9839 47.2703C59.0428 47.1695 59.1393 47.0962 59.2523 47.0666L63.8365 45.8667C64.8199 45.6265 65.8082 45.6737 66.7 46.0025C67.2129 46.1915 67.9157 46.4514 68.3144 47.1513C68.9493 48.2685 68.4256 49.7165 67.6086 50.5149C66.8674 51.2404 65.949 51.388 65.3249 51.388Z" fill="#231F20"/>
<path d="M39.37 51.892L40.3839 51.83L40.7777 53.3253L39.3385 55.798L32.1408 67.1341L42.9384 69.4257L42.4757 70.5952L36.3549 69.8411L31.0638 67.8419L31.0176 66.1192L39.37 51.892Z" fill="#E6E7E8"/>
<path d="M42.4254 58.8536C42.3322 58.8535 42.2414 58.824 42.1661 58.7691C42.0908 58.7143 42.0347 58.637 42.006 58.5484L39.6898 51.4127C39.6718 51.3578 39.6648 51.2999 39.6693 51.2423C39.6737 51.1848 39.6894 51.1286 39.7156 51.0772C39.7417 51.0257 39.7778 50.9799 39.8217 50.9423C39.8655 50.9048 39.9164 50.8763 39.9713 50.8585C40.2026 50.7797 40.4517 50.9077 40.5265 51.14L42.8437 58.2767C42.8398 58.509 42.7925 58.7571 42.5602 58.8319C42.5163 58.8462 42.4715 58.8535 42.4254 58.8536Z" fill="#231F20"/>
<path d="M42.5639 71.0913L34.1968 69.7998C33.359 69.6709 30.5841 69.1915 30.083 68.4394C29.5712 67.6716 30.2445 66.5494 30.3223 66.4234L39.7723 50.6596C39.8151 50.5882 39.8773 50.5304 39.9517 50.4929C40.026 50.4553 40.1095 50.4396 40.1924 50.4476C40.2753 50.4555 40.3542 50.4867 40.4201 50.5377C40.486 50.5886 40.5361 50.6572 40.5647 50.7354L41.3541 52.9099C41.3767 52.9729 41.3848 53.0401 41.3776 53.1066C41.3705 53.1731 41.3483 53.2371 41.3128 53.2938L32.5912 67.2306L43.1319 68.9296C43.2472 68.9482 43.3504 69.0117 43.4188 69.1063C43.4872 69.2009 43.5152 69.3188 43.4966 69.4341C43.4781 69.5494 43.4145 69.6526 43.3199 69.721C43.2253 69.7893 43.1074 69.8174 42.9921 69.7988L31.7949 67.9945C31.7231 67.9831 31.6552 67.9541 31.5974 67.9099C31.5397 67.8657 31.4939 67.8078 31.4641 67.7415C31.4338 67.6754 31.4205 67.6028 31.4253 67.5303C31.4301 67.4577 31.4529 67.3876 31.4917 67.3261L40.4525 53.0083L40.0508 51.9068L31.0733 66.8841C30.8765 67.203 30.6796 67.7464 30.8164 67.9511C31.0349 68.215 32.6788 68.6747 34.3306 68.9286L42.6978 70.2211L42.5639 71.0913Z" fill="#231F20"/>
<path d="M42.3949 65.7235C42.3949 65.7235 41.2137 65.1014 40.6851 64.7913C40.1171 64.4576 37.414 62.9289 36.8135 62.7005C35.8981 62.351 35.6992 61.029 35.6992 60.7199C35.6992 60.6031 35.7456 60.491 35.8282 60.4084C35.9109 60.3258 36.0229 60.2794 36.1397 60.2794C36.2566 60.2794 36.3686 60.3258 36.4512 60.4084C36.5338 60.491 36.5802 60.6031 36.5802 60.7199C36.5802 60.9562 36.7742 61.7437 37.1275 61.8775C37.8294 62.1443 40.6811 63.7675 41.131 64.0314C41.6478 64.3355 42.8044 64.9439 42.8044 64.9449L42.3949 65.7235ZM49.7659 71.0657C49.7032 71.066 49.6412 71.0528 49.584 71.0271C49.5268 71.0013 49.4757 70.9637 49.4343 70.9166C49.3929 70.8695 49.3621 70.814 49.3439 70.754C49.3257 70.694 49.3206 70.6308 49.3289 70.5686C49.4424 69.7026 49.2363 68.8249 48.7493 68.0999C48.2622 67.3749 47.5275 66.8524 46.6829 66.6301C46.5722 66.5987 46.4783 66.5252 46.4211 66.4254C46.364 66.3256 46.3482 66.2073 46.3771 66.096C46.4061 65.9847 46.4775 65.8891 46.576 65.8298C46.6746 65.7705 46.7924 65.7521 46.9044 65.7786C47.9562 66.0551 48.8712 66.7055 49.478 67.6081C50.0848 68.5106 50.3419 69.6034 50.201 70.6818C50.1876 70.7878 50.136 70.8852 50.056 70.9559C49.9759 71.0265 49.8728 71.0656 49.7659 71.0657ZM67.3016 47.3482C67.2407 47.3485 67.1803 47.3361 67.1244 47.3119C67.0685 47.2877 67.0182 47.2521 66.9768 47.2074C66.6076 46.8058 65.9402 46.1098 65.7236 45.9484C65.6252 45.8746 65.3968 45.719 65.1163 45.529C64.2333 44.9266 63.4803 44.4069 63.2164 44.143C63.0038 43.9442 61.3166 42.9864 60.2003 42.3525C59.2848 41.8327 58.4954 41.3848 58.1607 41.1663C57.2157 40.5511 55.4015 38.3333 54.6406 37.2829C53.8208 36.1694 52.989 35.0649 52.1452 33.9695L52.8441 33.433C52.8441 33.433 54.489 35.5721 55.3542 36.7652C56.2254 37.969 57.8969 39.9447 58.6421 40.427C58.9541 40.6318 59.7711 41.0954 60.6354 41.5866C62.7075 42.7629 63.6102 43.2916 63.8386 43.5209C64.065 43.7473 65.0336 44.4069 65.6124 44.8006C65.9077 45.0014 66.1499 45.1658 66.2523 45.2436C66.6037 45.5054 67.5221 46.4977 67.6255 46.6089C67.6829 46.6721 67.7208 46.7505 67.7346 46.8347C67.7484 46.9189 67.7375 47.0054 67.7032 47.0835C67.669 47.1617 67.6128 47.2283 67.5416 47.2753C67.4703 47.3222 67.387 47.3475 67.3016 47.3482Z" fill="#231F20"/>
<path d="M58.6878 22.4218C58.4769 22.1455 58.2116 21.9153 57.9082 21.7455C58.1838 21.7889 58.6278 21.8981 59.057 22.2171C59.5354 22.5724 60.0345 23.2172 59.872 23.483C59.8051 23.5922 59.6279 23.6365 59.4881 23.606C59.1239 23.5292 59.1121 22.9859 58.6878 22.4218Z" fill="#2E2B57"/>
<path d="M55.2082 22.476C55.035 22.4661 54.8194 22.4858 54.5684 22.5773C54.7003 22.4622 54.9326 22.2929 55.2584 22.2151C55.6226 22.1295 56.1345 22.1491 56.1965 22.3352C56.2221 22.411 56.1719 22.5143 56.101 22.5695C55.917 22.7132 55.6512 22.5006 55.2082 22.476ZM55.2082 23.1936C55.035 23.1837 54.8194 23.2034 54.5684 23.295C54.7003 23.1798 54.9326 23.0105 55.2584 22.9337C55.6226 22.8471 56.1345 22.8668 56.1965 23.0528C56.2221 23.1296 56.1719 23.232 56.101 23.2871C55.917 23.4308 55.6512 23.2182 55.2082 23.1936Z" fill="#546187"/>
<path d="M63.4665 57.3061L61.8245 58.3299L61.7832 57.3051L63.055 55.9103L63.4665 57.3061Z" fill="#2E2B57"/>
<path d="M64.532 63.7341L62.3171 59.3979L61.9785 57.9213L63.0554 57.0285L64.471 60.6589L66.1621 64.5038L64.532 63.7341Z" fill="#30384C"/>
<path d="M36.9691 59.7966C36.8797 59.7959 36.7926 59.7681 36.7193 59.7168C36.646 59.6655 36.5901 59.5932 36.5589 59.5093C36.5277 59.4255 36.5228 59.3342 36.5447 59.2475C36.5666 59.1608 36.6144 59.0828 36.6817 59.0238L41.1527 55.168C41.1961 55.1279 41.2471 55.0969 41.3028 55.0769C41.3584 55.0569 41.4175 55.0483 41.4765 55.0517C41.5355 55.055 41.5932 55.0702 41.6462 55.0964C41.6992 55.1225 41.7464 55.1591 41.785 55.2039C41.8236 55.2487 41.8527 55.3008 41.8707 55.3571C41.8887 55.4134 41.8952 55.4727 41.8897 55.5316C41.8843 55.5904 41.867 55.6476 41.839 55.6996C41.811 55.7516 41.7727 55.7975 41.7266 55.8345L37.2575 59.6903C37.1776 59.7599 37.0751 59.797 36.9691 59.7966ZM40.7225 61.3755C40.6362 61.3752 40.5519 61.3496 40.48 61.3019C40.4081 61.2542 40.3518 61.1864 40.3181 61.1069C40.2843 61.0275 40.2746 60.9399 40.2902 60.855C40.3057 60.7701 40.3459 60.6917 40.4056 60.6293L42.1282 58.8457C42.2985 58.6704 42.4186 58.6685 42.5929 58.8338C42.6768 58.9151 42.7252 59.0263 42.7272 59.1432C42.7292 59.26 42.6848 59.3729 42.6037 59.457L41.0395 61.2406C40.9985 61.2833 40.9492 61.3172 40.8948 61.3404C40.8403 61.3636 40.7817 61.3755 40.7225 61.3755ZM49.2128 68.3902C49.126 68.391 49.0409 68.3661 48.9682 68.3186C48.8956 68.2711 48.8387 68.2031 48.8046 68.1233C48.7706 68.0434 48.761 67.9553 48.7771 67.87C48.7931 67.7847 48.8341 67.706 48.8948 67.644L60.789 55.2163C60.8433 55.159 60.912 55.1174 60.9879 55.0959C61.0638 55.0744 61.1441 55.0737 61.2204 55.0939C61.2966 55.1142 61.366 55.1546 61.4212 55.2109C61.4765 55.2673 61.5155 55.3375 61.5342 55.4141C61.5441 55.4565 62.5973 59.642 63.6211 61.4129C63.9971 62.0626 64.6645 62.9613 65.3654 63.8463C65.1163 63.3344 64.8712 62.8127 64.6527 62.3126C63.6388 60.0092 61.1011 51.8153 60.9938 51.4678C60.9003 51.1823 60.0832 48.5757 60.789 47.2054C60.9879 46.8186 61.3009 46.5498 61.6937 46.4268C61.8994 46.3618 62.3168 46.2575 62.7115 46.159C62.995 46.0891 63.2657 46.0212 63.4242 45.9769C63.5345 45.9515 63.6504 45.9694 63.7478 46.027C63.8452 46.0846 63.9168 46.1775 63.9476 46.2864C63.9785 46.3953 63.9663 46.5119 63.9136 46.6121C63.8609 46.7122 63.7716 46.7883 63.6644 46.8245C63.5 46.8717 63.2195 46.9406 62.9241 47.0145C62.5501 47.107 62.1524 47.2054 61.9565 47.2665C61.8719 47.2936 61.7939 47.3382 61.7276 47.3974C61.6613 47.4566 61.6082 47.529 61.5716 47.61C61.1149 48.4969 61.6061 50.5041 61.8335 51.201C61.862 51.2926 64.4647 59.7001 65.4579 61.9573C66.4541 64.2203 67.9779 66.9697 67.9937 66.9973C68.0444 67.0922 68.0587 67.2024 68.034 67.3071C68.0093 67.4119 67.9472 67.504 67.8593 67.5662C67.7715 67.6285 67.664 67.6565 67.557 67.6451C67.4499 67.6336 67.3508 67.5836 67.278 67.5042C67.1422 67.3497 63.9341 63.7163 62.8582 61.8539C62.0412 60.4394 61.2438 57.7235 60.8816 56.3946L49.5307 68.2523C49.4896 68.2955 49.4401 68.3298 49.3853 68.3532C49.3304 68.3765 49.2714 68.3884 49.2118 68.3882L49.2128 68.3902Z" fill="#231F20"/>
<path d="M31.7211 69.8628C32.9704 69.8628 33.9832 68.85 33.9832 67.6007C33.9832 66.3514 32.9704 65.3386 31.7211 65.3386C30.4718 65.3386 29.459 66.3514 29.459 67.6007C29.459 68.85 30.4718 69.8628 31.7211 69.8628Z" fill="#30384C"/>
<path d="M31.7211 70.355C30.9908 70.3545 30.2905 70.0641 29.7741 69.5477C29.2577 69.0313 28.9673 68.331 28.9668 67.6007C28.9678 66.8706 29.2584 66.1706 29.7747 65.6543C30.291 65.138 30.9909 64.8475 31.7211 64.8464C32.4512 64.8475 33.1512 65.138 33.6675 65.6543C34.1838 66.1706 34.4743 66.8706 34.4754 67.6007C34.4743 68.331 34.1837 69.0312 33.6671 69.5475C33.1506 70.0638 32.4514 70.3542 31.7211 70.355ZM31.7211 65.8308C31.2518 65.8313 30.8019 66.018 30.4701 66.3498C30.1383 66.6816 29.9517 67.1315 29.9512 67.6007C29.9517 68.0698 30.1382 68.5195 30.4698 68.8513C30.8014 69.1831 31.251 69.3698 31.7201 69.3706C32.1897 69.3706 32.6401 69.1842 32.9723 68.8523C33.3045 68.5205 33.4914 68.0703 33.492 67.6007C33.4914 67.1311 33.3045 66.6809 32.9723 66.3491C32.6401 66.0172 32.1907 65.8308 31.7211 65.8308Z" fill="#231F20"/>
<path d="M53.2285 57.3976C53.2285 57.3976 53.9048 57.6752 54.2129 58.0749C54.52 58.4745 54.7198 58.7827 54.7198 58.7827L55.1825 58.2078L54.6076 57.2647L53.5671 56.9832L53.2285 57.3976Z" fill="#30384C"/>
<path d="M67.4524 68.8637C68.1499 68.8637 68.7154 68.2982 68.7154 67.6007C68.7154 66.9032 68.1499 66.3378 67.4524 66.3378C66.7549 66.3378 66.1895 66.9032 66.1895 67.6007C66.1895 68.2982 66.7549 68.8637 67.4524 68.8637Z" fill="#30384C"/>
<path d="M67.4527 69.3568C66.4851 69.3568 65.6976 68.5693 65.6976 67.6007C65.6976 66.6331 66.4851 65.8446 67.4527 65.8446C68.4214 65.8446 69.2089 66.6331 69.2089 67.6007C69.2089 68.5693 68.4214 69.3568 67.4527 69.3568ZM67.4527 66.8289C67.2548 66.8389 67.0683 66.9246 66.9317 67.0683C66.7951 67.2119 66.719 67.4025 66.719 67.6007C66.719 67.7989 66.7951 67.9895 66.9317 68.1331C67.0683 68.2768 67.2548 68.3624 67.4527 68.3724C67.6574 68.3724 67.8537 68.2911 67.9984 68.1464C68.1432 68.0017 68.2245 67.8054 68.2245 67.6007C68.2245 67.396 68.1432 67.1997 67.9984 67.055C67.8537 66.9103 67.6574 66.8289 67.4527 66.8289ZM51.1003 63.673C51.0052 63.6731 50.9126 63.6424 50.8365 63.5854C48.7634 62.035 48.725 61.8825 48.6846 61.72C48.539 61.1461 50.236 59.6351 50.3906 59.5574C50.7587 59.3733 51.4635 59.2424 51.7815 59.6656C51.8514 59.7595 51.8813 59.8772 51.8647 59.993C51.8481 60.1088 51.7863 60.2134 51.6929 60.2838C51.6124 60.3429 51.5143 60.3732 51.4145 60.3698C51.3147 60.3664 51.2189 60.3296 51.1426 60.2651C51.0184 60.2609 50.895 60.2883 50.7843 60.3449C50.6022 60.4571 49.9446 61.1619 49.6552 61.5399C49.9948 61.8332 50.7253 62.4022 51.3641 62.8796C51.4386 62.9349 51.4937 63.0122 51.5216 63.1006C51.5495 63.189 51.5487 63.2839 51.5195 63.3719C51.4902 63.4598 51.434 63.5363 51.3587 63.5904C51.2834 63.6445 51.193 63.6734 51.1003 63.673Z" fill="#231F20"/>
<path d="M50.853 60.145C50.7667 60.1457 50.682 60.1209 50.6097 60.0737C50.5374 60.0264 50.4806 59.959 50.4464 59.8796C50.4123 59.8003 50.4023 59.7126 50.4177 59.6277C50.4331 59.5427 50.4733 59.4641 50.5331 59.4018L51.99 57.8643C52.0638 57.7855 52.1672 57.7363 52.2755 57.7274C52.369 57.7196 52.4832 57.6979 52.558 57.6762C52.555 57.6193 52.5478 57.5627 52.5363 57.5069C52.5196 57.4309 52.5231 57.3518 52.5464 57.2776C52.5697 57.2033 52.612 57.1365 52.6692 57.0836L53.3858 56.4271C53.5236 56.2991 53.7304 56.2755 53.8977 56.368L54.5513 56.7303L54.7699 56.5413C54.8137 56.5034 54.8645 56.4745 54.9195 56.4563C54.9745 56.4381 55.0325 56.4308 55.0903 56.435C55.1481 56.4393 55.2044 56.4548 55.2562 56.4808C55.308 56.5068 55.3541 56.5427 55.392 56.5865C55.4299 56.6304 55.4587 56.6812 55.477 56.7362C55.4952 56.7912 55.5024 56.8492 55.4982 56.907C55.494 56.9647 55.4785 57.0211 55.4525 57.0729C55.4265 57.1246 55.3905 57.1708 55.3467 57.2087L54.8939 57.5985C54.8254 57.6572 54.7406 57.6936 54.6509 57.7028C54.5612 57.7119 54.4708 57.6934 54.3919 57.6497L53.7461 57.2913L53.4341 57.5768C53.4459 57.752 53.4311 57.9735 53.3297 58.1566C53.1791 58.4273 52.8336 58.5415 52.5176 58.5868L51.173 60.0082C51.1318 60.0517 51.0822 60.0864 51.0272 60.1101C50.9722 60.1337 50.9129 60.145 50.853 60.145ZM50.9564 20.77H40.4954C40.3787 20.77 40.2668 20.7237 40.1843 20.6412C40.1018 20.5586 40.0554 20.4467 40.0554 20.33C40.0554 20.2133 40.1018 20.1014 40.1843 20.0189C40.2668 19.9364 40.3787 19.89 40.4954 19.89H50.9564C51.0731 19.89 51.185 19.9364 51.2675 20.0189C51.3501 20.1014 51.3964 20.2133 51.3964 20.33C51.3964 20.4467 51.3501 20.5586 51.2675 20.6412C51.185 20.7237 51.0731 20.77 50.9564 20.77ZM46.443 22.8175C46.3853 22.8177 46.328 22.8064 46.2746 22.7844C46.2211 22.7624 46.1726 22.7301 46.1316 22.6894C46.0489 22.607 46.0023 22.4952 46.002 22.3785C46.0018 22.2618 46.0479 22.1498 46.1302 22.0671C46.2126 21.9844 46.3244 21.9378 46.4411 21.9375L50.9544 21.9198H50.9564C51.0732 21.9197 51.1853 21.966 51.268 22.0485C51.3507 22.131 51.3973 22.243 51.3974 22.3598C51.3975 22.4766 51.3512 22.5887 51.2687 22.6714C51.1862 22.7541 51.0742 22.8007 50.9574 22.8008L46.445 22.8175H46.443ZM79.708 79.1878H19.291C19.1605 79.1878 19.0353 79.1359 18.943 79.0436C18.8507 78.9513 18.7988 78.8261 18.7988 78.6956C18.7988 78.5651 18.8507 78.4399 18.943 78.3476C19.0353 78.2553 19.1605 78.2034 19.291 78.2034H79.708C79.8386 78.2034 79.9637 78.2553 80.0561 78.3476C80.1484 78.4399 80.2002 78.5651 80.2002 78.6956C80.2002 78.8261 80.1484 78.9513 80.0561 79.0436C79.9637 79.1359 79.8386 79.1878 79.708 79.1878Z" fill="#231F20"/>
</svg>
