<svg width="20" height="24" viewBox="0 0 20 24" fill="none" xmlns="http://www.w3.org/2000/svg">
<path d="M10 11.7C10.6042 11.7 11.1198 11.495 11.5469 11.085C11.974 10.675 12.1875 10.18 12.1875 9.6C12.1875 9.02 11.974 8.525 11.5469 8.115C11.1198 7.705 10.6042 7.5 10 7.5C9.39583 7.5 8.88021 7.705 8.45312 8.115C8.02604 8.525 7.8125 9.02 7.8125 9.6C7.8125 10.18 8.02604 10.675 8.45312 11.085C8.88021 11.495 9.39583 11.7 10 11.7ZM10 21.63C12.7708 19.21 14.8177 17.015 16.1406 15.045C17.4635 13.075 18.125 11.34 18.125 9.84C18.125 7.48 17.3385 5.55 15.7656 4.05C14.1927 2.55 12.2708 1.8 10 1.8C7.72917 1.8 5.80729 2.55 4.23438 4.05C2.66146 5.55 1.875 7.48 1.875 9.84C1.875 11.34 2.55208 13.075 3.90625 15.045C5.26042 17.015 7.29167 19.21 10 21.63ZM10 24C6.64583 21.26 4.14063 18.715 2.48438 16.365C0.828125 14.015 0 11.84 0 9.84C0 6.84 1.00521 4.45 3.01562 2.67C5.02604 0.89 7.35417 0 10 0C12.6458 0 14.974 0.89 16.9844 2.67C18.9948 4.45 20 6.84 20 9.84C20 11.84 19.1719 14.015 17.5156 16.365C15.8594 18.715 13.3542 21.26 10 24Z" fill="url(#paint0_linear_494_455)"/>
<defs>
<linearGradient id="paint0_linear_494_455" x1="10" y1="0" x2="10" y2="24" gradientUnits="userSpaceOnUse">
<stop stop-color="#FBB29C"/>
<stop offset="1" stop-color="#BD6BFC"/>
</linearGradient>
</defs>
</svg>
