<svg width="20" height="20" viewBox="0 0 20 20" fill="none" xmlns="http://www.w3.org/2000/svg">
<path d="M16.4164 12.8572C15.8774 12.8611 15.3463 12.9872 14.8629 13.226C14.3796 13.4647 13.9566 13.81 13.6256 14.2357L7.00196 10.9214C7.08716 10.6215 7.13275 10.3118 7.13757 10C7.13275 9.68826 7.08716 9.37849 7.00196 9.07859L13.6256 5.7643C13.9566 6.19008 14.3796 6.53531 14.8629 6.77407C15.3463 7.01283 15.8774 7.13892 16.4164 7.14287C17.1223 7.14287 17.8122 6.93341 18.3991 6.54097C18.986 6.14854 19.4434 5.59076 19.7135 4.93816C19.9837 4.28557 20.0543 3.56747 19.9166 2.87468C19.7789 2.18189 19.439 1.54552 18.9399 1.04605C18.4408 0.546576 17.8049 0.20643 17.1126 0.0686257C16.4204 -0.0691788 15.7028 0.00154745 15.0507 0.271861C14.3986 0.542174 13.8412 0.999934 13.4491 1.58725C13.0569 2.17457 12.8476 2.86507 12.8476 3.57144C12.8524 3.88319 12.898 4.19296 12.9832 4.49287L6.35958 7.80716C6.02863 7.38137 5.6056 7.03614 5.12226 6.79738C4.63891 6.55862 4.1078 6.43253 3.56879 6.42858C2.62228 6.42858 1.71455 6.80486 1.04527 7.47463C0.375996 8.1444 0 9.05281 0 10C0 10.9472 0.375996 11.8556 1.04527 12.5254C1.71455 13.1952 2.62228 13.5714 3.56879 13.5714C4.1078 13.5675 4.63891 13.4414 5.12226 13.2026C5.6056 12.9639 6.02863 12.6187 6.35958 12.1929L12.9832 15.5072C12.7907 16.2286 12.829 16.9923 13.0928 17.6908C13.3565 18.3894 13.8324 18.9876 14.4535 19.4014C15.0746 19.8153 15.8097 20.0238 16.5554 19.9978C17.3012 19.9718 18.02 19.7126 18.6108 19.2565C19.2017 18.8005 19.6348 18.1705 19.8493 17.4553C20.0639 16.7401 20.049 15.9756 19.8068 15.2693C19.5646 14.563 19.1072 13.9505 18.4991 13.5178C17.891 13.0851 17.1626 12.8541 16.4164 12.8572ZM16.4164 1.42858C16.8399 1.42858 17.2539 1.55425 17.606 1.78971C17.9582 2.02517 18.2326 2.35984 18.3947 2.7514C18.5568 3.14295 18.5992 3.57381 18.5165 3.98949C18.4339 4.40516 18.23 4.78698 17.9305 5.08667C17.6311 5.38635 17.2495 5.59044 16.8342 5.67312C16.4188 5.7558 15.9883 5.71337 15.597 5.55118C15.2057 5.38899 14.8713 5.11434 14.636 4.76194C14.4007 4.40955 14.2751 3.99525 14.2751 3.57144C14.2751 3.00311 14.5007 2.45807 14.9023 2.0562C15.3039 1.65434 15.8485 1.42858 16.4164 1.42858ZM3.56879 12.1429C3.14528 12.1429 2.73129 12.0172 2.37916 11.7817C2.02703 11.5463 1.75258 11.2116 1.59051 10.8201C1.42844 10.4285 1.38604 9.99764 1.46866 9.58196C1.55128 9.16629 1.75522 8.78447 2.05468 8.48478C2.35414 8.1851 2.73568 7.98101 3.15104 7.89833C3.56641 7.81565 3.99695 7.85808 4.38821 8.02027C4.77948 8.18246 5.1139 8.45712 5.34919 8.80951C5.58447 9.1619 5.71006 9.5762 5.71006 10C5.71006 10.5683 5.48446 11.1134 5.08289 11.5152C4.68133 11.9171 4.13669 12.1429 3.56879 12.1429ZM16.4164 18.5715C15.9929 18.5715 15.5789 18.4458 15.2268 18.2103C14.8747 17.9749 14.6002 17.6402 14.4381 17.2486C14.2761 16.8571 14.2337 16.4262 14.3163 16.0105C14.3989 15.5949 14.6028 15.213 14.9023 14.9134C15.2018 14.6137 15.5833 14.4096 15.9987 14.3269C16.414 14.2442 16.8446 14.2867 17.2358 14.4489C17.6271 14.611 17.9615 14.8857 18.1968 15.2381C18.4321 15.5905 18.5577 16.0048 18.5577 16.4286C18.5577 16.9969 18.3321 17.542 17.9305 17.9438C17.529 18.3457 16.9843 18.5715 16.4164 18.5715Z" fill="white"/>
</svg>
