<svg width="23" height="30" viewBox="0 0 23 30" fill="none" xmlns="http://www.w3.org/2000/svg">
<path d="M14.1647 13.8405C14.2812 13.9507 14.3998 14.0546 14.5206 14.1522C15.4549 14.9068 16.4528 15.2309 17.4035 15.2821C19.004 15.3685 20.4278 14.6492 21.0065 14.3568C21.0718 14.3238 21.1264 14.2962 21.1693 14.2759C21.8927 13.9322 22.2025 13.063 21.8613 12.3345C21.52 11.6061 20.6569 11.2941 19.9335 11.6378C19.8543 11.6755 19.7737 11.7146 19.6921 11.7543C19.0518 12.0655 18.3399 12.4116 17.5585 12.3694C17.1779 12.3489 16.7679 12.2282 16.3329 11.8768C15.8802 11.5111 15.3395 10.8448 14.8165 9.63688C14.3927 8.6579 13.7619 7.89929 12.8654 7.46883C12.0062 7.05631 11.0922 7.03859 10.2777 7.13594C8.09478 7.39693 6.43608 8.67168 5.30785 9.8555C4.37896 10.8302 3.68585 11.8877 3.34603 12.4062C3.27687 12.5118 3.22228 12.595 3.18339 12.6506C2.72286 13.3092 2.87963 14.219 3.5335 14.6828C4.18744 15.1466 5.0909 14.9888 5.55144 14.3302C5.63239 14.2145 5.72146 14.0795 5.82066 13.9294C6.18271 13.3808 6.67865 12.6297 7.39754 11.8753C7.96387 11.281 8.59789 10.7671 9.29615 10.4293C9.1346 10.8774 8.95126 11.3866 8.76559 11.9037C8.23005 13.3957 7.63324 15.0692 7.53701 15.4041C7.44917 15.71 7.47618 15.9715 7.49653 16.102C7.51948 16.2493 7.55815 16.3738 7.58914 16.4611C7.65105 16.6353 7.73295 16.7998 7.805 16.9329C7.95293 17.2064 8.15546 17.5222 8.37342 17.8427C8.81527 18.4924 9.41027 19.2912 10.0004 20.0635C10.5216 20.7457 11.0524 21.4245 11.4891 21.9829L11.664 22.2067C11.8984 22.5067 12.0945 22.7583 12.2388 22.947C12.3038 23.0321 12.348 23.0913 12.3765 23.1297C12.4045 23.2266 12.4402 23.3671 12.4828 23.5516C12.5674 23.9183 12.6649 24.3956 12.7677 24.9197C12.8338 25.2568 12.9026 25.616 12.9705 25.9711C13.1078 26.6876 13.2418 27.3881 13.3445 27.856C13.5172 28.6425 14.2902 29.1391 15.0712 28.9653C15.8521 28.7914 16.3453 28.0128 16.1727 27.2264C16.0783 26.7962 15.9581 26.1686 15.8267 25.4816C15.7568 25.1158 15.6835 24.733 15.6093 24.3544C15.5054 23.8251 15.4001 23.3079 15.304 22.8913C15.2562 22.6841 15.2069 22.4856 15.1578 22.3154C15.1222 22.1921 15.0474 21.9368 14.9213 21.715C14.8314 21.5568 14.6579 21.3299 14.5404 21.1762L14.5338 21.1677C14.3786 20.9646 14.1732 20.701 13.9402 20.4029L13.7641 20.1776C13.3267 19.6183 12.8063 18.9527 12.2959 18.2847C12.2398 18.2113 12.184 18.138 12.1285 18.065L14.1647 13.8405ZM9.04249 22.6779L6.97539 19.7843L6.38112 21.5046L2.77985 20.6523C2.00122 20.468 1.22173 20.9543 1.03874 21.7383C0.855748 22.5225 1.3386 23.3075 2.11722 23.4918L6.98878 24.6448C7.71079 24.8156 8.44424 24.4097 8.68797 23.7042L9.04249 22.6779Z" stroke="url(#paint0_linear_1477_255)" stroke-width="1.5" stroke-linecap="round" stroke-linejoin="round"/>
<path fill-rule="evenodd" clip-rule="evenodd" d="M17.4373 6.53916C18.6475 6.53916 19.6286 5.55811 19.6286 4.34785C19.6286 3.13763 18.6475 2.15655 17.4373 2.15655C16.2271 2.15655 15.246 3.13763 15.246 4.34785C15.246 5.55811 16.2271 6.53916 17.4373 6.53916ZM17.4373 8.00003C19.4544 8.00003 21.0895 6.36488 21.0895 4.34785C21.0895 2.33082 19.4544 0.695679 17.4373 0.695679C15.4203 0.695679 13.7852 2.33082 13.7852 4.34785C13.7852 6.36488 15.4203 8.00003 17.4373 8.00003Z" fill="url(#paint1_linear_1477_255)"/>
<defs>
<linearGradient id="paint0_linear_1477_255" x1="11.5" y1="7.08691" x2="11.5" y2="29" gradientUnits="userSpaceOnUse">
<stop stop-color="#FF9960"/>
<stop offset="1" stop-color="#7F37C8"/>
</linearGradient>
<linearGradient id="paint1_linear_1477_255" x1="17.4373" y1="0.695679" x2="17.4373" y2="8.00003" gradientUnits="userSpaceOnUse">
<stop stop-color="#FF9960"/>
<stop offset="1" stop-color="#802DB2"/>
</linearGradient>
</defs>
</svg>
